<svg xmlns="http://www.w3.org/2000/svg" width="143.041" height="106.367" viewBox="0 0 143.041 106.367">
  <g id="Group_1220" data-name="Group 1220" transform="translate(-515.172 -910.409)">
    <path id="Path_2774" data-name="Path 2774" d="M515.326,912.766c.172-.171.188-.137.446-.137.238,0,.238.1.5.1s.24-.085.5-.085c.238,0,.238-.017.494-.017s.241.017.5.017c.24,0,.24.085.5.085.24,0,.24-.067.5-.067.24,0,.24.016.5.016.238,0,.238.051.494.051s.241-.034.5-.034c.238,0,.238.016.5.016.24,0,.24.1.5.1.24,0,.24-.051.5-.051.238,0,.238.017.5.017.24,0,.24-.085.5-.085.237,0,.237-.034.494-.034.241,0,.241.05.5.05s.24.069.5.069c.238,0,.238-.069.5-.069.24,0,.24-.016.5-.016.238,0,.238-.034.494-.034s.241.118.5.118.24-.118.5-.118c.238,0,.238.05.5.05.24,0,.24.069.5.069s.238-.051.494-.051h.5c.257,0,.24-.051.5-.051s.24.034.5.034c.24,0,.24.051.5.051s.238.051.5.051c.24,0,.24-.034.494-.034s.241-.069.5-.069c.238,0,.238-.034.5-.034.24,0,.24.136.5.136.238,0,.238-.136.5-.136.24,0,.24.051.5.051.24,0,.24-.067.5-.067.24,0,.24.085.5.085.24,0,.24-.035.5-.035.238,0,.238.069.5.069.24,0,.24.034.5.034.24,0,.24-.085.5-.085.24,0,.24.034.5.034.24,0,.24-.016.5-.016s.238-.035.5-.035c.24,0,.24.018.5.018.238,0,.238.069.5.069h.5c.24,0,.24.016.5.016.238,0,.238-.136.5-.136.24,0,.24.136.5.136.238,0,.238-.136.5-.136.24,0,.24.12.5.12.24,0,.24.034.5.034.24,0,.24-.136.5-.136.24,0,.24.085.5.085.238,0,.238-.069.5-.069.24,0,.24.12.5.12.238,0,.238-.051.5-.051.238,0,.238-.051.5-.051.238,0,.238.1.494.1.238,0,.238-.051.5-.051.24,0,.24.017.5.017h.5c.24,0,.24.016.5.016.24,0,.24.017.5.017.24,0,.24-.051.5-.051.24,0,.24-.034.5-.034h.5c.24,0,.24-.035.5-.035.24,0,.24.12.5.12.24,0,.24-.069.5-.069.24,0,.24-.051.5-.051.238,0,.238.051.5.051.24,0,.24.017.5.017.238,0,.238.067.5.067.24,0,.24-.016.5-.016.24,0,.24-.12.5-.12s.241.051.5.051h.5c.238,0,.238.085.5.085.24,0,.24-.118.5-.118s.24.034.5.034c.24,0,.24-.051.5-.051.24,0,.24.069.5.069.238,0,.238-.085.5-.085s.24.1.5.1h.494c.24,0,.24-.051.5-.051s.241-.035.5-.035c.238,0,.238.154.5.154.24,0,.24-.136.5-.136.238,0,.238.1.5.1.24,0,.24-.085.5-.085.24,0,.24-.017.5-.017.238,0,.238.017.5.017.24,0,.24.05.5.05.238,0,.238.086.5.086.24,0,.24-.035.5-.035.24,0,.24-.034.5-.034.24,0,.24-.069.5-.069.24,0,.24.069.5.069.238,0,.238-.069.5-.069.24,0,.24.069.494.069s.241.017.5.017c.24,0,.24-.086.5-.086.24,0,.24.155.5.155.238,0,.238-.137.5-.137.24,0,.24-.035.5-.035.24,0,.24.069.5.069.238,0,.238.051.5.051.24,0,.24.035.5.035.238,0,.238-.12.5-.12.24,0,.24.137.5.137h.5c.238,0,.238-.1.5-.1s.24-.034.5-.034h.5c.24,0,.24.12.5.12.238,0,.238-.137.5-.137.238,0,.238.086.494.086s.241-.035.5-.035c.237,0,.237.051.494.051.24,0,.24-.034.5-.034.24,0,.24-.086.5-.086.238,0,.238.086.5.086.24,0,.24.034.5.034.238,0,.238-.034.494-.034s.241-.051.5-.051c.24,0,.24-.051.5-.051.24,0,.24.12.5.12.24,0,.24-.136.5-.136.238,0,.238.032.494.032s.241.12.5.12c.238,0,.238.018.5.018.24,0,.24-.12.5-.12.24,0,.24.069.5.069.24,0,.24-.069.494-.069s.241-.017.5-.017.237.086.494.086c.241,0,.241-.051.5-.051h.5c.257,0,.238.069.5.069s.238-.069.5-.069.238.085.494.085.241-.051.5-.051c.238,0,.238-.05.5-.05.24,0,.24.067.5.067.238,0,.238.051.5.051.238,0,.238-.1.494-.1s.241.069.5.069c.238,0,.238-.017.5-.017.24,0,.24.034.5.034.238,0,.238-.034.5-.034.238,0,.238-.067.5-.067.24,0,.24.136.5.136.237,0,.237-.136.494-.136h.5c.238,0,.238.12.5.12.24,0,.24-.1.5-.1.24,0,.24.035.5.035.24,0,.24.05.494.05h.5c.257,0,.238-.1.5-.1h.992c.24,0,.24.067.494.067s.241-.016.5-.016c.237,0,.237-.051.494-.051.24,0,.24.153.5.153h.5c.24,0,.24-.086.5-.086s.24.017.5.017c.238,0,.238-.051.494-.051s.241.1.5.1c.238,0,.238-.12.5-.12h.5c.256,0,.24.017.5.017.238,0,.238.017.494.017h.5c.238,0,.238.016.5.016.24,0,.24-.034.5-.034.24,0,.24.034.5.034.238,0,.238-.067.494-.067s.241.05.5.05c.237,0,.237.086.494.086.241,0,.241-.017.5-.017s.24-.085.5-.085c.238,0,.238.051.5.051.24,0,.24.016.5.016.238,0,.238.052.494.052s.241-.017.5-.017.24-.086.5-.086h.5c.24,0,.24.035.5.035.24,0,.24-.069.5-.069s.241-.016.5-.016.24.136.5.136c.238,0,.238-.12.5-.12.24,0,.24-.016.5-.016.238,0,.238.085.5.085.24,0,.24-.017.5-.017.24,0,.24-.067.5-.067s.238.1.5.1c.24,0,.24-.067.5-.067.238,0,.238.051.5.051.24,0,.24.051.5.051.24,0,.24-.051.5-.051.24,0,.24.034.5.034.238,0,.238-.085.5-.085.238,0,.238.016.5.016.24,0,.24-.051.5-.051.238,0,.238-.017.494-.017.24,0,.24.017.5.017.238,0,.238.035.5.035.238,0,.238.016.5.016.24,0,.24.017.5.017.238,0,.238.034.5.034h.494c.241,0,.241-.136.5-.136.24,0,.24.136.5.136.24,0,.24-.136.5-.136.238,0,.238.154.5.154.24,0,.24-.034.5-.034.24,0,.24-.035.5-.035.24,0,.24-.051.5-.051.24,0,.24.051.5.051.24,0,.24.069.5.069.24,0,.24-.069.5-.069.238,0,.238-.016.494-.016.24,0,.24.034.5.034.24,0,.24.034.5.034.24,0,.24-.051.5-.051.24,0,.24.051.5.051.238,0,.238.018.5.018.24,0,.24-.1.5-.1.24,0,.24-.018.5-.018.238,0,.238.12.5.12.238,0,.238-.051.5-.051.238,0,.238.017.5.017.24,0,.24.016.5.016.24,0,.24-.12.5-.12.24,0,.24.137.5.137.238,0,.238-.018.5-.018h.5c.24,0,.24-.067.5-.067.238,0,.238.051.494.051s.241-.1.5-.1c.238,0,.238.137.5.137h.5c.24,0,.24-.1.5-.1.238,0,.238-.067.5-.067.24,0,.24.1.5.1.24,0,.24-.034.5-.034.24,0,.24-.018.5-.018s.24.069.5.069h.5c.24,0,.24-.1.5-.1.238,0,.238.136.494.136.24,0,.24-.12.5-.12.24,0,.24.017.5.017h.5c.24,0,.24.035.5.035.238,0,.238-.035.5-.035.24,0,.24.051.494.051s.24-.016.5-.016h.5c.24,0,.24.067.5.067.238,0,.238-.034.5-.034.24,0,.24.017.494.017s.241.051.5.051c.238,0,.238-.155.5-.155.24,0,.24.069.5.069h.5c.24,0,.24.051.494.051s.241-.1.5-.1c.238,0,.238.069.5.069.24,0,.24-.051.5-.051.238,0,.238.12.5.12.24,0,.24-.086.5-.086.238,0,.238-.05.5-.05.237,0,.237.05.494.05.241,0,.241.035.5.035.238,0,.238-.1.5-.1h.5c.24,0,.24.085.5.085s.273-.152.444.034.085.188.085.446c0,.24-.067.24-.067.5,0,.24-.052.24-.052.5,0,.238.018.238.018.494s-.018.241-.018.5c0,.238.1.238.1.5,0,.24.016.24.016.5v.5c0,.238-.136.238-.136.5,0,.24.069.24.069.5,0,.237.085.237.085.494,0,.241-.137.241-.137.5s.1.24.1.5c0,.238-.051.238-.051.5,0,.24.067.24.067.5,0,.238-.12.238-.12.494s.12.241.12.5-.051.24-.051.5c0,.238-.051.238-.051.5,0,.24-.018.24-.018.5,0,.238.018.238.018.494s.035.241.035.5.051.24.051.5c0,.238-.069.238-.069.5,0,.24.05.24.05.5,0,.238-.016.238-.016.494s-.1.241-.1.5.153.24.153.5c0,.238-.051.238-.051.5,0,.24-.034.24-.034.5v.5c0,.24.034.24.034.5,0,.238-.069.238-.069.494,0,.238.12.238.12.5,0,.24-.085.24-.085.5,0,.238.069.238.069.5,0,.24-.086.24-.086.5,0,.238.051.238.051.494s.051.241.051.5-.136.24-.136.5c0,.238.1.238.1.5,0,.24-.1.24-.1.5,0,.238.12.238.12.494s-.086.241-.086.5c0,.238-.034.238-.034.494,0,.238.1.238.1.5,0,.24-.067.24-.067.5,0,.238.067.238.067.5,0,.24-.067.24-.067.5,0,.24.035.24.035.5v.5c0,.238-.052.238-.052.5,0,.238.1.238.1.5,0,.24-.069.24-.069.5,0,.238.12.238.12.494,0,.24-.018.24-.018.5,0,.237-.034.237-.034.494,0,.24.051.24.051.5,0,.24-.07.24-.07.5,0,.238-.05.238-.05.5,0,.24.1.24.1.5,0,.24-.1.24-.1.5,0,.238.137.238.137.5,0,.24-.1.24-.1.5,0,.238.1.238.1.5,0,.24-.053.24-.053.5,0,.238-.067.238-.067.494,0,.24.136.24.136.5,0,.238-.12.238-.12.5,0,.24.12.24.12.5,0,.24-.085.24-.085.5,0,.238.05.238.05.494,0,.24-.016.24-.016.5,0,.24.035.24.035.5,0,.24-.069.24-.069.5,0,.24.05.24.05.5v.5c0,.24-.085.24-.085.5v.5c0,.24.035.24.035.5,0,.24.085.24.085.5,0,.238-.069.238-.069.5,0,.24-.016.24-.016.5s.05.238.05.494.019.24.019.5c0,.24-.019.24-.019.5,0,.238-.034.238-.034.5v.5c0,.238-.067.238-.067.5,0,.24.136.24.136.5,0,.24-.086.24-.086.5,0,.238.035.238.035.5,0,.24.051.24.051.5,0,.238-.1.238-.1.5,0,.24-.016.24-.016.5,0,.24.051.24.051.5,0,.24-.051.24-.051.5,0,.24.016.24.016.5,0,.238.052.238.052.5v.494c0,.241.051.241.051.5,0,.238-.1.238-.1.5,0,.24.069.24.069.5,0,.238-.016.238-.016.5,0,.24-.034.24-.034.494s.05.241.05.5v.494c0,.24.035.24.035.5,0,.238.017.238.017.5,0,.24-.121.24-.121.5,0,.238.018.238.018.5,0,.238.1.238.1.494s-.069.241-.069.5c0,.238-.052.238-.052.5,0,.24.069.24.069.5,0,.238.035.238.035.5,0,.24-.086.24-.086.494s-.05.241-.05.5c0,.238.153.238.153.5v.5c0,.238.016.238.016.5,0,.24-.085.24-.085.5,0,.238.034.238.034.5,0,.238-.052.238-.052.494s-.066.241-.066.5c0,.238.153.238.153.5,0,.24-.137.24-.137.5,0,.238.085.238.085.5,0,.24-.016.24-.016.494s.034.241.034.5c0,.238.035.238.035.5,0,.24-.121.24-.121.5,0,.238.034.238.034.5,0,.24-.034.24-.034.494s.1.241.1.5c0,.237-.051.237-.051.494,0,.24-.085.24-.085.5v.5c0,.238.066.238.066.5,0,.238.087.238.087.5v.494c0,.241-.121.241-.121.5,0,.238.018.238.018.5,0,.24-.05.24-.05.5,0,.238.1.238.1.5,0,.24-.051.24-.051.494s.035.241.035.5c0,.238-.1.238-.1.5,0,.24.085.24.085.5,0,.238-.016.238-.016.494s-.018.241-.018.5c0,.24.069.24.069.5,0,.24-.069.24-.069.494s-.032.241-.032.5c0,.238-.018.238-.018.5,0,.24.018.24.018.5,0,.238.032.238.032.5,0,.24.052.24.052.494s-.085.241-.085.5c0,.238.12.238.12.5,0,.24-.019.24-.019.5,0,.238.035.238.035.5,0,.24-.085.24-.085.494s.085.241.085.5c0,.237-.035.237-.035.494,0,.24.035.24.035.5,0,.238-.069.238-.069.5,0,.24-.016.24-.016.5,0,.24.05.24.05.5,0,.237-.05.237-.05.494,0,.241.069.241.069.5,0,.238-.069.238-.069.5,0,.24.034.24.034.5,0,.24.035.24.035.5,0,.238-.12.238-.12.494s.016.241.016.5c0,.238.051.238.051.5,0,.24.053.24.053.5,0,.24.034.24.034.5,0,.24-.121.24-.121.5s.1.241.1.5c0,.238-.07.238-.07.5,0,.241-.034.241-.034.5s.018.24.018.5c0,.238.051.238.051.5,0,.24.035.24.035.5,0,.24-.1.24-.1.5s.1.241.1.5-.07.24-.07.5c0,.238-.05.238-.05.5,0,.24.069.24.069.5,0,.24.034.24.034.5,0,.24-.1.24-.1.5,0,.238.137.238.137.5,0,.238-.137.238-.137.5,0,.24.085.24.085.5,0,.238-.069.238-.069.5v.5c0,.238-.032.238-.032.5,0,.241.016.241.016.5s.069.24.069.5.051.238.051.5c0,.24.017.24.017.5,0,.24-.121.24-.121.5,0,.24.034.24.034.5,0,.24.019.24.019.5,0,.238-.035.238-.035.5,0,.24.257.375.086.548s-.308-.12-.548-.12-.238.067-.5.067-.24-.034-.5-.034c-.24,0-.24.086-.5.086-.238,0-.238-.12-.494-.12s-.241.1-.5.1c-.238,0-.238-.12-.5-.12s-.24.053-.5.053-.24.051-.5.051c-.238,0-.238-.035-.5-.035-.24,0-.24-.085-.5-.085s-.24.1-.5.1c-.24,0-.24.051-.5.051-.24,0-.24-.153-.5-.153-.238,0-.238.069-.5.069-.24,0-.24-.069-.5-.069s-.24.153-.5.153-.24-.1-.5-.1-.24.085-.5.085-.24-.051-.5-.051-.24-.034-.5-.034c-.238,0-.238-.016-.5-.016s-.24.067-.5.067-.238-.12-.5-.12-.238.12-.5.12c-.238,0-.238.017-.5.017h-.991c-.24,0-.24-.1-.5-.1s-.24.035-.5.035-.24.085-.5.085c-.24,0-.24-.067-.5-.067-.24,0-.24-.018-.5-.018-.238,0-.238.051-.494.051s-.24-.1-.5-.1c-.238,0-.238.016-.5.016h-.5c-.24,0-.24-.034-.5-.034-.24,0-.24.034-.5.034-.24,0-.24.12-.5.12-.24,0-.24-.085-.5-.085-.24,0-.24.018-.5.018-.24,0-.24-.018-.5-.018-.24,0-.24.034-.5.034-.24,0-.24-.069-.5-.069-.24,0-.24.035-.5.035h-.5c-.256,0-.238-.035-.5-.035s-.238-.016-.5-.016c-.24,0-.24.069-.5.069-.24,0-.24.016-.5.016s-.241-.016-.5-.016c-.238,0-.238-.018-.5-.018-.24,0-.24.051-.5.051-.24,0-.24-.086-.5-.086-.24,0-.24.12-.5.12-.24,0-.24-.136-.5-.136-.24,0-.24.1-.5.1h-.5c-.24,0-.24.017-.5.017h-.5c-.24,0-.24-.085-.5-.085-.24,0-.24.034-.5.034-.24,0-.24-.053-.5-.053-.238,0-.238.12-.5.12-.238,0-.238-.034-.5-.034-.24,0-.24-.1-.5-.1-.238,0-.238.12-.5.12-.238,0-.238-.034-.5-.034-.238,0-.238-.051-.5-.051h-.5c-.256,0-.24.051-.5.051-.238,0-.238-.051-.494-.051s-.241-.018-.5-.018h-.5c-.24,0-.24.12-.5.12-.24,0-.24-.069-.5-.069-.238,0-.238-.018-.494-.018s-.241.051-.5.051c-.24,0-.24.052-.5.052-.24,0-.24-.069-.5-.069-.24,0-.24-.07-.5-.07s-.238-.034-.5-.034-.24.034-.5.034h-.5c-.257,0-.241.1-.5.1h-.5c-.238,0-.238.016-.5.016-.24,0-.24-.067-.5-.067s-.238-.018-.494-.018-.241.018-.5.018-.24-.034-.5-.034-.238.034-.5.034c-.24,0-.24.016-.5.016-.238,0-.238-.05-.494-.05s-.241-.019-.5-.019-.24-.034-.5-.034c-.238,0-.238.154-.5.154h-.5c-.238,0-.238-.016-.5-.016-.24,0-.24-.035-.494-.035h-.992c-.24,0-.24-.085-.5-.085-.238,0-.238.12-.5.12-.24,0-.24-.1-.5-.1-.238,0-.238.053-.494.053s-.241-.069-.5-.069c-.238,0-.238.069-.5.069-.24,0-.24-.053-.5-.053-.24,0-.24.1-.5.1s-.238-.069-.5-.069c-.24,0-.24.018-.5.018s-.238.067-.5.067-.238-.12-.5-.12c-.238,0-.238.035-.5.035h-.5c-.24,0-.24-.035-.5-.035s-.238-.016-.494-.016c-.24,0-.24.069-.5.069-.238,0-.238-.069-.5-.069-.238,0-.238.069-.5.069-.24,0-.24.034-.5.034-.238,0-.238-.12-.494-.12s-.241.154-.5.154-.24-.085-.5-.085c-.24,0-.24.085-.5.085-.24,0-.24-.051-.5-.051-.238,0-.238.07-.5.07-.24,0-.24-.155-.5-.155-.237,0-.237.035-.494.035h-.992c-.238,0-.238-.053-.5-.053-.24,0-.24.12-.5.12-.238,0-.238-.016-.494-.016h-.992c-.238,0-.238.016-.5.016-.24,0-.24.034-.5.034s-.238-.016-.494-.016-.241-.137-.5-.137-.24.137-.5.137h-.5c-.257,0-.24-.051-.5-.051s-.238-.086-.5-.086h-.5c-.238,0-.238.1-.494.1-.238,0-.238-.017-.5-.017-.24,0-.24.051-.5.051-.238,0-.238-.017-.5-.017-.24,0-.24-.136-.5-.136-.24,0-.24.1-.5.1s-.241-.051-.5-.051h-.5c-.238,0-.238.069-.5.069h-.5c-.238,0-.238-.069-.5-.069-.24,0-.24.018-.494.018s-.24-.035-.5-.035c-.238,0-.238.051-.5.051-.24,0-.24.035-.5.035h-.494c-.241,0-.241-.051-.5-.051s-.24.051-.5.051c-.238,0-.238-.07-.5-.07-.24,0-.24.035-.5.035-.238,0-.238-.035-.5-.035h-.5c-.24,0-.24-.034-.5-.034-.24,0-.24.086-.5.086-.24,0-.24-.053-.5-.053h-.5c-.24,0-.24.1-.5.1-.238,0-.238-.017-.5-.017-.238,0-.238-.016-.494-.016h-.5c-.238,0-.238-.035-.5-.035-.24,0-.24.051-.5.051s-.238-.016-.494-.016c-.24,0-.24-.1-.5-.1-.238,0-.238.12-.5.12-.24,0-.24-.067-.5-.067-.24,0-.24.051-.5.051h-1.486c-.24,0-.24-.12-.5-.12-.24,0-.24.034-.5.034-.238,0-.238-.034-.5-.034-.24,0-.24.136-.494.136s-.241-.1-.5-.1-.241.086-.5.086c-.238,0-.238-.086-.5-.086-.238,0-.238.035-.5.035-.24,0-.24-.035-.5-.035-.238,0-.238.051-.494.051s-.241.051-.5.051c-.24,0-.24-.086-.5-.086-.24,0-.24.1-.5.1-.24,0-.24-.153-.5-.153-.238,0-.238.016-.5.016-.24,0-.24.1-.5.1-.238,0-.238-.016-.494-.016s-.24.051-.5.051c-.24,0-.24-.12-.5-.12-.238,0-.238.085-.5.085-.24,0-.24.018-.5.018h-.494c-.238,0-.238-.051-.5-.051-.238,0-.238.085-.5.085-.238,0-.238-.051-.5-.051-.24,0-.24.051-.5.051-.238,0-.238-.154-.5-.154-.24,0-.24.086-.494.086s-.241-.018-.5-.018c-.24,0-.24.018-.5.018-.24,0-.24-.018-.5-.018-.238,0-.238-.035-.5-.035-.24,0-.24.053-.494.053s-.241.016-.5.016-.238-.034-.5-.034c-.24,0-.24-.035-.5-.035h-.5c-.24,0-.24.12-.5.12-.24,0-.24-.067-.5-.067-.24,0-.24.067-.5.067s-.241-.051-.5-.051c-.24,0-.24-.069-.5-.069-.24,0-.24.053-.5.053-.238,0-.238.086-.5.086-.24,0-.24-.139-.494-.139s-.241.086-.5.086c-.238,0-.238.069-.5.069-.24,0-.24-.136-.5-.136-.238,0-.238.034-.5.034s-.24.051-.494.051-.241.035-.5.035c-.238,0-.238-.1-.5-.1-.24,0-.24-.016-.5-.016-.238,0-.238.034-.5.034-.24,0-.24.017-.5.017-.24,0-.24-.07-.5-.07-.238,0-.238-.016-.494-.016s-.241.155-.5.155h-.5c-.24,0-.24-.019-.5-.019-.24,0-.24-.1-.5-.1h-.494c-.241,0-.241.016-.5.016-.238,0-.238.12-.5.12-.24,0-.24-.1-.5-.1-.24,0-.24.051-.5.051-.238,0-.238-.1-.5-.1-.24,0-.24.034-.5.034-.238,0-.238.1-.5.1-.241,0-.241-.1-.5-.1s-.24.051-.5.051c-.24,0-.24.035-.5.035-.24,0-.24.017-.5.017-.238,0-.238-.052-.494-.052h-.5c-.238,0-.238.017-.5.017-.24,0-.24-.017-.5-.017-.238,0-.238.035-.5.035h-.494c-.241,0-.241-.136-.5-.136-.238,0-.238.153-.5.153-.238,0-.238-.086-.5-.086-.238,0-.238.086-.5.086h-.5c-.24,0-.24-.035-.5-.035-.238,0-.238-.12-.494-.12h-.5c-.24,0-.24.136-.5.136h-.5c-.238,0-.238-.034-.5-.034-.238,0-.238.017-.494.017h-.5c-.238,0-.238-.017-.5-.017-.24,0-.24-.051-.5-.051-.24,0-.24-.016-.5-.016-.24,0-.24-.018-.494-.018s-.241-.035-.5-.035c-.238,0-.238.035-.5.035-.24,0-.24.051-.5.051-.238,0-.238-.018-.5-.018s-.358.222-.547.051c-.171-.171.12-.289.12-.529s-.016-.24-.016-.5-.019-.24-.019-.5v-.5c0-.256.019-.24.019-.5s-.1-.24-.1-.5.035-.24.035-.5.12-.24.12-.5c0-.238-.017-.238-.017-.5,0-.24-.034-.24-.034-.5,0-.238-.019-.238-.019-.5,0-.24-.016-.24-.016-.5,0-.238-.034-.238-.034-.5,0-.24.034-.24.034-.5,0-.24.035-.24.035-.5,0-.238.016-.238.016-.5,0-.24.052-.24.052-.5,0-.238-.018-.238-.018-.5,0-.24-.137-.24-.137-.5,0-.24.051-.24.051-.5,0-.238-.034-.238-.034-.5,0-.24.034-.24.034-.5v-.5c0-.238.051-.238.051-.5,0-.24-.016-.24-.016-.5,0-.24.016-.24.016-.5,0-.24-.085-.24-.085-.5,0-.238.153-.238.153-.494s-.137-.241-.137-.5c0-.238-.016-.238-.016-.5,0-.24.034-.24.034-.5,0-.24-.018-.24-.018-.5,0-.238.1-.238.1-.5,0-.24-.12-.24-.12-.5,0-.24.1-.24.1-.5v-.5c0-.24-.086-.24-.086-.5,0-.238.1-.238.1-.5,0-.24-.051-.24-.051-.5,0-.24-.069-.24-.069-.5s.137-.241.137-.5.016-.238.016-.5c0-.24-.1-.24-.1-.5,0-.24-.016-.24-.016-.5,0-.238.069-.238.069-.494s-.018-.241-.018-.5c0-.238.018-.238.018-.5,0-.24-.086-.24-.086-.5,0-.24.069-.24.069-.5,0-.238-.035-.238-.035-.5,0-.24-.067-.24-.067-.5,0-.24.155-.24.155-.5,0-.24-.035-.24-.035-.5,0-.24-.069-.24-.069-.5,0-.238.016-.238.016-.5,0-.24.086-.24.086-.5v-.494c0-.241-.034-.241-.034-.5s-.086-.24-.086-.5c0-.238.12-.238.12-.5,0-.24-.086-.24-.086-.5v-.5c0-.256.086-.24.086-.494s-.12-.241-.12-.5c0-.238.137-.238.137-.5s-.017-.24-.017-.5c0-.238-.034-.238-.034-.494s.034-.241.034-.5-.086-.241-.086-.5c0-.238-.034-.238-.034-.5v-.5c0-.238.069-.238.069-.494s-.016-.241-.016-.5c0-.238-.019-.238-.019-.5v-.5c0-.24.1-.24.1-.5,0-.238-.137-.238-.137-.5,0-.24.034-.24.034-.5,0-.238.07-.238.07-.494,0-.24-.035-.24-.035-.5s-.016-.241-.016-.5c0-.238.085-.238.085-.5,0-.24-.034-.24-.034-.5,0-.238.018-.238.018-.494s.016-.241.016-.5-.016-.24-.016-.5c0-.238-.088-.238-.088-.5,0-.24.137-.24.137-.5v-.494c0-.241-.018-.241-.018-.5,0-.24-.12-.24-.12-.5,0-.24.035-.24.035-.5s-.016-.241-.016-.5c0-.238.069-.238.069-.5,0-.24-.121-.24-.121-.5,0-.24.069-.24.069-.5,0-.24.035-.24.035-.5,0-.24.034-.24.034-.5,0-.238-.12-.238-.12-.5,0-.24.035-.24.035-.5,0-.238.034-.238.034-.494s-.018-.241-.018-.5c0-.24-.035-.24-.035-.5,0-.24.07-.24.07-.5,0-.24-.051-.24-.051-.5,0-.238.069-.238.069-.5,0-.24-.121-.24-.121-.494s-.032-.241-.032-.5c0-.24.085-.24.085-.5,0-.238.069-.238.069-.5,0-.238-.153-.238-.153-.5,0-.24.12-.24.12-.5,0-.238-.069-.238-.069-.494,0-.241.034-.241.034-.5s.035-.238.035-.5c0-.238.016-.238.016-.5,0-.24-.016-.24-.016-.5,0-.238-.019-.238-.019-.494s-.1-.241-.1-.5.085-.24.085-.5c0-.24-.1-.24-.1-.5,0-.24.12-.24.12-.5,0-.238-.136-.238-.136-.5,0-.24.136-.24.136-.5,0-.238-.085-.238-.085-.494,0-.24.035-.24.035-.5,0-.24.05-.24.05-.5,0-.238-.12-.238-.12-.5,0-.24-.016-.24-.016-.5,0-.238.067-.238.067-.494s.052-.241.052-.5-.052-.24-.052-.5c0-.238-.067-.238-.067-.5,0-.24.051-.24.051-.5v-.5c0-.24.069-.24.069-.494s-.052-.241-.052-.5c0-.238-.016-.238-.016-.5,0-.24.069-.24.069-.5,0-.238.035-.238.035-.5,0-.24-.137-.24-.137-.5,0-.24.085-.24.085-.5,0-.24-.1-.24-.1-.5,0-.24.154-.24.154-.5,0-.238-.069-.238-.069-.5v-.5c0-.24-.069-.24-.069-.5,0-.24.12-.24.12-.5,0-.24-.1-.24-.1-.5,0-.238.136-.238.136-.5,0-.24-.1-.24-.1-.5v-.5c0-.238-.017-.238-.017-.494v-.5c0-.238.1-.238.1-.5,0-.24-.137-.24-.137-.5,0-.238.085-.238.085-.5,0-.238.018-.238.018-.5v-.991c0-.24.018-.24.018-.5,0-.238.018-.238.018-.5,0-.24-.018-.24-.018-.5,0-.24-.086-.24-.086-.5,0-.238.035-.238.035-.494,0-.24.051-.24.051-.5,0-.238-.086-.238-.086-.5v-.5c0-.238.086-.238.086-.5v-.991c0-.24-.035-.24-.035-.5,0-.24-.035-.24-.035-.5,0-.24-.016-.24-.016-.5,0-.238.086-.238.086-.5,0-.24-.086-.24-.086-.5,0-.24.035-.24.035-.5,0-.24.051-.24.051-.5,0-.24-.086-.24-.086-.5,0-.238.035-.238.035-.5,0-.238-.035-.238-.035-.494,0-.24-.05-.24-.05-.5s.118-.241.118-.5c0-.238-.018-.238-.018-.5,0-.238.018-.238.018-.5,0-.238-.1-.238-.1-.5v-.991c0-.238.069-.238.069-.5,0-.24-.085-.24-.085-.5,0-.238.051-.238.051-.5,0-.238-.018-.238-.018-.5v-.5c0-.24-.018-.24-.018-.5,0-.24.085-.24.085-.5,0-.238-.1-.238-.1-.5,0-.24.034-.24.034-.5,0-.238.085-.238.085-.494s-.1-.241-.1-.5c0-.24.035-.24.035-.5,0-.238.017-.238.017-.5s-.017-.24-.017-.5c0-.238.05-.238.05-.5,0-.238-.067-.238-.067-.5,0-.24-.034-.24-.034-.5,0-.238.118-.238.118-.5a2.464,2.464,0,0,0-.034-.5C515.275,912.971,515.156,912.937,515.326,912.766Z" transform="translate(0.017 0.767)" fill="#fff" fill-rule="evenodd"/>
    <path id="Path_2775" data-name="Path 2775" d="M515.242,910.526c.17-.172.289.117.547.117.238,0,.238-.1.5-.1s.24.12.5.12c.238,0,.238-.12.494-.12s.241.1.5.1c.24,0,.24-.1.5-.1.24,0,.24.1.5.1.24,0,.24-.152.5-.152.238,0,.238.1.494.1s.241-.051.5-.051c.238,0,.238.035.5.035.24,0,.24-.07.5-.07.24,0,.24.136.5.136.238,0,.238-.136.5-.136.24,0,.24.019.5.019.237,0,.237.1.494.1.241,0,.241.016.5.016s.24-.051.5-.051c.238,0,.238.035.5.035.24,0,.24-.1.5-.1.238,0,.238.016.494.016s.241.069.5.069h.5c.238,0,.238-.017.5-.017.24,0,.24.034.5.034s.238-.034.494-.034.241.017.5.017.24-.1.5-.1h.5c.24,0,.24-.016.5-.016s.238-.035.5-.035c.24,0,.24.018.494.018s.241.052.5.052c.238,0,.238-.07.5-.07.24,0,.24.07.5.07.238,0,.238-.035.5-.035.24,0,.24.051.5.051.24,0,.24.069.5.069.24,0,.24-.155.5-.155.24,0,.24.018.5.018.238,0,.238.1.5.1h.5c.24,0,.24.035.5.035.24,0,.24-.085.5-.085.24,0,.24-.052.5-.052s.238.052.5.052h.5c.238,0,.238.085.5.085.24,0,.24-.12.5-.12.24,0,.24.1.5.1.238,0,.238-.05.5-.05.24,0,.24-.051.5-.051.238,0,.238.1.5.1.24,0,.24-.118.5-.118.24,0,.24.153.5.153.24,0,.24-.12.5-.12h.5c.238,0,.238.017.5.017.24,0,.24.086.5.086.238,0,.238-.086.5-.086.238,0,.238.067.5.067.238,0,.238.019.494.019.238,0,.238-.1.5-.1.24,0,.24-.051.5-.051.238,0,.238.155.5.155.24,0,.24-.1.5-.1h.5c.24,0,.24-.016.5-.016.24,0,.24-.035.5-.035.238,0,.238.035.5.035.24,0,.24.051.5.051.24,0,.24.05.5.05.24,0,.24.019.5.019h.5c.238,0,.238-.035.5-.035.24,0,.24-.12.5-.12.238,0,.238.171.5.171.24,0,.24-.085.5-.085.24,0,.24-.035.5-.035s.241.052.5.052.24-.069.5-.069c.238,0,.238.051.5.051.24,0,.24.018.5.018s.24-.1.5-.1c.24,0,.24.051.5.051.24,0,.24.017.5.017.238,0,.238-.034.5-.034h.5c.238,0,.238.034.494.034.24,0,.24-.052.5-.052h.5c.238,0,.238.137.5.137.24,0,.24-.085.5-.085.238,0,.238-.034.5-.034.24,0,.24-.019.5-.019.24,0,.24-.016.5-.016.238,0,.238-.017.5-.017.24,0,.24.035.5.035.238,0,.238.017.5.017.24,0,.24.034.5.034.24,0,.24-.051.5-.051.24,0,.24.034.5.034.24,0,.24-.051.5-.051.238,0,.238.086.5.086h.494c.241,0,.241.069.5.069.24,0,.24-.069.5-.069.24,0,.24.034.5.034.238,0,.238-.12.5-.12.24,0,.24.155.5.155.24,0,.24-.086.5-.086.238,0,.238-.034.5-.034.24,0,.24-.035.5-.035.238,0,.238.136.5.136h.5c.256,0,.24-.153.5-.153.238,0,.238.052.5.052s.24.085.5.085c.24,0,.24-.137.5-.137.24,0,.24.121.5.121.238,0,.238.032.5.032.238,0,.238-.085.494-.085s.241.052.5.052c.237,0,.237.032.494.032.24,0,.24-.032.5-.032.24,0,.24-.086.5-.086.238,0,.238.086.5.086.24,0,.24.067.5.067.238,0,.238-.067.494-.067h.5c.24,0,.24.051.5.051.24,0,.24.016.5.016.24,0,.24-.067.5-.067.238,0,.238.067.494.067s.241-.016.5-.016c.238,0,.238.016.5.016.24,0,.24-.067.5-.067.24,0,.24.067.5.067.24,0,.24-.12.494-.12s.241.017.5.017.237.1.494.1c.241,0,.241.016.5.016.238,0,.238-.1.5-.1s.238.069.5.069.238-.034.5-.034.238.067.494.067.241-.136.5-.136c.238,0,.238.017.5.017.24,0,.24.119.5.119.238,0,.238-.016.5-.016.238,0,.238-.067.494-.067s.241-.052.5-.052c.238,0,.238-.035.5-.035.24,0,.24-.016.5-.016.238,0,.238.016.5.016.238,0,.238.035.5.035.24,0,.24.1.5.1.237,0,.237-.154.494-.154.241,0,.241.035.5.035.238,0,.238.016.5.016.24,0,.24.069.5.069.24,0,.24-.085.5-.085.24,0,.24.085.494.085s.241-.051.5-.051.238.017.5.017c.24,0,.24-.086.5-.086.238,0,.238.1.5.1.24,0,.24.032.494.032h.5c.237,0,.237-.016.494-.016.24,0,.24-.034.5-.034.238,0,.238.069.5.069.24,0,.24-.019.5-.019s.24-.1.5-.1c.238,0,.238.085.494.085s.241.016.5.016c.238,0,.238-.05.5-.05h.5c.256,0,.24-.069.5-.069.238,0,.238.017.494.017s.241-.035.5-.035c.238,0,.238.051.5.051h.992c.238,0,.238-.016.494-.016s.241.051.5.051c.237,0,.237-.1.494-.1.241,0,.241.035.5.035s.24.1.5.1c.238,0,.238-.137.5-.137.24,0,.24.069.5.069.238,0,.238.017.494.017s.241.017.5.017.24.034.5.034.238-.069.5-.069c.24,0,.24-.051.5-.051.24,0,.24.016.5.016s.241.137.5.137.24-.069.5-.069c.238,0,.238-.05.5-.05.24,0,.24.1.5.1.238,0,.238-.12.5-.12h.5c.24,0,.24.016.5.016s.238.052.5.052c.24,0,.24-.016.5-.016.238,0,.238.067.5.067.24,0,.24-.085.5-.085.24,0,.24.1.5.1.24,0,.24-.1.5-.1.238,0,.238.034.5.034.238,0,.238-.069.5-.069h.5c.238,0,.238.035.494.035.24,0,.24.034.5.034.238,0,.238-.016.5-.016.238,0,.238.035.5.035.24,0,.24.05.5.05.238,0,.238-.119.5-.119.24,0,.24.016.494.016s.241.085.5.085c.24,0,.24.018.5.018.24,0,.24-.085.5-.085.238,0,.238-.052.5-.052.24,0,.24.052.5.052.24,0,.24-.017.5-.017.24,0,.24.12.5.12.24,0,.24-.136.5-.136.24,0,.24.119.5.119.24,0,.24-.137.5-.137.238,0,.238.155.494.155.24,0,.24-.051.5-.051h.5c.24,0,.24-.035.5-.035h.992c.24,0,.24.016.5.016.24,0,.24-.016.5-.016.238,0,.238.069.5.069.238,0,.238-.034.5-.034.238,0,.238-.035.5-.035.24,0,.24-.034.5-.034.24,0,.24.017.5.017.24,0,.24.1.5.1h.5c.238,0,.238-.017.5-.017.24,0,.24.034.5.034.238,0,.238-.034.494-.034h.5c.238,0,.238-.1.5-.1.24,0,.24-.035.5-.035.24,0,.24.035.5.035h.5c.24,0,.24.1.5.1h.991c.257,0,.24-.034.5-.034.238,0,.238.034.5.034h.5c.238,0,.238-.121.494-.121.24,0,.24-.016.5-.016.24,0,.24.016.5.016.238,0,.238.1.5.1.24,0,.24-.12.5-.12.238,0,.238.12.5.12h.494c.24,0,.24-.153.5-.153.238,0,.238.034.5.034.24,0,.24.1.5.1.238,0,.238-.019.5-.019.24,0,.24.035.494.035h.5c.238,0,.238-.067.5-.067.24,0,.24.016.5.016.238,0,.238-.069.5-.069h.494c.241,0,.241.052.5.052.238,0,.238.032.5.032.24,0,.24.019.5.019.238,0,.238-.12.5-.12.24,0,.24.069.5.069.238,0,.238-.052.5-.052.237,0,.237.052.494.052.241,0,.241-.052.5-.052.238,0,.238.035.5.035.24,0,.24.05.5.05.24,0,.24-.032.5-.032s.341-.222.513-.052-.1.257-.1.5.12.24.12.479.035.24.035.479-.07.238-.07.478v.479c0,.24.035.24.035.478s.018.24.018.479-.034.24-.034.479-.1.24-.1.478.085.24.085.478-.1.24-.1.481.051.238.051.478.085.238.085.478-.067.24-.067.479.085.24.085.478-.085.24-.085.479.051.24.051.479.051.238.051.478.137.359-.035.53-.291.017-.529.017-.238-.137-.5-.137-.238.085-.5.085c-.238,0-.238-.05-.5-.05h-.5c-.238,0-.238.05-.494.05s-.241.035-.5.035-.24-.051-.5-.051-.24-.085-.5-.085c-.24,0-.24.136-.5.136-.238,0-.238-.051-.5-.051s-.24-.069-.5-.069c-.238,0-.238-.016-.494-.016s-.241.032-.5.032h-.5c-.238,0-.238.088-.5.088s-.24-.1-.5-.1-.238.12-.494.12-.241-.016-.5-.016-.24-.019-.5-.019-.238-.069-.5-.069c-.24,0-.24.1-.5.1h-.494c-.257,0-.241-.016-.5-.016s-.238-.035-.494-.035c-.24,0-.24-.052-.5-.052h-.5c-.238,0-.238.121-.5.121-.24,0-.24-.086-.5-.086s-.238.069-.494.069-.241.017-.5.017h-.5c-.238,0-.238-.1-.5-.1-.24,0-.24.118-.5.118h-.5c-.241,0-.241-.016-.5-.016s-.24.034-.5.034c-.238,0-.238-.051-.5-.051h-.5c-.238,0-.238-.016-.5-.016-.24,0-.24.051-.494.051h-.5c-.238,0-.238-.069-.5-.069h-.5c-.238,0-.238-.016-.5-.016-.24,0-.24.05-.5.05s-.24.035-.5.035-.238.034-.5.034-.24-.118-.5-.118c-.238,0-.238.1-.5.1-.24,0-.24-.034-.5-.034-.24,0-.24.051-.5.051-.24,0-.24-.153-.5-.153-.24,0-.24.136-.5.136-.238,0-.238-.051-.5-.051h-.5c-.238,0-.238.051-.5.051-.238,0-.238.035-.494.035s-.241-.136-.5-.136c-.238,0-.238.1-.5.1-.24,0-.24-.136-.5-.136-.238,0-.238.12-.5.12-.24,0-.24-.069-.5-.069-.24,0-.24-.016-.5-.016-.24,0-.24.1-.5.1h-.5c-.238,0-.238-.067-.5-.067-.24,0-.24-.017-.5-.017-.238,0-.238.1-.494.1-.24,0-.24-.137-.5-.137s-.241-.016-.5-.016-.238.069-.5.069c-.24,0-.24-.069-.5-.069s-.24.136-.5.136c-.238,0-.238-.136-.494-.136s-.241.085-.5.085c-.238,0-.238-.069-.5-.069-.24,0-.24.086-.5.086-.24,0-.24.034-.5.034-.24,0-.24-.051-.5-.051-.24,0-.24-.034-.5-.034-.24,0-.24.034-.5.034s-.24-.069-.5-.069-.238.12-.5.12-.24-.034-.5-.034-.24-.017-.5-.017c-.24,0-.24-.085-.5-.085s-.241.136-.5.136c-.238,0-.238-.016-.5-.016s-.24.016-.5.016-.238-.067-.5-.067-.237-.017-.5-.017-.24.069-.5.069c-.238,0-.238-.069-.5-.069-.24,0-.24.085-.5.085h-.5c-.24,0-.24-.1-.5-.1h-.991c-.24,0-.24.016-.5.016-.238,0-.238-.016-.5-.016-.24,0-.24.016-.5.016-.238,0-.238.017-.5.017-.24,0-.24-.069-.494-.069s-.24.118-.5.118h-.5c-.24,0-.24-.1-.5-.1-.238,0-.238-.016-.5-.016-.24,0-.24-.016-.494-.016s-.241.032-.5.032c-.24,0-.24.052-.5.052s-.24.016-.5.016h-.5c-.256,0-.24-.034-.494-.034s-.241-.016-.5-.016c-.238,0-.238.085-.5.085s-.24-.035-.5-.035c-.238,0-.238-.069-.5-.069s-.24.069-.494.069-.241-.069-.5-.069c-.237,0-.237.052-.494.052-.24,0-.24.05-.5.05-.238,0-.238-.016-.5-.016-.24,0-.24-.086-.5-.086-.24,0-.24-.016-.5-.016-.238,0-.238.136-.494.136s-.241-.067-.5-.067c-.238,0-.238.05-.5.05h-.5c-.24,0-.24-.1-.5-.1-.238,0-.238.052-.494.052s-.241-.052-.5-.052c-.238,0-.238.052-.5.052-.24,0-.24.085-.5.085-.24,0-.24-.069-.5-.069-.238,0-.238-.085-.5-.085-.24,0-.24.085-.5.085-.238,0-.238-.016-.494-.016s-.241.1-.5.1c-.238,0-.238-.035-.5-.035h-.5c-.24,0-.24-.034-.5-.034-.238,0-.238.051-.494.051s-.241-.069-.5-.069-.238.034-.5.034-.24-.1-.5-.1c-.24,0-.24.034-.5.034-.238,0-.238-.05-.494-.05s-.241.016-.5.016c-.237,0-.237.1-.494.1h-.5c-.238,0-.238-.118-.5-.118-.238,0-.238.05-.5.05-.24,0-.24-.016-.5-.016-.238,0-.238.035-.494.035h-.5c-.238,0-.238.034-.5.034-.238,0-.238.034-.5.034-.238,0-.238-.1-.5-.1-.238,0-.238-.017-.494-.017h-.5c-.238,0-.238.12-.5.12-.238,0-.238-.034-.5-.034-.238,0-.238-.034-.5-.034s-.238.016-.494.016-.241-.051-.5-.051c-.238,0-.238.1-.494.1h-.992c-.24,0-.24-.051-.5-.051-.24,0-.24.086-.5.086-.24,0-.24-.018-.5-.018s-.241-.1-.5-.1c-.238,0-.238.137-.5.137-.24,0-.24-.153-.5-.153h-.5c-.241,0-.241.016-.5.016s-.241.017-.5.017c-.238,0-.238-.035-.5-.035s-.24.069-.5.069c-.238,0-.238-.069-.5-.069-.238,0-.238.051-.5.051-.24,0-.24.051-.5.051-.238,0-.238-.034-.494-.034s-.241.034-.5.034c-.238,0-.238-.1-.5-.1-.238,0-.238.137-.5.137-.24,0-.24-.035-.5-.035h-.5c-.24,0-.24-.051-.5-.051-.238,0-.238-.069-.5-.069-.24,0-.24.1-.5.1-.24,0-.24.035-.5.035-.24,0-.24-.085-.5-.085-.24,0-.24.034-.5.034-.238,0-.238.069-.5.069-.24,0-.24-.137-.5-.137-.24,0-.24.069-.5.069-.238,0-.238-.069-.5-.069h-.5c-.24,0-.24.155-.5.155s-.241-.035-.5-.035-.24.051-.5.051c-.238,0-.238-.069-.5-.069s-.24.017-.5.017c-.24,0-.24.018-.5.018-.24,0-.24.051-.5.051-.24,0-.24-.153-.5-.153-.238,0-.238-.019-.5-.019-.24,0-.24.139-.5.139h-.494c-.24,0-.24-.07-.5-.07s-.241.018-.5.018c-.238,0-.238.035-.5.035-.24,0-.24-.1-.5-.1h-.5c-.24,0-.24.153-.5.153-.24,0-.24-.086-.5-.086-.238,0-.238.1-.5.1-.24,0-.24-.1-.5-.1-.238,0-.238.069-.5.069s-.24-.069-.5-.069c-.24,0-.24.069-.5.069-.24,0-.24.017-.5.017-.24,0-.24-.017-.5-.017h-.5c-.24,0-.24-.016-.5-.016-.238,0-.238-.12-.494-.12s-.241.136-.5.136-.24-.086-.5-.086c-.238,0-.238.12-.5.12-.24,0-.24-.136-.5-.136-.238,0-.238-.034-.5-.034h-.5c-.24,0-.24.067-.5.067-.24,0-.24.017-.5.017s-.24.069-.5.069c-.238,0-.238-.034-.5-.034-.24,0-.24-.086-.5-.086-.24,0-.24.12-.5.12h-.5c-.238,0-.238-.137-.5-.137-.238,0-.238.12-.5.12h-.5c-.238,0-.238-.136-.5-.136-.24,0-.24.085-.5.085-.238,0-.238-.017-.5-.017-.238,0-.238.069-.5.069-.24,0-.24-.12-.5-.12-.238,0-.238.1-.5.1-.24,0-.24-.035-.5-.035h-.992c-.238,0-.238-.069-.5-.069-.238,0-.238.017-.5.017-.24,0-.24.016-.5.016-.238,0-.238-.034-.494-.034-.24,0-.24.086-.5.086-.24,0-.24-.121-.5-.121-.24,0-.24.052-.5.052-.24,0-.24.085-.5.085-.238,0-.238-.051-.5-.051-.24,0-.24.017-.5.017-.24,0-.24.034-.5.034-.24,0-.24-.118-.5-.118-.24,0-.24.067-.5.067-.238,0-.238-.034-.5-.034-.24,0-.24-.034-.5-.034-.24,0-.24.153-.5.153-.24,0-.24-.017-.5-.017h-.5c-.238,0-.238-.136-.5-.136-.24,0-.24.05-.5.05h-.494c-.241,0-.241.035-.5.035s-.24.034-.5.034c-.238,0-.238-.069-.5-.069-.24,0-.24.035-.5.035-.238,0-.238.018-.5.018-.24,0-.24-.069-.494-.069s-.241-.017-.5-.017c-.238,0-.238.034-.5.034-.24,0-.24-.016-.5-.016-.238,0-.238-.034-.5-.034-.24,0-.24.085-.494.085h-.5c-.238,0-.238-.051-.5-.051s-.275.188-.462.016c-.171-.17.016-.2.016-.444s-.016-.24-.016-.479-.051-.238-.051-.478.016-.24.016-.478-.069-.24-.069-.479.086-.24.086-.478-.086-.241-.086-.479.1-.24.1-.479.034-.238.034-.479-.137-.24-.137-.478.052-.24.052-.478.051-.24.051-.479-.137-.24-.137-.479-.017-.238-.017-.478.137-.24.137-.479-.034-.24-.034-.478v-.479c0-.24.1-.275.034-.513C515.292,910.763,515.07,910.7,515.242,910.526Z" transform="translate(0 0)" fill="#46ac4e" fill-rule="evenodd"/>
    <path id="Path_2776" data-name="Path 2776" d="M614.429,911.821c.17-.171.2-.069.462-.069.238,0,.238-.034.494-.034.24,0,.24.016.5.016.24,0,.24-.016.5-.016.238,0,.238.034.5.034s.24-.051.5-.051c.238,0,.238.086.5.086.238,0,.238-.052.494-.052h.5c.238,0,.238.052.5.052.24,0,.24-.052.5-.052.238,0,.273-.085.462.086.17.171-.035.206-.035.444s.016.24.016.5c0,.238.035.238.035.5,0,.238.086.238.086.5,0,.24-.069.24-.069.5s.016.238.016.5c0,.24-.069.24-.069.5,0,.24-.016.24-.016.5,0,.238.1.238.1.5,0,.238-.086.238-.086.494,0,.24.1.24.1.5,0,.24.171.342,0,.513s-.275-.016-.513-.016-.24-.051-.5-.051c-.238,0-.238.136-.5.136-.238,0-.238-.035-.5-.035-.24,0-.24-.085-.5-.085s-.24.035-.5.035-.241-.051-.5-.051c-.238,0-.238.085-.5.085-.24,0-.24-.051-.5-.051-.24,0-.24.067-.5.067-.238,0-.238-.016-.5-.016-.24,0-.376.224-.547.051s.137-.307.137-.547-.1-.24-.1-.5c0-.24.1-.24.1-.5,0-.238-.019-.238-.019-.494s-.118-.241-.118-.5c0-.238.069-.238.069-.5,0-.24.05-.24.05-.5v-.5c0-.238-.118-.238-.118-.494s.1-.241.1-.5c0-.238.085-.273.035-.513C614.429,912.027,614.256,911.992,614.429,911.821Z" transform="translate(34.32 0.447)" fill="#e8ede9" fill-rule="evenodd"/>
    <path id="Path_2777" data-name="Path 2777" d="M608.688,911.834c.172-.171.206.016.446.016s.238-.034.5-.034h.5c.24,0,.24-.1.5-.1.24,0,.24.12.494.12s.241-.051.5-.051c.238,0,.238-.052.5-.052.24,0,.24.1.5.1.238,0,.238-.12.5-.12h.494c.241,0,.241.069.5.069.24,0,.257-.1.446.067.17.172-.019.188-.019.428s.12.24.12.5c0,.24-.034.24-.034.5,0,.24-.051.24-.051.5,0,.238.137.238.137.5s-.086.24-.086.5c0,.24.034.24.034.5s-.12.241-.12.5.12.24.12.5c0,.238-.1.238-.1.5,0,.24.085.24.085.5,0,.238.085.256-.1.427-.171.171-.188.136-.428.136s-.238-.069-.5-.069c-.24,0-.24.017-.5.017-.24,0-.24-.017-.5-.017s-.241-.067-.5-.067-.24.12-.5.12h-.5c-.24,0-.24-.1-.5-.1-.24,0-.24-.016-.5-.016-.24,0-.24.016-.494.016s-.241-.034-.5-.034c-.238,0-.291.222-.462.051s-.069-.2-.069-.462c0-.24.069-.24.069-.5,0-.24-.085-.24-.085-.5,0-.24.016-.24.016-.5,0-.238.12-.238.12-.5,0-.24-.12-.24-.12-.5,0-.238.018-.238.018-.5,0-.24.051-.24.051-.5,0-.24.051-.24.051-.5,0-.238-.136-.238-.136-.5a1.507,1.507,0,0,0-.018-.479C608.519,912.056,608.5,912,608.688,911.834Z" transform="translate(32.316 0.452)" fill="#e8ede9" fill-rule="evenodd"/>
    <path id="Path_2778" data-name="Path 2778" d="M602.942,911.836c.17-.171.2-.1.444-.1s.24.069.5.069h.494c.241,0,.241-.034.5-.034.238,0,.238-.035.5-.035s.24.12.5.12c.24,0,.24-.016.5-.016h.494c.241,0,.241.051.5.051.238,0,.238-.1.5-.1.24,0,.24.067.5.067.24,0,.359-.256.53-.085s-.086.291-.086.53v.5c0,.24.035.24.035.5v.494c0,.241.085.241.085.5s-.12.24-.12.5c0,.24.069.24.069.5,0,.24-.1.24-.1.5,0,.238-.018.238-.018.494s.1.241.1.5v.5c0,.24.154.324-.017.512-.171.172-.256.052-.513.052-.238,0-.238-.034-.5-.034-.24,0-.24-.035-.5-.035-.238,0-.238-.069-.5-.069h-.5c-.256,0-.238.085-.5.085-.238,0-.238.035-.5.035-.24,0-.24-.016-.5-.016-.238,0-.238-.035-.5-.035-.24,0-.24-.034-.5-.034-.24,0-.24-.018-.5-.018s-.308.223-.479.051-.069-.238-.069-.478-.034-.241-.034-.5.1-.24.1-.5c0-.238-.069-.238-.069-.5,0-.24.086-.24.086-.5,0-.238-.1-.238-.1-.5,0-.24.139-.24.139-.494v-.5c0-.238-.088-.238-.088-.5,0-.24.018-.24.018-.5a2.435,2.435,0,0,0,.017-.5C602.873,912.041,602.771,912.007,602.942,911.836Z" transform="translate(30.321 0.45)" fill="#e8ede9" fill-rule="evenodd"/>
    <path id="Path_2779" data-name="Path 2779" d="M618.629,916.475c-.24,0-.12-.291-.291-.462s-.289-.069-.462-.238-.154-.188-.323-.361-.139-.2-.308-.374-.222-.137-.393-.308-.153-.188-.326-.376c-.17-.171-.188-.155-.358-.343-.172-.17-.153-.2-.326-.374s-.171-.188-.341-.361-.377-.1-.377-.358a.4.4,0,0,1,.393-.444c.24,0,.188.24.377.409.171.172.1.257.273.428s.2.153.376.326.24.118.409.289.1.257.275.427.257.1.428.273.1.257.272.428.241.118.411.291.188.153.377.324c.17.171.256.153.324.376C619.108,916.338,618.885,916.475,618.629,916.475Z" transform="translate(34.597 0.716)" fill="#0c090f" fill-rule="evenodd"/>
    <path id="Path_2780" data-name="Path 2780" d="M615.523,916.432a.377.377,0,0,1-.411-.409c0-.24.273-.137.446-.308s.154-.2.324-.377.137-.222.307-.393.222-.137.393-.307.086-.256.275-.427c.171-.171.188-.155.358-.326s.155-.187.343-.358c.17-.171.2-.137.374-.326.172-.17.188-.17.361-.342s.118-.307.358-.307c.257,0,.444.069.444.326,0,.238-.24.186-.411.358s-.187.153-.358.342c-.171.171-.12.222-.31.393-.17.171-.271.085-.443.257s-.12.238-.292.409-.221.12-.39.307c-.172.171-.12.223-.31.394-.171.171-.153.2-.324.375s-.307.069-.444.29C615.66,916.244,615.762,916.449,615.523,916.432Z" transform="translate(34.593 0.742)" fill="#0c090f" fill-rule="evenodd"/>
    <path id="Path_2781" data-name="Path 2781" d="M610.016,915.749c.186.188.238.016.494.016h.53c.257,0,.257-.035.53-.035s.272.069.53.069.289.12.478-.069.069-.221.069-.478-.035-.257-.035-.53c0-.256.067-.256.067-.53s-.067-.272-.067-.529c0-.273.188-.324,0-.512s-.24-.035-.512-.035-.258.051-.53.051-.257-.1-.53-.1-.273.088-.53.088c-.273,0-.341-.206-.53-.019s.018.257.018.531c0,.257.019.257.019.529s-.07.257-.07.53a1.844,1.844,0,0,1-.018.53c-.034.257-.1.308.088.5Zm2.87.6c-.257,0-.257-.034-.53-.034h-.53c-.254,0-.254.034-.528.034s-.258-.069-.532-.069c-.256,0-.256.087-.529.087s-.258-.087-.53-.087a.263.263,0,0,1-.273-.238c0-.256.069-.256.069-.529,0-.257-.069-.257-.069-.531,0-.257-.017-.257-.017-.53,0-.257.035-.257.035-.529s-.052-.257-.052-.53c0-.257.1-.257.1-.53,0-.136.05-.289.2-.289.257,0,.257.016.53.016.257,0,.257-.016.53-.016.256,0,.256-.017.53-.017.254,0,.254.069.529.069.256,0,.256.016.529.016.257,0,.257-.085.53-.085.136,0,.188.153.188.289v.53c0,.257.067.257.067.53,0,.257-.067.257-.067.53,0,.256.051.256.051.529,0,.257.051.257.051.53,0,.257.052.257.052.53A.421.421,0,0,1,612.886,916.345Z" transform="translate(32.615 0.742)" fill="#0c090f" fill-rule="evenodd"/>
    <path id="Path_2782" data-name="Path 2782" d="M607.139,915.54c-.188.188-.308-.085-.582-.085-.257,0-.257.069-.53.069-.257,0-.257.016-.53.016-.257,0-.257.019-.529.019s-.257-.087-.531-.087c-.257,0-.291.155-.5-.032-.188-.172-.223-.291-.035-.479s.257.017.53.017c.257,0,.257-.069.531-.069h.529c.257,0,.257.034.53.034.257,0,.257.086.53.086.256,0,.256-.137.5-.018C607.326,915.182,607.326,915.37,607.139,915.54Z" transform="translate(30.671 1.548)" fill="#0c090f" fill-rule="evenodd"/>
    <path id="Path_2783" data-name="Path 2783" d="M582.55,939.587a11.775,11.775,0,0,1-4.267,9.09,9.572,9.572,0,0,0-1.633,1.737H564.866a9.155,9.155,0,0,0-1.6-1.695,11.806,11.806,0,1,1,19.282-9.132Z" transform="translate(15.153 6.014)" fill="#edc00e" fill-rule="evenodd"/>
    <path id="Path_2784" data-name="Path 2784" d="M582.55,939.587a11.775,11.775,0,0,1-4.267,9.09,9.572,9.572,0,0,0-1.633,1.737H564.866a9.155,9.155,0,0,0-1.6-1.695,11.806,11.806,0,1,1,19.282-9.132Z" transform="translate(15.153 6.014)" fill="none" stroke="#010005" stroke-miterlimit="22.926" stroke-width="1.036" fill-rule="evenodd"/>
    <path id="Path_2785" data-name="Path 2785" d="M565.09,950.193h11.488a9.921,9.921,0,0,1,1.59-1.671,11.521,11.521,0,0,0,3.215-4.281,11.544,11.544,0,0,0-.843-10.75,11.511,11.511,0,0,0-4.652-4.169A11.557,11.557,0,0,0,559.312,939.6a11.476,11.476,0,0,0,4.216,8.973,9.484,9.484,0,0,1,1.562,1.625Zm11.779.586H564.791l-.089-.124a8.93,8.93,0,0,0-1.543-1.641,12.119,12.119,0,0,1,7.665-21.456h.193a12.011,12.011,0,0,1,5.126,1.232,12.153,12.153,0,0,1,4.889,4.38,12.123,12.123,0,0,1,.883,11.3,12.256,12.256,0,0,1-3.38,4.5,9.572,9.572,0,0,0-1.584,1.683Z" transform="translate(15.076 5.936)" fill="#fafa96" fill-rule="evenodd"/>
    <path id="Path_2786" data-name="Path 2786" d="M565.09,950.193h11.488a9.921,9.921,0,0,1,1.59-1.671,11.521,11.521,0,0,0,3.215-4.281,11.544,11.544,0,0,0-.843-10.75,11.511,11.511,0,0,0-4.652-4.169A11.557,11.557,0,0,0,559.312,939.6a11.476,11.476,0,0,0,4.216,8.973,9.484,9.484,0,0,1,1.562,1.625Zm11.779.586H564.791l-.089-.124a8.93,8.93,0,0,0-1.543-1.641,12.119,12.119,0,0,1,7.665-21.456h.193a12.011,12.011,0,0,1,5.126,1.232,12.153,12.153,0,0,1,4.889,4.38,12.123,12.123,0,0,1,.883,11.3,12.256,12.256,0,0,1-3.38,4.5,9.572,9.572,0,0,0-1.584,1.683Z" transform="translate(15.076 5.936)" fill="none" stroke="#010005" stroke-miterlimit="22.926" stroke-width="1.036" fill-rule="evenodd"/>
    <path id="Path_2787" data-name="Path 2787" d="M575.125,944.591a9.261,9.261,0,0,0-1.77,5l-.246,4.082h-7.763l-.245-4.047a9.3,9.3,0,0,0-1.761-5.033Z" transform="translate(16.673 11.832)" fill="#edc00e" fill-rule="evenodd"/>
    <path id="Path_2788" data-name="Path 2788" d="M575.125,944.591a9.261,9.261,0,0,0-1.77,5l-.246,4.082h-7.763l-.245-4.047a9.3,9.3,0,0,0-1.761-5.033" transform="translate(16.673 11.832)" fill="none" stroke="#010005" stroke-miterlimit="22.926" stroke-width="1.036" fill-rule="evenodd"/>
    <path id="Path_2789" data-name="Path 2789" d="M573.169,954.012h-7.763a.3.3,0,0,1-.292-.275l-.245-4.044a9.049,9.049,0,0,0-1.7-4.882l.475-.345a9.634,9.634,0,0,1,1.812,5.192l.227,3.764h7.208l.228-3.805a9.487,9.487,0,0,1,1.829-5.157l.475.345a8.974,8.974,0,0,0-1.72,4.842l-.246,4.086A.287.287,0,0,1,573.169,954.012Z" transform="translate(16.612 11.786)" fill="#fafa96" fill-rule="evenodd"/>
    <path id="Path_2790" data-name="Path 2790" d="M573.169,954.012h-7.763a.3.3,0,0,1-.292-.275l-.245-4.044a9.049,9.049,0,0,0-1.7-4.882l.475-.345a9.634,9.634,0,0,1,1.812,5.192l.227,3.764h7.208l.228-3.805a9.487,9.487,0,0,1,1.829-5.157l.475.345a8.974,8.974,0,0,0-1.72,4.842l-.246,4.086A.287.287,0,0,1,573.169,954.012Z" transform="translate(16.612 11.786)" fill="none" stroke="#010005" stroke-miterlimit="22.926" stroke-width="1.036" fill-rule="evenodd"/>
    <path id="Path_2791" data-name="Path 2791" d="M572.592,951.34a3.841,3.841,0,0,1-.357,1.448,3.907,3.907,0,0,1-.841,1.177,3.888,3.888,0,0,1-6.561-2.625Z" transform="translate(17.189 14.168)" fill="#edf3d9" fill-rule="evenodd"/>
    <path id="Path_2792" data-name="Path 2792" d="M568.787,955.406A4.192,4.192,0,0,1,565,952.991a4.252,4.252,0,0,1-.385-1.562.29.29,0,0,1,.275-.3.3.3,0,0,1,.3.275,3.578,3.578,0,0,0,3.582,3.421,3.566,3.566,0,0,0,2.481-.993,3.64,3.64,0,0,0,.783-1.088,3.451,3.451,0,0,0,.326-1.345.292.292,0,0,1,.584.024,4.084,4.084,0,0,1-.385,1.56,4.144,4.144,0,0,1-.906,1.263A4.088,4.088,0,0,1,568.787,955.406Z" transform="translate(17.113 14.089)" fill="#181726" fill-rule="evenodd"/>
    <path id="Path_2793" data-name="Path 2793" d="M573.705,946.6h-9.414a.292.292,0,0,1,0-.584h9.414a.292.292,0,0,1,0,.584Z" transform="translate(16.901 12.323)" fill="#181726" fill-rule="evenodd"/>
    <path id="Path_2794" data-name="Path 2794" d="M572.976,948.586h-8.249a.293.293,0,0,1,0-.586h8.249a.293.293,0,0,1,0,.586Z" transform="translate(17.052 13.012)" fill="#181726" fill-rule="evenodd"/>
    <path id="Path_2795" data-name="Path 2795" d="M572.785,950.569h-7.945a.292.292,0,1,1,0-.584h7.945a.289.289,0,0,1,.292.292A.293.293,0,0,1,572.785,950.569Z" transform="translate(17.09 13.699)" fill="#181726" fill-rule="evenodd"/>
    <path id="Path_2796" data-name="Path 2796" d="M559.936,926.889a.308.308,0,0,1-.236-.112l-1.088-1.409a.292.292,0,0,1,.463-.357l1.088,1.408a.291.291,0,0,1-.228.47Z" transform="translate(15.015 5.015)" fill="#181726" fill-rule="evenodd"/>
    <path id="Path_2797" data-name="Path 2797" d="M563.588,924.966a.293.293,0,0,1-.281-.2l-.549-1.7a.292.292,0,1,1,.555-.182l.551,1.7a.3.3,0,0,1-.187.368A.231.231,0,0,1,563.588,924.966Z" transform="translate(16.466 4.249)" fill="#181726" fill-rule="evenodd"/>
    <path id="Path_2798" data-name="Path 2798" d="M567.688,924.392h-.011a.288.288,0,0,1-.28-.3l.058-1.782a.292.292,0,0,1,.584.024l-.058,1.782A.294.294,0,0,1,567.688,924.392Z" transform="translate(18.077 4.021)" fill="#181726" fill-rule="evenodd"/>
    <path id="Path_2799" data-name="Path 2799" d="M557.145,929.94a.31.31,0,0,1-.159-.048l-1.5-.957a.293.293,0,0,1,.318-.493l1.5.96a.293.293,0,0,1-.157.538Z" transform="translate(13.907 6.226)" fill="#181726" fill-rule="evenodd"/>
    <rect id="Rectangle_101" data-name="Rectangle 101" width="1.93" height="0.584" transform="translate(596.868 964.988) rotate(-44.975)" fill="#181726"/>
    <rect id="Rectangle_102" data-name="Rectangle 102" width="0.585" height="1.929" transform="translate(596.856 964.038) rotate(-44.944)" fill="#181726"/>
    <rect id="Rectangle_103" data-name="Rectangle 103" width="81.353" height="23.165" transform="translate(546.463 976.666)" fill="#fa2a1c"/>
    <rect id="Rectangle_104" data-name="Rectangle 104" width="81.353" height="23.165" transform="translate(546.463 976.666)" fill="none" stroke="#020204" stroke-miterlimit="22.926" stroke-width="1.036"/>
    <text id="T" transform="translate(555.623 991.57)" fill="#020204" font-size="6" font-family="Helvetica-Light, Helvetica" font-weight="300"><tspan x="0" y="0">T</tspan></text>
    <text id="AX_DETECTOR_ON" data-name="AX DETECTOR ON" transform="translate(558.837 991.57)" fill="#020204" font-size="6" font-family="Helvetica-Light, Helvetica" font-weight="300"><tspan x="0" y="0">AX DETECTOR ON</tspan></text>
    <path id="Path_2800" data-name="Path 2800" d="M575.879,926.889a.308.308,0,0,0,.236-.112l1.086-1.409a.292.292,0,0,0-.462-.357l-1.086,1.408a.29.29,0,0,0,.226.47Z" transform="translate(20.913 5.015)" fill="#181726" fill-rule="evenodd"/>
    <path id="Path_2801" data-name="Path 2801" d="M572.089,924.966a.293.293,0,0,0,.28-.2l.549-1.7a.292.292,0,1,0-.555-.182l-.551,1.7a.3.3,0,0,0,.187.368A.233.233,0,0,0,572.089,924.966Z" transform="translate(19.601 4.249)" fill="#181726" fill-rule="evenodd"/>
    <path id="Path_2802" data-name="Path 2802" d="M578.778,929.94a.309.309,0,0,0,.157-.048l1.5-.957a.293.293,0,1,0-.316-.493l-1.5.96a.292.292,0,0,0-.088.4A.3.3,0,0,0,578.778,929.94Z" transform="translate(21.915 6.226)" fill="#181726" fill-rule="evenodd"/>
  </g>
</svg>
