<svg xmlns="http://www.w3.org/2000/svg" width="282.551" height="258.584" viewBox="0 0 282.551 258.584">
  <g id="Group_327" data-name="Group 327" transform="translate(-266.587 -85.75)">
    <g id="Group_299" data-name="Group 299">
      <ellipse id="Ellipse_54" data-name="Ellipse 54" cx="46.723" cy="26.976" rx="46.723" ry="26.976" transform="translate(315.585 151.072)" fill="#d4ecff"/>
      <g id="Group_292" data-name="Group 292">
        <path id="Path_1010" data-name="Path 1010" d="M405.806,166.589H404.05c-1.97-3.869-5.6-7.516-10.883-10.569-16.851-9.729-44.171-9.729-61.022,0-5.287,3.052-8.913,6.7-10.883,10.569h-1.755v7.047h0c0,6.375,4.213,12.751,12.639,17.615,16.851,9.729,44.171,9.73,61.022,0,8.426-4.865,12.638-11.241,12.638-17.616h0Z" fill="#f9bf30"/>
        <path id="Path_1011" data-name="Path 1011" d="M353.3,149.321a57.168,57.168,0,0,0-21.153,6.7c-5.287,3.052-8.913,6.7-10.883,10.569h-1.755v7.047c0,6.375,4.213,12.751,12.639,17.615a57.182,57.182,0,0,0,21.152,6.7Z" fill="#fdd762"/>
        <path id="Path_1012" data-name="Path 1012" d="M393.285,191.181c8.345-4.856,12.521-11.2,12.521-17.545v-7.047H404.05a25.16,25.16,0,0,0-8.662-9.176h-2.1Z" fill="#e8a200"/>
        <g id="Group_290" data-name="Group 290" opacity="0.4">
          <path id="Path_1013" data-name="Path 1013" d="M403.585,165.769a20.5,20.5,0,0,0-1.872-2.708v21.175a20.514,20.514,0,0,0,1.872-2.713Z" fill="#e8a200"/>
          <path id="Path_1014" data-name="Path 1014" d="M332.145,156.02a33.968,33.968,0,0,0-6.027,4.377v26.486c.587.538,1.206,1.069,1.872,1.586V159.762h3.528v31.107c.21.127.412.257.628.382.407.235.825.459,1.243.683V159.762h3.528v33.867q.924.4,1.872.764V159.762h3.528v35.847q.927.287,1.872.545V159.762h3.528v37.244q.93.2,1.871.37V159.762h3.528v38.166q.933.122,1.872.22V159.762h3.528v38.672c.623.034,1.247.058,1.872.077V159.762h3.528v38.769q.936-.017,1.871-.055V159.762h3.528v38.485c.626-.057,1.25-.119,1.872-.191V159.762h3.528v37.8q.942-.157,1.872-.342V159.762h3.528v36.656q.943-.241,1.871-.51V159.762h3.528v35q.949-.342,1.872-.716V159.762h3.528v32.693q.954-.479,1.872-.993v-31.7h3.528v29.461c.66-.474,1.28-.961,1.871-1.455V159.762h.313a35.043,35.043,0,0,0-5.331-3.742,51.965,51.965,0,0,0-13.24-5.213H345.384A51.958,51.958,0,0,0,332.145,156.02Z" fill="#e8a200"/>
          <path id="Path_1015" data-name="Path 1015" d="M322.59,164.4a19.392,19.392,0,0,0-1.328,2.184h-.544v12.916a18.584,18.584,0,0,0,1.872,3.387Z" fill="#e8a200"/>
        </g>
        <ellipse id="Ellipse_55" data-name="Ellipse 55" cx="43.149" cy="24.912" rx="43.149" ry="24.912" transform="translate(319.507 141.677)" fill="#fdd762"/>
        <path id="Path_1016" data-name="Path 1016" d="M372.323,170.846c12.4-7.161,15.665-17.6,9.8-26.488-16.188-4.728-36.457-3.194-49.983,4.615-12.4,7.163-15.665,17.6-9.806,26.489C338.528,180.19,358.8,178.656,372.323,170.846Z" fill="#fff" opacity="0.2"/>
        <path id="Path_1017" data-name="Path 1017" d="M393.168,184.205c-16.851,9.729-44.171,9.729-61.022,0-8.143-4.7-12.339-10.814-12.612-16.974-.293,6.588,3.9,13.23,12.612,18.258,16.851,9.729,44.171,9.729,61.022,0,8.708-5.028,12.9-11.67,12.611-18.257C405.506,173.392,401.31,179.5,393.168,184.205Z" fill="#fff" opacity="0.7"/>
        <ellipse id="Ellipse_56" data-name="Ellipse 56" cx="30.629" cy="17.683" rx="30.629" ry="17.683" transform="translate(332.028 148.906)" fill="#e8a200"/>
        <path id="Path_1018" data-name="Path 1018" d="M341,155.7c11.962-6.906,31.355-6.906,43.316,0,5.625,3.248,8.6,7.445,8.938,11.7.377-4.791-2.6-9.654-8.938-13.312-11.961-6.906-31.354-6.907-43.316,0-6.336,3.658-9.314,8.52-8.937,13.311C332.4,163.143,335.374,158.947,341,155.7Z" fill="#f9bf30"/>
        <path id="Path_1019" data-name="Path 1019" d="M377.719,158.239l-2.374.679.675.268-2.318,1.338a13.08,13.08,0,0,0-5.878-1.373,11.23,11.23,0,0,0-5.659,1.531,8.8,8.8,0,0,0-1.709,1.239,3.645,3.645,0,0,0-.916,1.309,4.423,4.423,0,0,0-.3,1.255,7.166,7.166,0,0,0,.053,1.358l.275,2.162a6.5,6.5,0,0,1,.055,1.516,2.717,2.717,0,0,1-.514,1.227,4.147,4.147,0,0,1-1.359,1.164,2.772,2.772,0,0,1-2.911.212q-.971-.559-.493-1.4a7.545,7.545,0,0,1,2.584-2.084v-1.622l-2.029.761-2.919-1.238a9.453,9.453,0,0,0-3.46,3.108l-.334-.374v1.59h.007c.01,1.092.843,2.168,2.516,3.227l-1.154.667-1.567-.718v1.622l1.407.813,2.748-1.586A11.984,11.984,0,0,0,357.7,176a11.041,11.041,0,0,0,5.242-1.408,8.893,8.893,0,0,0,1.859-1.381,4.473,4.473,0,0,0,1.032-1.5,5.669,5.669,0,0,0,.383-1.483,7.976,7.976,0,0,0-.007-1.574l-.233-2.092c-.036-.421-.055-.726-.054-.915a4.152,4.152,0,0,1,.1-.793,1.838,1.838,0,0,1,.471-.9,4.387,4.387,0,0,1,1.012-.765,4.1,4.1,0,0,1,1.558-.5,2.516,2.516,0,0,1,1.558.26,1.47,1.47,0,0,1,.485.375.456.456,0,0,1,.086.271l-2.416.5v1.622l4.894,2.178q.6-.38,1.072-.706a10.353,10.353,0,0,0,.986-.79,5.818,5.818,0,0,0,.818-.883,3.133,3.133,0,0,0,.466-.955,2.134,2.134,0,0,0,.08-.485l.005-.006v-.025a.16.16,0,0,0,0-.022v-1.659l-.623.129c-.009-.011-.013-.021-.022-.032a5.781,5.781,0,0,0-1.307-1.116l2.569-1.484Z" fill="#f9bf30"/>
        <g id="Group_291" data-name="Group 291">
          <path id="Path_1020" data-name="Path 1020" d="M347.99,174.046l2.721-1.571q-2.79-1.767-2.495-3.594t3.766-3.958l4.948,2.1a7.545,7.545,0,0,0-2.584,2.084q-.479.837.493,1.4a2.77,2.77,0,0,0,2.911-.212,4.147,4.147,0,0,0,1.359-1.164,2.717,2.717,0,0,0,.514-1.227,6.5,6.5,0,0,0-.055-1.516l-.275-2.162a7.166,7.166,0,0,1-.053-1.358,4.423,4.423,0,0,1,.3-1.255,3.645,3.645,0,0,1,.916-1.309,8.8,8.8,0,0,1,1.709-1.239,11.23,11.23,0,0,1,5.659-1.531A13.08,13.08,0,0,1,373.7,158.9l2.583-1.491,1.434.828-2.569,1.484a5.781,5.781,0,0,1,1.307,1.116,2.811,2.811,0,0,1,.594,1.07,1.946,1.946,0,0,1-.034,1.03,3.132,3.132,0,0,1-.466.955,5.817,5.817,0,0,1-.818.883,10.351,10.351,0,0,1-.986.79q-.471.327-1.072.706l-4.894-2.178q.559-.339.916-.569t.724-.5a3.01,3.01,0,0,0,.533-.482,1.319,1.319,0,0,0,.233-.426.447.447,0,0,0-.076-.415,1.457,1.457,0,0,0-.485-.375,2.516,2.516,0,0,0-1.558-.26,4.105,4.105,0,0,0-1.558.5,4.36,4.36,0,0,0-1.012.766,1.831,1.831,0,0,0-.471.9,4.152,4.152,0,0,0-.1.793c0,.189.018.494.054.915l.233,2.092a7.975,7.975,0,0,1,.007,1.574,5.685,5.685,0,0,1-.383,1.484,4.49,4.49,0,0,1-1.031,1.5,8.891,8.891,0,0,1-1.86,1.381,11.042,11.042,0,0,1-5.242,1.409,12,12,0,0,1-5.557-1.109l-2.748,1.586Z" fill="#fdd762"/>
        </g>
      </g>
      <g id="Group_295" data-name="Group 295">
        <path id="Path_1021" data-name="Path 1021" d="M406,156.7h-1.756c-1.969-3.869-5.6-7.516-10.883-10.569-16.851-9.729-44.171-9.729-61.022,0-5.287,3.052-8.913,6.7-10.882,10.569h-1.755v7.047h0c0,6.375,4.213,12.751,12.638,17.615,16.851,9.729,44.172,9.729,61.022,0C401.792,176.495,406,170.119,406,163.744h0Z" fill="#f9bf30"/>
        <path id="Path_1022" data-name="Path 1022" d="M353.5,139.429a57.174,57.174,0,0,0-21.153,6.7c-5.287,3.052-8.913,6.7-10.882,10.569h-1.755v7.047c0,6.375,4.213,12.751,12.638,17.615a57.2,57.2,0,0,0,21.152,6.7Z" fill="#fdd762"/>
        <path id="Path_1023" data-name="Path 1023" d="M393.483,181.289c8.346-4.856,12.521-11.2,12.521-17.545V156.7h-1.756a25.16,25.16,0,0,0-8.662-9.176h-2.1Z" fill="#e8a200"/>
        <g id="Group_293" data-name="Group 293" opacity="0.4">
          <path id="Path_1024" data-name="Path 1024" d="M403.783,155.877a20.561,20.561,0,0,0-1.871-2.709v21.175a20.524,20.524,0,0,0,1.871-2.712Z" fill="#e8a200"/>
          <path id="Path_1025" data-name="Path 1025" d="M332.343,146.128a33.919,33.919,0,0,0-6.027,4.377v26.486c.588.538,1.206,1.069,1.872,1.586V149.87h3.528v31.107c.211.127.412.257.628.382.407.235.825.459,1.244.682V149.87h3.528v33.867q.922.4,1.871.763V149.87h3.528v35.847q.927.287,1.872.545V149.87h3.528v37.244q.93.2,1.872.369V149.87h3.528v38.166q.932.122,1.871.219V149.87h3.528v38.671c.623.035,1.247.059,1.872.078V149.87h3.528v38.769q.936-.017,1.872-.055V149.87h3.528v38.484c.625-.056,1.25-.118,1.871-.191V149.87h3.528v37.8q.942-.159,1.872-.343V149.87h3.528v36.656q.943-.241,1.872-.51V149.87h3.528v35q.948-.342,1.871-.716V149.87h3.528v32.693c.636-.32,1.261-.649,1.872-.993v-31.7h3.528v29.461c.66-.474,1.28-.961,1.872-1.455V149.87h.312a35.045,35.045,0,0,0-5.331-3.742,51.951,51.951,0,0,0-13.24-5.213H345.582A51.922,51.922,0,0,0,332.343,146.128Z" fill="#e8a200"/>
          <path id="Path_1026" data-name="Path 1026" d="M322.788,154.513a19.234,19.234,0,0,0-1.327,2.184h-.544v12.916A18.518,18.518,0,0,0,322.788,173Z" fill="#e8a200"/>
        </g>
        <ellipse id="Ellipse_57" data-name="Ellipse 57" cx="43.149" cy="24.912" rx="43.149" ry="24.912" transform="translate(319.706 131.785)" fill="#fdd762"/>
        <path id="Path_1027" data-name="Path 1027" d="M372.521,160.954c12.4-7.162,15.665-17.6,9.8-26.488-16.188-4.728-36.456-3.194-49.983,4.615-12.4,7.162-15.665,17.6-9.8,26.489C338.726,170.3,358.995,168.764,372.521,160.954Z" fill="#fff" opacity="0.2"/>
        <path id="Path_1028" data-name="Path 1028" d="M393.366,174.313c-16.85,9.729-44.171,9.729-61.022,0-8.143-4.7-12.338-10.814-12.612-16.974-.292,6.588,3.9,13.23,12.612,18.258,16.851,9.729,44.172,9.729,61.022,0,8.708-5.027,12.9-11.669,12.612-18.256C405.7,163.5,401.508,169.612,393.366,174.313Z" fill="#fff" opacity="0.7"/>
        <ellipse id="Ellipse_58" data-name="Ellipse 58" cx="30.629" cy="17.683" rx="30.629" ry="17.683" transform="translate(332.226 139.014)" fill="#e8a200"/>
        <path id="Path_1029" data-name="Path 1029" d="M341.2,145.808c11.961-6.906,31.354-6.906,43.315,0,5.625,3.248,8.6,7.445,8.938,11.7.377-4.791-2.6-9.654-8.938-13.313-11.961-6.906-31.354-6.906-43.315,0-6.336,3.658-9.314,8.52-8.937,13.311C332.594,153.251,335.572,149.055,341.2,145.808Z" fill="#f9bf30"/>
        <path id="Path_1030" data-name="Path 1030" d="M377.918,148.347l-2.374.679.674.267-2.318,1.339a13.094,13.094,0,0,0-5.877-1.374,11.254,11.254,0,0,0-5.66,1.531,8.791,8.791,0,0,0-1.708,1.24,3.649,3.649,0,0,0-.917,1.309,4.449,4.449,0,0,0-.3,1.255,7.092,7.092,0,0,0,.054,1.358l.274,2.162a6.442,6.442,0,0,1,.055,1.515,2.725,2.725,0,0,1-.513,1.228,4.157,4.157,0,0,1-1.359,1.164,2.774,2.774,0,0,1-2.912.212q-.97-.56-.493-1.4a7.545,7.545,0,0,1,2.584-2.084V157.13l-2.029.761-2.919-1.238a9.453,9.453,0,0,0-3.46,3.108l-.333-.374v1.59h.007c.01,1.091.843,2.168,2.515,3.227l-1.154.666-1.567-.717v1.622l1.408.813L352.343,165a11.984,11.984,0,0,0,5.557,1.108,11.03,11.03,0,0,0,5.242-1.409,8.891,8.891,0,0,0,1.86-1.38,4.484,4.484,0,0,0,1.031-1.5,5.668,5.668,0,0,0,.383-1.483,7.98,7.98,0,0,0-.006-1.575l-.233-2.091c-.036-.421-.055-.726-.055-.916a4.255,4.255,0,0,1,.1-.793,1.843,1.843,0,0,1,.471-.9,4.386,4.386,0,0,1,1.012-.765,4.111,4.111,0,0,1,1.558-.5,2.508,2.508,0,0,1,1.558.26,1.447,1.447,0,0,1,.485.375.443.443,0,0,1,.086.271l-2.416.5v1.622L373.873,158q.6-.38,1.072-.706a10.228,10.228,0,0,0,.986-.79,5.88,5.88,0,0,0,.819-.883,3.153,3.153,0,0,0,.465-.955,2.092,2.092,0,0,0,.08-.485l0-.006v-.025a.16.16,0,0,0,0-.022v-1.659l-.623.129c-.009-.011-.013-.021-.022-.032a5.8,5.8,0,0,0-1.306-1.116l2.569-1.484Z" fill="#f9bf30"/>
        <g id="Group_294" data-name="Group 294">
          <path id="Path_1031" data-name="Path 1031" d="M348.188,164.154l2.721-1.571q-2.79-1.767-2.495-3.594t3.766-3.958l4.948,2.1a7.545,7.545,0,0,0-2.584,2.084q-.479.835.493,1.4a2.774,2.774,0,0,0,2.912-.212,4.157,4.157,0,0,0,1.359-1.164,2.725,2.725,0,0,0,.513-1.228,6.442,6.442,0,0,0-.055-1.515l-.274-2.162a7.092,7.092,0,0,1-.054-1.358,4.449,4.449,0,0,1,.3-1.255,3.649,3.649,0,0,1,.917-1.309,8.79,8.79,0,0,1,1.708-1.239,11.245,11.245,0,0,1,5.66-1.532,13.094,13.094,0,0,1,5.877,1.374l2.583-1.491,1.435.828-2.569,1.484a5.8,5.8,0,0,1,1.306,1.116,2.8,2.8,0,0,1,.594,1.069,1.95,1.95,0,0,1-.034,1.031,3.153,3.153,0,0,1-.465.955,5.879,5.879,0,0,1-.819.883,10.231,10.231,0,0,1-.986.79q-.471.327-1.072.706l-4.894-2.178q.559-.339.916-.569t.724-.505a3.061,3.061,0,0,0,.534-.481,1.335,1.335,0,0,0,.232-.426.441.441,0,0,0-.076-.415,1.447,1.447,0,0,0-.485-.375,2.508,2.508,0,0,0-1.558-.26,4.111,4.111,0,0,0-1.558.5,4.386,4.386,0,0,0-1.012.765,1.843,1.843,0,0,0-.471.9,4.256,4.256,0,0,0-.1.793c0,.19.019.5.055.916l.233,2.092a7.97,7.97,0,0,1,.006,1.574,5.669,5.669,0,0,1-.383,1.483A4.484,4.484,0,0,1,365,161.7a8.891,8.891,0,0,1-1.86,1.38,11.031,11.031,0,0,1-5.242,1.409,11.984,11.984,0,0,1-5.557-1.108l-2.747,1.586Z" fill="#fdd762"/>
        </g>
      </g>
      <g id="Group_298" data-name="Group 298">
        <path id="Path_1032" data-name="Path 1032" d="M412.417,146.767h-1.756c-1.97-3.869-5.6-7.517-10.883-10.569-16.851-9.729-44.172-9.729-61.022,0-5.287,3.053-8.914,6.7-10.883,10.57h-1.755v7.046h0c0,6.376,4.213,12.751,12.639,17.615,16.851,9.729,44.171,9.73,61.022,0,8.425-4.865,12.638-11.24,12.638-17.616h0Z" fill="#f9bf30"/>
        <path id="Path_1033" data-name="Path 1033" d="M359.909,129.5a57.18,57.18,0,0,0-21.153,6.7c-5.287,3.053-8.914,6.7-10.883,10.57h-1.755v7.046c0,6.376,4.213,12.751,12.639,17.615a57.182,57.182,0,0,0,21.152,6.7Z" fill="#fdd762"/>
        <path id="Path_1034" data-name="Path 1034" d="M399.9,171.358c8.345-4.856,12.521-11.2,12.521-17.545v-7.046h-1.756A25.157,25.157,0,0,0,402,137.59h-2.1Z" fill="#e8a200"/>
        <g id="Group_296" data-name="Group 296" opacity="0.4">
          <path id="Path_1035" data-name="Path 1035" d="M410.2,145.947a20.605,20.605,0,0,0-1.872-2.709v21.175A20.611,20.611,0,0,0,410.2,161.7Z" fill="#e8a200"/>
          <path id="Path_1036" data-name="Path 1036" d="M338.756,136.2a34.018,34.018,0,0,0-6.027,4.377V167.06c.587.538,1.206,1.069,1.872,1.586V139.939h3.528v31.108c.21.127.411.257.628.381.406.235.825.459,1.243.683V139.939h3.528v33.868q.922.4,1.872.763V139.939h3.528v35.848q.927.286,1.871.544V139.939h3.528v37.245q.93.2,1.872.369V139.939h3.528V178.1q.933.122,1.872.22V139.939h3.528v38.672c.623.034,1.247.058,1.871.077V139.939h3.528v38.769q.938-.015,1.872-.055V139.939h3.528v38.485c.626-.057,1.25-.119,1.872-.191V139.939h3.528v37.8q.941-.157,1.872-.342V139.939h3.528V176.6q.943-.24,1.871-.51V139.939h3.528v35q.948-.343,1.872-.717V139.939h3.528v32.693q.954-.479,1.872-.993v-31.7h3.527V169.4c.661-.474,1.281-.96,1.872-1.455V139.939h.313a35.043,35.043,0,0,0-5.331-3.741,51.931,51.931,0,0,0-13.24-5.214H351.995A51.943,51.943,0,0,0,338.756,136.2Z" fill="#e8a200"/>
          <path id="Path_1037" data-name="Path 1037" d="M329.2,144.582a19.262,19.262,0,0,0-1.328,2.185h-.544v12.915a18.489,18.489,0,0,0,1.872,3.387Z" fill="#e8a200"/>
        </g>
        <ellipse id="Ellipse_59" data-name="Ellipse 59" cx="43.149" cy="24.912" rx="43.149" ry="24.912" transform="translate(326.118 121.855)" fill="#fdd762"/>
        <path id="Path_1038" data-name="Path 1038" d="M378.933,151.024c12.4-7.162,15.666-17.6,9.806-26.489-16.188-4.728-36.457-3.194-49.983,4.616-12.4,7.162-15.665,17.6-9.806,26.488C345.139,160.368,365.407,158.833,378.933,151.024Z" fill="#fff" opacity="0.2"/>
        <path id="Path_1039" data-name="Path 1039" d="M399.779,164.383c-16.851,9.728-44.171,9.728-61.022,0-8.143-4.7-12.339-10.814-12.612-16.974-.293,6.588,3.9,13.231,12.612,18.258,16.851,9.73,44.171,9.73,61.022,0,8.708-5.028,12.9-11.669,12.611-18.257C412.116,153.57,407.921,159.682,399.779,164.383Z" fill="#fff" opacity="0.7"/>
        <ellipse id="Ellipse_60" data-name="Ellipse 60" cx="30.629" cy="17.683" rx="30.629" ry="17.683" transform="translate(338.639 129.083)" fill="#e8a200"/>
        <path id="Path_1040" data-name="Path 1040" d="M347.609,135.877c11.961-6.906,31.354-6.9,43.316,0,5.625,3.247,8.6,7.444,8.938,11.7.377-4.791-2.6-9.654-8.938-13.312-11.962-6.906-31.355-6.906-43.316,0-6.336,3.659-9.314,8.521-8.937,13.311C339.007,143.321,341.985,139.124,347.609,135.877Z" fill="#f9bf30"/>
        <path id="Path_1041" data-name="Path 1041" d="M384.33,138.416l-2.374.679.675.268-2.318,1.338a13.1,13.1,0,0,0-5.878-1.373,11.237,11.237,0,0,0-5.66,1.531,8.791,8.791,0,0,0-1.708,1.239,3.64,3.64,0,0,0-.916,1.31,4.375,4.375,0,0,0-.3,1.254,7.093,7.093,0,0,0,.053,1.359l.275,2.161a6.557,6.557,0,0,1,.055,1.516,2.713,2.713,0,0,1-.514,1.227,4.147,4.147,0,0,1-1.359,1.164,2.771,2.771,0,0,1-2.912.212c-.646-.373-.812-.838-.492-1.4a7.538,7.538,0,0,1,2.583-2.084V147.2l-2.028.762-2.919-1.238a9.445,9.445,0,0,0-3.46,3.108l-.334-.375v1.591h.007c.01,1.092.843,2.168,2.516,3.228l-1.154.666-1.567-.718v1.622l1.407.813,2.747-1.586a12,12,0,0,0,5.558,1.109,11.045,11.045,0,0,0,5.242-1.409,8.849,8.849,0,0,0,1.859-1.381,4.47,4.47,0,0,0,1.032-1.5,5.722,5.722,0,0,0,.382-1.484,7.894,7.894,0,0,0-.006-1.574l-.233-2.092c-.036-.42-.055-.726-.054-.915a4.237,4.237,0,0,1,.1-.793,1.841,1.841,0,0,1,.472-.9,4.373,4.373,0,0,1,1.011-.766,4.116,4.116,0,0,1,1.559-.5,2.509,2.509,0,0,1,1.558.261,1.444,1.444,0,0,1,.485.375.454.454,0,0,1,.086.271l-2.416.5v1.622l4.894,2.178q.6-.38,1.072-.706a10.194,10.194,0,0,0,.985-.79,5.828,5.828,0,0,0,.819-.883,3.121,3.121,0,0,0,.466-.955,2.136,2.136,0,0,0,.08-.485l.005-.006v-1.706l-.623.13c-.009-.011-.013-.021-.023-.032a5.776,5.776,0,0,0-1.306-1.117l2.569-1.484Z" fill="#f9bf30"/>
        <g id="Group_297" data-name="Group 297">
          <path id="Path_1042" data-name="Path 1042" d="M354.6,154.223l2.721-1.57q-2.79-1.769-2.5-3.6t3.767-3.957l4.947,2.1a7.538,7.538,0,0,0-2.583,2.084c-.32.558-.154,1.023.492,1.4a2.774,2.774,0,0,0,2.912-.213,4.147,4.147,0,0,0,1.359-1.164,2.713,2.713,0,0,0,.514-1.227,6.557,6.557,0,0,0-.055-1.516L365.9,144.4a7.085,7.085,0,0,1-.053-1.358,4.406,4.406,0,0,1,.3-1.255,3.64,3.64,0,0,1,.916-1.31,8.79,8.79,0,0,1,1.708-1.239,11.237,11.237,0,0,1,5.66-1.531,13.085,13.085,0,0,1,5.878,1.374l2.583-1.492,1.434.828-2.569,1.484a5.806,5.806,0,0,1,1.307,1.117,2.814,2.814,0,0,1,.594,1.069,1.946,1.946,0,0,1-.034,1.03,3.121,3.121,0,0,1-.466.955,5.775,5.775,0,0,1-.819.883,10.351,10.351,0,0,1-.985.79q-.471.327-1.072.706l-4.894-2.178q.56-.339.916-.568t.724-.5a2.971,2.971,0,0,0,.533-.482,1.3,1.3,0,0,0,.232-.426.442.442,0,0,0-.075-.414,1.444,1.444,0,0,0-.485-.375,2.509,2.509,0,0,0-1.558-.261,4.116,4.116,0,0,0-1.559.5,4.373,4.373,0,0,0-1.011.766,1.841,1.841,0,0,0-.472.9,4.237,4.237,0,0,0-.1.793c0,.189.018.494.054.915l.233,2.092a7.894,7.894,0,0,1,.006,1.574,5.722,5.722,0,0,1-.382,1.484,4.48,4.48,0,0,1-1.032,1.5,8.848,8.848,0,0,1-1.859,1.381,11.045,11.045,0,0,1-5.242,1.409,12,12,0,0,1-5.558-1.109l-2.747,1.586Z" fill="#fdd762"/>
        </g>
      </g>
      <path id="Path_1043" data-name="Path 1043" d="M374.913,178.674l-6.995-4.057-6.995,4.057,4.057-6.995-4.057-6.995,6.995,4.057,6.995-4.057-4.057,6.995Z" fill="#fff"/>
    </g>
    <g id="Group_302" data-name="Group 302">
      <path id="Path_1044" data-name="Path 1044" d="M325.359,286.544l25.551-14.752,25.551,14.752L350.91,301.3Z" fill="#d4ecff"/>
      <path id="Path_1045" data-name="Path 1045" d="M379.6,254.812l25.551-14.752L430.7,254.812l-25.551,14.752Z" fill="#d4ecff"/>
      <path id="Path_1046" data-name="Path 1046" d="M433.667,223.836l25.551-14.752,25.551,14.752-25.551,14.752Z" fill="#d4ecff"/>
      <g id="Group_301" data-name="Group 301">
        <g id="Group_300" data-name="Group 300">
          <path id="Path_1047" data-name="Path 1047" d="M459.218,115.656,433.667,100.9v1.833l25.551,14.752,25.551-14.752V100.9Z" fill="#fff"/>
          <path id="Path_1048" data-name="Path 1048" d="M351.121,286.684V241.926l-25.267-14.588V272.1Z" fill="#b70083"/>
          <path id="Path_1049" data-name="Path 1049" d="M351.121,241.926l25.267-14.588V272.1l-25.267,14.588Z" fill="#d3008d"/>
          <path id="Path_1050" data-name="Path 1050" d="M325.855,227.338l25.267-14.588,25.267,14.588-25.267,14.588Z" fill="#ff2c9c"/>
          <path id="Path_1051" data-name="Path 1051" d="M459.121,218.684V114.926l-25.267-14.588V204.1Z" fill="#b70083"/>
          <path id="Path_1052" data-name="Path 1052" d="M459.121,114.926l25.267-14.588V204.1l-25.267,14.588Z" fill="#d3008d"/>
          <path id="Path_1053" data-name="Path 1053" d="M433.855,100.338,459.121,85.75l25.267,14.588-25.267,14.588Z" fill="#ff2c9c"/>
        </g>
      </g>
    </g>
    <g id="Group_318" data-name="Group 318">
      <ellipse id="Ellipse_61" data-name="Ellipse 61" cx="46.723" cy="26.976" rx="46.723" ry="26.976" transform="translate(441.674 228.119)" fill="#d4ecff"/>
      <g id="Group_305" data-name="Group 305">
        <path id="Path_1054" data-name="Path 1054" d="M531.349,243.918h-1.756c-1.97-3.869-5.6-7.517-10.883-10.569-16.851-9.73-44.171-9.73-61.022,0-5.287,3.052-8.913,6.7-10.882,10.57H445.05v7.046h0c0,6.376,4.214,12.751,12.639,17.615,16.851,9.729,44.172,9.73,61.022,0,8.426-4.865,12.638-11.24,12.638-17.616h0Z" fill="#f9bf30"/>
        <path id="Path_1055" data-name="Path 1055" d="M478.841,226.649a57.192,57.192,0,0,0-21.153,6.7c-5.287,3.052-8.913,6.7-10.882,10.57H445.05v7.046c0,6.376,4.214,12.751,12.639,17.615a57.182,57.182,0,0,0,21.152,6.7Z" fill="#fdd762"/>
        <path id="Path_1056" data-name="Path 1056" d="M518.828,268.509c8.345-4.856,12.521-11.2,12.521-17.545v-7.046h-1.756a25.155,25.155,0,0,0-8.662-9.177h-2.1Z" fill="#e8a200"/>
        <g id="Group_303" data-name="Group 303" opacity="0.4">
          <path id="Path_1057" data-name="Path 1057" d="M529.128,243.1a20.509,20.509,0,0,0-1.872-2.709v21.175a20.507,20.507,0,0,0,1.872-2.713Z" fill="#e8a200"/>
          <path id="Path_1058" data-name="Path 1058" d="M457.688,233.348a34.018,34.018,0,0,0-6.027,4.377v26.486c.587.538,1.206,1.069,1.872,1.586V237.09h3.528V268.2c.21.126.412.256.628.381.407.235.825.459,1.244.683V237.09h3.527v33.867q.924.4,1.872.764V237.09h3.528v35.847q.927.286,1.872.545V237.09h3.528v37.244q.93.2,1.871.37V237.09h3.528v38.166q.933.121,1.872.22V237.09h3.528v38.672c.623.034,1.247.058,1.872.077V237.09h3.528v38.769q.936-.015,1.872-.055V237.09h3.528v38.485c.625-.057,1.249-.119,1.871-.191V237.09h3.528v37.8q.942-.157,1.872-.342V237.09h3.528v36.656q.943-.24,1.872-.51V237.09h3.528v35q.948-.344,1.871-.717V237.09h3.528v32.693q.954-.479,1.872-.993v-31.7h3.528v29.461c.66-.474,1.28-.96,1.871-1.455V237.09h.313a35.043,35.043,0,0,0-5.331-3.741,51.931,51.931,0,0,0-13.24-5.214H470.927A51.957,51.957,0,0,0,457.688,233.348Z" fill="#e8a200"/>
          <path id="Path_1059" data-name="Path 1059" d="M448.133,241.733a19.247,19.247,0,0,0-1.327,2.185h-.545v12.915a18.551,18.551,0,0,0,1.872,3.387Z" fill="#e8a200"/>
        </g>
        <ellipse id="Ellipse_62" data-name="Ellipse 62" cx="43.149" cy="24.912" rx="43.149" ry="24.912" transform="translate(445.05 219.005)" fill="#fdd762"/>
        <path id="Path_1060" data-name="Path 1060" d="M497.866,248.175c12.4-7.162,15.665-17.6,9.8-26.489-16.188-4.728-36.457-3.194-49.983,4.616-12.4,7.162-15.665,17.6-9.806,26.488C464.071,257.518,484.34,255.984,497.866,248.175Z" fill="#fff" opacity="0.2"/>
        <path id="Path_1061" data-name="Path 1061" d="M518.711,261.534c-16.85,9.728-44.171,9.728-61.022,0-8.143-4.7-12.339-10.814-12.612-16.974-.293,6.588,3.9,13.23,12.612,18.258,16.851,9.73,44.172,9.73,61.022,0,8.708-5.028,12.9-11.669,12.611-18.257C531.049,250.721,526.853,256.832,518.711,261.534Z" fill="#fff" opacity="0.7"/>
        <ellipse id="Ellipse_63" data-name="Ellipse 63" cx="30.629" cy="17.683" rx="30.629" ry="17.683" transform="translate(457.571 226.234)" fill="#e8a200"/>
        <path id="Path_1062" data-name="Path 1062" d="M466.542,233.028c11.961-6.906,31.354-6.9,43.315,0,5.625,3.248,8.6,7.445,8.938,11.7.377-4.791-2.6-9.654-8.938-13.312-11.961-6.906-31.354-6.906-43.315,0-6.336,3.659-9.314,8.521-8.938,13.311C457.939,240.472,460.917,236.275,466.542,233.028Z" fill="#f9bf30"/>
        <path id="Path_1063" data-name="Path 1063" d="M503.263,235.567l-2.374.679.674.268-2.318,1.338a13.08,13.08,0,0,0-5.878-1.373,11.233,11.233,0,0,0-5.659,1.531A8.8,8.8,0,0,0,486,239.249a3.64,3.64,0,0,0-.916,1.31,4.409,4.409,0,0,0-.3,1.254,7.179,7.179,0,0,0,.053,1.359l.275,2.161a6.5,6.5,0,0,1,.055,1.516,2.713,2.713,0,0,1-.514,1.227,4.147,4.147,0,0,1-1.359,1.164,2.77,2.77,0,0,1-2.911.212q-.971-.56-.493-1.4a7.545,7.545,0,0,1,2.584-2.084V244.35l-2.029.762-2.919-1.239a9.454,9.454,0,0,0-3.46,3.109l-.334-.375v1.59h.007c.01,1.092.843,2.168,2.516,3.228l-1.154.666-1.567-.718V253l1.407.813,2.748-1.586a12,12,0,0,0,5.557,1.109,11.042,11.042,0,0,0,5.242-1.409,8.858,8.858,0,0,0,1.859-1.381,4.48,4.48,0,0,0,1.032-1.5,5.685,5.685,0,0,0,.383-1.484,8.048,8.048,0,0,0-.006-1.574l-.233-2.092q-.056-.632-.055-.915a4.246,4.246,0,0,1,.1-.793,1.839,1.839,0,0,1,.471-.9,4.361,4.361,0,0,1,1.012-.766,4.111,4.111,0,0,1,1.558-.5,2.509,2.509,0,0,1,1.558.261,1.444,1.444,0,0,1,.485.375.447.447,0,0,1,.086.271l-2.416.5v1.622l4.894,2.178q.6-.38,1.072-.706a10.353,10.353,0,0,0,.986-.79,5.816,5.816,0,0,0,.818-.883,3.121,3.121,0,0,0,.466-.955,2.136,2.136,0,0,0,.08-.485l0-.006v-.025a.16.16,0,0,0,0-.022v-1.659l-.623.129c-.009-.01-.013-.02-.022-.032a5.807,5.807,0,0,0-1.307-1.116l2.57-1.484Z" fill="#f9bf30"/>
        <g id="Group_304" data-name="Group 304">
          <path id="Path_1064" data-name="Path 1064" d="M473.533,251.374l2.721-1.57q-2.79-1.769-2.495-3.6t3.766-3.958l4.948,2.1a7.545,7.545,0,0,0-2.584,2.084q-.479.837.493,1.4a2.77,2.77,0,0,0,2.911-.212,4.147,4.147,0,0,0,1.359-1.164,2.713,2.713,0,0,0,.514-1.227,6.5,6.5,0,0,0-.055-1.516l-.275-2.161a7.179,7.179,0,0,1-.053-1.359,4.423,4.423,0,0,1,.3-1.255,3.645,3.645,0,0,1,.916-1.309,8.8,8.8,0,0,1,1.709-1.239,11.233,11.233,0,0,1,5.659-1.531,13.08,13.08,0,0,1,5.878,1.373l2.583-1.491,1.435.828-2.57,1.484A5.807,5.807,0,0,1,502,238.167a2.8,2.8,0,0,1,.594,1.07,1.946,1.946,0,0,1-.034,1.03,3.121,3.121,0,0,1-.466.955,5.815,5.815,0,0,1-.818.883,10.356,10.356,0,0,1-.986.79q-.471.327-1.072.706l-4.894-2.178q.559-.339.916-.568t.724-.5a2.972,2.972,0,0,0,.533-.482,1.319,1.319,0,0,0,.233-.426.445.445,0,0,0-.076-.414,1.434,1.434,0,0,0-.485-.375,2.509,2.509,0,0,0-1.558-.261,4.111,4.111,0,0,0-1.558.5,4.36,4.36,0,0,0-1.012.766,1.839,1.839,0,0,0-.471.9,4.255,4.255,0,0,0-.1.793q0,.283.055.915l.233,2.092a8.048,8.048,0,0,1,.006,1.574,5.685,5.685,0,0,1-.383,1.484,4.49,4.49,0,0,1-1.031,1.5,8.891,8.891,0,0,1-1.86,1.381,11.042,11.042,0,0,1-5.242,1.409,12,12,0,0,1-5.557-1.109l-2.748,1.586Z" fill="#fdd762"/>
        </g>
      </g>
      <g id="Group_308" data-name="Group 308">
        <path id="Path_1065" data-name="Path 1065" d="M531,230.5h-1.755c-1.97-3.869-5.6-7.516-10.883-10.569-16.851-9.729-44.172-9.729-61.022,0-5.288,3.052-8.914,6.7-10.883,10.569H444.7v7.047h0c0,6.375,4.213,12.751,12.638,17.615,16.851,9.729,44.172,9.729,61.023,0C526.788,250.3,531,243.925,531,237.55h0Z" fill="#f9bf30"/>
        <path id="Path_1066" data-name="Path 1066" d="M478.493,213.234a57.181,57.181,0,0,0-21.153,6.7c-5.288,3.052-8.914,6.7-10.883,10.569H444.7v7.047c0,6.375,4.213,12.751,12.638,17.615a57.193,57.193,0,0,0,21.153,6.7Z" fill="#fdd762"/>
        <path id="Path_1067" data-name="Path 1067" d="M518.48,255.1C526.825,250.239,531,243.9,531,237.55V230.5h-1.755a25.163,25.163,0,0,0-8.663-9.176h-2.1Z" fill="#e8a200"/>
        <g id="Group_306" data-name="Group 306" opacity="0.4">
          <path id="Path_1068" data-name="Path 1068" d="M528.78,229.683a20.677,20.677,0,0,0-1.872-2.709v21.175a20.631,20.631,0,0,0,1.872-2.712Z" fill="#e8a200"/>
          <path id="Path_1069" data-name="Path 1069" d="M457.34,219.934a33.918,33.918,0,0,0-6.027,4.377V250.8c.587.538,1.206,1.069,1.871,1.586V223.676h3.528v31.107c.211.127.412.257.628.382.407.235.825.459,1.244.682V223.676h3.528v33.867q.922.4,1.872.763v-34.63h3.528v35.847q.926.286,1.871.545V223.676h3.528V260.92q.93.2,1.872.369V223.676h3.528v38.166q.933.121,1.872.219V223.676h3.527v38.671c.623.035,1.248.059,1.872.078V223.676h3.528v38.769q.938-.017,1.872-.055V223.676h3.528V262.16c.626-.056,1.25-.118,1.872-.19V223.676h3.528v37.8q.94-.158,1.871-.341V223.676h3.528v36.656q.945-.242,1.872-.51V223.676h3.528v35q.948-.342,1.872-.716V223.676h3.528v32.693q.954-.479,1.871-.993v-31.7h3.528v29.461c.661-.474,1.28-.961,1.872-1.455V223.676h.312a35.083,35.083,0,0,0-5.33-3.742,51.957,51.957,0,0,0-13.241-5.213H470.578A51.9,51.9,0,0,0,457.34,219.934Z" fill="#e8a200"/>
          <path id="Path_1070" data-name="Path 1070" d="M447.784,228.319a19.381,19.381,0,0,0-1.327,2.184h-.544v12.916a18.518,18.518,0,0,0,1.871,3.387Z" fill="#e8a200"/>
        </g>
        <ellipse id="Ellipse_64" data-name="Ellipse 64" cx="43.149" cy="24.912" rx="43.149" ry="24.912" transform="translate(444.702 205.591)" fill="#fdd762"/>
        <path id="Path_1071" data-name="Path 1071" d="M497.517,234.76c12.4-7.162,15.665-17.6,9.806-26.488-16.189-4.728-36.457-3.194-49.983,4.615-12.4,7.162-15.666,17.6-9.806,26.489C463.722,244.1,483.991,242.57,497.517,234.76Z" fill="#fff" opacity="0.2"/>
        <path id="Path_1072" data-name="Path 1072" d="M518.363,248.119c-16.851,9.729-44.172,9.729-61.023,0-8.142-4.7-12.338-10.813-12.612-16.973-.292,6.588,3.9,13.23,12.612,18.258,16.851,9.729,44.172,9.729,61.023,0,8.708-5.027,12.9-11.669,12.611-18.256C530.7,237.306,526.505,243.418,518.363,248.119Z" fill="#fff" opacity="0.7"/>
        <ellipse id="Ellipse_65" data-name="Ellipse 65" cx="30.629" cy="17.683" rx="30.629" ry="17.683" transform="translate(457.222 212.82)" fill="#e8a200"/>
        <path id="Path_1073" data-name="Path 1073" d="M466.193,219.614c11.961-6.906,31.354-6.906,43.315,0,5.626,3.248,8.6,7.445,8.938,11.7.378-4.792-2.6-9.654-8.938-13.313-11.961-6.906-31.354-6.906-43.315,0-6.336,3.658-9.314,8.52-8.937,13.311C457.591,227.057,460.568,222.861,466.193,219.614Z" fill="#f9bf30"/>
        <path id="Path_1074" data-name="Path 1074" d="M502.914,222.153l-2.374.679.674.267-2.318,1.339a13.094,13.094,0,0,0-5.877-1.374,11.257,11.257,0,0,0-5.66,1.531,8.791,8.791,0,0,0-1.708,1.24,3.646,3.646,0,0,0-.916,1.309,4.428,4.428,0,0,0-.3,1.255,7.092,7.092,0,0,0,.054,1.358l.274,2.162a6.44,6.44,0,0,1,.055,1.515,2.7,2.7,0,0,1-.513,1.228,4.157,4.157,0,0,1-1.359,1.164,2.774,2.774,0,0,1-2.912.212q-.971-.56-.493-1.4a7.545,7.545,0,0,1,2.584-2.084v-1.622l-2.029.761-2.918-1.238a9.449,9.449,0,0,0-3.461,3.108l-.333-.374v1.59h.007c.01,1.091.843,2.168,2.515,3.227l-1.154.666-1.566-.717v1.622l1.407.813,2.747-1.586a11.988,11.988,0,0,0,5.558,1.108,11.03,11.03,0,0,0,5.241-1.409,8.863,8.863,0,0,0,1.86-1.38,4.469,4.469,0,0,0,1.031-1.5,5.668,5.668,0,0,0,.383-1.483,7.98,7.98,0,0,0-.006-1.575l-.233-2.091c-.036-.421-.055-.726-.054-.915a4.155,4.155,0,0,1,.1-.794,1.851,1.851,0,0,1,.471-.9,4.431,4.431,0,0,1,1.012-.765,4.11,4.11,0,0,1,1.559-.5,2.506,2.506,0,0,1,1.557.26,1.447,1.447,0,0,1,.485.375.443.443,0,0,1,.086.271l-2.416.5v1.622l4.895,2.178q.6-.38,1.071-.706a10.228,10.228,0,0,0,.986-.79,5.829,5.829,0,0,0,.819-.883,3.131,3.131,0,0,0,.465-.955,2.09,2.09,0,0,0,.08-.485l.006-.006v-1.706l-.623.129c-.009-.011-.014-.021-.023-.032a5.775,5.775,0,0,0-1.306-1.116l2.569-1.484Z" fill="#f9bf30"/>
        <g id="Group_307" data-name="Group 307">
          <path id="Path_1075" data-name="Path 1075" d="M473.185,237.96l2.72-1.571q-2.789-1.767-2.495-3.594t3.767-3.958l4.947,2.1a7.545,7.545,0,0,0-2.584,2.084q-.479.837.493,1.4a2.774,2.774,0,0,0,2.912-.212,4.157,4.157,0,0,0,1.359-1.164,2.7,2.7,0,0,0,.513-1.228,6.44,6.44,0,0,0-.055-1.515l-.274-2.162a7.092,7.092,0,0,1-.054-1.358,4.42,4.42,0,0,1,.3-1.255,3.646,3.646,0,0,1,.916-1.309,8.791,8.791,0,0,1,1.708-1.239,11.237,11.237,0,0,1,5.66-1.531,13.076,13.076,0,0,1,5.877,1.373l2.583-1.491,1.435.828-2.569,1.484a5.775,5.775,0,0,1,1.306,1.116,2.819,2.819,0,0,1,.6,1.069,1.96,1.96,0,0,1-.035,1.031,3.131,3.131,0,0,1-.465.955,5.828,5.828,0,0,1-.819.883,10.231,10.231,0,0,1-.986.79q-.471.327-1.071.706l-4.895-2.178q.561-.339.916-.569t.725-.505a3.01,3.01,0,0,0,.533-.481,1.315,1.315,0,0,0,.232-.426.441.441,0,0,0-.076-.415,1.447,1.447,0,0,0-.485-.375,2.506,2.506,0,0,0-1.557-.26,4.11,4.11,0,0,0-1.559.5,4.43,4.43,0,0,0-1.012.765,1.851,1.851,0,0,0-.471.9,4.156,4.156,0,0,0-.1.793c0,.19.018.5.054.916l.233,2.092a7.97,7.97,0,0,1,.006,1.574,5.669,5.669,0,0,1-.383,1.483,4.469,4.469,0,0,1-1.031,1.5,8.863,8.863,0,0,1-1.86,1.38,11.03,11.03,0,0,1-5.241,1.409,11.988,11.988,0,0,1-5.558-1.108l-2.747,1.586Z" fill="#fdd762"/>
        </g>
      </g>
      <g id="Group_311" data-name="Group 311">
        <path id="Path_1076" data-name="Path 1076" d="M539.37,222.2h-1.756c-1.969-3.868-5.6-7.516-10.882-10.568-16.851-9.73-44.172-9.73-61.022,0-5.288,3.052-8.914,6.7-10.883,10.569h-1.755v7.047h0c0,6.375,4.213,12.751,12.638,17.615,16.851,9.729,44.172,9.73,61.023,0,8.425-4.865,12.638-11.241,12.637-17.616h0Z" fill="#f9bf30"/>
        <path id="Path_1077" data-name="Path 1077" d="M486.863,204.928a57.162,57.162,0,0,0-21.153,6.7c-5.288,3.052-8.914,6.7-10.883,10.569h-1.755v7.047c0,6.375,4.213,12.751,12.638,17.615a57.193,57.193,0,0,0,21.153,6.7Z" fill="#fdd762"/>
        <path id="Path_1078" data-name="Path 1078" d="M526.85,246.788c8.345-4.856,12.521-11.2,12.52-17.545V222.2h-1.756a25.16,25.16,0,0,0-8.662-9.176h-2.1Z" fill="#e8a200"/>
        <g id="Group_309" data-name="Group 309" opacity="0.4">
          <path id="Path_1079" data-name="Path 1079" d="M537.15,221.377a20.61,20.61,0,0,0-1.872-2.709v21.175a20.706,20.706,0,0,0,1.872-2.713Z" fill="#e8a200"/>
          <path id="Path_1080" data-name="Path 1080" d="M465.71,211.627A33.967,33.967,0,0,0,459.683,216V242.49c.587.538,1.206,1.069,1.871,1.586V215.369h3.528v31.108c.211.127.412.256.628.381.407.235.825.459,1.244.683V215.369h3.528v33.867q.922.4,1.872.764V215.369h3.527v35.847q.927.286,1.872.545V215.369h3.528v37.244q.93.2,1.872.37V215.369h3.528v38.166q.933.121,1.872.22V215.369h3.528v38.672c.622.034,1.247.058,1.871.077V215.369h3.528v38.769q.938-.015,1.872-.055V215.369h3.528v38.485c.626-.057,1.25-.119,1.872-.191V215.369h3.528v37.8q.941-.157,1.871-.342V215.369h3.528v36.656q.945-.24,1.872-.51V215.369h3.528v35q.948-.344,1.872-.717V215.369h3.528v32.693q.954-.479,1.871-.993v-31.7h3.528V244.83c.661-.474,1.28-.961,1.872-1.455V215.369h.312a34.912,34.912,0,0,0-5.33-3.741,51.922,51.922,0,0,0-13.241-5.214H478.949A51.929,51.929,0,0,0,465.71,211.627Z" fill="#e8a200"/>
          <path id="Path_1081" data-name="Path 1081" d="M456.155,220.012a19.246,19.246,0,0,0-1.328,2.184h-.544v12.916a18.431,18.431,0,0,0,1.872,3.387Z" fill="#e8a200"/>
        </g>
        <ellipse id="Ellipse_66" data-name="Ellipse 66" cx="43.149" cy="24.912" rx="43.149" ry="24.912" transform="translate(453.072 197.284)" fill="#fdd762"/>
        <path id="Path_1082" data-name="Path 1082" d="M505.887,226.454c12.4-7.162,15.665-17.6,9.806-26.489-16.189-4.728-36.457-3.194-49.983,4.616-12.4,7.162-15.666,17.6-9.806,26.488C472.092,235.8,492.361,234.263,505.887,226.454Z" fill="#fff" opacity="0.2"/>
        <path id="Path_1083" data-name="Path 1083" d="M526.733,239.813c-16.851,9.728-44.172,9.728-61.023,0-8.142-4.7-12.338-10.814-12.612-16.974-.292,6.588,3.9,13.23,12.612,18.258,16.851,9.729,44.172,9.729,61.023,0,8.708-5.028,12.9-11.669,12.611-18.257C539.07,229,534.875,235.111,526.733,239.813Z" fill="#fff" opacity="0.7"/>
        <ellipse id="Ellipse_67" data-name="Ellipse 67" cx="30.629" cy="17.683" rx="30.629" ry="17.683" transform="translate(465.592 204.513)" fill="#e8a200"/>
        <path id="Path_1084" data-name="Path 1084" d="M474.563,211.307c11.961-6.906,31.354-6.906,43.316,0,5.625,3.248,8.6,7.445,8.937,11.7.377-4.791-2.6-9.654-8.937-13.312-11.962-6.906-31.355-6.906-43.316,0-6.336,3.658-9.314,8.52-8.937,13.311C465.96,218.75,468.939,214.554,474.563,211.307Z" fill="#f9bf30"/>
        <path id="Path_1085" data-name="Path 1085" d="M511.284,213.846l-2.374.679.674.268-2.318,1.338a13.079,13.079,0,0,0-5.877-1.373,11.237,11.237,0,0,0-5.66,1.531,8.79,8.79,0,0,0-1.708,1.239,3.645,3.645,0,0,0-.916,1.309,4.389,4.389,0,0,0-.3,1.255,7.015,7.015,0,0,0,.053,1.359l.274,2.161a6.449,6.449,0,0,1,.055,1.516,2.7,2.7,0,0,1-.513,1.227,4.157,4.157,0,0,1-1.359,1.164,2.772,2.772,0,0,1-2.912.212q-.971-.56-.493-1.4a7.545,7.545,0,0,1,2.584-2.084v-1.622l-2.029.762-2.918-1.239a9.468,9.468,0,0,0-3.461,3.109l-.333-.375v1.59h.007c.01,1.092.843,2.168,2.515,3.228l-1.154.666-1.566-.718v1.622l1.407.813,2.747-1.586a12,12,0,0,0,5.558,1.109,11.041,11.041,0,0,0,5.241-1.409,8.865,8.865,0,0,0,1.86-1.381,4.475,4.475,0,0,0,1.031-1.5,5.686,5.686,0,0,0,.383-1.484,7.973,7.973,0,0,0-.006-1.574l-.233-2.092c-.036-.421-.055-.726-.054-.915a4.144,4.144,0,0,1,.1-.793,1.841,1.841,0,0,1,.472-.9,4.374,4.374,0,0,1,1.011-.766,4.111,4.111,0,0,1,1.559-.5,2.506,2.506,0,0,1,1.557.261,1.434,1.434,0,0,1,.485.375.44.44,0,0,1,.086.27l-2.416.5v1.622l4.894,2.178q.6-.38,1.072-.706a10.231,10.231,0,0,0,.986-.79,5.827,5.827,0,0,0,.819-.883,3.119,3.119,0,0,0,.465-.955,2.136,2.136,0,0,0,.081-.485l.005-.006v-.025a.16.16,0,0,1,0-.022v-1.659l-.624.129c-.008-.011-.013-.021-.022-.032a5.775,5.775,0,0,0-1.306-1.116l2.569-1.484Z" fill="#f9bf30"/>
        <g id="Group_310" data-name="Group 310">
          <path id="Path_1086" data-name="Path 1086" d="M481.555,229.653l2.72-1.57q-2.789-1.768-2.495-3.595t3.767-3.958l4.947,2.1a7.545,7.545,0,0,0-2.584,2.084q-.479.837.493,1.4a2.771,2.771,0,0,0,2.912-.212,4.157,4.157,0,0,0,1.359-1.164,2.7,2.7,0,0,0,.513-1.227,6.449,6.449,0,0,0-.055-1.516l-.274-2.161a7.015,7.015,0,0,1-.053-1.359,4.389,4.389,0,0,1,.3-1.255,3.645,3.645,0,0,1,.916-1.309,8.79,8.79,0,0,1,1.708-1.239,11.237,11.237,0,0,1,5.66-1.531,13.079,13.079,0,0,1,5.877,1.373l2.583-1.491,1.435.828-2.569,1.484a5.8,5.8,0,0,1,1.306,1.116,2.814,2.814,0,0,1,.6,1.07,1.957,1.957,0,0,1-.035,1.03,3.119,3.119,0,0,1-.465.955,5.828,5.828,0,0,1-.819.883,10.228,10.228,0,0,1-.986.79c-.314.218-.672.453-1.071.706l-4.895-2.178q.561-.339.916-.568t.725-.505a2.972,2.972,0,0,0,.533-.482,1.315,1.315,0,0,0,.232-.426.439.439,0,0,0-.076-.414,1.434,1.434,0,0,0-.485-.375,2.506,2.506,0,0,0-1.557-.261,4.11,4.11,0,0,0-1.559.5,4.374,4.374,0,0,0-1.011.766,1.841,1.841,0,0,0-.472.9,4.144,4.144,0,0,0-.1.793c0,.189.018.494.054.915l.233,2.092a7.973,7.973,0,0,1,.006,1.574,5.686,5.686,0,0,1-.383,1.484,4.476,4.476,0,0,1-1.031,1.5,8.831,8.831,0,0,1-1.86,1.381,11.041,11.041,0,0,1-5.241,1.409,12,12,0,0,1-5.558-1.109l-2.747,1.586Z" fill="#fdd762"/>
        </g>
      </g>
      <g id="Group_314" data-name="Group 314">
        <path id="Path_1087" data-name="Path 1087" d="M531,216.446h-1.755c-1.97-3.869-5.6-7.517-10.883-10.569-16.851-9.729-44.172-9.729-61.022,0-5.288,3.053-8.914,6.7-10.883,10.57H444.7v7.046h0c0,6.376,4.213,12.751,12.638,17.615,16.851,9.73,44.172,9.73,61.023,0,8.425-4.864,12.638-11.24,12.637-17.616h0Z" fill="#f9bf30"/>
        <path id="Path_1088" data-name="Path 1088" d="M478.493,199.177a57.18,57.18,0,0,0-21.153,6.7c-5.288,3.053-8.914,6.7-10.883,10.57H444.7v7.046c0,6.376,4.213,12.751,12.638,17.615a57.193,57.193,0,0,0,21.153,6.7Z" fill="#fdd762"/>
        <path id="Path_1089" data-name="Path 1089" d="M518.48,241.037c8.345-4.856,12.521-11.2,12.52-17.545v-7.046h-1.755a25.156,25.156,0,0,0-8.663-9.176h-2.1Z" fill="#e8a200"/>
        <g id="Group_312" data-name="Group 312" opacity="0.4">
          <path id="Path_1090" data-name="Path 1090" d="M528.78,215.626a20.675,20.675,0,0,0-1.872-2.709v21.175a20.63,20.63,0,0,0,1.872-2.712Z" fill="#e8a200"/>
          <path id="Path_1091" data-name="Path 1091" d="M457.34,205.876a34.018,34.018,0,0,0-6.027,4.377v26.486c.587.539,1.206,1.069,1.871,1.586V209.618h3.528v31.108c.211.127.412.257.628.381.407.235.825.459,1.244.683V209.618h3.528v33.868q.922.4,1.872.763V209.618h3.528v35.848q.926.286,1.871.544V209.618h3.528v37.245q.93.2,1.872.369V209.618h3.528v38.166q.933.122,1.872.22V209.618h3.527V248.29q.935.051,1.872.077V209.618h3.528v38.769q.938-.015,1.872-.055V209.618h3.528V248.1q.939-.084,1.872-.191V209.618h3.528v37.8q.94-.157,1.871-.342V209.618h3.528v36.656q.945-.24,1.872-.509V209.618h3.528v35q.948-.343,1.872-.717V209.618h3.528v32.693q.954-.479,1.871-.993v-31.7h3.528v29.461c.661-.474,1.28-.96,1.872-1.455V209.618h.312a35.081,35.081,0,0,0-5.33-3.741,51.884,51.884,0,0,0-13.241-5.213H470.578A51.9,51.9,0,0,0,457.34,205.876Z" fill="#e8a200"/>
          <path id="Path_1092" data-name="Path 1092" d="M447.784,214.261a19.483,19.483,0,0,0-1.327,2.185h-.544v12.916a18.51,18.51,0,0,0,1.871,3.386Z" fill="#e8a200"/>
        </g>
        <ellipse id="Ellipse_68" data-name="Ellipse 68" cx="43.149" cy="24.912" rx="43.149" ry="24.912" transform="translate(444.702 191.534)" fill="#fdd762"/>
        <path id="Path_1093" data-name="Path 1093" d="M497.517,220.7c12.4-7.162,15.665-17.6,9.806-26.488-16.189-4.729-36.457-3.194-49.983,4.615-12.4,7.162-15.666,17.6-9.806,26.488C463.722,230.047,483.991,228.513,497.517,220.7Z" fill="#fff" opacity="0.2"/>
        <path id="Path_1094" data-name="Path 1094" d="M518.363,234.062c-16.851,9.729-44.172,9.728-61.023,0-8.142-4.7-12.338-10.814-12.612-16.974-.292,6.589,3.9,13.231,12.612,18.259,16.851,9.729,44.172,9.729,61.023,0,8.708-5.027,12.9-11.669,12.611-18.257C530.7,223.249,526.505,229.361,518.363,234.062Z" fill="#fff" opacity="0.7"/>
        <ellipse id="Ellipse_69" data-name="Ellipse 69" cx="30.629" cy="17.683" rx="30.629" ry="17.683" transform="translate(457.222 198.762)" fill="#e8a200"/>
        <path id="Path_1095" data-name="Path 1095" d="M466.193,205.556c11.961-6.9,31.354-6.9,43.315,0,5.626,3.247,8.6,7.444,8.938,11.7.378-4.791-2.6-9.654-8.938-13.312-11.961-6.906-31.354-6.906-43.315,0-6.336,3.658-9.314,8.52-8.937,13.31C457.591,213,460.568,208.8,466.193,205.556Z" fill="#f9bf30"/>
        <path id="Path_1096" data-name="Path 1096" d="M502.914,208.1l-2.374.679.674.268-2.318,1.339a13.08,13.08,0,0,0-5.877-1.374,11.237,11.237,0,0,0-5.66,1.531,8.75,8.75,0,0,0-1.708,1.24,3.629,3.629,0,0,0-.916,1.309,4.412,4.412,0,0,0-.3,1.255,7.1,7.1,0,0,0,.054,1.358l.274,2.161a6.448,6.448,0,0,1,.055,1.516,2.7,2.7,0,0,1-.513,1.227,4.134,4.134,0,0,1-1.359,1.164,2.772,2.772,0,0,1-2.912.213q-.971-.561-.493-1.4a7.532,7.532,0,0,1,2.584-2.085v-1.622l-2.029.762-2.918-1.238a9.449,9.449,0,0,0-3.461,3.108l-.333-.375v1.591h.007c.01,1.092.843,2.168,2.515,3.228l-1.154.666-1.566-.718v1.622l1.407.813,2.747-1.586a12,12,0,0,0,5.558,1.109,11.03,11.03,0,0,0,5.241-1.409A8.831,8.831,0,0,0,490,223.07a4.466,4.466,0,0,0,1.031-1.5,5.675,5.675,0,0,0,.383-1.484,7.97,7.97,0,0,0-.006-1.574l-.233-2.092c-.036-.42-.055-.726-.054-.915a4.156,4.156,0,0,1,.1-.793,1.847,1.847,0,0,1,.471-.9,4.432,4.432,0,0,1,1.012-.766,4.11,4.11,0,0,1,1.559-.5,2.506,2.506,0,0,1,1.557.261,1.434,1.434,0,0,1,.485.375.443.443,0,0,1,.086.271l-2.416.5v1.622l4.895,2.178c.4-.253.757-.487,1.071-.706a10.078,10.078,0,0,0,.986-.79,5.829,5.829,0,0,0,.819-.883,3.109,3.109,0,0,0,.465-.955,2.082,2.082,0,0,0,.08-.484l.006-.006V212.22l-.623.13c-.009-.011-.014-.021-.023-.032a5.777,5.777,0,0,0-1.306-1.117l2.569-1.484Z" fill="#f9bf30"/>
        <g id="Group_313" data-name="Group 313">
          <path id="Path_1097" data-name="Path 1097" d="M473.185,223.9l2.72-1.571q-2.789-1.769-2.495-3.6t3.767-3.957l4.947,2.1a7.522,7.522,0,0,0-2.584,2.084q-.479.836.493,1.4a2.772,2.772,0,0,0,2.912-.213,4.133,4.133,0,0,0,1.359-1.164,2.7,2.7,0,0,0,.513-1.227,6.448,6.448,0,0,0-.055-1.516l-.274-2.161a7.1,7.1,0,0,1-.054-1.358,4.413,4.413,0,0,1,.3-1.255,3.629,3.629,0,0,1,.916-1.309,8.75,8.75,0,0,1,1.708-1.24,11.237,11.237,0,0,1,5.66-1.531,13.077,13.077,0,0,1,5.877,1.374l2.583-1.492,1.435.829-2.569,1.483a5.777,5.777,0,0,1,1.306,1.117,2.819,2.819,0,0,1,.6,1.069,1.957,1.957,0,0,1-.035,1.03,3.109,3.109,0,0,1-.465.955,5.832,5.832,0,0,1-.819.884,10.211,10.211,0,0,1-.986.789c-.314.219-.671.453-1.071.706l-4.895-2.178q.561-.339.916-.568t.725-.5a2.97,2.97,0,0,0,.533-.482,1.3,1.3,0,0,0,.232-.425.441.441,0,0,0-.076-.415,1.434,1.434,0,0,0-.485-.375,2.506,2.506,0,0,0-1.557-.261,4.11,4.11,0,0,0-1.559.5,4.431,4.431,0,0,0-1.012.766,1.847,1.847,0,0,0-.471.9,4.156,4.156,0,0,0-.1.793c0,.189.018.495.054.915l.233,2.092a7.97,7.97,0,0,1,.006,1.574,5.675,5.675,0,0,1-.383,1.484,4.479,4.479,0,0,1-1.031,1.5,8.863,8.863,0,0,1-1.86,1.38,11.03,11.03,0,0,1-5.241,1.409,12,12,0,0,1-5.558-1.109l-2.747,1.586Z" fill="#fdd762"/>
        </g>
      </g>
      <g id="Group_317" data-name="Group 317">
        <path id="Path_1098" data-name="Path 1098" d="M531,209.417h-1.755c-1.97-3.869-5.6-7.517-10.883-10.569-16.851-9.729-44.172-9.729-61.022,0-5.288,3.052-8.914,6.7-10.883,10.569H444.7v7.046h0c0,6.376,4.213,12.752,12.638,17.616,16.851,9.729,44.172,9.729,61.023,0C526.788,229.215,531,222.839,531,216.463h0Z" fill="#f9bf30"/>
        <path id="Path_1099" data-name="Path 1099" d="M478.493,192.148a57.181,57.181,0,0,0-21.153,6.7c-5.288,3.052-8.914,6.7-10.883,10.569H444.7v7.046c0,6.376,4.213,12.752,12.638,17.616a57.192,57.192,0,0,0,21.153,6.7Z" fill="#fdd762"/>
        <path id="Path_1100" data-name="Path 1100" d="M518.48,234.009c8.345-4.856,12.521-11.2,12.52-17.546v-7.046h-1.755a25.163,25.163,0,0,0-8.663-9.176h-2.1Z" fill="#e8a200"/>
        <g id="Group_315" data-name="Group 315" opacity="0.4">
          <path id="Path_1101" data-name="Path 1101" d="M528.78,208.6a20.676,20.676,0,0,0-1.872-2.709v21.175a20.631,20.631,0,0,0,1.872-2.712Z" fill="#e8a200"/>
          <path id="Path_1102" data-name="Path 1102" d="M457.34,198.848a33.918,33.918,0,0,0-6.027,4.377v26.486c.587.538,1.206,1.069,1.871,1.586V202.589h3.528V233.7c.211.127.412.257.628.382.407.234.825.459,1.244.682V202.589h3.528v33.868q.922.4,1.872.763V202.589h3.528v35.848q.926.287,1.871.545V202.589h3.528v37.245q.93.2,1.872.369V202.589h3.528v38.167q.933.122,1.872.219V202.589h3.527v38.672c.623.035,1.248.059,1.872.078v-38.75h3.528v38.77q.938-.016,1.872-.055V202.589h3.528v38.485c.626-.056,1.25-.118,1.872-.191V202.589h3.528v37.8q.94-.157,1.871-.342V202.589h3.528v36.657q.945-.241,1.872-.51V202.589h3.528v35q.948-.342,1.872-.716V202.589h3.528v32.694q.954-.48,1.871-.994v-31.7h3.528v29.462c.661-.474,1.28-.961,1.872-1.455V202.589h.312a35.15,35.15,0,0,0-5.33-3.741,51.957,51.957,0,0,0-13.241-5.213H470.578A51.9,51.9,0,0,0,457.34,198.848Z" fill="#e8a200"/>
          <path id="Path_1103" data-name="Path 1103" d="M447.784,207.233a19.381,19.381,0,0,0-1.327,2.184h-.544v12.916a18.517,18.517,0,0,0,1.871,3.387Z" fill="#e8a200"/>
        </g>
        <ellipse id="Ellipse_70" data-name="Ellipse 70" cx="43.149" cy="24.912" rx="43.149" ry="24.912" transform="translate(444.702 184.505)" fill="#fdd762"/>
        <path id="Path_1104" data-name="Path 1104" d="M497.517,213.674c12.4-7.162,15.665-17.6,9.806-26.488-16.189-4.728-36.457-3.194-49.983,4.615-12.4,7.162-15.666,17.6-9.806,26.489C463.722,223.018,483.991,221.484,497.517,213.674Z" fill="#fff" opacity="0.2"/>
        <path id="Path_1105" data-name="Path 1105" d="M518.363,227.033c-16.851,9.729-44.172,9.728-61.023,0-8.142-4.7-12.338-10.813-12.612-16.973-.292,6.588,3.9,13.23,12.612,18.258,16.851,9.729,44.172,9.729,61.023,0,8.708-5.027,12.9-11.669,12.611-18.257C530.7,216.22,526.505,222.332,518.363,227.033Z" fill="#fff" opacity="0.7"/>
        <ellipse id="Ellipse_71" data-name="Ellipse 71" cx="30.629" cy="17.683" rx="30.629" ry="17.683" transform="translate(457.222 191.734)" fill="#e8a200"/>
        <path id="Path_1106" data-name="Path 1106" d="M466.193,198.528c11.961-6.906,31.354-6.906,43.315,0,5.626,3.248,8.6,7.444,8.938,11.7.378-4.791-2.6-9.653-8.938-13.312-11.961-6.906-31.354-6.906-43.315,0-6.336,3.658-9.314,8.52-8.937,13.311C457.591,205.971,460.568,201.775,466.193,198.528Z" fill="#f9bf30"/>
        <path id="Path_1107" data-name="Path 1107" d="M502.914,201.067l-2.374.679.674.267-2.318,1.339a13.094,13.094,0,0,0-5.877-1.374,11.257,11.257,0,0,0-5.66,1.531,8.791,8.791,0,0,0-1.708,1.24,3.646,3.646,0,0,0-.916,1.309,4.412,4.412,0,0,0-.3,1.255,7.1,7.1,0,0,0,.054,1.358l.274,2.162a6.439,6.439,0,0,1,.055,1.515,2.7,2.7,0,0,1-.513,1.228,4.144,4.144,0,0,1-1.359,1.163,2.772,2.772,0,0,1-2.912.213q-.971-.56-.493-1.4a7.545,7.545,0,0,1,2.584-2.084V209.85l-2.029.761-2.918-1.238a9.449,9.449,0,0,0-3.461,3.108l-.333-.374v1.59h.007c.01,1.092.843,2.168,2.515,3.228l-1.154.666-1.566-.717V218.5l1.407.813,2.747-1.587a11.976,11.976,0,0,0,5.558,1.109,11.029,11.029,0,0,0,5.241-1.409,8.864,8.864,0,0,0,1.86-1.38,4.479,4.479,0,0,0,1.031-1.5,5.665,5.665,0,0,0,.383-1.484,7.97,7.97,0,0,0-.006-1.574l-.233-2.091c-.036-.421-.055-.726-.054-.916a4.156,4.156,0,0,1,.1-.793,1.847,1.847,0,0,1,.471-.9,4.4,4.4,0,0,1,1.012-.765,4.093,4.093,0,0,1,1.559-.5,2.5,2.5,0,0,1,1.557.26,1.434,1.434,0,0,1,.485.375.443.443,0,0,1,.086.271l-2.416.5v1.622l4.895,2.178q.6-.38,1.071-.707a10.059,10.059,0,0,0,.986-.789,5.785,5.785,0,0,0,.819-.884,3.114,3.114,0,0,0,.465-.954,2.1,2.1,0,0,0,.08-.485l.006-.006v-1.707l-.623.13c-.009-.011-.014-.021-.023-.032a5.775,5.775,0,0,0-1.306-1.116l2.569-1.484Z" fill="#f9bf30"/>
        <g id="Group_316" data-name="Group 316">
          <path id="Path_1108" data-name="Path 1108" d="M473.185,216.874l2.72-1.571q-2.789-1.767-2.495-3.594t3.767-3.958l4.947,2.1a7.545,7.545,0,0,0-2.584,2.084q-.479.835.493,1.4a2.774,2.774,0,0,0,2.912-.212,4.157,4.157,0,0,0,1.359-1.164,2.7,2.7,0,0,0,.513-1.228,6.44,6.44,0,0,0-.055-1.515l-.274-2.162a7.1,7.1,0,0,1-.054-1.358,4.42,4.42,0,0,1,.3-1.255,3.645,3.645,0,0,1,.916-1.309,8.792,8.792,0,0,1,1.708-1.24,11.257,11.257,0,0,1,5.66-1.531,13.09,13.09,0,0,1,5.877,1.374l2.583-1.491,1.435.828-2.569,1.484a5.775,5.775,0,0,1,1.306,1.116,2.819,2.819,0,0,1,.6,1.069,1.961,1.961,0,0,1-.035,1.031,3.114,3.114,0,0,1-.465.954,5.784,5.784,0,0,1-.819.884,10.059,10.059,0,0,1-.986.789q-.471.329-1.071.707l-4.895-2.178q.561-.339.916-.569t.725-.505a3.01,3.01,0,0,0,.533-.481,1.315,1.315,0,0,0,.232-.426.441.441,0,0,0-.076-.415,1.434,1.434,0,0,0-.485-.375,2.5,2.5,0,0,0-1.557-.26,4.11,4.11,0,0,0-1.559.5,4.4,4.4,0,0,0-1.012.765,1.847,1.847,0,0,0-.471.9,4.156,4.156,0,0,0-.1.793c0,.19.018.495.054.916l.233,2.091a7.98,7.98,0,0,1,.006,1.575,5.669,5.669,0,0,1-.383,1.483,4.469,4.469,0,0,1-1.031,1.5,8.863,8.863,0,0,1-1.86,1.38,11.03,11.03,0,0,1-5.241,1.409,11.988,11.988,0,0,1-5.558-1.108l-2.747,1.586Z" fill="#fdd762"/>
        </g>
      </g>
      <path id="Path_1109" data-name="Path 1109" d="M458.584,227.806l-4.3-2.495-4.3,2.495,2.495-4.3-2.495-4.3,4.3,2.495,4.3-2.495-2.495,4.3Z" fill="#fff"/>
    </g>
    <path id="Path_1110" data-name="Path 1110" d="M510.02,317.8l17.823-10.29,17.823,10.29-17.823,10.29Z" fill="#ededed"/>
    <path id="Path_1111" data-name="Path 1111" d="M527.844,316.684v-11.6l-21.294-12.294v11.6Z" fill="#b70083"/>
    <path id="Path_1112" data-name="Path 1112" d="M527.844,305.089l21.294-12.294v11.6l-21.294,12.294Z" fill="#d3008d"/>
    <path id="Path_1113" data-name="Path 1113" d="M506.549,292.795,527.844,280.5l21.294,12.294-21.294,12.294Z" fill="#ff2c9c"/>
    <g id="Group_319" data-name="Group 319">
      <path id="Path_1114" data-name="Path 1114" d="M270.058,234.827l17.823-10.29,17.823,10.29-17.823,10.29Z" fill="#d4ecff"/>
      <path id="Path_1115" data-name="Path 1115" d="M287.881,233.716v-11.6l-21.294-12.294v11.6Z" fill="#b70083"/>
      <path id="Path_1116" data-name="Path 1116" d="M287.881,222.12l21.294-12.294v11.6l-21.294,12.294Z" fill="#d3008d"/>
      <path id="Path_1117" data-name="Path 1117" d="M266.587,209.826l21.294-12.294,21.294,12.294L287.881,222.12Z" fill="#ff2c9c"/>
    </g>
    <g id="Group_326" data-name="Group 326">
      <ellipse id="Ellipse_72" data-name="Ellipse 72" cx="46.723" cy="26.976" rx="46.723" ry="26.976" transform="translate(382.583 290.383)" fill="#d4ecff"/>
      <ellipse id="Ellipse_73" data-name="Ellipse 73" cx="46.723" cy="26.976" rx="46.723" ry="26.976" transform="translate(359.379 278.23)" fill="#d4ecff"/>
      <g id="Group_322" data-name="Group 322">
        <path id="Path_1118" data-name="Path 1118" d="M472.8,305.9h-1.756c-1.97-3.869-5.6-7.517-10.883-10.569-16.851-9.729-44.171-9.729-61.022,0-5.287,3.053-8.913,6.7-10.882,10.57h-1.756v7.046h0c0,6.376,4.214,12.751,12.639,17.616,16.851,9.729,44.172,9.729,61.022,0,8.426-4.864,12.638-11.24,12.638-17.616h0Z" fill="#f9bf30"/>
        <path id="Path_1119" data-name="Path 1119" d="M420.3,288.632a57.193,57.193,0,0,0-21.153,6.7c-5.287,3.053-8.913,6.7-10.882,10.57h-1.756v7.046c0,6.376,4.214,12.751,12.639,17.616a57.181,57.181,0,0,0,21.152,6.7Z" fill="#fdd762"/>
        <path id="Path_1120" data-name="Path 1120" d="M460.283,330.492c8.345-4.856,12.521-11.2,12.521-17.545V305.9h-1.756a25.152,25.152,0,0,0-8.662-9.176h-2.1Z" fill="#e8a200"/>
        <g id="Group_320" data-name="Group 320" opacity="0.4">
          <path id="Path_1121" data-name="Path 1121" d="M470.583,305.081a20.575,20.575,0,0,0-1.872-2.709v21.175a20.436,20.436,0,0,0,1.872-2.712Z" fill="#e8a200"/>
          <path id="Path_1122" data-name="Path 1122" d="M399.143,295.331a34.02,34.02,0,0,0-6.027,4.377v26.486c.587.539,1.206,1.069,1.872,1.586V299.073h3.528v31.108c.21.127.412.257.628.382.407.234.825.458,1.244.682V299.073h3.527v33.868q.924.4,1.872.763V299.073h3.528v35.848q.927.287,1.872.544V299.073h3.528v37.245q.93.2,1.871.369V299.073h3.528v38.166q.933.121,1.872.22V299.073h3.528v38.672c.623.035,1.247.059,1.872.078v-38.75h3.528v38.769q.936-.015,1.871-.055V299.073h3.529v38.485q.938-.084,1.871-.191V299.073h3.528v37.8q.942-.157,1.872-.342V299.073h3.528V335.73q.943-.242,1.872-.51V299.073h3.528v35q.948-.342,1.871-.717V299.073h3.528v32.693q.954-.479,1.872-.993v-31.7h3.528v29.461c.66-.474,1.28-.96,1.871-1.455V299.073h.313a35.112,35.112,0,0,0-5.331-3.741,51.929,51.929,0,0,0-13.24-5.213H412.382A51.921,51.921,0,0,0,399.143,295.331Z" fill="#e8a200"/>
          <path id="Path_1123" data-name="Path 1123" d="M389.588,303.716a19.335,19.335,0,0,0-1.327,2.185h-.545v12.916a18.581,18.581,0,0,0,1.872,3.387Z" fill="#e8a200"/>
        </g>
        <ellipse id="Ellipse_74" data-name="Ellipse 74" cx="43.149" cy="24.912" rx="43.149" ry="24.912" transform="translate(386.505 280.989)" fill="#fdd762"/>
        <path id="Path_1124" data-name="Path 1124" d="M439.321,310.158c12.4-7.162,15.665-17.6,9.8-26.488-16.188-4.729-36.457-3.194-49.983,4.615-12.4,7.162-15.665,17.6-9.806,26.489C405.526,319.5,425.8,317.968,439.321,310.158Z" fill="#fff" opacity="0.2"/>
        <path id="Path_1125" data-name="Path 1125" d="M460.166,323.517c-16.85,9.729-44.171,9.728-61.022,0-8.143-4.7-12.339-10.814-12.612-16.974-.293,6.589,3.9,13.231,12.612,18.259,16.851,9.729,44.172,9.729,61.022,0,8.708-5.027,12.9-11.669,12.611-18.257C472.5,312.7,468.308,318.816,460.166,323.517Z" fill="#fff" opacity="0.7"/>
        <path id="Path_1126" data-name="Path 1126" d="M451.313,318.4c-11.961,6.906-31.354,6.906-43.316,0s-11.962-18.1,0-25.008,31.354-6.906,43.315,0S463.274,311.5,451.313,318.4Z" fill="#e8a200"/>
        <path id="Path_1127" data-name="Path 1127" d="M408,295.011c11.961-6.9,31.354-6.9,43.315,0,5.625,3.248,8.6,7.444,8.938,11.7.377-4.791-2.6-9.653-8.938-13.312-11.961-6.906-31.354-6.906-43.315,0-6.337,3.658-9.314,8.52-8.938,13.311C399.394,302.455,402.372,298.259,408,295.011Z" fill="#f9bf30"/>
        <path id="Path_1128" data-name="Path 1128" d="M444.718,297.551l-2.374.678.674.268-2.318,1.339a13.082,13.082,0,0,0-5.878-1.374,11.243,11.243,0,0,0-5.659,1.531,8.759,8.759,0,0,0-1.709,1.24,3.628,3.628,0,0,0-.916,1.309,4.407,4.407,0,0,0-.3,1.255,7.166,7.166,0,0,0,.053,1.358l.275,2.162a6.493,6.493,0,0,1,.055,1.515,2.721,2.721,0,0,1-.514,1.228,4.133,4.133,0,0,1-1.359,1.163,2.77,2.77,0,0,1-2.911.213q-.971-.561-.493-1.4a7.533,7.533,0,0,1,2.584-2.084v-1.622l-2.029.761-2.919-1.238a9.445,9.445,0,0,0-3.46,3.108l-.334-.375v1.591h.007c.01,1.092.843,2.168,2.516,3.228l-1.154.666-1.567-.717v1.622l1.407.812,2.748-1.586a12,12,0,0,0,5.557,1.109,11.03,11.03,0,0,0,5.242-1.409,8.855,8.855,0,0,0,1.859-1.38,4.484,4.484,0,0,0,1.032-1.5,5.678,5.678,0,0,0,.383-1.484,8.046,8.046,0,0,0-.006-1.574l-.233-2.092c-.037-.42-.055-.726-.055-.915a4.255,4.255,0,0,1,.1-.793,1.839,1.839,0,0,1,.471-.9,4.358,4.358,0,0,1,1.012-.765,4.1,4.1,0,0,1,1.558-.5,2.509,2.509,0,0,1,1.558.261,1.434,1.434,0,0,1,.485.375.449.449,0,0,1,.086.271l-2.416.5v1.622l4.894,2.177q.6-.378,1.072-.706a10.175,10.175,0,0,0,.986-.789,5.774,5.774,0,0,0,.818-.884,3.117,3.117,0,0,0,.466-.954,2.155,2.155,0,0,0,.08-.485l.005-.006v-.025a.16.16,0,0,0,0-.022v-1.66l-.623.13c-.009-.011-.013-.021-.022-.032a5.784,5.784,0,0,0-1.307-1.117l2.57-1.483Z" fill="#f9bf30"/>
        <g id="Group_321" data-name="Group 321">
          <path id="Path_1129" data-name="Path 1129" d="M414.988,313.358l2.721-1.571q-2.79-1.767-2.5-3.594t3.766-3.958l4.948,2.1a7.545,7.545,0,0,0-2.584,2.084q-.479.836.493,1.4a2.77,2.77,0,0,0,2.911-.213,4.133,4.133,0,0,0,1.359-1.163,2.72,2.72,0,0,0,.514-1.228,6.493,6.493,0,0,0-.055-1.515l-.275-2.162a7.166,7.166,0,0,1-.053-1.358,4.407,4.407,0,0,1,.3-1.255,3.628,3.628,0,0,1,.916-1.309,8.759,8.759,0,0,1,1.709-1.24,11.254,11.254,0,0,1,5.659-1.531,13.082,13.082,0,0,1,5.878,1.374l2.583-1.492,1.435.829-2.57,1.483a5.81,5.81,0,0,1,1.307,1.117,2.8,2.8,0,0,1,.594,1.069,1.95,1.95,0,0,1-.034,1.031,3.117,3.117,0,0,1-.466.954,5.772,5.772,0,0,1-.818.884,10.175,10.175,0,0,1-.986.789q-.471.328-1.072.706l-4.894-2.177q.56-.341.916-.569t.724-.505a2.972,2.972,0,0,0,.533-.482,1.3,1.3,0,0,0,.233-.425.447.447,0,0,0-.076-.415,1.434,1.434,0,0,0-.485-.375,2.509,2.509,0,0,0-1.558-.261,4.1,4.1,0,0,0-1.558.5,4.359,4.359,0,0,0-1.012.765,1.839,1.839,0,0,0-.471.9,4.256,4.256,0,0,0-.1.793q0,.285.055.915l.233,2.092a8.046,8.046,0,0,1,.006,1.574,5.668,5.668,0,0,1-.383,1.484,4.494,4.494,0,0,1-1.031,1.5,8.89,8.89,0,0,1-1.86,1.38,11.03,11.03,0,0,1-5.242,1.409,11.984,11.984,0,0,1-5.557-1.109l-2.748,1.586Z" fill="#fdd762"/>
        </g>
      </g>
      <g id="Group_325" data-name="Group 325">
        <path id="Path_1130" data-name="Path 1130" d="M447.518,278.674l-1.723.336c-2.673-3.421-6.93-6.308-12.7-8.293-18.4-6.327-45.217-1.1-59.9,11.667-4.605,4.007-7.467,8.282-8.66,12.456l-1.723.335,1.347,6.917h0c1.22,6.258,6.574,11.71,15.774,14.873,18.4,6.328,45.217,1.1,59.9-11.667,7.34-6.386,10.256-13.449,9.036-19.707h0Z" fill="#f9bf30"/>
        <path id="Path_1131" data-name="Path 1131" d="M392.677,271.764a57.2,57.2,0,0,0-19.482,10.62c-4.605,4.007-7.467,8.282-8.66,12.456l-1.723.335,1.347,6.917c1.22,6.258,6.574,11.71,15.774,14.873a57.188,57.188,0,0,0,22.043,2.532Z" fill="#fdd762"/>
        <path id="Path_1132" data-name="Path 1132" d="M439.931,305.206c7.262-6.362,10.148-13.387,8.934-19.615l-1.347-6.917-1.723.336a25.173,25.173,0,0,0-10.257-7.351l-2.064.4Z" fill="#e8a200"/>
        <g id="Group_323" data-name="Group 323" opacity="0.4">
          <path id="Path_1133" data-name="Path 1133" d="M445.182,278.294a20.669,20.669,0,0,0-2.356-2.3l4.049,20.784a20.573,20.573,0,0,0,1.319-3.02Z" fill="#e8a200"/>
          <path id="Path_1134" data-name="Path 1134" d="M373.2,282.384a34.015,34.015,0,0,0-5.078,5.449l5.064,26c.679.417,1.388.819,2.14,1.2l-5.489-28.177,3.463-.675,5.948,30.534c.231.084.454.173.69.254.444.153.9.293,1.351.433l-6.152-31.579,3.463-.674,6.476,33.242q.982.215,1.983.392l-6.622-33.992,3.463-.675L390.75,319.3q.963.105,1.941.177l-6.959-35.721,3.463-.674,7.122,36.557q.95.017,1.908.005l-7.193-36.92,3.463-.675,7.3,37.462q.939-.059,1.879-.142l-7.34-37.678,3.463-.674,7.395,37.958c.618-.085,1.235-.181,1.852-.282l-7.41-38.034,3.463-.675,7.413,38.054q.916-.193,1.827-.412l-7.4-38,3.462-.674,7.359,37.775q.906-.263,1.8-.546l-7.322-37.587,3.462-.675,7.227,37.1q.894-.334,1.772-.694l-7.161-36.762,3.463-.675L428,312.865q.882-.417,1.74-.858l-6.911-35.48,3.463-.675,6.692,34.356q.865-.518,1.7-1.061l-6.555-33.652,3.463-.675,6.251,32.09c.563-.435,1.114-.878,1.647-1.333l-6.061-31.115,3.463-.674,5.633,28.917c.557-.591,1.073-1.187,1.559-1.786l-5.355-27.489.306-.06a35.019,35.019,0,0,0-5.947-2.653,51.911,51.911,0,0,0-13.993-2.585l-33.906,6.605A51.91,51.91,0,0,0,373.2,282.384Z" fill="#e8a200"/>
          <path id="Path_1135" data-name="Path 1135" d="M365.42,292.442a19.12,19.12,0,0,0-.885,2.4l-.534.1,2.469,12.677a18.473,18.473,0,0,0,2.485,2.967Z" fill="#e8a200"/>
        </g>
        <ellipse id="Ellipse_75" data-name="Ellipse 75" cx="43.149" cy="24.912" rx="43.149" ry="24.912" transform="translate(358.049 270.722) rotate(-11.022)" fill="#fdd762"/>
        <path id="Path_1136" data-name="Path 1136" d="M415.467,289.255c10.806-9.4,12.011-20.268,4.56-27.874-16.794-1.546-36.4,3.836-48.179,14.087-10.807,9.4-12.011,20.269-4.56,27.875C384.082,304.889,403.683,299.507,415.467,289.255Z" fill="#fff" opacity="0.2"/>
        <path id="Path_1137" data-name="Path 1137" d="M438.482,298.382c-14.68,12.771-41.5,18-59.9,11.667-8.891-3.057-14.178-8.255-15.625-14.249.973,6.523,6.362,12.24,15.871,15.51,18.4,6.327,45.217,1.1,59.9-11.668,7.585-6.6,10.434-13.921,8.887-20.331C448.524,285.409,445.575,292.211,438.482,298.382Z" fill="#fff" opacity="0.7"/>
        <ellipse id="Ellipse_76" data-name="Ellipse 76" cx="30.629" cy="17.683" rx="30.629" ry="17.683" transform="translate(371.721 275.423) rotate(-11.022)" fill="#e8a200"/>
        <path id="Path_1138" data-name="Path 1138" d="M381.824,280.377c10.42-9.065,29.456-12.773,42.517-8.281,6.142,2.112,9.868,5.662,11.009,9.772-.546-4.775-4.4-8.978-11.318-11.357-13.061-4.492-32.1-.784-42.516,8.282-5.52,4.8-7.513,10.143-6.228,14.774C374.8,289.329,376.924,284.64,381.824,280.377Z" fill="#f9bf30"/>
        <path id="Path_1139" data-name="Path 1139" d="M418.353,275.848l-2.2,1.12.713.134-2.019,1.758a13.092,13.092,0,0,0-6.032-.225,11.245,11.245,0,0,0-5.263,2.585,8.761,8.761,0,0,0-1.439,1.544,3.628,3.628,0,0,0-.649,1.46,4.419,4.419,0,0,0-.055,1.289,7.129,7.129,0,0,0,.312,1.323l.683,2.069a6.5,6.5,0,0,1,.344,1.477,2.716,2.716,0,0,1-.27,1.3,4.132,4.132,0,0,1-1.111,1.4,2.769,2.769,0,0,1-2.817.765q-1.061-.363-.751-1.276a7.539,7.539,0,0,1,2.138-2.539l-.311-1.592-1.845,1.135-3.1-.657a9.447,9.447,0,0,0-2.8,3.712l-.4-.3.3,1.561h.007c.219,1.07,1.242,1.967,3.086,2.687l-1.005.875-1.675-.4.31,1.592,1.537.529,2.393-2.082a11.992,11.992,0,0,0,5.667.026,11.05,11.05,0,0,0,4.876-2.386,8.884,8.884,0,0,0,1.561-1.71,4.486,4.486,0,0,0,.725-1.673,5.727,5.727,0,0,0,.092-1.53,7.95,7.95,0,0,0-.307-1.544l-.629-2.008c-.116-.406-.193-.7-.228-.888a4.178,4.178,0,0,1-.051-.8,1.829,1.829,0,0,1,.29-.978,4.377,4.377,0,0,1,.846-.945,4.12,4.12,0,0,1,1.435-.786,2.507,2.507,0,0,1,1.579-.042,1.432,1.432,0,0,1,.547.276.447.447,0,0,1,.137.249l-2.276.955.31,1.593,5.221,1.2q.516-.486.917-.9a10.13,10.13,0,0,0,.816-.963,5.814,5.814,0,0,0,.635-1.024,3.124,3.124,0,0,0,.274-1.026,2.163,2.163,0,0,0-.013-.491l0-.007,0-.024-.005-.022-.317-1.629-.587.246c-.011-.009-.017-.018-.028-.027a5.778,5.778,0,0,0-1.5-.846l2.238-1.948Z" fill="#f9bf30"/>
        <g id="Group_324" data-name="Group 324">
          <path id="Path_1140" data-name="Path 1140" d="M392.2,297.048l2.37-2.061q-3.076-1.2-3.136-3.052t2.94-4.6l5.258,1.114a7.529,7.529,0,0,0-2.138,2.539q-.311.912.75,1.276a2.771,2.771,0,0,0,2.818-.765,4.132,4.132,0,0,0,1.111-1.4,2.717,2.717,0,0,0,.27-1.3,6.5,6.5,0,0,0-.344-1.477l-.683-2.069a7.129,7.129,0,0,1-.312-1.323,4.384,4.384,0,0,1,.055-1.289,3.643,3.643,0,0,1,.648-1.461,8.842,8.842,0,0,1,1.44-1.543,11.245,11.245,0,0,1,5.263-2.585,13.078,13.078,0,0,1,6.032.225l2.25-1.958,1.566.538-2.238,1.948a5.8,5.8,0,0,1,1.5.846,2.812,2.812,0,0,1,.788.936,1.948,1.948,0,0,1,.163,1.018,3.124,3.124,0,0,1-.274,1.026,5.813,5.813,0,0,1-.635,1.024,10.131,10.131,0,0,1-.816.963q-.4.412-.917.9l-5.221-1.2q.484-.439.791-.733t.614-.634a2.951,2.951,0,0,0,.431-.575,1.308,1.308,0,0,0,.147-.462.442.442,0,0,0-.154-.392,1.43,1.43,0,0,0-.548-.276,2.5,2.5,0,0,0-1.578.042,4.1,4.1,0,0,0-1.435.786,4.411,4.411,0,0,0-.847.945,1.833,1.833,0,0,0-.289.978,4.178,4.178,0,0,0,.051.8c.035.185.112.482.228.888l.629,2.008a8.026,8.026,0,0,1,.307,1.544,5.727,5.727,0,0,1-.092,1.53,4.486,4.486,0,0,1-.725,1.673,8.861,8.861,0,0,1-1.562,1.71,11.03,11.03,0,0,1-4.875,2.386,12.005,12.005,0,0,1-5.667-.026l-2.393,2.082Z" fill="#fdd762"/>
        </g>
      </g>
      <path id="Path_1141" data-name="Path 1141" d="M440.743,305.386l-4.348-2.522-4.348,2.522,2.522-4.348-2.522-4.348,4.348,2.522,4.348-2.522-2.522,4.348Z" fill="#fff"/>
      <path id="Path_1142" data-name="Path 1142" d="M416.012,332.4l-2.62-1.519-2.619,1.519,1.519-2.619-1.519-2.62,2.619,1.519,2.62-1.519-1.519,2.62Z" fill="#fff"/>
    </g>
    <path id="Path_1143" data-name="Path 1143" d="M405.121,255.184V175.426l-25.267-14.588V240.6Z" fill="#b70083"/>
    <path id="Path_1144" data-name="Path 1144" d="M405.121,175.426l25.267-14.588V240.6l-25.267,14.588Z" fill="#d3008d"/>
    <path id="Path_1145" data-name="Path 1145" d="M379.855,160.838l25.267-14.588,25.267,14.588-25.267,14.588Z" fill="#ff2c9c"/>
  </g>
</svg>
