<svg xmlns="http://www.w3.org/2000/svg" xmlns:xlink="http://www.w3.org/1999/xlink" width="239.23" height="219.581" viewBox="0 0 239.23 219.581">
  <defs>
    <clipPath id="clip-path">
      <ellipse id="Ellipse_81" data-name="Ellipse 81" cx="36.149" cy="62.612" rx="36.149" ry="62.612" transform="translate(0 36.151) rotate(-30.001)" fill="none"/>
    </clipPath>
  </defs>
  <g id="Group_339" data-name="Group 339" transform="translate(-277.353 -108.642)">
    <path id="Path_1162" data-name="Path 1162" d="M400.217,303.694l71.2-41.106c7.708-4.451,6.741-12.223-2.159-17.362h0c-8.9-5.138-22.362-5.7-30.071-1.246l-71.2,41.107c-7.708,4.449-6.742,12.223,2.158,17.361h0C379.046,307.587,392.51,308.145,400.217,303.694Z" transform="translate(13.896 21.524)" fill="#d4ecff"/>
    <g id="Group_338" data-name="Group 338" transform="translate(277.353 108.642)">
      <g id="Group_332" data-name="Group 332" transform="translate(156.244 85.098)">
        <path id="Path_1163" data-name="Path 1163" d="M431.32,246.1l.019-8.366,9.9-49.858-9.774-6.039-19.581,10.809-.139,64.263c-.009,4.324,1.611,7.248,4.1,8.2v0l8.707,5.473,1.093-4.138,1.5-7.539A23.913,23.913,0,0,0,431.32,246.1Z" transform="translate(-411.739 -181.835)" fill="#5793ce"/>
        <path id="Path_1164" data-name="Path 1164" d="M429.908,269.548h0c-5.406,2.986-9.778-.35-9.763-7.448l.141-64.263,19.581-10.808-.141,64.262C439.711,258.39,435.315,266.564,429.908,269.548Z" transform="translate(-410.372 -180.99)" fill="#5793ce"/>
      </g>
      <g id="Group_333" data-name="Group 333" transform="translate(106.954)">
        <ellipse id="Ellipse_77" data-name="Ellipse 77" cx="20.883" cy="36.17" rx="20.883" ry="36.17" transform="translate(59.936 20.884) rotate(-30.001)" fill="#ff2c9c"/>
        <path id="Path_1165" data-name="Path 1165" d="M483.787,180.08l-74.431,42.681-40.011-60.1,77.543-44.782Z" transform="translate(-369.344 -107.14)" fill="#ff2c9c"/>
      </g>
      <path id="Path_1166" data-name="Path 1166" d="M462.394,182.876c0-16.776-11.778-37.175-26.306-45.563-6.6-3.811-12.631-4.477-17.25-2.506l-.007-.012-.1.048c-.04.019-.079.037-.117.057-.2.092-.4.191-.6.292a184.288,184.288,0,0,1-88.461,18.763l-8.668-.337L391.45,274.536l3.822-7.386a184.3,184.3,0,0,1,59.287-67.176C459.395,197.258,462.394,191.338,462.394,182.876Z" transform="translate(-270.272 -104.562)" fill="#d4ecff"/>
      <path id="Path_1167" data-name="Path 1167" d="M402.777,244.527c0-32.181-22.594-71.312-50.464-87.4-13.9-8.025-26.484-8.8-35.611-3.575v0l-.049.029-.067.04-8.28,4.852,2.893-.6c-5.885,6.133-9.349,15.8-9.349,28.4,0,32.181,22.593,71.312,50.464,87.4,10.937,6.314,21.061,8.141,29.327,6.085l-1.311,1.93,7.622-4.455.12-.07.274-.16h-.01C397.266,271.635,402.777,260.417,402.777,244.527Z" transform="translate(-273.368 -101.878)" fill="#d4ecff"/>
      <path id="Path_1168" data-name="Path 1168" d="M396.871,247.489c0-32.18-22.594-71.312-50.464-87.4-13.711-7.917-26.143-8.777-35.239-3.78l-1.266.743c-.434.273-.856.565-1.272.866l2.568-.536c-5.885,6.133-9.349,15.8-9.349,28.4,0,32.181,22.593,71.312,50.464,87.4,10.937,6.314,21.061,8.141,29.327,6.085l-1.2,1.759C390.538,276.2,396.871,264.526,396.871,247.489Z" transform="translate(-273.368 -101.395)" fill="#fff"/>
      <ellipse id="Ellipse_78" data-name="Ellipse 78" cx="41.203" cy="71.365" rx="41.203" ry="71.365" transform="translate(0 76.743) rotate(-30.001)" fill="#5793ce"/>
      <ellipse id="Ellipse_79" data-name="Ellipse 79" cx="36.149" cy="62.612" rx="36.149" ry="62.612" transform="translate(8.753 81.796) rotate(-30.001)" fill="#173d7a"/>
      <path id="Path_1169" data-name="Path 1169" d="M347,268.123c-24.452-14.117-44.275-48.45-44.275-76.684,0-14.826,5.469-25.019,14.2-29.315-9.929,3.643-16.268,14.237-16.268,30.2,0,28.234,19.823,62.567,44.275,76.684,11.611,6.7,22.178,7.64,30.074,3.754C367.372,275.563,357.622,274.258,347,268.123Z" transform="translate(-273.563 -99.943)" fill="#fff"/>
      <g id="Group_336" data-name="Group 336" transform="translate(8.753 45.645)">
        <g id="Group_335" data-name="Group 335" clip-path="url(#clip-path)">
          <g id="Group_334" data-name="Group 334" transform="translate(50.11 12.044)">
            <path id="Path_1170" data-name="Path 1170" d="M333.035,207.931l64.24-49.671L420.6,198.731,345.2,229.67Z" transform="translate(-327.158 -158.26)" fill="#d4ecff"/>
            <ellipse id="Ellipse_80" data-name="Ellipse 80" cx="7.219" cy="12.504" rx="7.219" ry="12.504" transform="translate(0 53.037) rotate(-30.002)" fill="#5793ce"/>
          </g>
        </g>
      </g>
      <g id="Group_337" data-name="Group 337" transform="translate(158.578 130.85)">
        <path id="Path_1171" data-name="Path 1171" d="M416.464,240.249l-.346-.2a5.561,5.561,0,0,1-2.336-4.432l-.036-12.393c0-1.71,1.032-2.5,2.317-1.763l.348.2a5.564,5.564,0,0,1,2.336,4.432l.036,12.393C418.787,240.2,417.749,240.986,416.464,240.249Z" transform="translate(-413.746 -221.186)" fill="#fff"/>
      </g>
    </g>
  </g>
</svg>
