<svg xmlns="http://www.w3.org/2000/svg" width="263.547" height="189.87" viewBox="0 0 263.547 189.87">
  <g id="Group_331" data-name="Group 331" transform="translate(-305.467 -114.203)">
    <path id="Path_1146" data-name="Path 1146" d="M394.312,197.608a11.9,11.9,0,0,0,10.777,0,5.363,5.363,0,0,0,1.505-1.245l20.177,11.649,20.591-11.889a9.911,9.911,0,0,1-3.46-1.141c-2.976-1.718-2.976-4.5,0-6.222a11.91,11.91,0,0,1,10.777,0,4.6,4.6,0,0,1,1.977,2l20.591-11.887-40.42-23.338-50.558,29.1,10.2,5.889a9.049,9.049,0,0,0-2.158.869C391.336,193.106,391.336,195.89,394.312,197.608Z" transform="translate(10.589 5.416)" fill="#d4ecff"/>
    <path id="Path_1147" data-name="Path 1147" d="M537.9,221.871l-43.812-25.3-20.592,11.889a4.6,4.6,0,0,0-1.977-2,11.908,11.908,0,0,0-10.776,0c-2.977,1.718-2.976,4.5,0,6.222a9.9,9.9,0,0,0,3.46,1.141L443.61,225.718l21.2,12.239a3.948,3.948,0,0,1,2.209-2.831,11.91,11.91,0,0,1,10.777,0c2.976,1.718,2.976,4.5,0,6.222a10.777,10.777,0,0,1-4.9,1.275l14.552,8.4,50.552-29.093C537.961,221.912,537.933,221.89,537.9,221.871Z" transform="translate(18.104 10.795)" fill="#d4ecff"/>
    <path id="Path_1148" data-name="Path 1148" d="M394,235.086a9.888,9.888,0,0,0-3.382-1.13l20.563-11.872L391,210.435a5.384,5.384,0,0,1-1.505,1.246,11.911,11.911,0,0,1-10.777,0c-2.976-1.718-2.976-4.5,0-6.222a9.051,9.051,0,0,1,2.158-.87l-14.63-8.446L315.8,225.174a7.642,7.642,0,0,0,1.086.758L360.7,251.226l20.561-11.87a4.648,4.648,0,0,0,1.958,1.952,11.91,11.91,0,0,0,10.777,0C396.972,239.59,396.972,236.8,394,235.086Z" transform="translate(1.354 10.739)" fill="#d4ecff"/>
    <path id="Path_1149" data-name="Path 1149" d="M458.152,250.7a10.768,10.768,0,0,0,4.9-1.276c2.976-1.718,2.976-4.5,0-6.222a11.911,11.911,0,0,0-10.777,0,3.947,3.947,0,0,0-2.209,2.832l-21.2-12.239L408.31,245.666a9.88,9.88,0,0,1,3.382,1.13c2.976,1.718,2.976,4.5,0,6.222a11.908,11.908,0,0,1-10.776,0,4.635,4.635,0,0,1-1.958-1.952L378.4,262.937l43.813,25.295c.112.064.243.109.359.168l50.524-29.076Z" transform="translate(9.558 15.673)" fill="#d4ecff"/>
    <g id="Group_328" data-name="Group 328" transform="translate(376.22 114.203)">
      <path id="Path_1150" data-name="Path 1150" d="M476.61,149.12l-39.377-22.734c-4.459-2.574-11.687-2.574-16.146,0l-41.3,23.846-11.762-4.8v11.594l19.136,11.048v7.707c-.08,1.422.81,2.858,2.688,3.943a14.426,14.426,0,0,0,13.054,0,6.494,6.494,0,0,0,1.823-1.509l24.439,14.11,24.941-14.4h0v-10.3A14.25,14.25,0,0,1,462.964,169a5.565,5.565,0,0,1,2.4,2.419l24.941-14.4V145.429Z" transform="translate(-368.022 -112.86)" fill="#d3008d"/>
      <path id="Path_1151" data-name="Path 1151" d="M454.1,167.671a12.05,12.05,0,0,1-4.192-1.383c-3.6-2.081-3.6-5.455,0-7.536a14.428,14.428,0,0,1,13.052,0,5.562,5.562,0,0,1,2.4,2.42l24.941-14.4-53.067-30.639c-4.459-2.573-11.687-2.574-16.146,0l-53.066,30.638,24.439,14.109a10.991,10.991,0,0,0-2.614,1.053c-3.6,2.081-3.6,5.455,0,7.536a14.426,14.426,0,0,0,13.054,0,6.494,6.494,0,0,0,1.823-1.509l24.439,14.11Z" transform="translate(-368.022 -114.203)" fill="#ff2c9c"/>
    </g>
    <g id="Group_329" data-name="Group 329" transform="translate(451.465 158.247)">
      <path id="Path_1152" data-name="Path 1152" d="M543.2,190.825l-47.51-27.43-24.941,14.4a5.558,5.558,0,0,0-2.394-2.42,12.18,12.18,0,0,0-4.412-1.414,46.7,46.7,0,0,0-3.757-4.331c-.314-.089-7.581-2.191-7.581-2.191V179.08c-.028,1.384.869,2.775,2.7,3.831a12.01,12.01,0,0,0,4.19,1.382l-12.548,7.246L434.548,187.1v11.6l25.675,14.822a4.784,4.784,0,0,1,2.676-3.428,13.618,13.618,0,0,1,7.113-1.545v10.625l25.676,14.825,53.066-30.638c2.279-1.315,3.385-3.049,3.334-4.774l0,0V187.218Z" transform="translate(-434.548 -151.801)" fill="#396caa"/>
      <path id="Path_1153" data-name="Path 1153" d="M457.249,189.49v20.6a4.781,4.781,0,0,1,2.675-3.425,14.424,14.424,0,0,1,13.052,0,6.512,6.512,0,0,1,1.813,1.5,24.071,24.071,0,0,1,5.995-1.048V189.49Z" transform="translate(-431.573 -148.381)" fill="#173d7a"/>
      <path id="Path_1154" data-name="Path 1154" d="M488.623,163.395l-.183.106v70.384l.185.107,53.066-30.638c2.279-1.315,3.385-3.049,3.334-4.774l0,0V187.218l-8.9,3.607Z" transform="translate(-427.485 -151.801)" fill="#173d7a"/>
      <path id="Path_1155" data-name="Path 1155" d="M465.9,205.81v-3.355l2.906,1.678Z" transform="translate(-430.439 -146.682)" fill="#396caa"/>
      <path id="Path_1156" data-name="Path 1156" d="M548.753,183.782l-53.067-30.638-24.941,14.4a5.562,5.562,0,0,0-2.394-2.419,14.424,14.424,0,0,0-13.052,0c-3.6,2.081-3.6,5.455,0,7.536a12.034,12.034,0,0,0,4.19,1.382l-24.941,14.4,25.676,14.825a4.781,4.781,0,0,1,2.675-3.43,14.43,14.43,0,0,1,13.053,0c3.6,2.081,3.6,5.454,0,7.535a13.041,13.041,0,0,1-5.94,1.545l25.676,14.824L548.754,193.1C553.211,190.53,553.211,186.356,548.753,183.782Z" transform="translate(-434.548 -153.144)" fill="#d4ecff"/>
    </g>
    <path id="Path_1157" data-name="Path 1157" d="M423.016,198.694V187.1l-12.186,4.559-12.253-7.074a6.493,6.493,0,0,1-1.823,1.509,14.426,14.426,0,0,1-13.054,0c-3.521-2.034-3.592-5.3-.233-7.387l2.847,1.592V165.909H377.5l-.874,6-14.746-8.512-46.941,27.1-9.468-3.4v11.594h0c0,1.686,1.115,3.374,3.345,4.66l53.067,30.639,24.9-14.379a5.625,5.625,0,0,0,2.372,2.365,14.431,14.431,0,0,0,13.052,0c1.871-1.08,2.762-2.51,2.691-3.925v-8.9Z" transform="translate(0 6.447)" fill="#173d7a"/>
    <path id="Path_1158" data-name="Path 1158" d="M361.876,163.395l-46.941,27.1-9.468-3.4v11.594h0c0,1.686,1.115,3.374,3.345,4.66l53.067,30.639v-70.6Z" transform="translate(0 6.447)" fill="#396caa"/>
    <path id="Path_1159" data-name="Path 1159" d="M402.207,204.191a11.948,11.948,0,0,0-4.1-1.37l24.906-14.379-24.439-14.109a6.512,6.512,0,0,1-1.823,1.509,14.426,14.426,0,0,1-13.054,0c-3.6-2.081-3.6-5.455,0-7.536a10.991,10.991,0,0,1,2.614-1.053l-24.439-14.11L308.81,183.781c-4.457,2.573-4.457,6.747,0,9.321l53.067,30.638,24.9-14.379a5.613,5.613,0,0,0,2.372,2.365,14.424,14.424,0,0,0,13.052,0C405.812,209.645,405.812,206.271,402.207,204.191Z" transform="translate(0 5.103)" fill="#5793ce"/>
    <g id="Group_330" data-name="Group 330" transform="translate(376.222 205.26)">
      <path id="Path_1160" data-name="Path 1160" d="M478.376,233.374l-13.75-7.939a13.049,13.049,0,0,0,5.939-1.544,5.01,5.01,0,0,0,2.623-3.1l.078.053v-.7a.325.325,0,0,0,0-.048V208.476L461.637,213l2.675,1.805a13.458,13.458,0,0,0-6.8,1.553,4.781,4.781,0,0,0-2.676,3.429L429.162,204.96l-15.087,8.711-1.567-5.231-8.251-.7v12.888l2.521-.64a10.083,10.083,0,0,1,1.574.716c3.6,2.081,3.6,5.455,0,7.536a14.427,14.427,0,0,1-13.052,0,5.617,5.617,0,0,1-2.372-2.364l-13.785,7.958-11.119-5.175v11.594L421.091,270.9c4.459,2.574,11.687,2.574,16.146,0L490.3,240.259V228.665Z" transform="translate(-368.024 -193.366)" fill="#d3008d"/>
      <path id="Path_1161" data-name="Path 1161" d="M464.626,215.184a13.036,13.036,0,0,0,5.939-1.545c3.6-2.081,3.6-5.455,0-7.535a14.427,14.427,0,0,0-13.052,0,4.78,4.78,0,0,0-2.676,3.429l-25.675-14.824-24.9,14.379a11.964,11.964,0,0,1,4.1,1.369c3.6,2.081,3.6,5.455,0,7.536a14.424,14.424,0,0,1-13.052,0,5.613,5.613,0,0,1-2.372-2.365l-24.9,14.379,53.067,30.638c4.459,2.574,11.687,2.574,16.146,0L490.3,230.008Z" transform="translate(-368.024 -194.709)" fill="#ff2c9c"/>
    </g>
  </g>
</svg>
