<svg xmlns="http://www.w3.org/2000/svg" width="239.672" height="275.748" viewBox="0 0 239.672 275.748">
  <g id="Group_289" data-name="Group 289" transform="translate(-290.864 -63.376)">
    <g id="Group_284" data-name="Group 284">
      <g id="Group_283" data-name="Group 283">
        <path id="Path_904" data-name="Path 904" d="M418.517,337.742l-125.261-72.32c-3.544-2.045-3.1-5.619.992-7.981l85.294-49.228c4.092-2.362,10.281-2.619,13.825-.573l125.261,72.32c3.544,2.045,3.1,5.619-.992,7.981l-85.294,49.228C428.25,339.532,422.061,339.788,418.517,337.742Z" fill="#d4ecff"/>
        <g id="Group_281" data-name="Group 281">
          <path id="Path_905" data-name="Path 905" d="M523.262,137.7,395.934,64.248a4.878,4.878,0,0,0-4.359-.586l0-.015-.209.1-.051.023-4.145,1.951,4.5,2.24c0,.084-.009.163-.009.249l.038,104.58c0,5.233,3.242,11.344,7.235,13.647l123.933,71.493.7,5.834L528.1,261.6c1.491-.876,2.435-2.855,2.434-5.675l-.039-104.58C530.495,146.113,527.256,140,523.262,137.7Z" fill="#173d7a"/>
          <path id="Path_906" data-name="Path 906" d="M523.262,137.7,395.934,64.248a4.878,4.878,0,0,0-4.359-.586l0-.015-.209.1-.051.023-4.145,1.951,4.5,2.24c0,.084-.009.163-.009.249l.025,68.924,57.948,45.785,78.678-39.6A14.278,14.278,0,0,0,523.262,137.7Z" fill="#396caa"/>
          <path id="Path_907" data-name="Path 907" d="M525.389,139.344l-12.478,5.249,9.421,7.259L530.2,148.5A18.31,18.31,0,0,0,525.389,139.344Z" fill="#274f89"/>
          <path id="Path_908" data-name="Path 908" d="M519.116,263.206,391.788,189.755c-3.994-2.3-7.233-8.414-7.235-13.648l-.039-104.58c0-5.233,3.234-7.609,7.228-5.305L519.07,139.674c3.994,2.3,7.233,8.414,7.235,13.647l.039,104.58C526.346,263.135,523.11,265.51,519.116,263.206Z" fill="#d4ecff"/>
          <path id="Path_909" data-name="Path 909" d="M514.881,255.427,395.962,186.86c-3.654-2.108-6.618-7.7-6.62-12.488l-.036-95.7c0-4.789,2.96-6.963,6.614-4.854l118.919,68.567c3.654,2.108,6.618,7.7,6.62,12.488l.036,95.7C521.5,255.362,518.535,257.536,514.881,255.427Z" fill="#fff"/>
          <path id="Path_910" data-name="Path 910" d="M514.881,255.427,395.962,186.86c-3.654-2.108-6.618-7.7-6.62-12.488l-.036-95.7c0-4.789,2.96-6.963,6.614-4.854l118.919,68.567c3.654,2.108,6.618,7.7,6.62,12.488l.036,95.7C521.5,255.362,518.535,257.536,514.881,255.427Z" fill="#fff"/>
        </g>
        <path id="Path_911" data-name="Path 911" d="M521.018,266.455l-17.123-2.261L393.367,200.38c-3.544-2.046-9.733-1.789-13.825.573l-78.32,45.2-10.354-1.368v5.875h.011a4.031,4.031,0,0,0,2.377,3.629l125.261,72.32c3.544,2.046,9.733,1.789,13.825-.573l85.294-49.228c2.3-1.329,3.449-3.041,3.382-4.649h0Z" fill="#173d7a"/>
        <path id="Path_912" data-name="Path 912" d="M437.97,226.132l-7.852-4.534H343.784l-42.562,24.557-10.354-1.368v5.875h.011a4.031,4.031,0,0,0,2.377,3.629l125.261,72.32a12.963,12.963,0,0,0,7.135,1.337Z" fill="#396caa"/>
        <path id="Path_913" data-name="Path 913" d="M295.463,245.394l-4.6-.607v5.875h.011a4.031,4.031,0,0,0,2.377,3.629l2.207,1.275Z" fill="#5793ce"/>
        <path id="Path_914" data-name="Path 914" d="M419.779,327.2a16.045,16.045,0,0,0,11.746-.729v-13.1H419.779Z" fill="#274f89"/>
        <path id="Path_915" data-name="Path 915" d="M418.517,320.744,293.256,248.425c-3.544-2.046-3.1-5.62.992-7.982l85.294-49.228c4.092-2.362,10.281-2.619,13.825-.573l125.261,72.32c3.544,2.046,3.1,5.619-.992,7.981l-85.294,49.228C428.25,322.534,422.061,322.79,418.517,320.744Z" fill="#d4ecff"/>
        <path id="Path_916" data-name="Path 916" d="M517.636,268.8l-85.294,49.229c-4.092,2.362-10.281,2.618-13.825.573l-125.261-72.32a4.661,4.661,0,0,1-2.2-2.41c-.554,1.676.152,3.371,2.2,4.556l125.261,72.319c3.544,2.046,9.733,1.79,13.825-.573l85.294-49.228c2.75-1.587,3.844-3.721,3.2-5.572A6.655,6.655,0,0,1,517.636,268.8Z" fill="#fff"/>
        <g id="Group_282" data-name="Group 282">
          <path id="Path_917" data-name="Path 917" d="M346.531,224.482l-5.667-3.272c-.455-.262-.4-.721.127-1.025l6.69-3.862a1.973,1.973,0,0,1,1.775-.074l5.668,3.272c.455.263.4.722-.128,1.025l-6.689,3.863A1.975,1.975,0,0,1,346.531,224.482Z" fill="#173d7a"/>
          <path id="Path_918" data-name="Path 918" d="M355.284,229.536l-5.668-3.273c-.455-.262-.4-.721.128-1.025l6.689-3.862a1.975,1.975,0,0,1,1.776-.073l5.667,3.272c.455.262.4.721-.127,1.025l-6.69,3.862A1.976,1.976,0,0,1,355.284,229.536Z" fill="#173d7a"/>
          <path id="Path_919" data-name="Path 919" d="M364.036,234.589l-5.667-3.272c-.455-.263-.4-.722.127-1.025l6.69-3.863a1.973,1.973,0,0,1,1.775-.073l5.668,3.272c.455.263.4.722-.128,1.025l-6.689,3.862A1.972,1.972,0,0,1,364.036,234.589Z" fill="#173d7a"/>
          <path id="Path_920" data-name="Path 920" d="M376.141,230.416l-5.667-3.272c-.455-.263-.4-.722.127-1.026l5.616-3.242a1.973,1.973,0,0,1,1.775-.073l5.668,3.272c.455.263.4.722-.128,1.025l-5.615,3.242A1.978,1.978,0,0,1,376.141,230.416Z" fill="#173d7a"/>
          <path id="Path_921" data-name="Path 921" d="M384.894,235.469l-5.668-3.272c-.455-.263-.4-.722.128-1.025l5.615-3.242a1.972,1.972,0,0,1,1.776-.074l5.667,3.272c.455.263.4.722-.127,1.025l-5.616,3.242A1.97,1.97,0,0,1,384.894,235.469Z" fill="#173d7a"/>
          <path id="Path_922" data-name="Path 922" d="M393.646,240.522l-5.667-3.272c-.455-.263-.4-.722.127-1.025l5.616-3.242a1.97,1.97,0,0,1,1.775-.074l5.668,3.272c.455.263.4.722-.128,1.025l-5.615,3.243A1.975,1.975,0,0,1,393.646,240.522Z" fill="#173d7a"/>
          <path id="Path_923" data-name="Path 923" d="M402.4,245.575l-5.668-3.272c-.455-.262-.4-.721.128-1.025l5.615-3.242a1.978,1.978,0,0,1,1.776-.074l5.667,3.273c.455.262.4.721-.127,1.025l-5.616,3.242A1.973,1.973,0,0,1,402.4,245.575Z" fill="#173d7a"/>
          <path id="Path_924" data-name="Path 924" d="M411.151,250.629l-5.667-3.273c-.456-.262-.4-.721.127-1.025l5.616-3.242a1.973,1.973,0,0,1,1.775-.073l5.668,3.272c.455.263.4.721-.128,1.025l-5.616,3.242A1.976,1.976,0,0,1,411.151,250.629Z" fill="#173d7a"/>
          <path id="Path_925" data-name="Path 925" d="M419.9,255.682l-5.668-3.272c-.455-.263-.4-.722.127-1.025l5.616-3.242a1.97,1.97,0,0,1,1.775-.074l5.668,3.272c.455.263.4.722-.127,1.025l-5.616,3.242A1.97,1.97,0,0,1,419.9,255.682Z" fill="#173d7a"/>
          <path id="Path_926" data-name="Path 926" d="M428.656,260.735l-5.668-3.272c-.455-.263-.4-.722.128-1.025l5.616-3.242a1.97,1.97,0,0,1,1.775-.074l5.667,3.272c.456.263.4.722-.127,1.025l-5.616,3.243A1.973,1.973,0,0,1,428.656,260.735Z" fill="#173d7a"/>
          <path id="Path_927" data-name="Path 927" d="M437.408,265.788l-5.667-3.272c-.455-.263-.4-.722.127-1.025l5.616-3.242a1.976,1.976,0,0,1,1.775-.074l5.668,3.273c.455.262.4.721-.128,1.024l-5.615,3.243A1.975,1.975,0,0,1,437.408,265.788Z" fill="#173d7a"/>
          <path id="Path_928" data-name="Path 928" d="M446.161,270.841l-5.668-3.272c-.455-.262-.4-.721.128-1.025l5.615-3.242a1.975,1.975,0,0,1,1.776-.073l5.667,3.272c.455.263.4.721-.127,1.025l-5.616,3.242A1.973,1.973,0,0,1,446.161,270.841Z" fill="#173d7a"/>
          <path id="Path_929" data-name="Path 929" d="M454.913,275.895l-5.667-3.272c-.455-.263-.4-.722.127-1.025l5.616-3.243a1.973,1.973,0,0,1,1.775-.073l5.668,3.272c.455.263.4.722-.128,1.025l-5.615,3.242A1.972,1.972,0,0,1,454.913,275.895Z" fill="#173d7a"/>
          <path id="Path_930" data-name="Path 930" d="M389.037,228.023l-5.667-3.272c-.455-.263-.4-.722.127-1.025l5.616-3.242a1.976,1.976,0,0,1,1.775-.074l5.668,3.272c.455.263.4.722-.128,1.025l-5.615,3.243A1.975,1.975,0,0,1,389.037,228.023Z" fill="#396caa"/>
          <path id="Path_931" data-name="Path 931" d="M380.154,222.9l-5.667-3.272c-.455-.263-.4-.722.127-1.026l5.616-3.242a1.973,1.973,0,0,1,1.775-.073l5.668,3.272c.455.263.4.722-.128,1.025l-5.615,3.242A1.978,1.978,0,0,1,380.154,222.9Z" fill="#396caa"/>
          <path id="Path_932" data-name="Path 932" d="M371.257,217.758,359.05,210.71c-.455-.262-.4-.721.128-1.025l5.615-3.242a1.978,1.978,0,0,1,1.776-.074l12.206,7.048c.455.263.4.722-.127,1.025l-5.616,3.242A1.976,1.976,0,0,1,371.257,217.758Z" fill="#173d7a"/>
          <path id="Path_933" data-name="Path 933" d="M377.476,211.51l-9.906-5.719c-.455-.263-.4-.721.128-1.025l5.615-3.242a1.978,1.978,0,0,1,1.776-.074l9.906,5.72c.455.262.4.721-.128,1.025l-5.615,3.242A1.975,1.975,0,0,1,377.476,211.51Z" fill="#173d7a"/>
          <path id="Path_934" data-name="Path 934" d="M397.79,233.077l-5.668-3.273c-.455-.262-.4-.721.128-1.025l5.615-3.242a1.975,1.975,0,0,1,1.776-.073l5.667,3.272c.455.263.4.721-.127,1.025L399.565,233A1.976,1.976,0,0,1,397.79,233.077Z" fill="#396caa"/>
          <path id="Path_935" data-name="Path 935" d="M406.542,238.13l-5.667-3.272c-.455-.263-.4-.722.127-1.025l5.616-3.243a1.973,1.973,0,0,1,1.775-.073l5.668,3.272c.455.263.4.722-.128,1.025l-5.615,3.242A1.972,1.972,0,0,1,406.542,238.13Z" fill="#173d7a"/>
          <path id="Path_936" data-name="Path 936" d="M415.3,243.183l-5.668-3.272c-.455-.263-.4-.722.128-1.025l5.615-3.242a1.972,1.972,0,0,1,1.776-.074l5.667,3.272c.455.263.4.722-.127,1.025l-5.616,3.242A1.97,1.97,0,0,1,415.3,243.183Z" fill="#173d7a"/>
          <path id="Path_937" data-name="Path 937" d="M424.047,248.236l-5.667-3.272c-.455-.263-.4-.722.127-1.025l5.616-3.242a1.973,1.973,0,0,1,1.775-.074l5.668,3.272c.455.263.4.722-.128,1.025l-5.615,3.243A1.975,1.975,0,0,1,424.047,248.236Z" fill="#173d7a"/>
          <path id="Path_938" data-name="Path 938" d="M432.8,253.289l-5.668-3.272c-.455-.262-.4-.721.128-1.025l5.615-3.242a1.975,1.975,0,0,1,1.776-.073l5.667,3.272c.455.262.4.721-.127,1.025l-5.616,3.242A1.973,1.973,0,0,1,432.8,253.289Z" fill="#173d7a"/>
          <path id="Path_939" data-name="Path 939" d="M441.552,258.343l-5.667-3.272c-.455-.263-.4-.722.127-1.026l5.616-3.242a1.973,1.973,0,0,1,1.775-.073L449.071,254c.455.263.4.721-.128,1.025l-5.615,3.242A1.975,1.975,0,0,1,441.552,258.343Z" fill="#173d7a"/>
          <path id="Path_940" data-name="Path 940" d="M450.3,263.4l-5.668-3.272c-.455-.263-.4-.722.128-1.025l5.615-3.242a1.972,1.972,0,0,1,1.776-.074l5.667,3.272c.455.263.4.722-.127,1.025l-5.616,3.242A1.97,1.97,0,0,1,450.3,263.4Z" fill="#173d7a"/>
          <path id="Path_941" data-name="Path 941" d="M459.057,268.449l-5.667-3.272c-.456-.263-.4-.722.127-1.025l5.616-3.242a1.97,1.97,0,0,1,1.775-.074l5.668,3.272c.455.263.4.722-.128,1.025l-5.616,3.243A1.973,1.973,0,0,1,459.057,268.449Z" fill="#173d7a"/>
          <path id="Path_942" data-name="Path 942" d="M467.81,273.5l-5.668-3.272c-.455-.263-.4-.721.127-1.025l5.616-3.242a1.976,1.976,0,0,1,1.775-.074l5.668,3.273c.455.262.4.721-.127,1.025l-5.616,3.242A1.973,1.973,0,0,1,467.81,273.5Z" fill="#173d7a"/>
          <path id="Path_943" data-name="Path 943" d="M483.369,282.486,471,275.346c-.455-.262-.4-.721.128-1.025l5.615-3.242a1.975,1.975,0,0,1,1.776-.073l12.366,7.139c.455.263.4.722-.128,1.025l-5.615,3.242A1.972,1.972,0,0,1,483.369,282.486Z" fill="#173d7a"/>
          <path id="Path_944" data-name="Path 944" d="M500.409,272.648l-10.437-6.026c-.455-.263-.4-.722.127-1.025l5.616-3.242a1.97,1.97,0,0,1,1.775-.074l10.438,6.026c.455.263.4.722-.128,1.025l-5.615,3.242A1.972,1.972,0,0,1,500.409,272.648Z" fill="#173d7a"/>
          <path id="Path_945" data-name="Path 945" d="M413.117,232.088l-5.667-3.272c-.455-.263-.4-.722.127-1.025l5.616-3.243a1.973,1.973,0,0,1,1.775-.073l5.668,3.272c.455.263.4.722-.128,1.025l-5.615,3.242A1.972,1.972,0,0,1,413.117,232.088Z" fill="#173d7a"/>
          <path id="Path_946" data-name="Path 946" d="M404.147,226.909l-5.667-3.272c-.455-.263-.4-.722.127-1.025l5.616-3.243A1.973,1.973,0,0,1,406,219.3l5.668,3.272c.455.263.4.722-.128,1.025l-5.615,3.242A1.972,1.972,0,0,1,404.147,226.909Z" fill="#173d7a"/>
          <path id="Path_947" data-name="Path 947" d="M395.177,221.73l-5.668-3.272c-.455-.263-.4-.722.128-1.025l5.616-3.242a1.97,1.97,0,0,1,1.775-.074l5.667,3.272c.456.263.4.722-.127,1.025l-5.616,3.242A1.97,1.97,0,0,1,395.177,221.73Z" fill="#396caa"/>
          <path id="Path_948" data-name="Path 948" d="M386.207,216.551l-5.668-3.272c-.455-.263-.4-.722.128-1.025l5.615-3.242a1.972,1.972,0,0,1,1.776-.074l5.667,3.272c.455.263.4.722-.127,1.025l-5.616,3.242A1.97,1.97,0,0,1,386.207,216.551Z" fill="#173d7a"/>
          <path id="Path_949" data-name="Path 949" d="M421.87,237.141l-5.668-3.272c-.455-.263-.4-.722.128-1.025l5.615-3.242a1.972,1.972,0,0,1,1.776-.074l5.667,3.272c.455.263.4.722-.127,1.025l-5.616,3.243A1.973,1.973,0,0,1,421.87,237.141Z" fill="#173d7a"/>
          <path id="Path_950" data-name="Path 950" d="M430.622,242.194l-5.667-3.272c-.455-.263-.4-.722.127-1.025l5.616-3.242a1.973,1.973,0,0,1,1.775-.074l5.668,3.273c.455.262.4.721-.128,1.024l-5.615,3.243A1.975,1.975,0,0,1,430.622,242.194Z" fill="#173d7a"/>
          <path id="Path_951" data-name="Path 951" d="M439.375,247.248l-5.668-3.273c-.455-.262-.4-.721.128-1.025l5.615-3.242a1.975,1.975,0,0,1,1.776-.073l5.667,3.272c.455.262.4.721-.127,1.025l-5.616,3.242A1.976,1.976,0,0,1,439.375,247.248Z" fill="#173d7a"/>
          <path id="Path_952" data-name="Path 952" d="M448.127,252.3l-5.667-3.272c-.455-.263-.4-.722.127-1.025l5.616-3.243a1.973,1.973,0,0,1,1.775-.073l5.668,3.272c.455.263.4.722-.128,1.025l-5.615,3.242A1.978,1.978,0,0,1,448.127,252.3Z" fill="#173d7a"/>
          <path id="Path_953" data-name="Path 953" d="M456.88,257.354l-5.668-3.272c-.455-.263-.4-.722.128-1.025l5.615-3.242a1.972,1.972,0,0,1,1.776-.074l5.667,3.272c.455.263.4.722-.127,1.025l-5.616,3.242A1.97,1.97,0,0,1,456.88,257.354Z" fill="#173d7a"/>
          <path id="Path_954" data-name="Path 954" d="M465.632,262.407l-5.667-3.272c-.456-.263-.4-.722.127-1.025l5.616-3.242a1.973,1.973,0,0,1,1.775-.074l5.668,3.272c.455.263.4.722-.128,1.025l-5.616,3.243A1.973,1.973,0,0,1,465.632,262.407Z" fill="#173d7a"/>
          <path id="Path_955" data-name="Path 955" d="M474.385,267.46l-5.668-3.272c-.455-.262-.4-.721.127-1.025l5.616-3.242a1.976,1.976,0,0,1,1.775-.074l5.668,3.273c.455.262.4.721-.127,1.025l-5.616,3.242A1.973,1.973,0,0,1,474.385,267.46Z" fill="#173d7a"/>
          <path id="Path_956" data-name="Path 956" d="M483.137,272.514l-5.668-3.273c-.455-.262-.4-.721.128-1.025l5.616-3.242a1.973,1.973,0,0,1,1.775-.073l5.667,3.272c.456.263.4.721-.127,1.025l-5.616,3.242A1.976,1.976,0,0,1,483.137,272.514Z" fill="#173d7a"/>
          <path id="Path_957" data-name="Path 957" d="M491.889,277.567l-5.667-3.272c-.455-.263-.4-.722.127-1.025l5.616-3.243a1.973,1.973,0,0,1,1.775-.073l5.668,3.272c.455.263.4.722-.128,1.025l-5.615,3.242A1.972,1.972,0,0,1,491.889,277.567Z" fill="#173d7a"/>
          <path id="Path_958" data-name="Path 958" d="M408.509,219.589l-5.668-3.272c-.455-.263-.4-.722.128-1.025l5.615-3.242a1.972,1.972,0,0,1,1.776-.074l5.667,3.272c.455.263.4.722-.127,1.025l-5.616,3.242A1.97,1.97,0,0,1,408.509,219.589Z" fill="#173d7a"/>
          <path id="Path_959" data-name="Path 959" d="M399.8,214.561l-5.668-3.272c-.455-.263-.4-.722.128-1.025l5.615-3.243a1.975,1.975,0,0,1,1.776-.073l5.667,3.272c.455.263.4.722-.127,1.025l-5.616,3.242A1.97,1.97,0,0,1,399.8,214.561Z" fill="#173d7a"/>
          <path id="Path_960" data-name="Path 960" d="M391.091,209.533l-5.668-3.272c-.455-.263-.4-.722.128-1.025l5.615-3.243a1.975,1.975,0,0,1,1.776-.073l5.667,3.272c.455.263.4.722-.127,1.025l-5.616,3.242A1.973,1.973,0,0,1,391.091,209.533Z" fill="#173d7a"/>
          <path id="Path_961" data-name="Path 961" d="M382.382,204.505l-5.668-3.272c-.455-.263-.4-.722.128-1.026l5.615-3.242a1.975,1.975,0,0,1,1.776-.073l5.667,3.272c.455.263.4.722-.127,1.025l-5.616,3.242A1.976,1.976,0,0,1,382.382,204.505Z" fill="#173d7a"/>
          <path id="Path_962" data-name="Path 962" d="M391.337,199.334l-5.667-3.272c-.455-.263-.4-.721.127-1.025l1.857-1.072a1.973,1.973,0,0,1,1.775-.073l5.668,3.272c.455.263.4.722-.128,1.025l-1.856,1.072A1.975,1.975,0,0,1,391.337,199.334Z" fill="#173d7a"/>
          <path id="Path_963" data-name="Path 963" d="M402.7,205.9l-5.667-3.272c-.455-.263-.4-.722.127-1.025l1.857-1.072a1.976,1.976,0,0,1,1.775-.074l5.668,3.273c.455.262.4.721-.128,1.025l-1.856,1.071A1.972,1.972,0,0,1,402.7,205.9Z" fill="#173d7a"/>
          <path id="Path_964" data-name="Path 964" d="M411.375,210.9l-5.668-3.272c-.455-.263-.4-.722.128-1.025l1.856-1.072a1.975,1.975,0,0,1,1.776-.073l5.667,3.272c.455.262.4.721-.127,1.025l-1.857,1.072A1.973,1.973,0,0,1,411.375,210.9Z" fill="#173d7a"/>
          <path id="Path_965" data-name="Path 965" d="M420.048,215.91l-5.668-3.272c-.455-.263-.4-.722.128-1.025l1.856-1.072a1.973,1.973,0,0,1,1.775-.073l5.668,3.272c.455.263.4.722-.128,1.025l-1.856,1.072A1.973,1.973,0,0,1,420.048,215.91Z" fill="#173d7a"/>
          <path id="Path_966" data-name="Path 966" d="M428.72,220.917l-5.667-3.272c-.455-.262-.4-.721.127-1.025l1.857-1.072a1.973,1.973,0,0,1,1.775-.073l5.668,3.272c.455.263.4.722-.128,1.025l-1.856,1.072A1.975,1.975,0,0,1,428.72,220.917Z" fill="#173d7a"/>
          <path id="Path_967" data-name="Path 967" d="M477.138,248.872l-5.667-3.273c-.455-.262-.4-.721.127-1.025l1.857-1.072a1.973,1.973,0,0,1,1.775-.073L480.9,246.7c.456.263.4.722-.127,1.025l-1.856,1.072A1.978,1.978,0,0,1,477.138,248.872Z" fill="#173d7a"/>
          <path id="Path_968" data-name="Path 968" d="M485.811,253.879l-5.668-3.273c-.455-.262-.4-.721.128-1.025l1.856-1.071a1.97,1.97,0,0,1,1.775-.074l5.668,3.272c.455.263.4.722-.127,1.025l-1.857,1.072A1.976,1.976,0,0,1,485.811,253.879Z" fill="#173d7a"/>
          <path id="Path_969" data-name="Path 969" d="M494.483,258.886l-5.667-3.272c-.455-.263-.4-.722.127-1.025l1.857-1.072a1.97,1.97,0,0,1,1.775-.074l5.668,3.272c.455.263.4.722-.128,1.025l-1.856,1.072A1.975,1.975,0,0,1,494.483,258.886Z" fill="#173d7a"/>
          <path id="Path_970" data-name="Path 970" d="M503.156,263.893l-5.667-3.272c-.456-.263-.4-.722.127-1.025l1.856-1.072a1.978,1.978,0,0,1,1.776-.074l5.667,3.272c.455.263.4.722-.127,1.026l-1.857,1.071A1.97,1.97,0,0,1,503.156,263.893Z" fill="#173d7a"/>
          <path id="Path_971" data-name="Path 971" d="M417.261,224.642l-5.667-3.272c-.456-.263-.4-.722.127-1.025l5.616-3.242a1.976,1.976,0,0,1,1.775-.074l5.668,3.272c.455.263.4.722-.128,1.025l-5.616,3.243A1.973,1.973,0,0,1,417.261,224.642Z" fill="#173d7a"/>
          <path id="Path_972" data-name="Path 972" d="M426.014,229.7l-5.668-3.272c-.455-.262-.4-.721.127-1.025l5.616-3.242a1.976,1.976,0,0,1,1.775-.074l5.668,3.273c.455.262.4.721-.127,1.025l-5.616,3.242A1.973,1.973,0,0,1,426.014,229.7Z" fill="#173d7a"/>
          <path id="Path_973" data-name="Path 973" d="M434.766,234.749l-5.668-3.273c-.455-.262-.4-.721.128-1.024l5.616-3.243a1.973,1.973,0,0,1,1.775-.073l5.667,3.272c.456.263.4.722-.127,1.025l-5.616,3.242A1.973,1.973,0,0,1,434.766,234.749Z" fill="#173d7a"/>
          <path id="Path_974" data-name="Path 974" d="M443.518,239.8l-5.667-3.272c-.455-.263-.4-.722.127-1.025l5.616-3.243a1.973,1.973,0,0,1,1.775-.073l5.668,3.272c.455.263.4.722-.128,1.025l-5.615,3.242A1.972,1.972,0,0,1,443.518,239.8Z" fill="#173d7a"/>
          <path id="Path_975" data-name="Path 975" d="M452.271,244.855l-5.668-3.272c-.455-.263-.4-.722.128-1.025l5.615-3.242a1.972,1.972,0,0,1,1.776-.074l5.667,3.272c.455.263.4.722-.127,1.025l-5.616,3.243A1.973,1.973,0,0,1,452.271,244.855Z" fill="#173d7a"/>
          <path id="Path_976" data-name="Path 976" d="M461.023,249.908l-5.667-3.272c-.455-.262-.4-.722.127-1.025l5.616-3.242a1.976,1.976,0,0,1,1.775-.074l5.668,3.273c.455.262.4.721-.128,1.025l-5.615,3.242A1.975,1.975,0,0,1,461.023,249.908Z" fill="#173d7a"/>
          <path id="Path_977" data-name="Path 977" d="M469.776,254.962l-5.668-3.273c-.455-.262-.4-.721.128-1.025l5.615-3.242a1.975,1.975,0,0,1,1.776-.073l5.667,3.272c.455.262.4.721-.127,1.025l-5.616,3.242A1.976,1.976,0,0,1,469.776,254.962Z" fill="#173d7a"/>
          <path id="Path_978" data-name="Path 978" d="M478.528,260.015l-5.667-3.272c-.455-.263-.4-.722.127-1.025l5.616-3.243a1.973,1.973,0,0,1,1.775-.073l5.668,3.272c.455.263.4.722-.128,1.025l-5.615,3.242A1.972,1.972,0,0,1,478.528,260.015Z" fill="#173d7a"/>
          <path id="Path_979" data-name="Path 979" d="M487.281,265.068l-5.668-3.272c-.455-.263-.4-.722.128-1.025l5.615-3.242a1.972,1.972,0,0,1,1.776-.074l5.667,3.272c.455.263.4.722-.127,1.025l-5.616,3.242A1.97,1.97,0,0,1,487.281,265.068Z" fill="#173d7a"/>
          <path id="Path_980" data-name="Path 980" d="M367.222,225.266l-16.692-9.637c-.455-.263-.4-.721.128-1.025l5.615-3.242a1.978,1.978,0,0,1,1.776-.074l16.691,9.637c.455.263.4.722-.127,1.025L369,225.193A1.973,1.973,0,0,1,367.222,225.266Z" fill="#173d7a"/>
          <path id="Path_981" data-name="Path 981" d="M474.748,287.346l-16.692-9.637c-.455-.262-.4-.721.128-1.025l5.615-3.242a1.975,1.975,0,0,1,1.776-.073l16.691,9.637c.455.262.4.721-.127,1.024l-5.616,3.243A1.973,1.973,0,0,1,474.748,287.346Z" fill="#173d7a"/>
          <path id="Path_982" data-name="Path 982" d="M439.746,278.3l-5.668-3.273c-.455-.262-.4-.721.128-1.025l6.689-3.862a1.975,1.975,0,0,1,1.776-.073l5.667,3.272c.455.262.4.722-.127,1.025l-6.69,3.862A1.976,1.976,0,0,1,439.746,278.3Z" fill="#173d7a"/>
          <path id="Path_983" data-name="Path 983" d="M376.185,241.6l-9.064-5.233c-.455-.263-.4-.722.128-1.025l6.689-3.862a1.972,1.972,0,0,1,1.776-.074l9.064,5.233c.455.263.4.722-.128,1.025l-6.69,3.862A1.97,1.97,0,0,1,376.185,241.6Z" fill="#173d7a"/>
          <path id="Path_984" data-name="Path 984" d="M431.313,273.431l-9.065-5.233c-.455-.263-.4-.722.128-1.025l6.69-3.863a1.973,1.973,0,0,1,1.775-.073l9.064,5.233c.455.263.4.722-.127,1.025l-6.69,3.862A1.97,1.97,0,0,1,431.313,273.431Z" fill="#173d7a"/>
          <path id="Path_985" data-name="Path 985" d="M388.813,248.894l-9.064-5.233c-.455-.263-.4-.722.127-1.025l6.69-3.863a1.975,1.975,0,0,1,1.776-.073l9.064,5.233c.455.263.4.721-.128,1.025l-6.69,3.862A1.97,1.97,0,0,1,388.813,248.894Z" fill="#173d7a"/>
          <path id="Path_986" data-name="Path 986" d="M388.4,238.735l39.408,22.752a.54.54,0,0,1,0,1.023l-6.822,3.938a1.953,1.953,0,0,1-1.771,0L379.81,243.7Z" fill="#173d7a"/>
          <path id="Path_987" data-name="Path 987" d="M464.207,287.462l6.313,3.645c.373.215.327.591-.1.84l-2.737,1.58a1.62,1.62,0,0,1-1.455.06l-6.313-3.645c-.373-.215-.326-.591.1-.84l2.736-1.58A1.614,1.614,0,0,1,464.207,287.462Z" fill="#173d7a"/>
          <path id="Path_988" data-name="Path 988" d="M455.382,282.367l6.313,3.644c.373.216.327.592-.1.841l-2.737,1.58a1.62,1.62,0,0,1-1.455.06l-6.313-3.645c-.373-.215-.326-.591.105-.84l2.736-1.58A1.614,1.614,0,0,1,455.382,282.367Z" fill="#173d7a"/>
          <path id="Path_989" data-name="Path 989" d="M446.63,277.313l6.313,3.645c.373.216.326.592-.1.84l-2.736,1.58a1.617,1.617,0,0,1-1.455.061l-6.313-3.645c-.373-.215-.327-.592.1-.84l2.737-1.58A1.617,1.617,0,0,1,446.63,277.313Z" fill="#173d7a"/>
          <path id="Path_990" data-name="Path 990" d="M460.216,279.576l6.313,3.645c.373.215.326.591-.1.84l-2.736,1.58a1.619,1.619,0,0,1-1.456.061l-6.313-3.645c-.373-.216-.326-.592.1-.841l2.736-1.58A1.622,1.622,0,0,1,460.216,279.576Z" fill="#173d7a"/>
        </g>
      </g>
    </g>
    <g id="Group_286" data-name="Group 286">
      <path id="Path_991" data-name="Path 991" d="M447.313,161.129l-41.552-23.99a4.427,4.427,0,0,1-1.849-3.532V100.914c0-1.361.828-1.987,1.849-1.4l41.552,23.99a4.424,4.424,0,0,1,1.848,3.531v32.693C449.161,161.093,448.334,161.718,447.313,161.129Z" fill="#d4ecff" opacity="0.4"/>
      <g id="Group_285" data-name="Group 285">
        <path id="Path_992" data-name="Path 992" d="M418.326,139.05l-.292-.169a4.7,4.7,0,0,1-1.962-3.747v-15.58c0-1.444.878-2.108,1.962-1.483l.292.169a4.7,4.7,0,0,1,1.961,3.747v15.58C420.287,139.011,419.409,139.675,418.326,139.05Z" fill="#b2d3ea"/>
        <path id="Path_993" data-name="Path 993" d="M426.683,143.875l-.293-.169a4.7,4.7,0,0,1-1.961-3.747V130.84c0-1.444.878-2.108,1.961-1.483l.293.169a4.7,4.7,0,0,1,1.961,3.747v9.119C428.644,143.836,427.766,144.5,426.683,143.875Z" fill="#b2d3ea"/>
        <path id="Path_994" data-name="Path 994" d="M435.04,148.7l-.293-.169a4.7,4.7,0,0,1-1.961-3.747v-21.7c0-1.445.878-2.108,1.961-1.483l.293.169A4.7,4.7,0,0,1,437,125.512v21.7C437,148.661,436.123,149.325,435.04,148.7Z" fill="#f04381"/>
      </g>
    </g>
    <g id="Group_287" data-name="Group 287">
      <path id="Path_995" data-name="Path 995" d="M486.929,152.338l-25.815-14.9a4.148,4.148,0,0,1-1.734-3.311h0c0-1.277.776-1.863,1.734-1.311l25.815,14.9a4.151,4.151,0,0,1,1.733,3.312h0C488.662,152.3,487.886,152.891,486.929,152.338Z" fill="#b2d3ea"/>
      <path id="Path_996" data-name="Path 996" d="M470.322,151.829l-9.208-5.317a4.15,4.15,0,0,1-1.734-3.312h0c0-1.276.776-1.862,1.734-1.31l9.208,5.317a4.15,4.15,0,0,1,1.734,3.312h0C472.056,151.795,471.28,152.382,470.322,151.829Z" fill="#b2d3ea"/>
      <path id="Path_997" data-name="Path 997" d="M485.777,160.752l-9.209-5.317a4.151,4.151,0,0,1-1.733-3.312h0c0-1.276.776-1.863,1.733-1.31l9.209,5.317a4.15,4.15,0,0,1,1.733,3.311h0C487.51,160.718,486.734,161.3,485.777,160.752Z" fill="#f04381"/>
      <path id="Path_998" data-name="Path 998" d="M505.2,172l-13.175-7.642a4.15,4.15,0,0,1-1.733-3.311h0c0-1.277.776-1.863,1.733-1.311l13.175,7.642a4.15,4.15,0,0,1,1.733,3.311h0C506.93,171.965,506.154,172.551,505.2,172Z" fill="#b2d3ea"/>
      <path id="Path_999" data-name="Path 999" d="M493.369,174.213l-32.255-18.622a4.15,4.15,0,0,1-1.734-3.312h0c0-1.276.776-1.862,1.734-1.31l32.255,18.623A4.15,4.15,0,0,1,495.1,172.9h0C495.1,174.18,494.326,174.766,493.369,174.213Z" fill="#b2d3ea"/>
      <path id="Path_1000" data-name="Path 1000" d="M506.93,191.018,461.114,164.67a4.15,4.15,0,0,1-1.734-3.312h0c0-1.276.776-1.863,1.734-1.31L506.93,186.4a4.151,4.151,0,0,1,1.733,3.312h0C508.663,190.984,507.887,191.571,506.93,191.018Z" fill="#f04381"/>
      <path id="Path_1001" data-name="Path 1001" d="M510.8,166.082l-16.749-9.629a4.153,4.153,0,0,1-1.733-3.312h0c0-1.276.776-1.863,1.733-1.31L510.8,161.46a4.153,4.153,0,0,1,1.733,3.312h0C512.538,166.048,511.762,166.635,510.8,166.082Z" fill="#b2d3ea"/>
    </g>
    <g id="Group_288" data-name="Group 288">
      <path id="Path_1002" data-name="Path 1002" d="M411.955,166.779l-8.15-4.706v9.411l8.15,4.706Z" fill="#f04381"/>
      <path id="Path_1003" data-name="Path 1003" d="M424.83,166.438l-8.15-4.706v17.185l8.15,4.706Z" fill="#d4ecff"/>
      <path id="Path_1004" data-name="Path 1004" d="M437.705,178.781l-8.15-4.706v12.275l8.15,4.706Z" fill="#d4ecff"/>
      <path id="Path_1005" data-name="Path 1005" d="M450.58,182.669l-8.15-4.706v15.821l8.15,4.706Z" fill="#d4ecff"/>
      <path id="Path_1006" data-name="Path 1006" d="M463.455,191.057l-8.15-4.706v14.866l8.15,4.706Z" fill="#f04381"/>
      <path id="Path_1007" data-name="Path 1007" d="M476.33,194.748l-8.15-4.705v18.609l8.15,4.706Z" fill="#f04381"/>
      <path id="Path_1008" data-name="Path 1008" d="M489.206,200.2l-8.15-4.706v20.595l8.15,4.706Z" fill="#d4ecff"/>
      <path id="Path_1009" data-name="Path 1009" d="M502.081,202.606l-8.15-4.706v25.617l8.15,4.706Z" fill="#f04381"/>
    </g>
  </g>
</svg>
