<svg xmlns="http://www.w3.org/2000/svg" width="361.81" height="208.781" viewBox="0 0 361.81 208.781">
  <g id="Group_606" data-name="Group 606" transform="translate(-687 -1894)">
    <g id="Group_280" data-name="Group 280" transform="translate(628.356 1583.572)">
      <path id="Path_894" data-name="Path 894" d="M409.218,373,356.3,342.452c-10.191-5.884-26.775-5.884-36.969,0L287.559,360.8l-11.511-6.647c-2.521-1.456-4.827-1.557-6.608-.562l0-.006L158.627,417.979a5.024,5.024,0,0,0-1.124.651l-.115.067.028.022c-1.708,1.445-2.773,4.075-2.773,7.67,0,7.511,4.565,16.235,10.2,19.485l93.846,54.182c2.667,1.54,5.076,1.532,6.893.347-.053.033-.1.095-.148.129a5.148,5.148,0,0,0,1.985-1.16l108.714-63.1a5.089,5.089,0,0,0,.976-.565l0,0h0a6.681,6.681,0,0,0,1.856-2.446,12.388,12.388,0,0,0,1.127-5.442h0a20.611,20.611,0,0,0-.2-2.787c-.062-.43-.173-.861-.257-1.294-.1-.5-.176-1-.307-1.5-.145-.556-.341-1.1-.525-1.652-.123-.369-.224-.741-.363-1.1-.218-.576-.481-1.132-.738-1.691-.123-.271-.224-.553-.355-.819l-.014.006a26.3,26.3,0,0,0-1.836-3.156l33.724-19.474C419.412,388.461,419.412,378.888,409.218,373Zm-14.046,13.233-31.779,18.345-61.785-35.67,31.776-18.348a9.812,9.812,0,0,1,8.875,0l52.911,30.549C397.618,382.524,397.618,384.825,395.172,386.236Z" transform="translate(3.59 17.952)" fill="#d4ecff"/>
      <g id="Group_279" data-name="Group 279" transform="translate(152.644 328.039)">
        <g id="Group_277" data-name="Group 277">
          <g id="Group_275" data-name="Group 275" transform="translate(112.896)">
            <path id="Path_895" data-name="Path 895" d="M282.916,414.251l-14.049-8.112,51.8-29.9c2.446-1.412,2.446-3.712,0-5.124l-52.911-30.549a9.829,9.829,0,0,0-8.875,0l-51.8,29.9-14.049-8.109,51.8-29.906c10.194-5.884,26.778-5.884,36.97,0L334.711,363c10.194,5.884,10.194,15.458,0,21.341Z" transform="translate(-193.033 -328.039)" fill="#ff2c9c"/>
          </g>
          <g id="Group_276" data-name="Group 276" transform="translate(0 14.897)">
            <path id="Path_896" data-name="Path 896" d="M376.329,408.253c0-7.511-4.567-16.235-10.2-19.485l-93.844-54.18c-2.521-1.459-4.827-1.56-6.608-.565l0-.006L153.626,399.13,261.98,480.778l110.389-64.069a5.1,5.1,0,0,0,.976-.567h0C375.189,414.747,376.329,412.007,376.329,408.253Z" transform="translate(-150.881 -333.369)" fill="#d4ecff"/>
            <path id="Path_897" data-name="Path 897" d="M201.531,439.653,311.92,375.583a5.1,5.1,0,0,0,.976-.567h0c1.842-1.395,2.982-4.134,2.982-7.888a25.023,25.023,0,0,0-2.748-10.851L187.3,428.927Z" transform="translate(-90.433 -292.243)" fill="#396caa"/>
            <path id="Path_898" data-name="Path 898" d="M256.687,439.053,162.841,384.87c-5.632-3.251-10.2-11.975-10.2-19.485h0c0-7.511,4.565-10.963,10.2-7.709l93.846,54.18c5.632,3.251,10.2,11.978,10.2,19.485h0C266.884,438.851,262.32,442.3,256.687,439.053Z" transform="translate(-152.644 -291.931)" fill="#396caa"/>
            <path id="Path_899" data-name="Path 899" d="M254.874,411.666l-93.847-54.18c-2.588-1.5-4.945-1.56-6.745-.478A7.087,7.087,0,0,1,159.9,358l93.846,54.18c5.632,3.251,10.2,11.978,10.2,19.485v0c0,4.056-1.339,6.913-3.452,8.184,2.759-.839,4.581-3.958,4.581-8.7h0C265.071,423.643,260.507,414.919,254.874,411.666Z" transform="translate(-149.702 -292.256)" fill="#fff"/>
          </g>
          <path id="Path_900" data-name="Path 900" d="M193.389,387.284l-11.282-6.51a4.867,4.867,0,0,1-2.035-3.882h0c0-1.5.911-2.186,2.035-1.537l11.282,6.507a4.874,4.874,0,0,1,2.032,3.885h0C195.421,387.242,194.51,387.932,193.389,387.284Z" transform="translate(-103.403 -243.538)" fill="#fff"/>
        </g>
        <g id="Group_278" data-name="Group 278" transform="translate(87.706 58.132)">
          <path id="Path_901" data-name="Path 901" d="M199.026,357.414c3.4-2.013,3.371-5.219-.073-7.159a13.706,13.706,0,0,0-12.4.129c-3.4,2.013-3.368,5.219.076,7.159A13.7,13.7,0,0,0,199.026,357.414Z" transform="translate(-184.021 -348.836)" fill="#5793ce"/>
          <path id="Path_902" data-name="Path 902" d="M205.788,361.223c3.4-2.013,3.368-5.219-.075-7.158a13.708,13.708,0,0,0-12.4.129c-3.4,2.013-3.371,5.219.073,7.161A13.714,13.714,0,0,0,205.788,361.223Z" transform="translate(-171.885 -341.997)" fill="#fff"/>
          <path id="Path_903" data-name="Path 903" d="M212.548,365.034c3.4-2.015,3.368-5.219-.076-7.161a13.708,13.708,0,0,0-12.4.131c-3.4,2.013-3.371,5.216.075,7.159A13.709,13.709,0,0,0,212.548,365.034Z" transform="translate(-159.749 -335.159)" fill="#fff"/>
        </g>
      </g>
    </g>
    <g id="Group_364" data-name="Group 364" transform="translate(401.337 1809.781)">
      <path id="Path_1172" data-name="Path 1172" d="M400.985,137.13,350.59,166.7c-12.777-3.921-29.056-2.709-39.8,3.594-13.07,7.668-12.984,19.953.192,27.438a40.207,40.207,0,0,0,9.914,3.888,52.886,52.886,0,0,0,7.879,1.359c10.481,1.02,21.667-.849,29.731-5.58,9.767-5.731,12.184-14.038,7.284-21l6.954-4.08-.2-4.415,7.318-.051-.185-4.134,7.319-.051-.185-4.135,7.319-.051-.185-4.134,7.318-.051-.184-4.135,7.813-.055,2.384-1.4,2.631-10.855Zm-70.917,56.575a13.676,13.676,0,0,1-12.372.087c-3.43-1.949-3.453-5.147-.05-7.143a13.676,13.676,0,0,1,12.372-.087C333.448,188.511,333.47,191.709,330.068,193.705Z" fill="#d4ecff"/>
      <g id="Group_363" data-name="Group 363">
        <g id="Group_362" data-name="Group 362">
          <path id="Path_1173" data-name="Path 1173" d="M343.029,124.1l16.127,9.161,16.456-9.655-.044-4.2-.14.082-.013-.3,7.318-.051-.043-4.135,7.177-.05-.043-4.135,7.177-.05-.043-4.135,7.177-.05-.043-4.135,7.672-.054,2.384-1.4,2.631-10.855-.044-4.2-1.27,4.025-11.614-1.551Z" fill="#396caa"/>
          <g id="Group_361" data-name="Group 361">
            <g id="Group_360" data-name="Group 360">
              <g id="Group_355" data-name="Group 355">
                <g id="Group_341" data-name="Group 341">
                  <g id="Group_340" data-name="Group 340">
                    <path id="Path_1174" data-name="Path 1174" d="M359.112,129.065l16.456-9.655-.2-4.414,7.318-.051-.185-4.134,7.318-.051-.185-4.134,7.318-.051-.185-4.134,7.318-.051-.185-4.134,7.814-.055,2.384-1.4,2.631-10.855-12.927-1.727L342.985,119.9Z" fill="#d4ecff"/>
                  </g>
                </g>
                <g id="Group_343" data-name="Group 343">
                  <g id="Group_342" data-name="Group 342">
                    <path id="Path_1175" data-name="Path 1175" d="M370.071,122.636a22.674,22.674,0,0,0-7.475-6.444,38.58,38.58,0,0,0-7.725-3.261L342.985,119.9l16.127,9.161Z" fill="#396caa"/>
                  </g>
                </g>
                <g id="Group_345" data-name="Group 345">
                  <g id="Group_344" data-name="Group 344">
                    <path id="Path_1176" data-name="Path 1176" d="M416.293,87.768l.441-1.822-2.169-.29-51.389,30.151,2.707,1.537Z" fill="#5793ce"/>
                  </g>
                </g>
                <g id="Group_347" data-name="Group 347">
                  <g id="Group_346" data-name="Group 346">
                    <path id="Path_1177" data-name="Path 1177" d="M304.049,137.353l-.178-5.97,1.911,4.032Z" fill="#d3d0cf"/>
                  </g>
                </g>
                <path id="Path_1178" data-name="Path 1178" d="M313.985,150.785c13.176,7.485,34.453,7.337,47.523-.332,6.553-3.845,9.8-8.85,9.744-13.828v0l-.183-6.326L370,131.5c-1.516-3.118-4.4-6.054-8.681-8.483-13.177-7.485-34.453-7.336-47.523.332S300.808,143.3,313.985,150.785Zm19.033-11.167c3.43,1.949,3.453,5.147.05,7.143a13.676,13.676,0,0,1-12.372.087c-3.43-1.949-3.453-5.147-.05-7.143A13.67,13.67,0,0,1,333.018,139.618Z" fill="#396caa"/>
                <g id="Group_349" data-name="Group 349">
                  <g id="Group_348" data-name="Group 348">
                    <path id="Path_1179" data-name="Path 1179" d="M313.806,144.818c13.177,7.485,34.454,7.336,47.524-.332s12.983-19.953-.193-27.438-34.453-7.336-47.523.333S300.63,137.333,313.806,144.818Zm19.034-11.167c3.43,1.948,3.453,5.146.05,7.143a13.673,13.673,0,0,1-12.372.086c-3.43-1.948-3.453-5.146-.05-7.143A13.673,13.673,0,0,1,332.84,133.651Z" fill="#f2f2f2"/>
                  </g>
                </g>
                <path id="Path_1180" data-name="Path 1180" d="M329.084,148.087a13.494,13.494,0,0,1-8.388-1.239c-2.46-1.4-3.157-3.436-2.106-5.215l-5.969-4.733s-3.12-3.52-6.209-7.01c-4.806,7.025-2.276,15.3,7.573,20.9a41.533,41.533,0,0,0,14.735,4.683Z" fill="#5793ce"/>
                <g id="Group_351" data-name="Group 351">
                  <g id="Group_350" data-name="Group 350">
                    <path id="Path_1181" data-name="Path 1181" d="M313.806,144.818a40.129,40.129,0,0,0,9.914,3.888,52.756,52.756,0,0,0,7.879,1.36c10.481,1.02,21.667-.849,29.731-5.58,13.07-7.669,12.983-19.953-.193-27.438s-34.453-7.336-47.523.333S300.63,137.333,313.806,144.818Zm19.034-11.167c3.43,1.948,3.453,5.146.05,7.143a13.673,13.673,0,0,1-12.372.086c-3.43-1.948-3.453-5.146-.05-7.143A13.673,13.673,0,0,1,332.84,133.651Z" fill="#d4ecff"/>
                  </g>
                </g>
                <g id="Group_354" data-name="Group 354">
                  <g id="Group_353" data-name="Group 353">
                    <g id="Group_352" data-name="Group 352">
                      <path id="Path_1182" data-name="Path 1182" d="M307.581,131.223c.641-3.824,3.476-7.56,8.524-10.522,11.629-6.823,30.559-6.955,42.282-.3,5.826,3.31,8.769,7.674,8.836,12.064.835-4.985-2.062-10.121-8.7-13.889-11.723-6.66-30.654-6.527-42.282.295C310.395,122.307,307.514,126.779,307.581,131.223Z" fill="#396caa"/>
                    </g>
                  </g>
                </g>
              </g>
              <g id="Group_359" data-name="Group 359">
                <g id="Group_358" data-name="Group 358">
                  <g id="Group_357" data-name="Group 357">
                    <g id="Group_356" data-name="Group 356">
                      <path id="Path_1183" data-name="Path 1183" d="M299.654,185.53a13.183,13.183,0,0,1-6.593-1.7c-4.722-2.679-7.35-8.064-7.4-15.163-.093-12.947,8.919-28.812,20.088-35.366,6.119-3.591,12.089-4.093,16.811-1.41a13.2,13.2,0,0,1,4.888,4.888,20.352,20.352,0,0,1,2.509,10.276c.092,12.947-8.921,28.813-20.09,35.366A20.42,20.42,0,0,1,299.654,185.53Zm16.305-50.583a15.733,15.733,0,0,0-7.8,2.451c-9.864,5.787-17.824,19.8-17.742,31.236.036,5.329,1.809,9.258,4.992,11.064s7.464,1.32,12.06-1.376c9.865-5.787,17.824-19.8,17.744-31.236a15.937,15.937,0,0,0-1.856-7.9h0a8.254,8.254,0,0,0-7.395-4.236Z" fill="#396caa"/>
                    </g>
                  </g>
                </g>
              </g>
            </g>
          </g>
        </g>
        <path id="Path_1184" data-name="Path 1184" d="M322.162,145.456l9.381,2.3,1.347-6.961a13.673,13.673,0,0,1-12.372.086Z" fill="#d4ecff"/>
        <path id="Path_1185" data-name="Path 1185" d="M313.806,144.818a40.129,40.129,0,0,0,9.914,3.888,52.756,52.756,0,0,0,7.879,1.36c10.481,1.02,21.667-.849,29.731-5.58l-38.2-.858Z" fill="#d4ecff"/>
        <path id="Path_1186" data-name="Path 1186" d="M327.922,149.641a55.47,55.47,0,0,1-8.3-2.138v5.862a45.507,45.507,0,0,0,8.2,2.1C336.568,156.621,327.922,149.641,327.922,149.641Z" fill="#396caa"/>
      </g>
      <path id="Path_1187" data-name="Path 1187" d="M321.83,148.21a38.914,38.914,0,0,1-5.4-1.994c-5.11-2.392,1.354,6.47,1.354,6.47s1.741.694,4.05,1.4Z" fill="#5793ce"/>
    </g>
  </g>
</svg>
