<svg xmlns="http://www.w3.org/2000/svg" width="280.845" height="277.257" viewBox="0 0 280.845 277.257">
  <g id="Group_607" data-name="Group 607" transform="translate(-806 -151)">
    <g id="Group_367" data-name="Group 367" transform="translate(660.011 112.037)">
      <ellipse id="Ellipse_72" data-name="Ellipse 72" cx="27.241" cy="15.727" rx="27.241" ry="15.727" transform="translate(372.353 275.305)" fill="#d4ecff"/>
      <ellipse id="Ellipse_73" data-name="Ellipse 73" cx="27.241" cy="15.727" rx="27.241" ry="15.727" transform="translate(358.824 268.22)" fill="#d4ecff"/>
      <g id="Group_322" data-name="Group 322" transform="translate(374.639 269.828)">
        <path id="Path_1118" data-name="Path 1118" d="M436.819,298.451H435.8a15.637,15.637,0,0,0-6.345-6.162c-9.824-5.672-25.753-5.672-35.577,0a15.636,15.636,0,0,0-6.344,6.163h-1.024v4.108h0c0,3.717,2.457,7.434,7.369,10.27,9.824,5.672,25.753,5.672,35.577,0,4.913-2.836,7.368-6.553,7.368-10.27h0Z" transform="translate(-386.505 -283.927)" fill="#f9bf30"/>
        <path id="Path_1119" data-name="Path 1119" d="M406.206,288.632a33.345,33.345,0,0,0-12.333,3.906,15.636,15.636,0,0,0-6.344,6.163h-1.024v4.108c0,3.717,2.457,7.434,7.369,10.27a33.338,33.338,0,0,0,12.332,3.906Z" transform="translate(-386.505 -284.176)" fill="#fdd762"/>
        <path id="Path_1120" data-name="Path 1120" d="M460.283,316.412c4.865-2.831,7.3-6.53,7.3-10.229v-4.108h-1.024a14.665,14.665,0,0,0-5.05-5.35h-1.226Z" transform="translate(-417.269 -287.55)" fill="#e8a200"/>
        <g id="Group_320" data-name="Group 320" transform="translate(0.706 5.323)" opacity="0.4">
          <path id="Path_1121" data-name="Path 1121" d="M469.8,303.951a11.991,11.991,0,0,0-1.091-1.579v12.345a11.91,11.91,0,0,0,1.091-1.581Z" transform="translate(-421.489 -295.228)" fill="#e8a200"/>
          <path id="Path_1122" data-name="Path 1122" d="M396.63,293.158a19.834,19.834,0,0,0-3.514,2.552v15.442c.342.314.7.623,1.091.925V295.339h2.057v18.137c.122.074.24.15.366.223.237.136.481.267.725.4V295.339h2.056v19.746q.539.232,1.091.445V295.339h2.057v20.9q.54.167,1.091.317V295.339h2.057v21.715q.542.115,1.091.215v-21.93h2.057v22.252q.544.071,1.091.128v-22.38H412v22.547c.363.02.727.034,1.091.045V295.339h2.057v22.6q.546-.009,1.091-.032V295.339H418.3v22.438q.547-.049,1.091-.111V295.339h2.057v22.036q.549-.092,1.091-.2V295.339H424.6v21.372q.55-.141,1.091-.3V295.339h2.057v20.407q.553-.2,1.091-.418V295.339h2.057V314.4q.556-.279,1.091-.579V295.339h2.057v17.176c.385-.276.746-.56,1.091-.848V295.339h.182a20.47,20.47,0,0,0-3.108-2.181,30.276,30.276,0,0,0-7.719-3.039H404.348A30.272,30.272,0,0,0,396.63,293.158Z" transform="translate(-389.968 -290.119)" fill="#e8a200"/>
          <path id="Path_1123" data-name="Path 1123" d="M388.807,303.716a11.273,11.273,0,0,0-.774,1.274h-.318v7.53a10.831,10.831,0,0,0,1.091,1.975Z" transform="translate(-387.716 -295.789)" fill="#e8a200"/>
        </g>
        <ellipse id="Ellipse_74" data-name="Ellipse 74" cx="25.157" cy="14.524" rx="25.157" ry="14.524" transform="translate(0 0)" fill="#fdd762"/>
        <path id="Path_1124" data-name="Path 1124" d="M417.3,298c7.232-4.176,9.133-10.26,5.716-15.443-9.438-2.757-21.255-1.862-29.141,2.691-7.232,4.176-9.133,10.26-5.717,15.444C397.6,303.444,409.416,302.55,417.3,298Z" transform="translate(-386.509 -280.991)" fill="#fff" opacity="0.2"/>
        <path id="Path_1125" data-name="Path 1125" d="M429.456,316.439c-9.824,5.672-25.753,5.672-35.577,0-4.748-2.741-7.194-6.3-7.353-9.9-.171,3.842,2.276,7.714,7.353,10.645,9.824,5.672,25.753,5.672,35.577,0,5.077-2.931,7.523-6.8,7.352-10.644C436.649,310.135,434.2,313.7,429.456,316.439Z" transform="translate(-386.51 -291.644)" fill="#fff" opacity="0.7"/>
        <path id="Path_1126" data-name="Path 1126" d="M429.51,305.817c-6.974,4.026-18.28,4.026-25.254,0s-6.974-10.554,0-14.58,18.28-4.026,25.253,0S436.484,301.792,429.51,305.817Z" transform="translate(-391.726 -284.003)" fill="#e8a200"/>
        <path id="Path_1127" data-name="Path 1127" d="M404.257,292.178c6.973-4.026,18.28-4.026,25.253,0,3.279,1.894,5.016,4.34,5.211,6.82.22-2.793-1.516-5.628-5.211-7.761-6.974-4.026-18.28-4.026-25.253,0-3.695,2.133-5.43,4.967-5.211,7.761C399.241,296.518,400.977,294.072,404.257,292.178Z" transform="translate(-391.727 -284.003)" fill="#f9bf30"/>
        <path id="Path_1128" data-name="Path 1128" d="M432.321,297.551l-1.384.4.393.156-1.351.781a7.627,7.627,0,0,0-3.427-.8,6.555,6.555,0,0,0-3.3.893,5.107,5.107,0,0,0-1,.723,2.115,2.115,0,0,0-.534.763,2.569,2.569,0,0,0-.175.732,4.184,4.184,0,0,0,.031.792l.16,1.26a3.787,3.787,0,0,1,.032.883,1.587,1.587,0,0,1-.3.716,2.41,2.41,0,0,1-.792.678,1.615,1.615,0,0,1-1.7.124q-.566-.327-.287-.814a4.391,4.391,0,0,1,1.507-1.215v-.946l-1.183.444-1.7-.722a5.506,5.506,0,0,0-2.017,1.812l-.195-.219v.928h0c.006.637.492,1.264,1.467,1.882l-.673.388-.914-.418v.946l.82.473,1.6-.925a7,7,0,0,0,3.24.647,6.431,6.431,0,0,0,3.056-.821,5.162,5.162,0,0,0,1.084-.8,2.614,2.614,0,0,0,.6-.877,3.311,3.311,0,0,0,.223-.865,4.691,4.691,0,0,0,0-.918l-.136-1.22c-.022-.245-.032-.423-.032-.533a2.482,2.482,0,0,1,.06-.462,1.072,1.072,0,0,1,.275-.527,2.541,2.541,0,0,1,.59-.446,2.387,2.387,0,0,1,.908-.29,1.463,1.463,0,0,1,.908.152.835.835,0,0,1,.283.219.262.262,0,0,1,.05.158l-1.409.293v.946l2.853,1.269q.35-.22.625-.412a5.933,5.933,0,0,0,.575-.46,3.364,3.364,0,0,0,.477-.515,1.818,1.818,0,0,0,.272-.556,1.257,1.257,0,0,0,.047-.283l0,0v-.015a.09.09,0,0,0,0-.013v-.968l-.363.076c-.005-.006-.008-.012-.013-.019a3.373,3.373,0,0,0-.762-.651l1.5-.865Z" transform="translate(-398.382 -287.895)" fill="#f9bf30"/>
        <g id="Group_321" data-name="Group 321" transform="translate(16.606 9.173)">
          <path id="Path_1129" data-name="Path 1129" d="M414.988,306.421l1.586-.916q-1.627-1.03-1.455-2.1t2.2-2.308l2.885,1.224a4.4,4.4,0,0,0-1.507,1.215q-.279.487.287.814a1.615,1.615,0,0,0,1.7-.124,2.41,2.41,0,0,0,.792-.678,1.586,1.586,0,0,0,.3-.716,3.787,3.787,0,0,0-.032-.883l-.16-1.26a4.184,4.184,0,0,1-.031-.792,2.569,2.569,0,0,1,.175-.732,2.116,2.116,0,0,1,.534-.763,5.107,5.107,0,0,1,1-.723,6.561,6.561,0,0,1,3.3-.893,7.627,7.627,0,0,1,3.427.8l1.506-.87.837.483-1.5.865a3.387,3.387,0,0,1,.762.651,1.633,1.633,0,0,1,.346.623,1.137,1.137,0,0,1-.02.6,1.818,1.818,0,0,1-.272.556,3.364,3.364,0,0,1-.477.515,5.932,5.932,0,0,1-.575.46q-.275.192-.625.412l-2.853-1.269q.326-.2.534-.332t.422-.294a1.734,1.734,0,0,0,.311-.281.76.76,0,0,0,.136-.248.26.26,0,0,0-.044-.242.836.836,0,0,0-.283-.219,1.463,1.463,0,0,0-.908-.152,2.387,2.387,0,0,0-.908.29,2.541,2.541,0,0,0-.59.446,1.072,1.072,0,0,0-.275.527,2.482,2.482,0,0,0-.06.462q0,.166.032.533l.136,1.22a4.691,4.691,0,0,1,0,.918,3.3,3.3,0,0,1-.223.865,2.62,2.62,0,0,1-.6.877,5.182,5.182,0,0,1-1.084.8,6.431,6.431,0,0,1-3.056.821,6.987,6.987,0,0,1-3.24-.647l-1.6.925Z" transform="translate(-414.988 -296.722)" fill="#fdd762"/>
        </g>
      </g>
      <g id="Group_325" data-name="Group 325" transform="translate(358.049 254.223)">
        <path id="Path_1130" data-name="Path 1130" d="M412.2,274.235l-1,.2a15.636,15.636,0,0,0-7.406-4.835c-10.728-3.689-26.362-.643-34.921,6.8a15.638,15.638,0,0,0-5.049,7.262l-1,.2.785,4.033h0c.711,3.649,3.833,6.827,9.2,8.671,10.728,3.689,26.362.644,34.921-6.8,4.279-3.723,5.979-7.841,5.268-11.49h0Z" transform="translate(-360.035 -259.98)" fill="#f9bf30"/>
        <path id="Path_1131" data-name="Path 1131" d="M380.224,271.764a33.351,33.351,0,0,0-11.358,6.192,15.638,15.638,0,0,0-5.049,7.262l-1,.2.785,4.033c.711,3.649,3.833,6.827,9.2,8.671a33.342,33.342,0,0,0,12.852,1.476Z" transform="translate(-360.035 -261.537)" fill="#fdd762"/>
        <path id="Path_1132" data-name="Path 1132" d="M437.239,291.218c4.234-3.709,5.917-7.8,5.209-11.436l-.785-4.033-1,.2a14.676,14.676,0,0,0-5.98-4.286l-1.2.234Z" transform="translate(-389.5 -261.493)" fill="#e8a200"/>
        <g id="Group_323" data-name="Group 323" transform="translate(3.47 8.109)" opacity="0.4">
          <path id="Path_1133" data-name="Path 1133" d="M444.2,277.335a12.05,12.05,0,0,0-1.374-1.342l2.361,12.117a12,12,0,0,0,.769-1.761Z" transform="translate(-396.87 -271.41)" fill="#e8a200"/>
          <path id="Path_1134" data-name="Path 1134" d="M371.078,276.441a19.831,19.831,0,0,0-2.961,3.177l2.952,15.157c.4.243.809.478,1.248.7l-3.2-16.428,2.019-.394,3.468,17.8c.135.049.265.1.4.148.259.089.523.171.788.252l-3.587-18.411,2.019-.393L378,297.432q.573.125,1.156.229L375.3,277.842l2.019-.394,4,20.514q.561.061,1.132.1l-4.057-20.826,2.019-.393,4.152,21.313q.554.01,1.112,0l-4.194-21.525,2.019-.394,4.255,21.841q.547-.034,1.1-.083l-4.279-21.967,2.019-.393,4.311,22.13c.36-.05.72-.106,1.08-.164l-4.32-22.175,2.019-.394L394,297.227q.534-.113,1.065-.24l-4.315-22.155,2.018-.393,4.29,22.024q.528-.153,1.05-.318l-4.269-21.914,2.018-.394,4.213,21.629q.521-.2,1.033-.4l-4.175-21.433,2.019-.394,4.086,20.977q.514-.243,1.014-.5l-4.029-20.686,2.019-.394,3.9,20.03q.5-.3.991-.619l-3.822-19.62,2.019-.394,3.644,18.709c.328-.254.649-.512.96-.777L406.2,271.823l2.019-.393,3.284,16.859c.325-.345.626-.692.909-1.041l-3.122-16.027.178-.035A20.414,20.414,0,0,0,406,269.639a30.265,30.265,0,0,0-8.158-1.507l-19.768,3.851A30.265,30.265,0,0,0,371.078,276.441Z" transform="translate(-365.717 -268.132)" fill="#e8a200"/>
          <path id="Path_1135" data-name="Path 1135" d="M364.828,292.442a11.155,11.155,0,0,0-.516,1.4L364,293.9l1.439,7.391a10.767,10.767,0,0,0,1.449,1.73Z" transform="translate(-364.001 -278.269)" fill="#e8a200"/>
        </g>
        <ellipse id="Ellipse_75" data-name="Ellipse 75" cx="25.157" cy="14.524" rx="25.157" ry="14.524" transform="translate(0 9.619) rotate(-11.022)" fill="#fdd762"/>
        <path id="Path_1136" data-name="Path 1136" d="M393.4,277.523c6.3-5.481,7-11.817,2.659-16.251-9.791-.9-21.22,2.236-28.089,8.213-6.3,5.482-7,11.817-2.659,16.252C375.1,286.638,386.531,283.5,393.4,277.523Z" transform="translate(-359.926 -257.098)" fill="#fff" opacity="0.2"/>
        <path id="Path_1137" data-name="Path 1137" d="M406.991,290.43c-8.559,7.446-24.193,10.491-34.921,6.8-5.184-1.782-8.266-4.813-9.11-8.307.567,3.8,3.709,7.136,9.253,9.043,10.728,3.689,26.362.643,34.921-6.8,4.422-3.848,6.083-8.116,5.181-11.853C412.845,282.866,411.126,286.832,406.991,290.43Z" transform="translate(-360.097 -264.684)" fill="#fff" opacity="0.7"/>
        <ellipse id="Ellipse_76" data-name="Ellipse 76" cx="17.857" cy="10.31" rx="17.857" ry="10.31" transform="translate(7.971 12.36) rotate(-11.022)" fill="#e8a200"/>
        <path id="Path_1138" data-name="Path 1138" d="M378.942,275.467c6.075-5.285,17.173-7.447,24.788-4.828,3.581,1.231,5.753,3.3,6.418,5.7-.318-2.784-2.565-5.234-6.6-6.621-7.615-2.619-18.713-.457-24.788,4.829-3.218,2.8-4.38,5.914-3.631,8.613C374.849,280.686,376.085,277.953,378.942,275.467Z" transform="translate(-365.08 -260.219)" fill="#f9bf30"/>
        <path id="Path_1139" data-name="Path 1139" d="M407.147,275.848l-1.283.653.416.078L405.1,277.6a7.633,7.633,0,0,0-3.517-.131,6.556,6.556,0,0,0-3.068,1.507,5.106,5.106,0,0,0-.839.9,2.115,2.115,0,0,0-.378.851,2.578,2.578,0,0,0-.032.752,4.158,4.158,0,0,0,.182.771l.4,1.206a3.785,3.785,0,0,1,.2.861,1.583,1.583,0,0,1-.157.76,2.409,2.409,0,0,1-.648.817,1.615,1.615,0,0,1-1.642.446q-.618-.212-.438-.744a4.4,4.4,0,0,1,1.246-1.48l-.181-.928-1.076.662-1.809-.383a5.507,5.507,0,0,0-1.634,2.164l-.233-.177.177.91h0c.128.624.724,1.147,1.8,1.567l-.586.51-.977-.236.181.928.9.308,1.4-1.214a6.991,6.991,0,0,0,3.3.015,6.442,6.442,0,0,0,2.843-1.391,5.18,5.18,0,0,0,.91-1,2.615,2.615,0,0,0,.423-.975,3.339,3.339,0,0,0,.054-.892,4.635,4.635,0,0,0-.179-.9l-.367-1.171c-.068-.237-.113-.409-.133-.518a2.44,2.44,0,0,1-.03-.465,1.066,1.066,0,0,1,.169-.57,2.551,2.551,0,0,1,.493-.551,2.4,2.4,0,0,1,.837-.458,1.462,1.462,0,0,1,.921-.024.835.835,0,0,1,.319.161.261.261,0,0,1,.08.145l-1.327.557.181.929,3.044.7q.3-.283.535-.524a5.907,5.907,0,0,0,.476-.561,3.39,3.39,0,0,0,.37-.6,1.821,1.821,0,0,0,.16-.6,1.262,1.262,0,0,0-.008-.286l0,0,0-.014,0-.013-.185-.95-.342.143-.016-.016a3.369,3.369,0,0,0-.872-.493l1.3-1.136Z" transform="translate(-371.988 -263.24)" fill="#f9bf30"/>
        <g id="Group_324" data-name="Group 324" transform="translate(19.461 12.294)">
          <path id="Path_1140" data-name="Path 1140" d="M391.875,287.984l1.382-1.2q-1.794-.7-1.828-1.779t1.714-2.684l3.066.65a4.39,4.39,0,0,0-1.246,1.48q-.181.532.437.744a1.616,1.616,0,0,0,1.643-.446,2.409,2.409,0,0,0,.648-.817,1.583,1.583,0,0,0,.157-.76,3.787,3.787,0,0,0-.2-.861l-.4-1.206a4.155,4.155,0,0,1-.182-.771,2.556,2.556,0,0,1,.032-.751,2.124,2.124,0,0,1,.378-.852,5.157,5.157,0,0,1,.84-.9,6.556,6.556,0,0,1,3.068-1.507,7.625,7.625,0,0,1,3.517.131l1.312-1.142.913.314-1.3,1.136a3.379,3.379,0,0,1,.872.493,1.64,1.64,0,0,1,.459.546,1.136,1.136,0,0,1,.1.594,1.821,1.821,0,0,1-.16.6,3.389,3.389,0,0,1-.37.6,5.908,5.908,0,0,1-.476.561q-.233.241-.535.524l-3.044-.7q.282-.256.461-.427t.358-.37a1.723,1.723,0,0,0,.251-.335.764.764,0,0,0,.086-.269.258.258,0,0,0-.09-.229.833.833,0,0,0-.32-.161,1.46,1.46,0,0,0-.92.024,2.392,2.392,0,0,0-.837.458,2.571,2.571,0,0,0-.494.551,1.068,1.068,0,0,0-.169.57,2.438,2.438,0,0,0,.03.465c.02.108.065.281.133.518l.367,1.171a4.681,4.681,0,0,1,.179.9,3.337,3.337,0,0,1-.054.892,2.615,2.615,0,0,1-.423.975,5.165,5.165,0,0,1-.911,1,6.43,6.43,0,0,1-2.842,1.391,7,7,0,0,1-3.3-.015l-1.4,1.214Z" transform="translate(-391.428 -275.31)" fill="#fdd762"/>
        </g>
      </g>
      <path id="Path_1141" data-name="Path 1141" d="M437.117,301.76l-2.535-1.47-2.535,1.47,1.47-2.535-1.47-2.535,2.535,1.47,2.535-1.47-1.47,2.535Z" transform="translate(-30.856 -17.708)" fill="#fff"/>
      <path id="Path_1142" data-name="Path 1142" d="M413.828,330.22l-1.527-.886-1.527.886.886-1.527-.886-1.527,1.527.886,1.527-.886-.886,1.527Z" transform="translate(-21.985 -30.416)" fill="#fff"/>
    </g>
    <g id="Group_566" data-name="Group 566" transform="translate(501.25 88.785)">
      <g id="Group_368" data-name="Group 368">
        <path id="Path_1188" data-name="Path 1188" d="M563.2,145.184v85.272c0,2.9-2.033,4.069-4.54,2.622l-115.2-66.514a10.033,10.033,0,0,1-4.54-7.863V73.428Z" fill="#d4ecff"/>
      </g>
      <path id="Path_1189" data-name="Path 1189" d="M464.933,227.716a.672.672,0,0,1-.337-1.254l9.11-5.268a3.363,3.363,0,0,0,1.674-2.9v-7.048a.672.672,0,0,1,1.344,0v7.048a4.712,4.712,0,0,1-2.347,4.068l-9.109,5.268A.666.666,0,0,1,464.933,227.716Z" fill="#5793ce"/>
      <g id="Group_373" data-name="Group 373">
        <g id="Group_372" data-name="Group 372">
          <g id="Group_371" data-name="Group 371">
            <g id="Group_369" data-name="Group 369">
              <rect id="Rectangle_10" data-name="Rectangle 10" width="5.546" height="11.967" transform="translate(464.488 224.085) rotate(60.169)" fill="#5793ce"/>
              <path id="Path_1190" data-name="Path 1190" d="M467.824,227.629a4.331,4.331,0,0,0-1.95-3.4c-1.082-.629-1.961-.125-1.965,1.126a4.338,4.338,0,0,0,1.951,3.4C466.941,229.383,467.821,228.879,467.824,227.629Z" fill="#5793ce"/>
            </g>
            <g id="Group_370" data-name="Group 370">
              <rect id="Rectangle_11" data-name="Rectangle 11" width="8.987" height="18.77" transform="translate(455.064 227.506) rotate(60.169)" fill="#5793ce"/>
              <path id="Path_1191" data-name="Path 1191" d="M455.813,229.059l3.514-2.015a7.179,7.179,0,0,1,2.759,4.811l-3.514,2.015A7.177,7.177,0,0,1,455.813,229.059Z" fill="#396caa"/>
              <path id="Path_1192" data-name="Path 1192" d="M460.471,233.248a7.026,7.026,0,0,0-3.161-5.513c-1.752-1.018-3.177-.2-3.183,1.825a7.024,7.024,0,0,0,3.161,5.513C459.04,236.091,460.465,235.274,460.471,233.248Z" fill="#5793ce"/>
            </g>
          </g>
        </g>
        <path id="Path_1193" data-name="Path 1193" d="M464.55,226.344a.561.561,0,0,0,0-1.062,2.036,2.036,0,0,0-1.84-.006.561.561,0,0,0,0,1.063A2.036,2.036,0,0,0,464.55,226.344Z" fill="#d4ecff"/>
      </g>
      <g id="Group_376" data-name="Group 376">
        <g id="Group_375" data-name="Group 375">
          <path id="Path_1194" data-name="Path 1194" d="M421.567,338.208,306.94,272.027c-3.243-1.872-2.836-5.142.908-7.3L385.9,219.674c3.744-2.161,9.408-2.4,12.651-.524L513.18,285.33c3.243,1.873,2.836,5.143-.908,7.3l-78.054,45.049C430.474,339.845,424.81,340.08,421.567,338.208Z" fill="#d4ecff"/>
          <path id="Path_1195" data-name="Path 1195" d="M515.366,272.972,499.7,270.9l-101.146-58.4c-3.243-1.872-8.907-1.637-12.651.525L314.23,254.4l-9.475-1.251v5.376h.009a3.69,3.69,0,0,0,2.176,3.321l114.627,66.18c3.243,1.872,8.907,1.638,12.651-.524l78.054-45.049c2.106-1.216,3.156-2.783,3.094-4.254h0Z" fill="#173d7a"/>
          <path id="Path_1196" data-name="Path 1196" d="M439.369,236.072l-7.186-4.149H353.178L314.23,254.4l-9.475-1.251v5.376h.009a3.69,3.69,0,0,0,2.176,3.321l114.627,66.18a11.855,11.855,0,0,0,6.529,1.224Z" fill="#396caa"/>
          <path id="Path_1197" data-name="Path 1197" d="M308.96,253.7l-4.2-.555v5.376h.009a3.69,3.69,0,0,0,2.176,3.321l2.02,1.166Z" fill="#5793ce"/>
          <path id="Path_1198" data-name="Path 1198" d="M422.722,328.559a14.686,14.686,0,0,0,10.749-.668V315.9H422.722Z" fill="#274f89"/>
          <path id="Path_1199" data-name="Path 1199" d="M421.567,322.653,306.94,256.472c-3.243-1.872-2.836-5.142.908-7.3L385.9,204.119c3.744-2.161,9.408-2.4,12.651-.524l114.628,66.18c3.243,1.873,2.836,5.143-.908,7.3l-78.054,45.048C430.474,324.29,424.81,324.525,421.567,322.653Z" fill="#d4ecff"/>
          <path id="Path_1200" data-name="Path 1200" d="M512.272,275.116l-78.054,45.049c-3.744,2.162-9.408,2.4-12.651.524L306.94,254.509a4.262,4.262,0,0,1-2.016-2.205c-.508,1.534.139,3.085,2.016,4.169l114.627,66.18c3.243,1.872,8.907,1.637,12.651-.525l78.054-45.048c2.516-1.454,3.517-3.406,2.924-5.1A6.1,6.1,0,0,1,512.272,275.116Z" fill="#fff"/>
          <g id="Group_374" data-name="Group 374">
            <path id="Path_1201" data-name="Path 1201" d="M355.692,234.563l-5.186-3c-.416-.24-.364-.66.117-.938l6.121-3.534a1.807,1.807,0,0,1,1.625-.068l5.187,2.995c.416.24.364.66-.117.938l-6.122,3.534A1.807,1.807,0,0,1,355.692,234.563Z" fill="#173d7a"/>
            <path id="Path_1202" data-name="Path 1202" d="M363.7,239.187l-5.187-2.994c-.416-.241-.364-.661.117-.938l6.122-3.535a1.8,1.8,0,0,1,1.624-.067l5.187,2.994c.416.241.364.661-.117.938l-6.122,3.535A1.807,1.807,0,0,1,363.7,239.187Z" fill="#173d7a"/>
            <path id="Path_1203" data-name="Path 1203" d="M371.711,243.811l-5.186-2.994c-.417-.241-.364-.661.116-.938l6.122-3.535a1.81,1.81,0,0,1,1.625-.067l5.186,2.994c.417.241.365.661-.116.938l-6.122,3.535A1.807,1.807,0,0,1,371.711,243.811Z" fill="#173d7a"/>
            <path id="Path_1204" data-name="Path 1204" d="M382.789,239.992,377.6,237c-.416-.24-.364-.66.117-.938l5.139-2.967a1.8,1.8,0,0,1,1.625-.067l5.186,2.994c.416.24.364.66-.117.938l-5.139,2.967A1.8,1.8,0,0,1,382.789,239.992Z" fill="#173d7a"/>
            <path id="Path_1205" data-name="Path 1205" d="M390.8,244.617l-5.186-3c-.417-.24-.364-.66.116-.938l5.139-2.967a1.81,1.81,0,0,1,1.625-.067l5.186,2.994c.417.241.365.661-.116.938l-5.139,2.967A1.807,1.807,0,0,1,390.8,244.617Z" fill="#173d7a"/>
            <path id="Path_1206" data-name="Path 1206" d="M398.808,249.241l-5.187-2.995c-.416-.24-.364-.66.117-.938l5.139-2.967a1.808,1.808,0,0,1,1.624-.067l5.187,2.995c.416.24.364.66-.117.937l-5.139,2.967A1.8,1.8,0,0,1,398.808,249.241Z" fill="#173d7a"/>
            <path id="Path_1207" data-name="Path 1207" d="M406.817,253.865l-5.186-2.994c-.417-.241-.365-.661.116-.938l5.139-2.967a1.807,1.807,0,0,1,1.625-.068l5.186,3c.417.24.365.66-.116.938l-5.139,2.967A1.807,1.807,0,0,1,406.817,253.865Z" fill="#173d7a"/>
            <path id="Path_1208" data-name="Path 1208" d="M414.827,258.489l-5.187-2.994c-.416-.24-.364-.66.117-.938l5.139-2.967a1.8,1.8,0,0,1,1.624-.067l5.187,2.994c.416.241.364.66-.117.938l-5.139,2.967A1.8,1.8,0,0,1,414.827,258.489Z" fill="#173d7a"/>
            <path id="Path_1209" data-name="Path 1209" d="M422.836,263.114l-5.186-3c-.417-.24-.365-.66.116-.938l5.139-2.967a1.81,1.81,0,0,1,1.625-.067l5.186,2.994c.417.241.364.661-.116.938l-5.139,2.967A1.807,1.807,0,0,1,422.836,263.114Z" fill="#173d7a"/>
            <path id="Path_1210" data-name="Path 1210" d="M430.845,267.738l-5.186-2.995c-.416-.24-.364-.66.117-.938l5.139-2.966a1.8,1.8,0,0,1,1.624-.068l5.187,2.995c.416.24.364.66-.117.938l-5.139,2.966A1.807,1.807,0,0,1,430.845,267.738Z" fill="#173d7a"/>
            <path id="Path_1211" data-name="Path 1211" d="M438.855,272.362l-5.187-2.994c-.416-.241-.364-.661.117-.938l5.139-2.967a1.807,1.807,0,0,1,1.625-.068l5.186,3c.416.24.364.66-.117.938L440.48,272.3A1.81,1.81,0,0,1,438.855,272.362Z" fill="#173d7a"/>
            <path id="Path_1212" data-name="Path 1212" d="M446.864,276.986l-5.186-2.994c-.417-.241-.364-.66.116-.938l5.139-2.967a1.8,1.8,0,0,1,1.625-.067l5.187,2.994c.416.241.364.66-.117.938l-5.139,2.967A1.8,1.8,0,0,1,446.864,276.986Z" fill="#173d7a"/>
            <path id="Path_1213" data-name="Path 1213" d="M454.874,281.611l-5.187-2.995c-.416-.24-.364-.66.117-.938l5.139-2.967a1.806,1.806,0,0,1,1.625-.067l5.186,2.994c.416.241.364.661-.117.938l-5.139,2.967A1.8,1.8,0,0,1,454.874,281.611Z" fill="#173d7a"/>
            <path id="Path_1214" data-name="Path 1214" d="M394.59,237.8l-5.186-2.994c-.417-.241-.364-.661.116-.938l5.139-2.967a1.807,1.807,0,0,1,1.625-.068l5.186,2.995c.417.24.365.66-.116.938l-5.139,2.967A1.806,1.806,0,0,1,394.59,237.8Z" fill="#396caa"/>
            <path id="Path_1215" data-name="Path 1215" d="M386.461,233.11l-5.186-2.995c-.417-.24-.364-.66.116-.938l5.139-2.967a1.81,1.81,0,0,1,1.625-.067l5.186,2.994c.417.241.365.661-.116.938l-5.139,2.967A1.807,1.807,0,0,1,386.461,233.11Z" fill="#396caa"/>
            <path id="Path_1216" data-name="Path 1216" d="M378.319,228.409l-11.17-6.449c-.417-.241-.365-.661.116-.938l5.139-2.967a1.807,1.807,0,0,1,1.625-.068l11.17,6.45c.417.24.364.66-.117.938l-5.138,2.966A1.807,1.807,0,0,1,378.319,228.409Z" fill="#173d7a"/>
            <path id="Path_1217" data-name="Path 1217" d="M384.01,222.692l-9.065-5.234c-.416-.24-.364-.66.117-.938l5.139-2.967a1.81,1.81,0,0,1,1.625-.067l9.065,5.234c.416.24.364.66-.117.938l-5.139,2.967A1.81,1.81,0,0,1,384.01,222.692Z" fill="#173d7a"/>
            <path id="Path_1218" data-name="Path 1218" d="M402.6,242.427l-5.187-2.994c-.416-.24-.364-.66.117-.938l5.139-2.967a1.8,1.8,0,0,1,1.624-.067l5.187,2.994c.416.24.364.66-.117.938l-5.139,2.967A1.8,1.8,0,0,1,402.6,242.427Z" fill="#396caa"/>
            <path id="Path_1219" data-name="Path 1219" d="M410.609,247.052l-5.186-2.995c-.417-.24-.365-.66.116-.938l5.139-2.967a1.806,1.806,0,0,1,1.625-.067l5.186,2.994c.417.241.364.661-.116.938l-5.139,2.967A1.807,1.807,0,0,1,410.609,247.052Z" fill="#173d7a"/>
            <path id="Path_1220" data-name="Path 1220" d="M418.618,251.676l-5.186-2.995c-.416-.24-.364-.66.117-.938l5.139-2.967a1.808,1.808,0,0,1,1.624-.067L425.5,247.7c.416.24.364.66-.117.938l-5.139,2.966A1.807,1.807,0,0,1,418.618,251.676Z" fill="#173d7a"/>
            <path id="Path_1221" data-name="Path 1221" d="M426.628,256.3l-5.187-2.994c-.416-.241-.364-.661.117-.938L426.7,249.4a1.807,1.807,0,0,1,1.625-.068l5.186,3c.417.24.364.66-.116.938l-5.139,2.967A1.807,1.807,0,0,1,426.628,256.3Z" fill="#173d7a"/>
            <path id="Path_1222" data-name="Path 1222" d="M434.637,260.924l-5.186-2.994c-.416-.241-.364-.661.117-.938l5.138-2.967a1.8,1.8,0,0,1,1.625-.067l5.187,2.994c.416.24.364.66-.117.938l-5.139,2.967A1.8,1.8,0,0,1,434.637,260.924Z" fill="#173d7a"/>
            <path id="Path_1223" data-name="Path 1223" d="M442.647,265.549l-5.187-3c-.416-.24-.364-.66.117-.938l5.139-2.967a1.807,1.807,0,0,1,1.625-.067l5.186,2.994c.416.241.364.661-.117.938l-5.139,2.967A1.8,1.8,0,0,1,442.647,265.549Z" fill="#173d7a"/>
            <path id="Path_1224" data-name="Path 1224" d="M450.656,270.173l-5.186-2.995c-.417-.24-.364-.66.116-.938l5.139-2.966a1.807,1.807,0,0,1,1.625-.068l5.186,2.994c.417.241.365.661-.116.939l-5.139,2.967A1.81,1.81,0,0,1,450.656,270.173Z" fill="#173d7a"/>
            <path id="Path_1225" data-name="Path 1225" d="M458.666,274.8l-5.187-2.994c-.416-.241-.364-.661.117-.938l5.139-2.967a1.8,1.8,0,0,1,1.624-.068l5.187,3c.416.24.364.66-.117.938l-5.139,2.967A1.808,1.808,0,0,1,458.666,274.8Z" fill="#173d7a"/>
            <path id="Path_1226" data-name="Path 1226" d="M466.675,279.421l-5.186-2.994c-.417-.24-.365-.66.116-.938l5.139-2.967a1.8,1.8,0,0,1,1.625-.067l5.186,2.994c.417.24.365.66-.116.938l-5.139,2.967A1.8,1.8,0,0,1,466.675,279.421Z" fill="#173d7a"/>
            <path id="Path_1227" data-name="Path 1227" d="M480.914,287.642,469.6,281.109c-.417-.241-.364-.661.116-.938l5.139-2.967a1.807,1.807,0,0,1,1.625-.068l11.316,6.534c.417.24.365.66-.116.938l-5.139,2.967A1.807,1.807,0,0,1,480.914,287.642Z" fill="#173d7a"/>
            <path id="Path_1228" data-name="Path 1228" d="M496.508,278.639l-9.552-5.514c-.416-.241-.364-.661.117-.938l5.139-2.967a1.8,1.8,0,0,1,1.624-.068l9.552,5.515c.416.241.364.66-.117.938l-5.139,2.967A1.8,1.8,0,0,1,496.508,278.639Z" fill="#173d7a"/>
            <path id="Path_1229" data-name="Path 1229" d="M416.626,241.523l-5.187-2.995c-.416-.24-.364-.66.117-.938l5.139-2.967a1.806,1.806,0,0,1,1.625-.067l5.186,2.994c.417.241.364.661-.117.938l-5.138,2.967A1.807,1.807,0,0,1,416.626,241.523Z" fill="#173d7a"/>
            <path id="Path_1230" data-name="Path 1230" d="M408.417,236.783l-5.186-2.994c-.417-.241-.364-.661.116-.938l5.139-2.967a1.807,1.807,0,0,1,1.625-.068l5.186,3c.417.24.365.66-.116.938l-5.139,2.967A1.807,1.807,0,0,1,408.417,236.783Z" fill="#173d7a"/>
            <path id="Path_1231" data-name="Path 1231" d="M400.209,232.044l-5.187-2.994c-.416-.241-.364-.661.117-.939l5.139-2.966a1.8,1.8,0,0,1,1.624-.068l5.187,3c.416.24.364.66-.117.938l-5.139,2.967A1.808,1.808,0,0,1,400.209,232.044Z" fill="#396caa"/>
            <path id="Path_1232" data-name="Path 1232" d="M392,227.3l-5.187-2.995c-.416-.24-.364-.66.117-.938l5.139-2.967a1.807,1.807,0,0,1,1.625-.067l5.186,2.994c.416.241.364.661-.117.938l-5.139,2.967A1.8,1.8,0,0,1,392,227.3Z" fill="#173d7a"/>
            <path id="Path_1233" data-name="Path 1233" d="M424.635,246.147l-5.186-3c-.417-.24-.364-.66.117-.938l5.138-2.967a1.81,1.81,0,0,1,1.625-.067l5.187,3c.416.24.364.66-.117.938l-5.139,2.966A1.807,1.807,0,0,1,424.635,246.147Z" fill="#173d7a"/>
            <path id="Path_1234" data-name="Path 1234" d="M432.645,250.771l-5.187-2.994c-.416-.241-.364-.661.117-.938l5.139-2.967a1.807,1.807,0,0,1,1.625-.068l5.186,2.995c.416.24.364.66-.117.938l-5.139,2.967A1.808,1.808,0,0,1,432.645,250.771Z" fill="#173d7a"/>
            <path id="Path_1235" data-name="Path 1235" d="M440.654,255.4l-5.186-2.994c-.417-.241-.364-.661.116-.938l5.139-2.967a1.8,1.8,0,0,1,1.625-.067l5.186,2.994c.417.24.365.66-.116.938l-5.139,2.967A1.8,1.8,0,0,1,440.654,255.4Z" fill="#173d7a"/>
            <path id="Path_1236" data-name="Path 1236" d="M448.664,260.019l-5.187-2.994c-.416-.24-.364-.66.117-.938l5.139-2.967a1.8,1.8,0,0,1,1.624-.067l5.187,2.994c.416.241.364.661-.117.938l-5.139,2.967A1.8,1.8,0,0,1,448.664,260.019Z" fill="#173d7a"/>
            <path id="Path_1237" data-name="Path 1237" d="M456.673,264.644l-5.186-3c-.417-.24-.365-.66.116-.938l5.139-2.967a1.81,1.81,0,0,1,1.625-.067l5.186,2.994c.417.241.364.661-.116.938l-5.139,2.967A1.807,1.807,0,0,1,456.673,264.644Z" fill="#173d7a"/>
            <path id="Path_1238" data-name="Path 1238" d="M464.683,269.268l-5.187-2.994c-.416-.241-.364-.661.117-.938l5.139-2.967a1.8,1.8,0,0,1,1.624-.068l5.187,2.995c.416.24.364.66-.117.938l-5.139,2.967A1.808,1.808,0,0,1,464.683,269.268Z" fill="#173d7a"/>
            <path id="Path_1239" data-name="Path 1239" d="M472.692,273.892l-5.186-2.994c-.417-.24-.365-.66.116-.938l5.139-2.967a1.8,1.8,0,0,1,1.625-.067l5.186,2.994c.417.24.364.66-.116.938l-5.139,2.967A1.8,1.8,0,0,1,472.692,273.892Z" fill="#173d7a"/>
            <path id="Path_1240" data-name="Path 1240" d="M480.7,278.517l-5.186-2.995c-.416-.24-.364-.66.117-.938l5.139-2.967a1.8,1.8,0,0,1,1.624-.067l5.187,2.994c.416.241.364.661-.117.938l-5.139,2.967A1.807,1.807,0,0,1,480.7,278.517Z" fill="#173d7a"/>
            <path id="Path_1241" data-name="Path 1241" d="M488.711,283.141l-5.187-2.995c-.416-.24-.364-.66.117-.938l5.139-2.967a1.81,1.81,0,0,1,1.625-.067l5.186,2.995c.416.24.364.66-.117.938l-5.138,2.966A1.807,1.807,0,0,1,488.711,283.141Z" fill="#173d7a"/>
            <path id="Path_1242" data-name="Path 1242" d="M412.408,230.085l-5.186-3c-.416-.24-.364-.66.117-.938l5.139-2.967a1.808,1.808,0,0,1,1.624-.067l5.187,2.994c.416.241.364.661-.117.938l-5.139,2.967A1.807,1.807,0,0,1,412.408,230.085Z" fill="#173d7a"/>
            <path id="Path_1243" data-name="Path 1243" d="M404.439,225.484l-5.187-2.995c-.416-.24-.364-.66.117-.938l5.139-2.967a1.8,1.8,0,0,1,1.625-.067l5.186,2.994c.416.241.364.66-.117.938l-5.139,2.967A1.8,1.8,0,0,1,404.439,225.484Z" fill="#173d7a"/>
            <path id="Path_1244" data-name="Path 1244" d="M396.469,220.882l-5.186-2.994c-.417-.241-.364-.661.116-.938l5.139-2.967a1.8,1.8,0,0,1,1.625-.067l5.186,2.994c.417.24.365.66-.116.938l-5.139,2.967A1.807,1.807,0,0,1,396.469,220.882Z" fill="#173d7a"/>
            <path id="Path_1245" data-name="Path 1245" d="M388.5,216.281l-5.187-2.994c-.416-.241-.364-.661.117-.938l5.139-2.967a1.8,1.8,0,0,1,1.624-.068l5.187,3c.416.24.364.66-.117.938l-5.139,2.967A1.808,1.808,0,0,1,388.5,216.281Z" fill="#173d7a"/>
            <path id="Path_1246" data-name="Path 1246" d="M396.7,211.55l-5.187-3c-.416-.24-.364-.66.117-.938l1.7-.981a1.808,1.808,0,0,1,1.624-.067l5.187,2.994c.416.241.364.661-.117.938l-1.7.981A1.8,1.8,0,0,1,396.7,211.55Z" fill="#173d7a"/>
            <path id="Path_1247" data-name="Path 1247" d="M407.1,217.554l-5.186-2.994c-.417-.241-.365-.661.116-.938l1.7-.981a1.8,1.8,0,0,1,1.625-.067l5.186,2.994c.417.24.364.66-.116.938l-1.7.981A1.81,1.81,0,0,1,407.1,217.554Z" fill="#173d7a"/>
            <path id="Path_1248" data-name="Path 1248" d="M415.031,222.136l-5.186-2.994c-.416-.241-.364-.661.117-.938l1.7-.981a1.8,1.8,0,0,1,1.625-.067l5.187,2.994c.416.241.364.66-.117.938l-1.7.981A1.8,1.8,0,0,1,415.031,222.136Z" fill="#173d7a"/>
            <path id="Path_1249" data-name="Path 1249" d="M422.968,226.718l-5.187-2.994c-.416-.241-.364-.661.117-.938l1.7-.981a1.8,1.8,0,0,1,1.625-.067l5.186,2.994c.416.24.364.661-.117.938l-1.7.981A1.8,1.8,0,0,1,422.968,226.718Z" fill="#173d7a"/>
            <path id="Path_1250" data-name="Path 1250" d="M430.9,231.3l-5.186-2.994c-.417-.241-.364-.66.116-.938l1.7-.981a1.8,1.8,0,0,1,1.625-.067l5.186,2.994c.417.241.365.661-.116.938l-1.7.981A1.8,1.8,0,0,1,430.9,231.3Z" fill="#173d7a"/>
            <path id="Path_1251" data-name="Path 1251" d="M475.212,256.881l-5.187-2.994c-.416-.241-.364-.66.117-.938l1.7-.981a1.8,1.8,0,0,1,1.625-.067l5.186,2.994c.416.241.364.661-.117.938l-1.7.981A1.8,1.8,0,0,1,475.212,256.881Z" fill="#173d7a"/>
            <path id="Path_1252" data-name="Path 1252" d="M483.148,261.463l-5.186-2.994c-.417-.24-.364-.66.116-.938l1.7-.981a1.807,1.807,0,0,1,1.625-.067l5.186,2.994c.417.241.365.661-.116.938l-1.7.981A1.8,1.8,0,0,1,483.148,261.463Z" fill="#173d7a"/>
            <path id="Path_1253" data-name="Path 1253" d="M491.085,266.045l-5.187-2.994c-.416-.24-.364-.66.117-.938l1.7-.981a1.8,1.8,0,0,1,1.624-.067l5.187,2.994c.416.241.364.661-.117.938l-1.7.981A1.8,1.8,0,0,1,491.085,266.045Z" fill="#173d7a"/>
            <path id="Path_1254" data-name="Path 1254" d="M499.021,270.628l-5.186-2.995c-.417-.24-.365-.66.116-.938l1.7-.981a1.81,1.81,0,0,1,1.625-.067l5.186,2.994c.417.241.364.661-.116.938l-1.7.981A1.807,1.807,0,0,1,499.021,270.628Z" fill="#173d7a"/>
            <path id="Path_1255" data-name="Path 1255" d="M420.418,234.709l-5.187-2.994c-.416-.241-.364-.661.117-.938l5.139-2.967a1.807,1.807,0,0,1,1.625-.068l5.186,2.995c.416.24.364.66-.117.938l-5.139,2.967A1.807,1.807,0,0,1,420.418,234.709Z" fill="#173d7a"/>
            <path id="Path_1256" data-name="Path 1256" d="M428.427,239.333l-5.186-2.994c-.417-.241-.364-.661.116-.938l5.139-2.967a1.807,1.807,0,0,1,1.625-.068l5.186,2.995c.417.24.365.66-.116.938l-5.139,2.967A1.8,1.8,0,0,1,428.427,239.333Z" fill="#173d7a"/>
            <path id="Path_1257" data-name="Path 1257" d="M436.437,243.957l-5.187-2.994c-.416-.24-.364-.66.117-.938l5.139-2.967a1.8,1.8,0,0,1,1.624-.067l5.187,2.994c.416.241.364.66-.117.938l-5.139,2.967A1.8,1.8,0,0,1,436.437,243.957Z" fill="#173d7a"/>
            <path id="Path_1258" data-name="Path 1258" d="M444.446,248.582l-5.186-2.995c-.417-.24-.364-.66.116-.938l5.139-2.967a1.81,1.81,0,0,1,1.625-.067l5.186,2.994c.417.241.365.661-.116.938l-5.139,2.967A1.807,1.807,0,0,1,444.446,248.582Z" fill="#173d7a"/>
            <path id="Path_1259" data-name="Path 1259" d="M452.456,253.206l-5.187-2.994c-.416-.241-.364-.661.117-.938l5.139-2.967a1.8,1.8,0,0,1,1.624-.068l5.187,2.995c.416.24.364.66-.117.938l-5.139,2.967A1.808,1.808,0,0,1,452.456,253.206Z" fill="#173d7a"/>
            <path id="Path_1260" data-name="Path 1260" d="M460.465,257.83l-5.186-2.994c-.417-.241-.365-.66.116-.938l5.139-2.967a1.8,1.8,0,0,1,1.625-.067l5.186,2.994c.417.24.364.66-.116.938l-5.139,2.967A1.8,1.8,0,0,1,460.465,257.83Z" fill="#173d7a"/>
            <path id="Path_1261" data-name="Path 1261" d="M468.474,262.455l-5.186-2.995c-.416-.24-.364-.66.117-.938l5.139-2.967a1.8,1.8,0,0,1,1.624-.067l5.187,2.994c.416.241.364.661-.117.938l-5.139,2.967A1.807,1.807,0,0,1,468.474,262.455Z" fill="#173d7a"/>
            <path id="Path_1262" data-name="Path 1262" d="M476.484,267.079l-5.187-2.995c-.416-.24-.364-.66.117-.938l5.139-2.967a1.81,1.81,0,0,1,1.625-.067l5.186,2.994c.417.241.364.661-.116.938l-5.139,2.967A1.807,1.807,0,0,1,476.484,267.079Z" fill="#173d7a"/>
            <path id="Path_1263" data-name="Path 1263" d="M484.493,271.7l-5.186-2.994c-.416-.241-.364-.661.117-.938l5.138-2.967a1.807,1.807,0,0,1,1.625-.068l5.187,2.995c.416.24.364.66-.117.938l-5.139,2.967A1.81,1.81,0,0,1,484.493,271.7Z" fill="#173d7a"/>
            <path id="Path_1264" data-name="Path 1264" d="M374.627,235.28l-15.275-8.819c-.416-.24-.364-.66.117-.938l5.139-2.967a1.8,1.8,0,0,1,1.624-.067l15.275,8.819c.416.24.364.66-.117.938l-5.139,2.967A1.808,1.808,0,0,1,374.627,235.28Z" fill="#173d7a"/>
            <path id="Path_1265" data-name="Path 1265" d="M473.024,292.09l-15.274-8.819c-.417-.24-.364-.66.117-.938l5.138-2.967a1.807,1.807,0,0,1,1.625-.067l15.275,8.819c.416.24.364.66-.117.938l-5.139,2.967A1.81,1.81,0,0,1,473.024,292.09Z" fill="#173d7a"/>
            <path id="Path_1266" data-name="Path 1266" d="M440.994,283.811l-5.187-2.994c-.416-.24-.364-.66.117-.938l6.122-3.534a1.8,1.8,0,0,1,1.624-.068l5.187,2.995c.416.24.364.66-.117.938l-6.122,3.534A1.8,1.8,0,0,1,440.994,283.811Z" fill="#173d7a"/>
            <path id="Path_1267" data-name="Path 1267" d="M382.829,250.23l-8.3-4.789c-.416-.24-.364-.66.117-.938l6.122-3.534a1.8,1.8,0,0,1,1.624-.068l8.295,4.789c.416.241.364.661-.117.938l-6.121,3.535A1.81,1.81,0,0,1,382.829,250.23Z" fill="#173d7a"/>
            <path id="Path_1268" data-name="Path 1268" d="M433.276,279.356l-8.294-4.789c-.417-.24-.364-.66.116-.938l6.122-3.534a1.807,1.807,0,0,1,1.625-.068l8.3,4.789c.416.24.364.66-.117.938l-6.122,3.534A1.807,1.807,0,0,1,433.276,279.356Z" fill="#173d7a"/>
            <path id="Path_1269" data-name="Path 1269" d="M394.385,256.9l-8.3-4.789c-.416-.24-.364-.66.117-.938l6.122-3.534a1.8,1.8,0,0,1,1.624-.068l8.295,4.789c.416.24.364.66-.117.938l-6.122,3.534A1.8,1.8,0,0,1,394.385,256.9Z" fill="#173d7a"/>
            <path id="Path_1270" data-name="Path 1270" d="M394.01,247.606l36.062,20.82a.494.494,0,0,1,0,.936l-6.243,3.6a1.792,1.792,0,0,1-1.62,0l-36.063-20.821Z" fill="#173d7a"/>
            <path id="Path_1271" data-name="Path 1271" d="M463.379,292.2l5.777,3.335c.341.2.3.541-.1.769l-2.5,1.446a1.483,1.483,0,0,1-1.332.055l-5.777-3.335c-.341-.2-.3-.542.1-.769l2.5-1.446A1.479,1.479,0,0,1,463.379,292.2Z" fill="#173d7a"/>
            <path id="Path_1272" data-name="Path 1272" d="M455.3,287.533l5.777,3.335c.341.2.3.542-.1.769l-2.5,1.446a1.476,1.476,0,0,1-1.332.055l-5.777-3.335c-.341-.2-.3-.541.1-.769l2.5-1.446A1.483,1.483,0,0,1,455.3,287.533Z" fill="#173d7a"/>
            <path id="Path_1273" data-name="Path 1273" d="M447.293,282.909l5.778,3.335c.341.2.3.542-.1.769l-2.5,1.446a1.48,1.48,0,0,1-1.332.055l-5.777-3.335c-.341-.2-.3-.542.1-.769l2.505-1.446A1.481,1.481,0,0,1,447.293,282.909Z" fill="#173d7a"/>
            <path id="Path_1274" data-name="Path 1274" d="M459.726,284.979l5.777,3.336c.341.2.3.541-.1.769l-2.5,1.446a1.483,1.483,0,0,1-1.332.055l-5.777-3.336c-.341-.2-.3-.541.1-.768l2.5-1.446A1.48,1.48,0,0,1,459.726,284.979Z" fill="#173d7a"/>
          </g>
        </g>
      </g>
      <g id="Group_377" data-name="Group 377">
        <path id="Path_1275" data-name="Path 1275" d="M553.589,151.024V236.3c0,2.895-2.032,4.069-4.54,2.621L433.844,172.4a10.036,10.036,0,0,1-4.54-7.864V79.268Z" fill="#ff2c9c"/>
      </g>
      <g id="Group_565" data-name="Group 565">
        <g id="Group_564" data-name="Group 564">
          <g id="Group_563" data-name="Group 563">
            <g id="Group_412" data-name="Group 412">
              <g id="Group_378" data-name="Group 378">
                <path id="Path_1276" data-name="Path 1276" d="M543.9,160.449v85.273c0,2.9-2.033,4.069-4.54,2.621l-115.2-66.514a10.034,10.034,0,0,1-4.54-7.863V88.693Z" fill="#396caa"/>
              </g>
              <g id="Group_379" data-name="Group 379">
                <path id="Path_1277" data-name="Path 1277" d="M419.613,71.757V88.693L543.9,160.449V143.513a10.034,10.034,0,0,0-4.54-7.863l-115.2-66.514C421.646,67.688,419.613,68.862,419.613,71.757Zm112.4,65.269c0-1.2.839-1.68,1.875-1.082a4.146,4.146,0,0,1,1.875,3.247c0,1.2-.84,1.681-1.875,1.083A4.144,4.144,0,0,1,532.01,137.026Zm-5.194-3c0-1.2.839-1.681,1.875-1.083a4.146,4.146,0,0,1,1.875,3.248c0,1.2-.84,1.68-1.875,1.082A4.144,4.144,0,0,1,526.816,134.028ZM515.5,127.494c0-1.2.839-1.68,1.875-1.082a4.143,4.143,0,0,1,1.875,3.247c0,1.2-.84,1.68-1.875,1.082A4.14,4.14,0,0,1,515.5,127.494Zm-5.194-3c0-1.195.84-1.68,1.875-1.082a4.143,4.143,0,0,1,1.875,3.247c0,1.2-.839,1.681-1.875,1.083A4.146,4.146,0,0,1,510.3,124.5Zm-11.317-6.533c0-1.2.84-1.681,1.875-1.083a4.143,4.143,0,0,1,1.875,3.247c0,1.2-.839,1.681-1.875,1.083A4.146,4.146,0,0,1,498.988,117.962Zm-5.193-3c0-1.2.839-1.68,1.874-1.083a4.144,4.144,0,0,1,1.875,3.248c0,1.195-.839,1.68-1.875,1.082A4.142,4.142,0,0,1,493.8,114.963Zm-11.317-6.534c0-1.2.839-1.68,1.875-1.082a4.142,4.142,0,0,1,1.874,3.247c0,1.2-.839,1.68-1.874,1.082A4.14,4.14,0,0,1,482.478,108.429Zm-5.194-3c0-1.195.839-1.68,1.875-1.082a4.146,4.146,0,0,1,1.875,3.247c0,1.2-.84,1.681-1.875,1.083A4.144,4.144,0,0,1,477.284,105.43ZM465.967,98.9c0-1.2.839-1.681,1.875-1.083a4.146,4.146,0,0,1,1.875,3.248c0,1.2-.84,1.68-1.875,1.082A4.143,4.143,0,0,1,465.967,98.9Zm-5.194-3c0-1.2.84-1.68,1.875-1.083a4.144,4.144,0,0,1,1.875,3.248c0,1.195-.839,1.68-1.875,1.082A4.145,4.145,0,0,1,460.773,95.9Zm-11.317-6.534c0-1.195.84-1.68,1.875-1.082a4.142,4.142,0,0,1,1.875,3.247c0,1.2-.839,1.68-1.875,1.082A4.143,4.143,0,0,1,449.456,89.364Zm-5.194-3c0-1.195.84-1.68,1.875-1.082a4.143,4.143,0,0,1,1.875,3.247c0,1.2-.839,1.681-1.875,1.083A4.146,4.146,0,0,1,444.262,86.365Zm-11.316-6.533c0-1.2.839-1.681,1.874-1.083A4.144,4.144,0,0,1,436.7,82c0,1.195-.839,1.68-1.875,1.082A4.145,4.145,0,0,1,432.946,79.832Zm-5.194-3c0-1.2.839-1.68,1.875-1.082A4.143,4.143,0,0,1,431.5,79c0,1.2-.84,1.68-1.875,1.082A4.14,4.14,0,0,1,427.752,76.833Z" fill="#396caa"/>
              </g>
              <g id="Group_380" data-name="Group 380">
                <path id="Path_1278" data-name="Path 1278" d="M438.5,93.833l86.505,49.944c.686.4,1.243-.024,1.243-.94h0a2.976,2.976,0,0,0-1.243-2.374L438.5,90.519c-.686-.4-1.243.025-1.243.94h0A2.976,2.976,0,0,0,438.5,93.833Z" fill="#e83b1f"/>
              </g>
              <g id="Group_411" data-name="Group 411">
                <g id="Group_381" data-name="Group 381">
                  <path id="Path_1279" data-name="Path 1279" d="M436.741,123.12l8.85,5.109v-7.492l-8.85-5.109Z" fill="#5793ce"/>
                </g>
                <g id="Group_382" data-name="Group 382">
                  <path id="Path_1280" data-name="Path 1280" d="M450.271,130.932l8.85,5.109v-7.492l-8.85-5.109Z" fill="#5793ce"/>
                </g>
                <g id="Group_383" data-name="Group 383">
                  <path id="Path_1281" data-name="Path 1281" d="M436.741,135.353l8.85,5.109V132.97l-8.85-5.109Z" fill="#5793ce"/>
                </g>
                <g id="Group_384" data-name="Group 384">
                  <path id="Path_1282" data-name="Path 1282" d="M450.271,143.165l8.85,5.109v-7.492l-8.85-5.109Z" fill="#5793ce"/>
                </g>
                <g id="Group_385" data-name="Group 385">
                  <path id="Path_1283" data-name="Path 1283" d="M463.8,150.976l8.85,5.109v-7.492l-8.85-5.109Z" fill="#e2e2e2"/>
                </g>
                <g id="Group_386" data-name="Group 386">
                  <path id="Path_1284" data-name="Path 1284" d="M477.331,158.787l8.85,5.109V156.4l-8.85-5.109Z" fill="#e2e2e2"/>
                </g>
                <g id="Group_387" data-name="Group 387">
                  <path id="Path_1285" data-name="Path 1285" d="M490.861,166.6l8.85,5.109v-7.492l-8.85-5.109Z" fill="#e2e2e2"/>
                </g>
                <g id="Group_388" data-name="Group 388">
                  <path id="Path_1286" data-name="Path 1286" d="M504.39,174.41l8.85,5.11v-7.492l-8.85-5.109Z" fill="#e2e2e2"/>
                </g>
                <g id="Group_389" data-name="Group 389">
                  <path id="Path_1287" data-name="Path 1287" d="M517.92,182.221l8.85,5.109v-7.492l-8.85-5.109Z" fill="#e2e2e2"/>
                </g>
                <g id="Group_390" data-name="Group 390">
                  <path id="Path_1288" data-name="Path 1288" d="M436.741,147.586l8.85,5.11V145.2l-8.85-5.109Z" fill="#5793ce"/>
                </g>
                <g id="Group_391" data-name="Group 391">
                  <path id="Path_1289" data-name="Path 1289" d="M450.271,155.4l8.85,5.109v-7.492l-8.85-5.109Z" fill="#5793ce"/>
                </g>
                <g id="Group_392" data-name="Group 392">
                  <path id="Path_1290" data-name="Path 1290" d="M463.8,163.209l8.85,5.109v-7.492l-8.85-5.109Z" fill="#e2e2e2"/>
                </g>
                <g id="Group_393" data-name="Group 393">
                  <path id="Path_1291" data-name="Path 1291" d="M477.331,171.02l8.85,5.109v-7.492l-8.85-5.11Z" fill="#e2e2e2"/>
                </g>
                <g id="Group_394" data-name="Group 394">
                  <path id="Path_1292" data-name="Path 1292" d="M490.861,178.831l8.85,5.109v-7.492l-8.85-5.109Z" fill="#e2e2e2"/>
                </g>
                <g id="Group_395" data-name="Group 395">
                  <path id="Path_1293" data-name="Path 1293" d="M504.39,186.643l8.85,5.109V184.26l-8.85-5.109Z" fill="#e2e2e2"/>
                </g>
                <g id="Group_396" data-name="Group 396">
                  <path id="Path_1294" data-name="Path 1294" d="M517.92,194.454l8.85,5.109v-7.492l-8.85-5.109Z" fill="#e2e2e2"/>
                </g>
                <g id="Group_397" data-name="Group 397">
                  <path id="Path_1295" data-name="Path 1295" d="M436.741,159.818l8.85,5.109v-7.492l-8.85-5.109Z" fill="#5793ce"/>
                </g>
                <g id="Group_398" data-name="Group 398">
                  <path id="Path_1296" data-name="Path 1296" d="M450.271,167.63l8.85,5.109v-7.492l-8.85-5.109Z" fill="#5793ce"/>
                </g>
                <g id="Group_399" data-name="Group 399">
                  <path id="Path_1297" data-name="Path 1297" d="M463.8,175.441l8.85,5.109v-7.492l-8.85-5.109Z" fill="#e2e2e2"/>
                </g>
                <g id="Group_400" data-name="Group 400">
                  <path id="Path_1298" data-name="Path 1298" d="M477.331,183.253l8.85,5.109V180.87l-8.85-5.109Z" fill="#e2e2e2"/>
                </g>
                <g id="Group_401" data-name="Group 401">
                  <path id="Path_1299" data-name="Path 1299" d="M490.861,191.064l8.85,5.109v-7.492l-8.85-5.109Z" fill="#e2e2e2"/>
                </g>
                <g id="Group_402" data-name="Group 402">
                  <path id="Path_1300" data-name="Path 1300" d="M504.39,198.876l8.85,5.109v-7.492l-8.85-5.109Z" fill="#e2e2e2"/>
                </g>
                <g id="Group_403" data-name="Group 403">
                  <path id="Path_1301" data-name="Path 1301" d="M517.92,206.687l8.85,5.109V204.3l-8.85-5.109Z" fill="#e2e2e2"/>
                </g>
                <g id="Group_404" data-name="Group 404">
                  <path id="Path_1302" data-name="Path 1302" d="M436.741,172.051l8.85,5.109v-7.492l-8.85-5.109Z" fill="#5793ce"/>
                </g>
                <g id="Group_405" data-name="Group 405">
                  <path id="Path_1303" data-name="Path 1303" d="M450.271,179.863l8.85,5.11V177.48l-8.85-5.109Z" fill="#5793ce"/>
                </g>
                <g id="Group_406" data-name="Group 406">
                  <path id="Path_1304" data-name="Path 1304" d="M463.8,187.674l8.85,5.109v-7.492l-8.85-5.109Z" fill="#e2e2e2"/>
                </g>
                <g id="Group_407" data-name="Group 407">
                  <path id="Path_1305" data-name="Path 1305" d="M477.331,195.485l8.85,5.109V193.1l-8.85-5.109Z" fill="#e2e2e2"/>
                </g>
                <g id="Group_408" data-name="Group 408">
                  <path id="Path_1306" data-name="Path 1306" d="M490.861,203.3l8.85,5.109v-7.492l-8.85-5.109Z" fill="#e2e2e2"/>
                </g>
                <g id="Group_409" data-name="Group 409">
                  <path id="Path_1307" data-name="Path 1307" d="M504.39,211.108l8.85,5.109v-7.492l-8.85-5.109Z" fill="#e2e2e2"/>
                </g>
                <g id="Group_410" data-name="Group 410">
                  <path id="Path_1308" data-name="Path 1308" d="M517.92,218.92l8.85,5.11v-7.492l-8.85-5.109Z" fill="#e2e2e2"/>
                </g>
              </g>
            </g>
            <g id="Group_413" data-name="Group 413">
              <path id="Path_1309" data-name="Path 1309" d="M541.283,249.431l1.292-.774-1.339-.276Z" fill="#e2e2e2"/>
            </g>
            <g id="Group_463" data-name="Group 463">
              <g id="Group_414" data-name="Group 414">
                <path id="Path_1310" data-name="Path 1310" d="M542.62,161.215v85.273c0,2.895-2.033,4.069-4.54,2.621L422.875,182.6a10.035,10.035,0,0,1-4.54-7.864V89.459Z" fill="#d4ecff"/>
              </g>
              <g id="Group_429" data-name="Group 429">
                <g id="Group_415" data-name="Group 415">
                  <path id="Path_1311" data-name="Path 1311" d="M531.831,136.456a1.673,1.673,0,0,0-.2.844,4.152,4.152,0,0,0,1.879,3.254,1.733,1.733,0,0,0,.775.25c-.308.536-.939.666-1.677.241a4.156,4.156,0,0,1-1.879-3.255C530.727,136.912,531.181,136.422,531.831,136.456Z" fill="#396caa"/>
                </g>
                <g id="Group_416" data-name="Group 416">
                  <path id="Path_1312" data-name="Path 1312" d="M526.642,133.456a1.663,1.663,0,0,0-.2.844,4.155,4.155,0,0,0,1.879,3.255,1.734,1.734,0,0,0,.775.249c-.307.536-.939.667-1.676.241a4.152,4.152,0,0,1-1.879-3.255C525.538,133.912,525.992,133.422,526.642,133.456Z" fill="#396caa"/>
                </g>
                <g id="Group_417" data-name="Group 417">
                  <path id="Path_1313" data-name="Path 1313" d="M515.321,126.921a1.663,1.663,0,0,0-.2.844A4.158,4.158,0,0,0,517,131.02a1.739,1.739,0,0,0,.775.249c-.307.536-.939.667-1.676.241a4.152,4.152,0,0,1-1.879-3.255C514.217,127.377,514.671,126.887,515.321,126.921Z" fill="#396caa"/>
                </g>
                <g id="Group_418" data-name="Group 418">
                  <path id="Path_1314" data-name="Path 1314" d="M510.131,123.921a1.666,1.666,0,0,0-.2.844,4.155,4.155,0,0,0,1.88,3.255,1.731,1.731,0,0,0,.775.249c-.308.536-.94.667-1.677.241a4.152,4.152,0,0,1-1.879-3.254C509.027,124.377,509.481,123.887,510.131,123.921Z" fill="#396caa"/>
                </g>
                <g id="Group_419" data-name="Group 419">
                  <path id="Path_1315" data-name="Path 1315" d="M498.81,117.386a1.673,1.673,0,0,0-.2.844,4.155,4.155,0,0,0,1.879,3.255,1.731,1.731,0,0,0,.775.249c-.308.536-.94.667-1.677.241a4.152,4.152,0,0,1-1.879-3.254C497.706,117.842,498.16,117.352,498.81,117.386Z" fill="#396caa"/>
                </g>
                <g id="Group_420" data-name="Group 420">
                  <path id="Path_1316" data-name="Path 1316" d="M493.62,114.386a1.676,1.676,0,0,0-.2.844,4.152,4.152,0,0,0,1.879,3.255,1.746,1.746,0,0,0,.775.25c-.308.536-.939.666-1.677.24a4.152,4.152,0,0,1-1.879-3.254C492.516,114.842,492.97,114.352,493.62,114.386Z" fill="#396caa"/>
                </g>
                <g id="Group_421" data-name="Group 421">
                  <path id="Path_1317" data-name="Path 1317" d="M482.3,107.851a1.679,1.679,0,0,0-.2.844,4.152,4.152,0,0,0,1.879,3.255,1.731,1.731,0,0,0,.775.249c-.308.537-.939.667-1.677.241a4.154,4.154,0,0,1-1.879-3.254C481.2,108.307,481.649,107.817,482.3,107.851Z" fill="#396caa"/>
                </g>
                <g id="Group_422" data-name="Group 422">
                  <path id="Path_1318" data-name="Path 1318" d="M477.109,104.851a1.68,1.68,0,0,0-.2.845,4.152,4.152,0,0,0,1.879,3.254,1.746,1.746,0,0,0,.775.25c-.307.536-.939.666-1.676.24a4.152,4.152,0,0,1-1.879-3.254C476.006,105.308,476.46,104.818,477.109,104.851Z" fill="#396caa"/>
                </g>
                <g id="Group_423" data-name="Group 423">
                  <path id="Path_1319" data-name="Path 1319" d="M465.789,98.316a1.668,1.668,0,0,0-.2.844,4.152,4.152,0,0,0,1.879,3.255,1.746,1.746,0,0,0,.775.25c-.307.536-.939.666-1.676.24a4.152,4.152,0,0,1-1.879-3.254C464.685,98.773,465.139,98.283,465.789,98.316Z" fill="#396caa"/>
                </g>
                <g id="Group_424" data-name="Group 424">
                  <path id="Path_1320" data-name="Path 1320" d="M460.6,95.317a1.663,1.663,0,0,0-.2.844,4.155,4.155,0,0,0,1.879,3.254,1.741,1.741,0,0,0,.776.25c-.308.536-.94.666-1.677.241a4.155,4.155,0,0,1-1.879-3.255C459.495,95.773,459.949,95.283,460.6,95.317Z" fill="#396caa"/>
                </g>
                <g id="Group_425" data-name="Group 425">
                  <path id="Path_1321" data-name="Path 1321" d="M449.278,88.782a1.663,1.663,0,0,0-.2.844,4.153,4.153,0,0,0,1.88,3.254,1.746,1.746,0,0,0,.775.25c-.308.536-.94.666-1.677.241a4.155,4.155,0,0,1-1.879-3.255C448.174,89.238,448.628,88.748,449.278,88.782Z" fill="#396caa"/>
                </g>
                <g id="Group_426" data-name="Group 426">
                  <path id="Path_1322" data-name="Path 1322" d="M444.088,85.782a1.673,1.673,0,0,0-.2.844,4.152,4.152,0,0,0,1.879,3.254,1.721,1.721,0,0,0,.775.25c-.308.536-.939.666-1.677.241a4.154,4.154,0,0,1-1.879-3.255C442.984,86.238,443.438,85.748,444.088,85.782Z" fill="#396caa"/>
                </g>
                <g id="Group_427" data-name="Group 427">
                  <path id="Path_1323" data-name="Path 1323" d="M432.767,79.247a1.673,1.673,0,0,0-.2.844,4.152,4.152,0,0,0,1.879,3.254,1.733,1.733,0,0,0,.775.25c-.308.536-.939.666-1.677.241a4.154,4.154,0,0,1-1.879-3.255C431.663,79.7,432.117,79.213,432.767,79.247Z" fill="#396caa"/>
                </g>
                <g id="Group_428" data-name="Group 428">
                  <path id="Path_1324" data-name="Path 1324" d="M427.577,76.247a1.673,1.673,0,0,0-.2.844,4.155,4.155,0,0,0,1.879,3.255,1.731,1.731,0,0,0,.775.249c-.308.536-.939.667-1.677.241a4.155,4.155,0,0,1-1.879-3.255C426.473,76.7,426.927,76.213,427.577,76.247Z" fill="#396caa"/>
                </g>
              </g>
              <g id="Group_430" data-name="Group 430">
                <path id="Path_1325" data-name="Path 1325" d="M418.335,72.523V89.459L542.62,161.215V144.279a10.035,10.035,0,0,0-4.54-7.863L422.875,69.9C420.367,68.455,418.335,69.628,418.335,72.523Zm112.4,65.27c0-1.2.84-1.681,1.875-1.083a4.143,4.143,0,0,1,1.875,3.247c0,1.2-.839,1.681-1.875,1.083A4.146,4.146,0,0,1,530.731,137.793Zm-5.193-3c0-1.2.839-1.68,1.874-1.082a4.14,4.14,0,0,1,1.875,3.247c0,1.2-.839,1.68-1.875,1.082A4.144,4.144,0,0,1,525.538,134.794Zm-11.317-6.534c0-1.2.839-1.68,1.875-1.082a4.144,4.144,0,0,1,1.874,3.247c0,1.2-.839,1.68-1.874,1.083A4.144,4.144,0,0,1,514.221,128.26Zm-5.194-3c0-1.195.839-1.68,1.875-1.082a4.146,4.146,0,0,1,1.875,3.247c0,1.2-.84,1.681-1.875,1.083A4.144,4.144,0,0,1,509.027,125.261Zm-11.317-6.533c0-1.2.839-1.681,1.875-1.083a4.146,4.146,0,0,1,1.875,3.248c0,1.195-.84,1.68-1.875,1.082A4.143,4.143,0,0,1,497.71,118.728Zm-5.194-3c0-1.2.84-1.68,1.875-1.082a4.14,4.14,0,0,1,1.875,3.247c0,1.2-.839,1.68-1.875,1.082A4.145,4.145,0,0,1,492.516,115.729ZM481.2,109.195c0-1.2.84-1.68,1.875-1.082a4.142,4.142,0,0,1,1.875,3.247c0,1.2-.839,1.68-1.875,1.083A4.146,4.146,0,0,1,481.2,109.195Zm-5.193-3c0-1.2.839-1.681,1.874-1.083a4.143,4.143,0,0,1,1.875,3.247c0,1.2-.839,1.681-1.875,1.083A4.145,4.145,0,0,1,476.006,106.2Zm-11.317-6.534c0-1.2.839-1.681,1.874-1.083a4.144,4.144,0,0,1,1.875,3.248c0,1.195-.839,1.68-1.875,1.082A4.145,4.145,0,0,1,464.689,99.663Zm-5.194-3c0-1.2.839-1.68,1.875-1.082a4.145,4.145,0,0,1,1.875,3.247c0,1.2-.84,1.68-1.875,1.082A4.14,4.14,0,0,1,459.495,96.664ZM448.178,90.13c0-1.195.839-1.68,1.875-1.082a4.146,4.146,0,0,1,1.875,3.247c0,1.2-.84,1.68-1.875,1.083A4.144,4.144,0,0,1,448.178,90.13Zm-5.194-3c0-1.2.839-1.681,1.875-1.083a4.146,4.146,0,0,1,1.875,3.248c0,1.195-.84,1.68-1.875,1.082A4.143,4.143,0,0,1,442.984,87.132ZM431.667,80.6c0-1.2.84-1.68,1.875-1.083a4.146,4.146,0,0,1,1.875,3.248c0,1.195-.84,1.68-1.875,1.082A4.146,4.146,0,0,1,431.667,80.6Zm-5.194-3c0-1.2.84-1.68,1.875-1.082a4.142,4.142,0,0,1,1.875,3.247c0,1.2-.839,1.68-1.875,1.083A4.146,4.146,0,0,1,426.473,77.6Z" fill="#5793ce"/>
              </g>
              <g id="Group_431" data-name="Group 431">
                <path id="Path_1326" data-name="Path 1326" d="M437.225,94.6l86.5,49.943c.686.4,1.243-.024,1.243-.939h0a2.977,2.977,0,0,0-1.243-2.375l-86.5-49.944c-.687-.4-1.243.025-1.243.94h0A2.977,2.977,0,0,0,437.225,94.6Z" fill="#396caa"/>
              </g>
              <g id="Group_462" data-name="Group 462">
                <g id="Group_432" data-name="Group 432">
                  <path id="Path_1327" data-name="Path 1327" d="M435.463,123.886l8.85,5.109V121.5l-8.85-5.109Z" fill="#5793ce"/>
                </g>
                <g id="Group_433" data-name="Group 433">
                  <path id="Path_1328" data-name="Path 1328" d="M448.993,131.7l8.85,5.109v-7.492l-8.85-5.109Z" fill="#5793ce"/>
                </g>
                <g id="Group_434" data-name="Group 434">
                  <path id="Path_1329" data-name="Path 1329" d="M435.463,136.119l8.85,5.109v-7.492l-8.85-5.109Z" fill="#5793ce"/>
                </g>
                <g id="Group_435" data-name="Group 435">
                  <path id="Path_1330" data-name="Path 1330" d="M448.993,143.931l8.85,5.109v-7.492l-8.85-5.109Z" fill="#5793ce"/>
                </g>
                <g id="Group_436" data-name="Group 436">
                  <path id="Path_1331" data-name="Path 1331" d="M462.523,151.742l8.85,5.109v-7.492l-8.85-5.109Z" fill="#fff"/>
                </g>
                <g id="Group_437" data-name="Group 437">
                  <path id="Path_1332" data-name="Path 1332" d="M476.052,159.553l8.85,5.109v-7.492l-8.85-5.109Z" fill="#fff"/>
                </g>
                <g id="Group_438" data-name="Group 438">
                  <path id="Path_1333" data-name="Path 1333" d="M489.582,167.365l8.85,5.109v-7.492l-8.85-5.109Z" fill="#fff"/>
                </g>
                <g id="Group_439" data-name="Group 439">
                  <path id="Path_1334" data-name="Path 1334" d="M503.112,175.176l8.85,5.11v-7.492l-8.85-5.109Z" fill="#fff"/>
                </g>
                <g id="Group_440" data-name="Group 440">
                  <path id="Path_1335" data-name="Path 1335" d="M516.642,182.988l8.85,5.109V180.6l-8.85-5.109Z" fill="#fff"/>
                </g>
                <g id="Group_441" data-name="Group 441">
                  <path id="Path_1336" data-name="Path 1336" d="M435.463,148.352l8.85,5.109v-7.492l-8.85-5.109Z" fill="#5793ce"/>
                </g>
                <g id="Group_442" data-name="Group 442">
                  <path id="Path_1337" data-name="Path 1337" d="M448.993,156.163l8.85,5.109v-7.492l-8.85-5.109Z" fill="#5793ce"/>
                </g>
                <g id="Group_443" data-name="Group 443">
                  <path id="Path_1338" data-name="Path 1338" d="M462.523,163.975l8.85,5.109v-7.492l-8.85-5.109Z" fill="#fff"/>
                </g>
                <g id="Group_444" data-name="Group 444">
                  <path id="Path_1339" data-name="Path 1339" d="M476.052,171.786l8.85,5.109V169.4l-8.85-5.109Z" fill="#fff"/>
                </g>
                <g id="Group_445" data-name="Group 445">
                  <path id="Path_1340" data-name="Path 1340" d="M489.582,179.6l8.85,5.109v-7.492l-8.85-5.109Z" fill="#fff"/>
                </g>
                <g id="Group_446" data-name="Group 446">
                  <path id="Path_1341" data-name="Path 1341" d="M503.112,187.409l8.85,5.109v-7.492l-8.85-5.109Z" fill="#fff"/>
                </g>
                <g id="Group_447" data-name="Group 447">
                  <path id="Path_1342" data-name="Path 1342" d="M516.642,195.22l8.85,5.109v-7.492l-8.85-5.109Z" fill="#fff"/>
                </g>
                <g id="Group_448" data-name="Group 448">
                  <path id="Path_1343" data-name="Path 1343" d="M435.463,160.585l8.85,5.109V158.2l-8.85-5.109Z" fill="#5793ce"/>
                </g>
                <g id="Group_449" data-name="Group 449">
                  <path id="Path_1344" data-name="Path 1344" d="M448.993,168.4l8.85,5.109v-7.492l-8.85-5.109Z" fill="#5793ce"/>
                </g>
                <g id="Group_450" data-name="Group 450">
                  <path id="Path_1345" data-name="Path 1345" d="M462.523,176.208l8.85,5.109v-7.492l-8.85-5.109Z" fill="#fff"/>
                </g>
                <g id="Group_451" data-name="Group 451">
                  <path id="Path_1346" data-name="Path 1346" d="M476.052,184.019l8.85,5.109v-7.492l-8.85-5.109Z" fill="#fff"/>
                </g>
                <g id="Group_452" data-name="Group 452">
                  <path id="Path_1347" data-name="Path 1347" d="M489.582,191.83l8.85,5.109v-7.492l-8.85-5.109Z" fill="#fff"/>
                </g>
                <g id="Group_453" data-name="Group 453">
                  <path id="Path_1348" data-name="Path 1348" d="M503.112,199.642l8.85,5.109v-7.492l-8.85-5.109Z" fill="#fff"/>
                </g>
                <g id="Group_454" data-name="Group 454">
                  <path id="Path_1349" data-name="Path 1349" d="M516.642,207.453l8.85,5.11V205.07l-8.85-5.109Z" fill="#fff"/>
                </g>
                <g id="Group_455" data-name="Group 455">
                  <path id="Path_1350" data-name="Path 1350" d="M435.463,172.817l8.85,5.109v-7.492l-8.85-5.109Z" fill="#5793ce"/>
                </g>
                <g id="Group_456" data-name="Group 456">
                  <path id="Path_1351" data-name="Path 1351" d="M448.993,180.629l8.85,5.109v-7.492l-8.85-5.109Z" fill="#5793ce"/>
                </g>
                <g id="Group_457" data-name="Group 457">
                  <path id="Path_1352" data-name="Path 1352" d="M462.523,188.44l8.85,5.109v-7.492l-8.85-5.109Z" fill="#fff"/>
                </g>
                <g id="Group_458" data-name="Group 458">
                  <path id="Path_1353" data-name="Path 1353" d="M476.052,196.251l8.85,5.109v-7.492l-8.85-5.109Z" fill="#fff"/>
                </g>
                <g id="Group_459" data-name="Group 459">
                  <path id="Path_1354" data-name="Path 1354" d="M489.582,204.063l8.85,5.109V201.68l-8.85-5.109Z" fill="#fff"/>
                </g>
                <g id="Group_460" data-name="Group 460">
                  <path id="Path_1355" data-name="Path 1355" d="M503.112,211.874l8.85,5.109v-7.492l-8.85-5.109Z" fill="#fff"/>
                </g>
                <g id="Group_461" data-name="Group 461">
                  <path id="Path_1356" data-name="Path 1356" d="M516.642,219.686l8.85,5.109V217.3l-8.85-5.109Z" fill="#fff"/>
                </g>
              </g>
            </g>
            <g id="Group_468" data-name="Group 468">
              <g id="Group_464" data-name="Group 464">
                <path id="Path_1357" data-name="Path 1357" d="M524.093,131.669c0,4.127,2.9,5.8,6.473,3.737a14.31,14.31,0,0,0,6.473-11.212c0-4.128-2.9-5.8-6.473-3.737A14.308,14.308,0,0,0,524.093,131.669Zm1.38-.8a11.256,11.256,0,0,1,5.093-8.82c2.812-1.624,5.092-.308,5.092,2.94a11.254,11.254,0,0,1-5.092,8.82C527.753,135.435,525.473,134.119,525.473,130.871Z" fill="#d4ecff"/>
              </g>
              <g id="Group_465" data-name="Group 465">
                <path id="Path_1358" data-name="Path 1358" d="M526.607,136.333l-.716-.534.612.146Z" fill="#d4ecff"/>
              </g>
              <g id="Group_466" data-name="Group 466">
                <path id="Path_1359" data-name="Path 1359" d="M535.383,120.157l.99.725-.815.239Z" fill="#d4ecff"/>
              </g>
              <g id="Group_467" data-name="Group 467">
                <path id="Path_1360" data-name="Path 1360" d="M524.984,132.32c0,4.128,2.9,5.8,6.473,3.737a14.306,14.306,0,0,0,6.473-11.211c0-4.128-2.9-5.8-6.473-3.737A14.306,14.306,0,0,0,524.984,132.32Zm1.38-.8a11.256,11.256,0,0,1,5.093-8.82c2.812-1.624,5.092-.308,5.092,2.94a11.257,11.257,0,0,1-5.092,8.82C528.644,136.087,526.364,134.771,526.364,131.523Z" fill="#396caa"/>
              </g>
            </g>
            <g id="Group_469" data-name="Group 469">
              <path id="Path_1361" data-name="Path 1361" d="M531.71,132.852l.964-1.064,2.777,1.606-1.781.908Z" fill="#396caa"/>
            </g>
            <g id="Group_470" data-name="Group 470">
              <path id="Path_1362" data-name="Path 1362" d="M531.676,132.716l2.51,1.452-1.723,1.708-3.2,1.431a4,4,0,0,0-1.093-2.981Z" fill="#5793ce"/>
            </g>
            <g id="Group_475" data-name="Group 475">
              <g id="Group_471" data-name="Group 471">
                <path id="Path_1363" data-name="Path 1363" d="M507.574,122.131c0,4.127,2.9,5.8,6.473,3.736a14.306,14.306,0,0,0,6.473-11.211c0-4.128-2.9-5.8-6.473-3.737A14.307,14.307,0,0,0,507.574,122.131Zm1.38-.8a11.256,11.256,0,0,1,5.093-8.82c2.812-1.624,5.092-.307,5.092,2.94a11.254,11.254,0,0,1-5.092,8.82C511.234,125.9,508.954,124.581,508.954,121.333Z" fill="#d4ecff"/>
              </g>
              <g id="Group_472" data-name="Group 472">
                <path id="Path_1364" data-name="Path 1364" d="M510.088,126.8l-.716-.534.611.146Z" fill="#d4ecff"/>
              </g>
              <g id="Group_473" data-name="Group 473">
                <path id="Path_1365" data-name="Path 1365" d="M518.863,110.619l.99.725-.815.239Z" fill="#d4ecff"/>
              </g>
              <g id="Group_474" data-name="Group 474">
                <path id="Path_1366" data-name="Path 1366" d="M508.464,122.782c0,4.128,2.9,5.8,6.474,3.737a14.306,14.306,0,0,0,6.473-11.211c0-4.128-2.9-5.8-6.473-3.737A14.307,14.307,0,0,0,508.464,122.782Zm1.381-.8a11.256,11.256,0,0,1,5.093-8.82c2.812-1.624,5.092-.308,5.092,2.94a11.257,11.257,0,0,1-5.092,8.82C512.125,126.549,509.845,125.233,509.845,121.985Z" fill="#396caa"/>
              </g>
            </g>
            <g id="Group_476" data-name="Group 476">
              <path id="Path_1367" data-name="Path 1367" d="M515.191,123.314l.964-1.064,2.777,1.606-1.781.908Z" fill="#396caa"/>
            </g>
            <g id="Group_477" data-name="Group 477">
              <path id="Path_1368" data-name="Path 1368" d="M515.157,123.178l2.51,1.452-1.723,1.708-3.2,1.431a4,4,0,0,0-1.094-2.981Z" fill="#5793ce"/>
            </g>
            <g id="Group_482" data-name="Group 482">
              <g id="Group_478" data-name="Group 478">
                <path id="Path_1369" data-name="Path 1369" d="M512.773,125.135c0,4.128,2.9,5.8,6.473,3.737a14.306,14.306,0,0,0,6.473-11.211c0-4.128-2.9-5.8-6.473-3.737A14.306,14.306,0,0,0,512.773,125.135Zm1.381-.8a11.258,11.258,0,0,1,5.092-8.82c2.813-1.624,5.093-.308,5.093,2.94a11.256,11.256,0,0,1-5.093,8.82C516.434,128.9,514.154,127.586,514.154,124.338Z" fill="#d4ecff"/>
              </g>
              <g id="Group_479" data-name="Group 479">
                <path id="Path_1370" data-name="Path 1370" d="M515.287,129.8l-.716-.534.611.146Z" fill="#d4ecff"/>
              </g>
              <g id="Group_480" data-name="Group 480">
                <path id="Path_1371" data-name="Path 1371" d="M524.063,113.624l.99.725-.815.239Z" fill="#d4ecff"/>
              </g>
              <g id="Group_481" data-name="Group 481">
                <path id="Path_1372" data-name="Path 1372" d="M513.664,125.787c0,4.128,2.9,5.8,6.473,3.737a14.306,14.306,0,0,0,6.473-11.211c0-4.128-2.9-5.8-6.473-3.738A14.31,14.31,0,0,0,513.664,125.787Zm1.38-.8a11.254,11.254,0,0,1,5.093-8.82c2.813-1.624,5.092-.308,5.092,2.94a11.255,11.255,0,0,1-5.092,8.82C517.324,129.554,515.044,128.238,515.044,124.99Z" fill="#396caa"/>
              </g>
            </g>
            <g id="Group_483" data-name="Group 483">
              <path id="Path_1373" data-name="Path 1373" d="M520.391,126.319l.964-1.064,2.777,1.606-1.781.908Z" fill="#396caa"/>
            </g>
            <g id="Group_484" data-name="Group 484">
              <path id="Path_1374" data-name="Path 1374" d="M520.356,126.183l2.51,1.452-1.722,1.708-3.2,1.431a4,4,0,0,0-1.094-2.981Z" fill="#5793ce"/>
            </g>
            <g id="Group_489" data-name="Group 489">
              <g id="Group_485" data-name="Group 485">
                <path id="Path_1375" data-name="Path 1375" d="M491.051,112.566c0,4.128,2.9,5.8,6.473,3.737A14.3,14.3,0,0,0,504,105.092c0-4.128-2.9-5.8-6.473-3.737A14.308,14.308,0,0,0,491.051,112.566Zm1.381-.8a11.257,11.257,0,0,1,5.092-8.82c2.813-1.624,5.093-.307,5.093,2.94a11.253,11.253,0,0,1-5.093,8.82C494.712,116.333,492.432,115.017,492.432,111.769Z" fill="#d4ecff"/>
              </g>
              <g id="Group_486" data-name="Group 486">
                <path id="Path_1376" data-name="Path 1376" d="M493.565,117.231l-.716-.534.612.146Z" fill="#d4ecff"/>
              </g>
              <g id="Group_487" data-name="Group 487">
                <path id="Path_1377" data-name="Path 1377" d="M502.341,101.055l.99.725-.815.239Z" fill="#d4ecff"/>
              </g>
              <g id="Group_488" data-name="Group 488">
                <path id="Path_1378" data-name="Path 1378" d="M491.942,113.218c0,4.128,2.9,5.8,6.473,3.737a14.306,14.306,0,0,0,6.473-11.211c0-4.128-2.9-5.8-6.473-3.737A14.306,14.306,0,0,0,491.942,113.218Zm1.381-.8a11.257,11.257,0,0,1,5.092-8.82c2.813-1.624,5.093-.308,5.093,2.94a11.256,11.256,0,0,1-5.093,8.82C495.6,116.985,493.323,115.669,493.323,112.421Z" fill="#396caa"/>
              </g>
            </g>
            <g id="Group_490" data-name="Group 490">
              <path id="Path_1379" data-name="Path 1379" d="M498.668,113.75l.934-1.054,2.784,1.608-1.757.9Z" fill="#396caa"/>
            </g>
            <g id="Group_491" data-name="Group 491">
              <path id="Path_1380" data-name="Path 1380" d="M498.614,113.645l2.514,1.437-1.706,1.692-3.175,1.418a4.1,4.1,0,0,0-1.123-2.968Z" fill="#5793ce"/>
            </g>
            <g id="Group_496" data-name="Group 496">
              <g id="Group_492" data-name="Group 492">
                <path id="Path_1381" data-name="Path 1381" d="M496.251,115.571c0,4.128,2.9,5.8,6.473,3.737A14.306,14.306,0,0,0,509.2,108.1c0-4.128-2.9-5.8-6.473-3.737A14.306,14.306,0,0,0,496.251,115.571Zm1.38-.8a11.256,11.256,0,0,1,5.093-8.82c2.812-1.624,5.092-.308,5.092,2.94a11.257,11.257,0,0,1-5.092,8.82C499.911,119.338,497.631,118.022,497.631,114.774Z" fill="#d4ecff"/>
              </g>
              <g id="Group_493" data-name="Group 493">
                <path id="Path_1382" data-name="Path 1382" d="M498.765,120.236l-.716-.534.611.146Z" fill="#d4ecff"/>
              </g>
              <g id="Group_494" data-name="Group 494">
                <path id="Path_1383" data-name="Path 1383" d="M507.54,104.06l.99.725-.815.239Z" fill="#d4ecff"/>
              </g>
              <g id="Group_495" data-name="Group 495">
                <path id="Path_1384" data-name="Path 1384" d="M497.141,116.223c0,4.128,2.9,5.8,6.474,3.737a14.308,14.308,0,0,0,6.473-11.211c0-4.128-2.9-5.8-6.473-3.738A14.307,14.307,0,0,0,497.141,116.223Zm1.381-.8a11.254,11.254,0,0,1,5.093-8.82c2.812-1.624,5.092-.308,5.092,2.94a11.257,11.257,0,0,1-5.092,8.82C500.8,119.99,498.522,118.673,498.522,115.426Z" fill="#396caa"/>
              </g>
            </g>
            <g id="Group_497" data-name="Group 497">
              <path id="Path_1385" data-name="Path 1385" d="M503.868,116.755l.964-1.064,2.777,1.606-1.781.908Z" fill="#396caa"/>
            </g>
            <g id="Group_498" data-name="Group 498">
              <path id="Path_1386" data-name="Path 1386" d="M503.834,116.618l2.51,1.453-1.723,1.708L501.44,121.2a4.041,4.041,0,0,0-1.117-2.954Z" fill="#5793ce"/>
            </g>
            <g id="Group_503" data-name="Group 503">
              <g id="Group_499" data-name="Group 499">
                <path id="Path_1387" data-name="Path 1387" d="M474.529,103c0,4.128,2.9,5.8,6.473,3.738a14.308,14.308,0,0,0,6.473-11.212c0-4.128-2.9-5.8-6.473-3.737A14.306,14.306,0,0,0,474.529,103Zm1.38-.8A11.256,11.256,0,0,1,481,93.385c2.812-1.624,5.092-.307,5.092,2.94a11.256,11.256,0,0,1-5.092,8.82C478.189,106.769,475.909,105.453,475.909,102.205Z" fill="#d4ecff"/>
              </g>
              <g id="Group_500" data-name="Group 500">
                <path id="Path_1388" data-name="Path 1388" d="M477.043,107.667l-.716-.534.611.146Z" fill="#d4ecff"/>
              </g>
              <g id="Group_501" data-name="Group 501">
                <path id="Path_1389" data-name="Path 1389" d="M485.818,91.491l.99.725-.815.239Z" fill="#d4ecff"/>
              </g>
              <g id="Group_502" data-name="Group 502">
                <path id="Path_1390" data-name="Path 1390" d="M475.419,103.654c0,4.128,2.9,5.8,6.474,3.737a14.306,14.306,0,0,0,6.473-11.211c0-4.128-2.9-5.8-6.473-3.737A14.307,14.307,0,0,0,475.419,103.654Zm1.381-.8a11.256,11.256,0,0,1,5.093-8.82c2.812-1.624,5.092-.308,5.092,2.94a11.257,11.257,0,0,1-5.092,8.82C479.08,107.421,476.8,106.105,476.8,102.857Z" fill="#396caa"/>
              </g>
            </g>
            <g id="Group_504" data-name="Group 504">
              <path id="Path_1391" data-name="Path 1391" d="M482.146,104.186l.932-1.03,2.763,1.6-1.734.884Z" fill="#396caa"/>
            </g>
            <g id="Group_505" data-name="Group 505">
              <path id="Path_1392" data-name="Path 1392" d="M482.061,104.073l2.55,1.473L482.9,107.21l-3.158,1.41a4.2,4.2,0,0,0-1.158-2.943Z" fill="#5793ce"/>
            </g>
            <g id="Group_510" data-name="Group 510">
              <g id="Group_506" data-name="Group 506">
                <path id="Path_1393" data-name="Path 1393" d="M479.728,106.007c0,4.128,2.9,5.8,6.473,3.737a14.306,14.306,0,0,0,6.473-11.211c0-4.128-2.9-5.8-6.473-3.737A14.306,14.306,0,0,0,479.728,106.007Zm1.381-.8a11.257,11.257,0,0,1,5.092-8.82c2.813-1.624,5.093-.308,5.093,2.94a11.256,11.256,0,0,1-5.093,8.82C483.389,109.774,481.109,108.458,481.109,105.21Z" fill="#d4ecff"/>
              </g>
              <g id="Group_507" data-name="Group 507">
                <path id="Path_1394" data-name="Path 1394" d="M482.242,110.672l-.716-.534.611.146Z" fill="#d4ecff"/>
              </g>
              <g id="Group_508" data-name="Group 508">
                <path id="Path_1395" data-name="Path 1395" d="M491.018,94.5l.99.725-.815.239Z" fill="#d4ecff"/>
              </g>
              <g id="Group_509" data-name="Group 509">
                <path id="Path_1396" data-name="Path 1396" d="M480.619,106.659c0,4.128,2.9,5.8,6.473,3.737a14.306,14.306,0,0,0,6.473-11.211c0-4.128-2.9-5.8-6.473-3.737A14.3,14.3,0,0,0,480.619,106.659Zm1.381-.8a11.254,11.254,0,0,1,5.092-8.82c2.813-1.624,5.093-.308,5.093,2.94a11.256,11.256,0,0,1-5.093,8.82C484.28,110.426,482,109.109,482,105.862Z" fill="#396caa"/>
              </g>
            </g>
            <g id="Group_511" data-name="Group 511">
              <path id="Path_1397" data-name="Path 1397" d="M487.345,107.191l.934-1.032,2.771,1.592-1.745.89Z" fill="#396caa"/>
            </g>
            <g id="Group_512" data-name="Group 512">
              <path id="Path_1398" data-name="Path 1398" d="M487.263,107.077l2.528,1.46-1.692,1.678-3.167,1.431a4.2,4.2,0,0,0-1.15-2.965Z" fill="#5793ce"/>
            </g>
            <g id="Group_517" data-name="Group 517">
              <g id="Group_513" data-name="Group 513">
                <path id="Path_1399" data-name="Path 1399" d="M458.006,93.438c0,4.128,2.9,5.8,6.473,3.738a14.31,14.31,0,0,0,6.473-11.212c0-4.128-2.9-5.8-6.473-3.737A14.308,14.308,0,0,0,458.006,93.438Zm1.381-.8a11.257,11.257,0,0,1,5.092-8.82c2.813-1.624,5.093-.308,5.093,2.94a11.256,11.256,0,0,1-5.093,8.82C461.667,97.205,459.387,95.889,459.387,92.641Z" fill="#d4ecff"/>
              </g>
              <g id="Group_514" data-name="Group 514">
                <path id="Path_1400" data-name="Path 1400" d="M460.52,98.1l-.716-.534.612.146Z" fill="#d4ecff"/>
              </g>
              <g id="Group_515" data-name="Group 515">
                <path id="Path_1401" data-name="Path 1401" d="M469.3,81.927l.99.725-.815.239Z" fill="#d4ecff"/>
              </g>
              <g id="Group_516" data-name="Group 516">
                <path id="Path_1402" data-name="Path 1402" d="M458.9,94.09c0,4.128,2.9,5.8,6.473,3.737a14.306,14.306,0,0,0,6.473-11.211c0-4.128-2.9-5.8-6.473-3.737A14.306,14.306,0,0,0,458.9,94.09Zm1.381-.8a11.257,11.257,0,0,1,5.092-8.82c2.813-1.624,5.093-.308,5.093,2.94a11.256,11.256,0,0,1-5.093,8.82C462.558,97.857,460.278,96.541,460.278,93.293Z" fill="#396caa"/>
              </g>
            </g>
            <g id="Group_518" data-name="Group 518">
              <path id="Path_1403" data-name="Path 1403" d="M465.624,94.622l.918-1.013L469.3,95.2l-1.712.873Z" fill="#396caa"/>
            </g>
            <g id="Group_519" data-name="Group 519">
              <path id="Path_1404" data-name="Path 1404" d="M465.514,94.52,468.073,96l-1.7,1.649-3.143,1.4a4.225,4.225,0,0,0-1.174-2.917Z" fill="#5793ce"/>
            </g>
            <g id="Group_524" data-name="Group 524">
              <g id="Group_520" data-name="Group 520">
                <path id="Path_1405" data-name="Path 1405" d="M463.206,96.443c0,4.128,2.9,5.8,6.473,3.737a14.306,14.306,0,0,0,6.473-11.211c0-4.128-2.9-5.8-6.473-3.737A14.306,14.306,0,0,0,463.206,96.443Zm1.38-.8a11.254,11.254,0,0,1,5.093-8.82c2.812-1.624,5.092-.308,5.092,2.94a11.257,11.257,0,0,1-5.092,8.82C466.866,100.21,464.586,98.894,464.586,95.646Z" fill="#d4ecff"/>
              </g>
              <g id="Group_521" data-name="Group 521">
                <path id="Path_1406" data-name="Path 1406" d="M465.72,101.108l-.716-.534.612.146Z" fill="#d4ecff"/>
              </g>
              <g id="Group_522" data-name="Group 522">
                <path id="Path_1407" data-name="Path 1407" d="M474.5,84.932l.99.725-.815.239Z" fill="#d4ecff"/>
              </g>
              <g id="Group_523" data-name="Group 523">
                <path id="Path_1408" data-name="Path 1408" d="M464.1,97.1c0,4.128,2.9,5.8,6.474,3.737a14.306,14.306,0,0,0,6.473-11.211c0-4.129-2.9-5.8-6.473-3.738A14.311,14.311,0,0,0,464.1,97.1Zm1.381-.8a11.253,11.253,0,0,1,5.093-8.82c2.812-1.624,5.092-.308,5.092,2.94a11.257,11.257,0,0,1-5.092,8.82C467.757,100.862,465.477,99.546,465.477,96.3Z" fill="#396caa"/>
              </g>
            </g>
            <g id="Group_525" data-name="Group 525">
              <path id="Path_1409" data-name="Path 1409" d="M470.823,97.627l.919-1.015L474.5,98.2l-1.714.874Z" fill="#396caa"/>
            </g>
            <g id="Group_526" data-name="Group 526">
              <path id="Path_1410" data-name="Path 1410" d="M470.716,97.524,473.269,99l-1.693,1.654-3.149,1.406a4.3,4.3,0,0,0-1.183-2.937Z" fill="#5793ce"/>
            </g>
            <g id="Group_531" data-name="Group 531">
              <g id="Group_527" data-name="Group 527">
                <path id="Path_1411" data-name="Path 1411" d="M441.484,83.874c0,4.128,2.9,5.8,6.473,3.737A14.306,14.306,0,0,0,454.43,76.4c0-4.128-2.9-5.8-6.473-3.737A14.306,14.306,0,0,0,441.484,83.874Zm1.38-.8a11.256,11.256,0,0,1,5.093-8.82c2.812-1.624,5.092-.308,5.092,2.94a11.254,11.254,0,0,1-5.092,8.82C445.144,87.641,442.864,86.325,442.864,83.077Z" fill="#d4ecff"/>
              </g>
              <g id="Group_528" data-name="Group 528">
                <path id="Path_1412" data-name="Path 1412" d="M444,88.539l-.716-.534.612.146Z" fill="#d4ecff"/>
              </g>
              <g id="Group_529" data-name="Group 529">
                <path id="Path_1413" data-name="Path 1413" d="M452.773,72.363l.99.725-.815.239Z" fill="#d4ecff"/>
              </g>
              <g id="Group_530" data-name="Group 530">
                <path id="Path_1414" data-name="Path 1414" d="M442.375,84.526c0,4.128,2.9,5.8,6.473,3.737a14.306,14.306,0,0,0,6.473-11.211c0-4.128-2.9-5.8-6.473-3.737A14.306,14.306,0,0,0,442.375,84.526Zm1.38-.8a11.256,11.256,0,0,1,5.093-8.82c2.812-1.624,5.092-.308,5.092,2.94a11.257,11.257,0,0,1-5.092,8.82C446.035,88.293,443.755,86.977,443.755,83.729Z" fill="#396caa"/>
              </g>
            </g>
            <g id="Group_532" data-name="Group 532">
              <path id="Path_1415" data-name="Path 1415" d="M449.1,85.058l.9-1,2.747,1.586-1.689.861Z" fill="#396caa"/>
            </g>
            <g id="Group_533" data-name="Group 533">
              <path id="Path_1416" data-name="Path 1416" d="M448.955,84.959l2.559,1.478-1.66,1.645-3.127,1.4a4.085,4.085,0,0,0-1.2-2.9Z" fill="#5793ce"/>
            </g>
            <g id="Group_538" data-name="Group 538">
              <g id="Group_534" data-name="Group 534">
                <path id="Path_1417" data-name="Path 1417" d="M446.683,86.879c0,4.128,2.9,5.8,6.473,3.737A14.306,14.306,0,0,0,459.629,79.4c0-4.128-2.9-5.8-6.473-3.737A14.306,14.306,0,0,0,446.683,86.879Zm1.381-.8a11.254,11.254,0,0,1,5.092-8.82c2.813-1.624,5.093-.308,5.093,2.94a11.256,11.256,0,0,1-5.093,8.82C450.344,90.646,448.064,89.33,448.064,86.082Z" fill="#d4ecff"/>
              </g>
              <g id="Group_535" data-name="Group 535">
                <path id="Path_1418" data-name="Path 1418" d="M449.2,91.544l-.716-.534.612.146Z" fill="#d4ecff"/>
              </g>
              <g id="Group_536" data-name="Group 536">
                <path id="Path_1419" data-name="Path 1419" d="M457.973,75.368l.99.725-.815.239Z" fill="#d4ecff"/>
              </g>
              <g id="Group_537" data-name="Group 537">
                <path id="Path_1420" data-name="Path 1420" d="M447.574,87.531c0,4.128,2.9,5.8,6.473,3.737a14.308,14.308,0,0,0,6.473-11.212c0-4.128-2.9-5.8-6.473-3.737A14.308,14.308,0,0,0,447.574,87.531Zm1.381-.8a11.258,11.258,0,0,1,5.092-8.821c2.813-1.623,5.093-.307,5.093,2.941a11.256,11.256,0,0,1-5.093,8.82C451.235,91.3,448.955,89.981,448.955,86.734Z" fill="#396caa"/>
              </g>
            </g>
            <g id="Group_539" data-name="Group 539">
              <path id="Path_1421" data-name="Path 1421" d="M454.3,88.063l.9-1,2.747,1.586-1.691.863Z" fill="#396caa"/>
            </g>
            <g id="Group_540" data-name="Group 540">
              <path id="Path_1422" data-name="Path 1422" d="M454.17,87.971l2.545,1.469-1.661,1.647-3.134,1.4a3.886,3.886,0,0,0-1.207-2.919Z" fill="#5793ce"/>
            </g>
            <g id="Group_545" data-name="Group 545">
              <g id="Group_541" data-name="Group 541">
                <path id="Path_1423" data-name="Path 1423" d="M424.961,74.31c0,4.128,2.9,5.8,6.473,3.737a14.306,14.306,0,0,0,6.473-11.211c0-4.128-2.9-5.8-6.473-3.737A14.306,14.306,0,0,0,424.961,74.31Zm1.381-.8a11.257,11.257,0,0,1,5.092-8.82c2.813-1.624,5.093-.308,5.093,2.94a11.253,11.253,0,0,1-5.093,8.82C428.622,78.077,426.342,76.761,426.342,73.513Z" fill="#d4ecff"/>
              </g>
              <g id="Group_542" data-name="Group 542">
                <path id="Path_1424" data-name="Path 1424" d="M427.475,78.975l-.716-.534.612.146Z" fill="#d4ecff"/>
              </g>
              <g id="Group_543" data-name="Group 543">
                <path id="Path_1425" data-name="Path 1425" d="M436.251,62.8l.99.725-.815.239Z" fill="#d4ecff"/>
              </g>
              <g id="Group_544" data-name="Group 544">
                <path id="Path_1426" data-name="Path 1426" d="M425.852,74.962c0,4.128,2.9,5.8,6.473,3.737A14.306,14.306,0,0,0,438.8,67.488c0-4.128-2.9-5.8-6.473-3.737A14.306,14.306,0,0,0,425.852,74.962Zm1.381-.8a11.257,11.257,0,0,1,5.092-8.82c2.813-1.624,5.093-.308,5.093,2.94a11.256,11.256,0,0,1-5.093,8.82C429.513,78.729,427.233,77.413,427.233,74.165Z" fill="#396caa"/>
              </g>
            </g>
            <g id="Group_546" data-name="Group 546">
              <path id="Path_1427" data-name="Path 1427" d="M432.579,75.494l.888-.981,2.738,1.581-1.666.85Z" fill="#396caa"/>
            </g>
            <g id="Group_547" data-name="Group 547">
              <path id="Path_1428" data-name="Path 1428" d="M432.432,75.42l2.543,1.468-1.643,1.63-3.113,1.39A4.072,4.072,0,0,0,428.973,77Z" fill="#5793ce"/>
            </g>
            <g id="Group_552" data-name="Group 552">
              <g id="Group_548" data-name="Group 548">
                <path id="Path_1429" data-name="Path 1429" d="M430.161,77.315c0,4.128,2.9,5.8,6.473,3.737a14.308,14.308,0,0,0,6.473-11.211c0-4.128-2.9-5.8-6.473-3.737A14.306,14.306,0,0,0,430.161,77.315Zm1.38-.8a11.253,11.253,0,0,1,5.093-8.82c2.812-1.624,5.092-.308,5.092,2.94a11.257,11.257,0,0,1-5.092,8.82C433.821,81.082,431.541,79.766,431.541,76.518Z" fill="#d4ecff"/>
              </g>
              <g id="Group_549" data-name="Group 549">
                <path id="Path_1430" data-name="Path 1430" d="M432.675,81.98l-.716-.534.612.146Z" fill="#d4ecff"/>
              </g>
              <g id="Group_550" data-name="Group 550">
                <path id="Path_1431" data-name="Path 1431" d="M441.451,65.8l.99.725-.815.239Z" fill="#d4ecff"/>
              </g>
              <g id="Group_551" data-name="Group 551">
                <path id="Path_1432" data-name="Path 1432" d="M431.051,77.967c0,4.128,2.9,5.8,6.474,3.737A14.308,14.308,0,0,0,444,70.492c0-4.127-2.9-5.8-6.473-3.737A14.309,14.309,0,0,0,431.051,77.967Zm1.381-.8a11.253,11.253,0,0,1,5.093-8.82c2.812-1.624,5.092-.308,5.092,2.939a11.258,11.258,0,0,1-5.092,8.821C434.712,81.734,432.432,80.417,432.432,77.17Z" fill="#396caa"/>
              </g>
            </g>
            <g id="Group_553" data-name="Group 553">
              <path id="Path_1433" data-name="Path 1433" d="M437.778,78.5l.89-.983,2.739,1.582-1.669.851Z" fill="#396caa"/>
            </g>
            <g id="Group_554" data-name="Group 554">
              <path id="Path_1434" data-name="Path 1434" d="M437.624,78.418l2.552,1.473-1.645,1.632-3.122,1.431A4.13,4.13,0,0,0,434.17,80Z" fill="#5793ce"/>
            </g>
            <g id="Group_559" data-name="Group 559">
              <g id="Group_555" data-name="Group 555">
                <path id="Path_1435" data-name="Path 1435" d="M529.287,134.67c0,4.128,2.9,5.8,6.474,3.737a14.309,14.309,0,0,0,6.473-11.211c0-4.128-2.9-5.8-6.473-3.737A14.3,14.3,0,0,0,529.287,134.67Zm1.381-.8a11.256,11.256,0,0,1,5.093-8.82c2.812-1.624,5.092-.308,5.092,2.94a11.257,11.257,0,0,1-5.092,8.82C532.948,138.437,530.668,137.121,530.668,133.873Z" fill="#d4ecff"/>
              </g>
              <g id="Group_556" data-name="Group 556">
                <path id="Path_1436" data-name="Path 1436" d="M531.8,139.335l-.716-.534.612.146Z" fill="#d4ecff"/>
              </g>
              <g id="Group_557" data-name="Group 557">
                <path id="Path_1437" data-name="Path 1437" d="M540.577,123.159l.99.725-.815.239Z" fill="#d4ecff"/>
              </g>
              <g id="Group_558" data-name="Group 558">
                <path id="Path_1438" data-name="Path 1438" d="M530.178,135.322c0,4.128,2.9,5.8,6.473,3.737a14.307,14.307,0,0,0,6.474-11.211c0-4.128-2.9-5.8-6.474-3.738A14.31,14.31,0,0,0,530.178,135.322Zm1.381-.8a11.257,11.257,0,0,1,5.092-8.82c2.813-1.624,5.093-.308,5.093,2.94a11.256,11.256,0,0,1-5.093,8.82C533.839,139.089,531.559,137.773,531.559,134.525Z" fill="#396caa"/>
              </g>
            </g>
            <g id="Group_560" data-name="Group 560">
              <path id="Path_1439" data-name="Path 1439" d="M542.62,161.215l1.278-.766v-2.217l-1.278.821Z" fill="#396caa"/>
            </g>
            <g id="Group_561" data-name="Group 561">
              <path id="Path_1440" data-name="Path 1440" d="M536.905,135.854l.964-1.064a16.54,16.54,0,0,1,2.682,1.731l-1.686.783Z" fill="#396caa"/>
            </g>
            <g id="Group_562" data-name="Group 562">
              <path id="Path_1441" data-name="Path 1441" d="M536.87,135.718a12.131,12.131,0,0,1,3.08,2.241c.978,1.167-5.5,2.35-5.5,2.35a4,4,0,0,0-1.094-2.981Z" fill="#5793ce"/>
            </g>
          </g>
        </g>
      </g>
      <path id="Path_1442" data-name="Path 1442" d="M520.472,239.615a.681.681,0,0,1-.335-.089l-87.61-50.581a.672.672,0,0,1,.672-1.165l87.61,50.582a.671.671,0,0,1-.337,1.253Z" fill="#5793ce"/>
      <path id="Path_1443" data-name="Path 1443" d="M491.846,192.661l-3.669-5.96a1,1,0,1,1,1.7-1.048l2.691,4.37,8.507-4.467a1,1,0,1,1,.929,1.771Z" fill="#ff2c9c"/>
      <path id="Path_1444" data-name="Path 1444" d="M485.836,168.477a12.746,12.746,0,0,1-5.825-1.978c-5.19-3-7.823-7.019-7.823-11.955,0-2.783.987-4.886,2.78-5.922s4.11-.838,6.518.554c4.614,2.663,8.368,9.165,8.368,14.493,0,2.11-.651,3.556-1.937,4.3A4.111,4.111,0,0,1,485.836,168.477ZM477.5,149.83a3.142,3.142,0,0,0-1.6.4c-1.193.688-1.85,2.218-1.85,4.309,0,4.223,2.32,7.7,6.893,10.344,2.689,1.553,4.95,2.1,6.044,1.467.668-.386,1.007-1.289,1.007-2.686a16.463,16.463,0,0,0-7.437-12.882A6.284,6.284,0,0,0,477.5,149.83Z" fill="#ff2c9c"/>
      <path id="Path_1445" data-name="Path 1445" d="M493.079,160.037a.93.93,0,0,1-.721-.34c-4.593-5.612-13.725-9.708-13.816-9.749a.931.931,0,0,1,.754-1.7c.392.173,9.625,4.314,14.5,10.271a.931.931,0,0,1-.718,1.52Z" fill="#ff2c9c"/>
    </g>
  </g>
</svg>
