<svg xmlns="http://www.w3.org/2000/svg" width="502.838" height="523.943" viewBox="0 0 502.838 523.943">
  <g id="Group_271" data-name="Group 271" transform="translate(-226.203 -32.14)">
    <g id="Group_232" data-name="Group 232" transform="translate(279.053 286.911)">
      <path id="Path_745" data-name="Path 745" d="M331.815,223.781c-15.677-9.051-41.095-9.051-56.77,0s-15.677,23.725,0,32.776,41.095,9.051,56.772,0S347.492,232.832,331.815,223.781ZM316.479,247.7c-7.207,4.159-18.889,4.159-26.1,0s-7.207-10.907,0-15.068,18.889-4.159,26.1,0S323.684,243.542,316.479,247.7Z" transform="translate(-256.814 -176.054)" fill="#d4ecff"/>
      <g id="Group_231" data-name="Group 231">
        <g id="Group_227" data-name="Group 227" transform="translate(5.455)">
          <path id="Path_746" data-name="Path 746" d="M269.5,225.97l14.321.222a15.222,15.222,0,0,1,4.522-3.8c7.874-4.546,20.257-4.9,28.835-1.061l8.51-8,13.1.2c-.648-.424-1.312-.84-2.014-1.246-18.208-10.512-47.729-10.513-65.936,0a34.587,34.587,0,0,0-8.192,6.383Z" transform="translate(-262.65 -183.606)" fill="#b70083"/>
          <path id="Path_747" data-name="Path 747" d="M315.161,197.186V217.98l-13.1-.2V196.982Z" transform="translate(-239.018 -188.055)" fill="#d3008d"/>
          <path id="Path_748" data-name="Path 748" d="M296.739,204.984v20.794l8.509-8V196.982Z" transform="translate(-242.208 -188.055)" fill="#b70083"/>
          <path id="Path_749" data-name="Path 749" d="M275.908,209.279v20.794l18.836-15.351,14.521,10.488V204.416l-13.37-6.487s-18.406,5.636-19.363,5.874S275.908,209.279,275.908,209.279Z" transform="translate(-254.734 -187.487)" fill="#b70083"/>
          <path id="Path_750" data-name="Path 750" d="M266.935,204.885v20.795l14.319.223V205.108Z" transform="translate(-260.081 -183.315)" fill="#b70083"/>
          <path id="Path_751" data-name="Path 751" d="M262.651,200.32v20.795l6.854,7.3V207.622Z" transform="translate(-262.651 -186.053)" fill="#d3008d"/>
          <path id="Path_752" data-name="Path 752" d="M269.5,212.971l14.321.222a15.222,15.222,0,0,1,4.522-3.8c7.874-4.546,20.257-4.9,28.835-1.061l8.51-8,13.1.2c-.648-.422-1.312-.841-2.014-1.246-18.208-10.512-47.729-10.513-65.936,0a34.587,34.587,0,0,0-8.192,6.383Z" transform="translate(-262.65 -191.401)" fill="#ff2c9c"/>
        </g>
        <g id="Group_229" data-name="Group 229" transform="translate(54.92 12.44)">
          <path id="Path_753" data-name="Path 753" d="M299.436,203.583V222.7l12.394-2.971s-.728-11.185-.992-11.484S299.436,203.583,299.436,203.583Z" transform="translate(-290.055 -196.536)" fill="#5793ce"/>
          <g id="Group_228" data-name="Group 228">
            <path id="Path_754" data-name="Path 754" d="M293.572,215.533v20.794l1.339,1.427,8.739-5.039s-1.357-15.874-1.515-16.192S293.572,215.533,293.572,215.533Z" transform="translate(-293.572 -189.37)" fill="#173d7a"/>
            <path id="Path_755" data-name="Path 755" d="M310.446,212.177l-7.493,7.047c6.242,4.938,5.5,11.9-2.219,16.36a26.647,26.647,0,0,1-7.162,2.756l7.746,8.251-6.864,6.455a62.361,62.361,0,0,0,23.784-7.357c15.651-9.037,17.835-22.9,6.575-33.288Z" transform="translate(-293.572 -191.382)" fill="#396caa"/>
            <path id="Path_756" data-name="Path 756" d="M294.124,234.977v20.794l16.993-6.562,20.437-19.5-.076-22.081-21.622,17.138Z" transform="translate(-293.241 -194.109)" fill="#396caa"/>
            <path id="Path_757" data-name="Path 757" d="M310.446,199.178l-7.493,7.047c6.242,4.938,5.5,11.9-2.219,16.36a26.646,26.646,0,0,1-7.162,2.756l7.746,8.251-6.864,6.455a62.359,62.359,0,0,0,23.784-7.357c15.651-9.037,17.835-22.9,6.575-33.288Z" transform="translate(-293.572 -199.178)" fill="#d4ecff"/>
          </g>
        </g>
        <g id="Group_230" data-name="Group 230" transform="translate(0 18.314)">
          <path id="Path_758" data-name="Path 758" d="M314.988,244.282l-6.827-7.274c-6.338.386-12.911-.822-17.768-3.626-5.017-2.9-7.083-6.85-6.207-10.619l-16.256-.254-6.252-6.66c-5.468,9.384-1.737,20.163,11.212,27.638,9.513,5.493,22.117,8.11,34.582,7.863Z" transform="translate(-259.241 -195.054)" fill="#396caa"/>
          <path id="Path_759" data-name="Path 759" d="M307.471,235.065v20.794l-48.227-26.726v-20.8l7.041,2.847Z" transform="translate(-259.239 -199.564)" fill="#396caa"/>
          <path id="Path_760" data-name="Path 760" d="M296.906,220.624v20.794l-7.515,7.068V227.692Z" transform="translate(-241.159 -192.191)" fill="#173d7a"/>
          <path id="Path_761" data-name="Path 761" d="M314.988,231.281l-6.827-7.272c-6.338.386-12.911-.822-17.768-3.627-5.017-2.9-7.083-6.85-6.207-10.619l-16.256-.254-6.252-6.66c-5.468,9.384-1.737,20.163,11.212,27.638,9.513,5.493,22.117,8.111,34.582,7.863Z" transform="translate(-259.241 -202.85)" fill="#5793ce"/>
        </g>
      </g>
    </g>
    <g id="Group_243" data-name="Group 243" transform="translate(425.505 216.227)">
      <g id="Group_239" data-name="Group 239">
        <path id="Path_762" data-name="Path 762" d="M440.5,356.986l-73.341-42.344c-4.5-2.6-3.937-7.138,1.261-10.139l70.817-40.887c5.2-3,13.06-3.326,17.562-.728l73.341,42.344c4.5,2.6,3.937,7.138-1.261,10.139L458.06,356.258C452.863,359.259,445,359.586,440.5,356.986Z" transform="translate(-342.797 -78.899)" fill="#d4ecff"/>
        <g id="Group_234" data-name="Group 234" transform="translate(0 101.281)">
          <path id="Path_763" data-name="Path 763" d="M562.455,286.574h0V254.885l-71.056-.04-24.56-14.18c-5.637-3.255-15.482-2.846-21.991.912l-22.914,13.23-71.121-.04v32.591c-.16,2.2,1.069,4.327,3.777,5.892l91.84,53.024c5.637,3.254,15.482,2.846,21.991-.912l88.679-51.2C560.856,292,562.667,289.188,562.455,286.574Z" transform="translate(-350.784 -193.772)" fill="#396caa"/>
          <path id="Path_764" data-name="Path 764" d="M456.637,238.479a25.343,25.343,0,0,0-11.788,3.092L421.934,254.8l-71.121-.04v32.591c-.16,2.2,1.069,4.327,3.777,5.892l91.84,53.024a19.915,19.915,0,0,0,10.206,2.18Z" transform="translate(-350.784 -193.766)" fill="#396caa"/>
          <path id="Path_765" data-name="Path 765" d="M358.863,248.662l-8.05,0v32.591c-.16,2.2,1.069,4.327,3.777,5.892l4.273,2.467Z" transform="translate(-350.784 -187.662)" fill="#5793ce"/>
          <path id="Path_766" data-name="Path 766" d="M411.465,320.239c4.86,2.083,11.894,1.966,17.578-.2v-37H411.465Z" transform="translate(-314.403 -167.045)" fill="#5793ce"/>
          <path id="Path_767" data-name="Path 767" d="M446.436,330.557,354.6,277.533c-5.637-3.255-4.93-8.939,1.579-12.7l88.679-51.2c6.509-3.758,16.354-4.166,21.991-.91l91.84,53.024c5.636,3.254,4.929,8.939-1.579,12.7l-88.68,51.2C461.918,333.4,452.072,333.811,446.436,330.557Z" transform="translate(-350.79 -210.528)" fill="#d4ecff"/>
          <path id="Path_768" data-name="Path 768" d="M441.66,317.3,364.7,272.867c-4.722-2.727-4.13-7.491,1.323-10.64l74.314-42.906c5.455-3.148,13.706-3.491,18.429-.763l76.963,44.433c4.724,2.728,4.132,7.491-1.323,10.641l-74.314,42.9C454.636,319.687,446.384,320.029,441.66,317.3Z" transform="translate(-344.362 -206.816)" fill="#5793ce"/>
          <g id="Group_233" data-name="Group 233" transform="translate(170.472 83.467)">
            <path id="Path_769" data-name="Path 769" d="M464.774,274.76a8.2,8.2,0,0,1-3.71,6.426c-2.049,1.182-3.71.224-3.71-2.142a8.2,8.2,0,0,1,3.71-6.424C463.114,271.435,464.774,272.4,464.774,274.76Z" transform="translate(-457.355 -257.063)" fill="#d4ecff"/>
            <path id="Path_770" data-name="Path 770" d="M472.234,270.453a8.2,8.2,0,0,1-3.708,6.424c-2.049,1.184-3.71.224-3.71-2.14a8.2,8.2,0,0,1,3.71-6.426C470.573,267.129,472.234,268.087,472.234,270.453Z" transform="translate(-452.881 -259.646)" fill="#d4ecff"/>
            <ellipse id="Ellipse_50" data-name="Ellipse 50" cx="5.246" cy="3.029" rx="5.246" ry="3.029" transform="translate(22.333 9.086) rotate(-59.997)" fill="#d4ecff"/>
          </g>
        </g>
        <g id="Group_236" data-name="Group 236" transform="translate(0 50.64)">
          <path id="Path_771" data-name="Path 771" d="M562.455,254.918h0v-31.69L491.4,223.19l-24.56-14.181c-5.637-3.254-15.482-2.846-21.991.912l-22.914,13.23-71.121-.038V255.7c-.16,2.2,1.069,4.329,3.777,5.892l91.84,53.025c5.637,3.254,15.482,2.846,21.991-.912l88.679-51.2C560.856,260.338,562.667,257.531,562.455,254.918Z" transform="translate(-350.784 -162.116)" fill="#396caa"/>
          <path id="Path_772" data-name="Path 772" d="M456.637,206.823a25.361,25.361,0,0,0-11.788,3.091l-22.914,13.23-71.121-.038v32.589c-.16,2.2,1.069,4.329,3.777,5.892l91.84,53.025a19.915,19.915,0,0,0,10.206,2.18Z" transform="translate(-350.784 -162.11)" fill="#396caa"/>
          <path id="Path_773" data-name="Path 773" d="M358.863,217l-8.05,0V249.59c-.16,2.2,1.069,4.329,3.777,5.892l4.273,2.468Z" transform="translate(-350.784 -156.006)" fill="#5793ce"/>
          <path id="Path_774" data-name="Path 774" d="M411.465,288.583c4.86,2.083,11.894,1.966,17.578-.2v-37H411.465Z" transform="translate(-314.403 -135.389)" fill="#5793ce"/>
          <path id="Path_775" data-name="Path 775" d="M446.436,298.9,354.6,245.876c-5.637-3.254-4.93-8.938,1.579-12.7l88.679-51.2c6.509-3.758,16.354-4.166,21.991-.91l91.84,53.024c5.636,3.254,4.929,8.938-1.579,12.7l-88.68,51.2C461.918,301.747,452.072,302.155,446.436,298.9Z" transform="translate(-350.79 -178.872)" fill="#d4ecff"/>
          <path id="Path_776" data-name="Path 776" d="M441.66,285.646,364.7,241.211c-4.722-2.727-4.13-7.491,1.323-10.64l74.314-42.906c5.455-3.148,13.706-3.491,18.429-.765l76.963,44.435c4.724,2.727,4.132,7.491-1.323,10.64l-74.314,42.906C454.636,288.031,446.384,288.371,441.66,285.646Z" transform="translate(-344.362 -175.161)" fill="#5793ce"/>
          <g id="Group_235" data-name="Group 235" transform="translate(170.472 83.467)">
            <path id="Path_777" data-name="Path 777" d="M464.774,243.1a8.2,8.2,0,0,1-3.71,6.426c-2.049,1.182-3.71.224-3.71-2.142a8.2,8.2,0,0,1,3.71-6.426C463.114,239.78,464.774,240.738,464.774,243.1Z" transform="translate(-457.355 -225.407)" fill="#d4ecff"/>
            <path id="Path_778" data-name="Path 778" d="M472.234,238.8a8.2,8.2,0,0,1-3.708,6.424c-2.049,1.182-3.71.224-3.71-2.142a8.2,8.2,0,0,1,3.71-6.424C470.573,235.473,472.234,236.431,472.234,238.8Z" transform="translate(-452.881 -227.99)" fill="#d4ecff"/>
            <ellipse id="Ellipse_51" data-name="Ellipse 51" cx="5.246" cy="3.029" rx="5.246" ry="3.029" transform="translate(22.333 9.086) rotate(-59.997)" fill="#d4ecff"/>
          </g>
        </g>
        <g id="Group_238" data-name="Group 238">
          <path id="Path_779" data-name="Path 779" d="M562.455,223.261h0V191.572l-71.056-.038-24.56-14.181c-5.637-3.254-15.482-2.846-21.991.912l-22.914,13.23-71.121-.038v32.589c-.16,2.2,1.069,4.329,3.777,5.892l91.84,53.025c5.637,3.254,15.482,2.846,21.991-.912l88.679-51.2C560.856,228.682,562.667,225.875,562.455,223.261Z" transform="translate(-350.784 -130.46)" fill="#396caa"/>
          <path id="Path_780" data-name="Path 780" d="M456.637,175.167a25.361,25.361,0,0,0-11.788,3.091l-22.914,13.23-71.121-.038v32.589c-.16,2.2,1.069,4.329,3.777,5.892l91.84,53.025a19.914,19.914,0,0,0,10.206,2.179Z" transform="translate(-350.784 -130.453)" fill="#396caa"/>
          <path id="Path_781" data-name="Path 781" d="M358.863,185.348l-8.05,0v32.589c-.16,2.2,1.069,4.329,3.777,5.892l4.273,2.467Z" transform="translate(-350.784 -124.35)" fill="#5793ce"/>
          <path id="Path_782" data-name="Path 782" d="M411.465,256.927c4.86,2.083,11.894,1.966,17.578-.2v-37H411.465Z" transform="translate(-314.403 -103.733)" fill="#5793ce"/>
          <path id="Path_783" data-name="Path 783" d="M446.436,267.245,354.6,214.22c-5.637-3.254-4.93-8.938,1.579-12.7l88.679-51.2c6.509-3.758,16.354-4.166,21.991-.912l91.84,53.024c5.636,3.255,4.929,8.939-1.579,12.7l-88.68,51.2C461.918,270.091,452.072,270.5,446.436,267.245Z" transform="translate(-350.79 -147.216)" fill="#d4ecff"/>
          <path id="Path_784" data-name="Path 784" d="M479.446,214.631l-63.89-39.465L395.676,213.19l5.518,20.477,21.528,13.923Z" transform="translate(-323.871 -130.454)" fill="#5793ce"/>
          <path id="Path_785" data-name="Path 785" d="M557.106,187.261l-88.68,51.2c-6.509,3.758-16.354,4.167-21.991.912L354.6,186.347a8.483,8.483,0,0,1-2.812-2.5c-1.937,3.116-1.059,6.5,2.812,8.731l91.84,53.025c5.637,3.254,15.482,2.844,21.991-.913l88.68-51.2c5.057-2.919,6.594-7,4.391-10.2A12.311,12.311,0,0,1,557.106,187.261Z" transform="translate(-350.79 -125.579)" fill="#fff"/>
          <g id="Group_237" data-name="Group 237" transform="translate(170.472 83.467)">
            <path id="Path_786" data-name="Path 786" d="M464.774,211.448a8.2,8.2,0,0,1-3.71,6.424c-2.049,1.184-3.71.224-3.71-2.14a8.2,8.2,0,0,1,3.71-6.426C463.114,208.124,464.774,209.082,464.774,211.448Z" transform="translate(-457.355 -193.751)" fill="#d4ecff"/>
            <path id="Path_787" data-name="Path 787" d="M472.234,207.141a8.2,8.2,0,0,1-3.708,6.424c-2.049,1.182-3.71.224-3.71-2.142a8.2,8.2,0,0,1,3.71-6.424C470.573,203.815,472.234,204.775,472.234,207.141Z" transform="translate(-452.881 -196.334)" fill="#d4ecff"/>
            <ellipse id="Ellipse_52" data-name="Ellipse 52" cx="5.246" cy="3.029" rx="5.246" ry="3.029" transform="translate(22.333 9.086) rotate(-59.997)" fill="#d4ecff"/>
          </g>
        </g>
      </g>
      <g id="Group_240" data-name="Group 240" transform="translate(79.707 121.318)">
        <path id="Path_788" data-name="Path 788" d="M410.815,230.772c0,1.651-1.16,2.32-2.59,1.494a5.721,5.721,0,0,1-2.588-4.484c0-1.651,1.158-2.321,2.588-1.494A5.722,5.722,0,0,1,410.815,230.772Z" transform="translate(-397.605 -221.326)" fill="#d4ecff"/>
        <path id="Path_789" data-name="Path 789" d="M405.794,227.892c0,1.651-1.16,2.321-2.59,1.494a5.721,5.721,0,0,1-2.588-4.484c0-1.651,1.158-2.321,2.588-1.494A5.723,5.723,0,0,1,405.794,227.892Z" transform="translate(-400.616 -223.053)" fill="#5793ce"/>
        <path id="Path_790" data-name="Path 790" d="M410.815,236.831c0,1.651-1.16,2.321-2.59,1.5a5.721,5.721,0,0,1-2.588-4.486c0-1.651,1.158-2.32,2.588-1.494A5.722,5.722,0,0,1,410.815,236.831Z" transform="translate(-397.605 -217.692)" fill="#d4ecff"/>
        <path id="Path_791" data-name="Path 791" d="M405.794,233.951c0,1.653-1.16,2.321-2.59,1.5a5.721,5.721,0,0,1-2.588-4.484c0-1.652,1.158-2.321,2.588-1.5A5.722,5.722,0,0,1,405.794,233.951Z" transform="translate(-400.616 -219.42)" fill="#d4ecff"/>
      </g>
      <g id="Group_241" data-name="Group 241" transform="translate(79.707 171.522)">
        <path id="Path_792" data-name="Path 792" d="M410.815,262.155c0,1.651-1.16,2.32-2.59,1.494a5.721,5.721,0,0,1-2.588-4.484c0-1.651,1.158-2.32,2.588-1.494A5.722,5.722,0,0,1,410.815,262.155Z" transform="translate(-397.605 -252.71)" fill="#fff"/>
        <path id="Path_793" data-name="Path 793" d="M405.794,259.275c0,1.651-1.16,2.321-2.59,1.5a5.726,5.726,0,0,1-2.588-4.486c0-1.651,1.158-2.32,2.588-1.494A5.722,5.722,0,0,1,405.794,259.275Z" transform="translate(-400.616 -254.437)" fill="#5793ce"/>
        <path id="Path_794" data-name="Path 794" d="M410.815,268.214c0,1.652-1.16,2.321-2.59,1.5a5.721,5.721,0,0,1-2.588-4.484c0-1.653,1.158-2.321,2.588-1.5A5.723,5.723,0,0,1,410.815,268.214Z" transform="translate(-397.605 -249.076)" fill="#d4ecff"/>
        <path id="Path_795" data-name="Path 795" d="M405.794,265.335c0,1.651-1.16,2.32-2.59,1.494a5.721,5.721,0,0,1-2.588-4.484c0-1.651,1.158-2.321,2.588-1.5A5.723,5.723,0,0,1,405.794,265.335Z" transform="translate(-400.616 -250.803)" fill="#d4ecff"/>
      </g>
      <g id="Group_242" data-name="Group 242" transform="translate(79.707 222.258)">
        <path id="Path_796" data-name="Path 796" d="M410.815,293.872c0,1.651-1.16,2.32-2.59,1.494a5.721,5.721,0,0,1-2.588-4.484c0-1.651,1.158-2.321,2.588-1.5A5.723,5.723,0,0,1,410.815,293.872Z" transform="translate(-397.605 -284.426)" fill="#fff"/>
        <path id="Path_797" data-name="Path 797" d="M405.794,290.992c0,1.651-1.16,2.32-2.59,1.494A5.721,5.721,0,0,1,400.616,288c0-1.651,1.158-2.321,2.588-1.5A5.728,5.728,0,0,1,405.794,290.992Z" transform="translate(-400.616 -286.153)" fill="#5793ce"/>
        <path id="Path_798" data-name="Path 798" d="M410.815,299.931c0,1.651-1.16,2.321-2.59,1.5a5.726,5.726,0,0,1-2.588-4.486c0-1.651,1.158-2.32,2.588-1.494A5.722,5.722,0,0,1,410.815,299.931Z" transform="translate(-397.605 -280.792)" fill="#fff"/>
        <path id="Path_799" data-name="Path 799" d="M405.794,297.051c0,1.651-1.16,2.321-2.59,1.5a5.724,5.724,0,0,1-2.588-4.486c0-1.651,1.158-2.32,2.588-1.494A5.723,5.723,0,0,1,405.794,297.051Z" transform="translate(-400.616 -282.519)" fill="#d4ecff"/>
      </g>
    </g>
    <path id="Path_800" data-name="Path 800" d="M480.729,221.216l-90.063-52c-1.049-.6-.918-1.664.294-2.363h0a4.55,4.55,0,0,1,4.094-.171l90.065,52c1.049.606.918,1.665-.294,2.364h0A4.553,4.553,0,0,1,480.729,221.216Z" transform="translate(98.203 80.44)" fill="#173d7a"/>
    <g id="Group_251" data-name="Group 251" transform="translate(226.203 185.346)">
      <g id="Group_244" data-name="Group 244">
        <path id="Path_801" data-name="Path 801" d="M226.513,292.719l56.311-32.786c11.155-6.442,21.676-7.461,29.623-2.876s12.323,14.21,12.323,27.091v4.126c-.4.269-.816.533-1.241.792v-4.917c0-12.418-4.156-21.657-11.7-26.014s-17.627-3.335-28.382,2.873l-56.31,32.788a.621.621,0,0,1-.622-1.075Z" transform="translate(-226.203 -52.158)" fill="#d4ecff"/>
        <path id="Path_802" data-name="Path 802" d="M346.65,329.415v-126.9c0-25.4,17.9-56.4,39.895-69.1,10.772-6.22,20.935-7.207,28.614-2.775s11.9,13.724,11.9,26.165v8.85l-1.241,1.241V156.807c0-11.977-4.007-20.887-11.283-25.088s-17-3.215-27.372,2.772c-21.655,12.5-39.274,43.019-39.274,68.026v126.9c0,21.055-12.388,45.974-29.188,60.968v-1.665C334.839,373.889,346.65,349.81,346.65,329.415Z" transform="translate(-170.731 -127.912)" fill="#d4ecff"/>
        <path id="Path_803" data-name="Path 803" d="M386.905,158.68h0a49.844,49.844,0,0,1,25.421-12.444c15.714-2.4,22.207,15.973,22.207,15.973s1.817,9.544,1.753,15.192-.47,26.165-.47,26.165l-49.81-28.694v-.008a.613.613,0,0,1-.342-.547V159.754C386.078,159.339,386.493,159.095,386.905,158.68Z" transform="translate(-130.575 -117.053)" fill="#396caa"/>
      </g>
      <g id="Group_248" data-name="Group 248" transform="translate(0.239 0.232)">
        <g id="Group_246" data-name="Group 246">
          <path id="Path_804" data-name="Path 804" d="M462.417,157.775,415.2,130.556l.184.678c-7.277-4.7-18.273-5.207-32.984,5.581-29.219,21.426-32.728,51.256-34.218,56.845s-.877,41-.877,41-.1,85.416-.2,95.35-2.99,21.081-8.571,33.115-19.918,26.637-19.918,26.637v17.386c2.289,18.8,10.276,23.18,22.157,24.251,9.59.865,19.807-6.06,27.972-13.605-.3.315-.494.514-.494.514V435.7c2.288,18.8,10.275,23.18,22.158,24.251s24.731-9.813,33.439-19.025,16.05-23.28,20.129-35.971,2.726-29.089,2.726-29.089.1-93.37.2-111.778.682-15.194,6.72-33.7,22.046-31.458,22.046-31.458l38.409-11.439Z" transform="translate(-171.017 -128.057)" fill="#d4ecff"/>
          <path id="Path_805" data-name="Path 805" d="M399.168,371.709c-.648-.881-9.061-6.522-11.2-16.456-1.193-5.527-1.072-13.927-1.072-13.927s.035-4.673.147-8.92c.093-.083.19-.158.283-.242V330.5c-.077.072-.157.134-.234.2.034-.958.069-1.859.112-2.622.243-4.415-3.02-13.831-3.02-13.831s-4.626-12.612-18.408-13.1c-12.236-.432-25.115,8.371-27.856,10.353v-5.695c-.181.123-.378.242-.566.363.016-.765.034-1.544.054-2.31.093-.082.19-.158.283-.242v-1.665c-.077.07-.157.134-.234.2.032-.958.069-1.859.11-2.622.245-4.415-3.019-13.829-3.019-13.829s-4.626-12.614-18.408-13.1c-12.236-.433-25.115,8.37-27.856,10.353v-5.695c-.4.269-.816.533-1.241.792v9.971c0,12.081,4.025,21.159,11.334,25.669l.029.034.256.147c.069.042.131.088.2.128.043.026.091.042.136.067l50.533,29.092c-.011-.016-.046-.046-.064-.067Z" transform="translate(-189.957 -41.38)" fill="#396caa"/>
          <g id="Group_245" data-name="Group 245" transform="translate(0 202.375)">
            <path id="Path_806" data-name="Path 806" d="M361.993,285.4s-.379-.2-1.046-.466c-.206-.1-.4-.214-.611-.307l-47.978-27.771a25.748,25.748,0,0,0-19.476-.731c-10.662,3.9-66.528,37.419-66.528,37.419L276.262,322.3l.01,0a.7.7,0,0,0,.133.037L325.9,350.845s28-17.347,47.372-28.539l1.241-.715c7.92-4.554,14.21-7.955,16.183-8.478,11.943-3.164,20.254.691,22.417,1.878Z" transform="translate(-226.353 -254.565)" fill="#d4ecff"/>
            <path id="Path_807" data-name="Path 807" d="M343.1,292.338l.579.336S343.466,292.54,343.1,292.338Z" transform="translate(-156.341 -231.912)" fill="#d4ecff"/>
          </g>
        </g>
        <path id="Path_808" data-name="Path 808" d="M417.932,176.525h0a49.836,49.836,0,0,1,25.421-12.446c15.714-2.4,22.207,15.973,22.207,15.973s1.817,9.545,1.753,15.194-.47,26.165-.47,26.165l-49.81-28.694v-.008a.613.613,0,0,1-.342-.547V177.6C417.105,177.184,417.52,176.939,417.932,176.525Z" transform="translate(-112.207 -106.584)" fill="#396caa"/>
        <g id="Group_247" data-name="Group 247" transform="translate(99.227 57.016)">
          <path id="Path_809" data-name="Path 809" d="M408.071,439.269c5.492,0,11.572-1.833,17.862-5.466,21.839-12.607,39.607-43.382,39.607-68.6V238.3c0-25,17.619-55.522,39.276-68.027,10.374-5.986,20.092-6.971,27.369-2.772s11.284,13.113,11.284,25.09v28.371a.621.621,0,1,0,1.241,0V192.595c0-12.441-4.228-21.732-11.905-26.163s-17.838-3.447-28.612,2.772c-22,12.7-39.895,43.7-39.895,69.1V365.2c0,24.823-17.49,55.115-38.986,67.527-10.3,5.943-19.943,6.922-27.166,2.752s-11.2-13.014-11.2-24.9V395.69c0-12.881-4.375-22.5-12.323-27.089s-18.467-3.567-29.623,2.875l-56.309,32.786a.621.621,0,0,0,.621,1.075l56.309-32.788c10.755-6.208,20.836-7.229,28.382-2.873s11.7,13.6,11.7,26.014v14.89c0,12.35,4.2,21.575,11.82,25.976A20.822,20.822,0,0,0,408.071,439.269Z" transform="translate(-288.381 -163.698)" fill="#396caa"/>
        </g>
      </g>
      <g id="Group_249" data-name="Group 249" transform="translate(222.847 32.018)">
        <path id="Path_810" data-name="Path 810" d="M371.732,157.96l-5.946-3.433c-.365-.211-.371-.688-.013-1.064l4.879-5.137a1.155,1.155,0,0,1,1.31-.3l5.946,3.433c.365.211.37.688.011,1.065l-4.879,5.135A1.151,1.151,0,0,1,371.732,157.96Z" transform="translate(-365.508 -147.927)" fill="#5793ce"/>
        <path id="Path_811" data-name="Path 811" d="M379.725,162.579l-5.946-3.433c-.365-.21-.371-.686-.013-1.064l4.879-5.135a1.15,1.15,0,0,1,1.31-.3l5.946,3.433c.365.211.37.686.011,1.064l-4.879,5.135A1.148,1.148,0,0,1,379.725,162.579Z" transform="translate(-360.715 -145.157)" fill="#396caa"/>
        <path id="Path_812" data-name="Path 812" d="M387.718,167.2l-5.946-3.433c-.365-.211-.371-.688-.013-1.064l4.879-5.137a1.154,1.154,0,0,1,1.309-.3l5.946,3.433c.366.211.371.688.013,1.064l-4.879,5.137A1.154,1.154,0,0,1,387.718,167.2Z" transform="translate(-355.922 -142.387)" fill="#fff"/>
        <path id="Path_813" data-name="Path 813" d="M395.711,171.818l-5.946-3.433c-.365-.211-.371-.686-.013-1.064l4.879-5.135a1.148,1.148,0,0,1,1.309-.3l5.946,3.433c.366.211.371.686.013,1.064l-4.879,5.135A1.149,1.149,0,0,1,395.711,171.818Z" transform="translate(-351.128 -139.616)" fill="#5793ce"/>
      </g>
      <g id="Group_250" data-name="Group 250" transform="translate(196.462 140.541)">
        <path id="Path_814" data-name="Path 814" d="M371.163,231.651l-8.323-4.806a3.439,3.439,0,0,1-1.43-2.686h0c-.016-1.037.6-1.517,1.368-1.07L371.1,227.9a3.43,3.43,0,0,1,1.429,2.684h0C372.549,231.619,371.936,232.1,371.163,231.651Z" transform="translate(-341.581 -211.475)" fill="#5793ce"/>
        <path id="Path_815" data-name="Path 815" d="M385.041,239.663l-12.275-7.087a3.439,3.439,0,0,1-1.43-2.686h0c-.016-1.037.6-1.517,1.369-1.07l12.275,7.087a3.443,3.443,0,0,1,1.429,2.686h0C386.424,239.63,385.812,240.11,385.041,239.663Z" transform="translate(-335.629 -208.038)" fill="#5793ce"/>
        <path id="Path_816" data-name="Path 816" d="M368.586,259.4l-8.325-4.807a3.435,3.435,0,0,1-1.429-2.684h0c-.018-1.037.6-1.517,1.368-1.07l8.325,4.806a3.434,3.434,0,0,1,1.429,2.686h0C369.971,259.368,369.358,259.847,368.586,259.4Z" transform="translate(-343.128 -194.833)" fill="#5793ce"/>
        <path id="Path_817" data-name="Path 817" d="M381.115,266.635l-12.275-7.087a3.44,3.44,0,0,1-1.429-2.684h0c-.016-1.037.6-1.517,1.368-1.07l12.275,7.087a3.439,3.439,0,0,1,1.43,2.684h0C382.5,266.6,381.888,267.081,381.115,266.635Z" transform="translate(-337.982 -191.862)" fill="#5793ce"/>
        <path id="Path_818" data-name="Path 818" d="M355.724,227.61l-5.2-3a3.43,3.43,0,0,1-1.429-2.684h0c-.018-1.038.6-1.517,1.368-1.07l5.2,3a3.445,3.445,0,0,1,1.429,2.686h0C357.108,227.576,356.5,228.056,355.724,227.61Z" transform="translate(-348.967 -212.817)" fill="#5793ce"/>
        <path id="Path_819" data-name="Path 819" d="M370.831,241.205l-15.888-9.173a3.438,3.438,0,0,1-1.429-2.686h0c-.018-1.037.6-1.517,1.368-1.07l15.888,9.174a3.439,3.439,0,0,1,1.43,2.684h0C372.216,241.173,371.6,241.652,370.831,241.205Z" transform="translate(-346.317 -208.364)" fill="#5793ce"/>
        <path id="Path_820" data-name="Path 820" d="M360.3,244.873l-5.2-3a3.439,3.439,0,0,1-1.43-2.686h0c-.016-1.037.6-1.515,1.369-1.07l5.2,3a3.442,3.442,0,0,1,1.43,2.686h0C361.688,244.839,361.075,245.319,360.3,244.873Z" transform="translate(-346.221 -202.464)" fill="#5793ce"/>
        <path id="Path_821" data-name="Path 821" d="M385.558,278.947l-13.889-8.019a3.439,3.439,0,0,1-1.43-2.686h0c-.016-1.037.6-1.517,1.369-1.07l13.889,8.019a3.433,3.433,0,0,1,1.429,2.686h0C386.943,278.913,386.331,279.392,385.558,278.947Z" transform="translate(-336.287 -185.039)" fill="#5793ce"/>
        <path id="Path_822" data-name="Path 822" d="M358.6,253.636l-3.339-1.928a3.43,3.43,0,0,1-1.429-2.684h0c-.018-1.038.6-1.517,1.368-1.07l3.339,1.926a3.445,3.445,0,0,1,1.429,2.686h0C359.984,253.6,359.371,254.082,358.6,253.636Z" transform="translate(-346.125 -196.564)" fill="#5793ce"/>
        <path id="Path_823" data-name="Path 823" d="M359.567,263.941l-4.145-2.395a3.436,3.436,0,0,1-1.43-2.684h0c-.016-1.038.6-1.517,1.368-1.07l4.146,2.393a3.435,3.435,0,0,1,1.429,2.684h0C360.951,263.907,360.34,264.386,359.567,263.941Z" transform="translate(-346.03 -190.664)" fill="#5793ce"/>
        <path id="Path_824" data-name="Path 824" d="M372.191,271.229l-10.929-6.311a3.43,3.43,0,0,1-1.429-2.684h0c-.018-1.037.6-1.517,1.368-1.07l10.929,6.309a3.442,3.442,0,0,1,1.429,2.686h0C373.575,271.2,372.962,271.675,372.191,271.229Z" transform="translate(-342.527 -188.642)" fill="#5793ce"/>
        <path id="Path_825" data-name="Path 825" d="M363.358,271l-7.858-4.537a3.441,3.441,0,0,1-1.429-2.686h0c-.016-1.037.6-1.517,1.368-1.07l7.858,4.537a3.439,3.439,0,0,1,1.43,2.684h0C364.744,270.97,364.131,271.448,363.358,271Z" transform="translate(-345.982 -187.714)" fill="#5793ce"/>
        <path id="Path_826" data-name="Path 826" d="M375.653,253.734l-13.89-8.018a3.436,3.436,0,0,1-1.428-2.686h0c-.018-1.037.6-1.517,1.368-1.07l13.89,8.019a3.442,3.442,0,0,1,1.429,2.684h0C377.037,253.7,376.424,254.181,375.653,253.734Z" transform="translate(-342.227 -200.158)" fill="#5793ce"/>
        <path id="Path_827" data-name="Path 827" d="M379.229,250.928l-24.207-13.977a3.433,3.433,0,0,1-1.429-2.686h0c-.018-1.037.6-1.515,1.368-1.07l24.207,13.977a3.439,3.439,0,0,1,1.43,2.686h0C380.615,250.894,380,251.374,379.229,250.928Z" transform="translate(-346.269 -205.414)" fill="#5793ce"/>
        <path id="Path_828" data-name="Path 828" d="M369.072,254.809l-13.89-8.019a3.442,3.442,0,0,1-1.429-2.684h0c-.016-1.038.6-1.517,1.368-1.072l13.89,8.019a3.44,3.44,0,0,1,1.429,2.686h0C370.457,254.775,369.845,255.255,369.072,254.809Z" transform="translate(-346.173 -199.514)" fill="#5793ce"/>
        <path id="Path_829" data-name="Path 829" d="M378.923,255.624l-5.047-2.915a3.44,3.44,0,0,1-1.429-2.684h0c-.016-1.038.6-1.517,1.368-1.072l5.047,2.915a3.433,3.433,0,0,1,1.429,2.684h0C380.308,255.59,379.7,256.069,378.923,255.624Z" transform="translate(-334.962 -195.964)" fill="#5793ce"/>
        <path id="Path_830" data-name="Path 830" d="M372.038,266.267l-16.7-9.64a3.43,3.43,0,0,1-1.429-2.684h0c-.018-1.038.6-1.517,1.368-1.07l16.7,9.64a3.435,3.435,0,0,1,1.429,2.684h0C373.422,266.233,372.81,266.713,372.038,266.267Z" transform="translate(-346.077 -193.614)" fill="#5793ce"/>
        <path id="Path_831" data-name="Path 831" d="M362.718,226.775l-12.274-7.087A3.43,3.43,0,0,1,349.015,217h0c-.018-1.038.6-1.517,1.368-1.07l12.274,7.087a3.43,3.43,0,0,1,1.429,2.684h0C364.1,226.743,363.491,227.221,362.718,226.775Z" transform="translate(-349.015 -215.767)" fill="#5793ce"/>
        <path id="Path_832" data-name="Path 832" d="M365.457,277.087l-14.217-8.208a3.443,3.443,0,0,1-1.428-2.686h0c-.016-1.037.6-1.515,1.368-1.07l14.216,8.208a3.433,3.433,0,0,1,1.429,2.686h0C366.842,277.054,366.23,277.534,365.457,277.087Z" transform="translate(-348.537 -186.267)" fill="#5793ce"/>
      </g>
    </g>
    <g id="Group_252" data-name="Group 252" transform="translate(283.721 416.789)">
      <path id="Path_833" data-name="Path 833" d="M268.352,280.361l-5.946-3.433c-.365-.211-.32-.579.1-.822l5.741-3.315a1.586,1.586,0,0,1,1.424-.059l5.946,3.433c.365.211.318.579-.1.822l-5.741,3.315A1.582,1.582,0,0,1,268.352,280.361Z" transform="translate(-262.159 -272.59)" fill="#5793ce"/>
      <path id="Path_834" data-name="Path 834" d="M276.343,284.98l-5.946-3.433c-.365-.211-.318-.579.1-.822l5.741-3.315a1.576,1.576,0,0,1,1.424-.059l5.946,3.433c.365.21.32.577-.1.821l-5.741,3.316A1.586,1.586,0,0,1,276.343,284.98Z" transform="translate(-257.366 -269.821)" fill="#396caa"/>
      <path id="Path_835" data-name="Path 835" d="M284.337,289.6l-5.946-3.433c-.365-.211-.32-.579.1-.822l5.741-3.315a1.581,1.581,0,0,1,1.424-.059L291.6,285.4c.365.211.318.579-.1.822l-5.741,3.315A1.582,1.582,0,0,1,284.337,289.6Z" transform="translate(-252.573 -267.051)" fill="#fff"/>
      <path id="Path_836" data-name="Path 836" d="M292.328,294.216l-5.946-3.433c-.365-.211-.318-.578.1-.822l5.741-3.315a1.587,1.587,0,0,1,1.424-.059l5.946,3.433c.365.211.32.579-.1.822l-5.741,3.315A1.581,1.581,0,0,1,292.328,294.216Z" transform="translate(-247.78 -264.282)" fill="#5793ce"/>
    </g>
    <g id="Group_258" data-name="Group 258" transform="translate(412.854 32.14)">
      <g id="Group_257" data-name="Group 257">
        <g id="Group_254" data-name="Group 254" transform="translate(5.171)">
          <path id="Path_837" data-name="Path 837" d="M383.849,211.148s-6.866-3.463-11.083,1.694-10.244,17.326-10.432,25.552,6.509,7.669,10.488,5.722S388.429,225.3,389.133,222s-.83-7.773-1.948-8.646S383.849,211.148,383.849,211.148Z" transform="translate(-336.39 74.528)" fill="#173d7a"/>
          <path id="Path_838" data-name="Path 838" d="M381.591,210.3l.318,7.114a4.034,4.034,0,0,1-2.009,3.7,7.926,7.926,0,0,1-5.3.824c-5.173-.832-5.634-2.31-6-9.422S381.591,210.3,381.591,210.3Z" transform="translate(-332.635 73.719)" fill="#d4ecff"/>
          <g id="Group_253" data-name="Group 253" transform="translate(0 126.207)">
            <path id="Path_839" data-name="Path 839" d="M368.137,202.6s-6.866-3.463-11.083,1.692-10.244,17.328-10.432,25.552,6.509,7.671,10.489,5.724,15.605-18.812,16.309-22.117-.829-7.771-1.948-8.646S368.137,202.6,368.137,202.6Z" transform="translate(-345.812 -56.806)" fill="#173d7a"/>
            <path id="Path_840" data-name="Path 840" d="M365.881,201.752l.317,7.114a4.032,4.032,0,0,1-2.009,3.7,7.918,7.918,0,0,1-5.3.822c-5.172-.83-5.634-2.308-6-9.421S365.881,201.752,365.881,201.752Z" transform="translate(-342.057 -57.616)" fill="#d4ecff"/>
            <path id="Path_841" data-name="Path 841" d="M431.207,124.567c-2.033-33.066-35.811,4.865-35.811,4.865l-23.119,22.66L351.46,174.961a20.515,20.515,0,0,0-5.17,16.485l8.421,64.124a6.3,6.3,0,0,0,6.319,5.477,21.376,21.376,0,0,0,3.119-.273c7.514-1.169,6.959-8.312,6.959-8.312l-1.539-59.976,43.718-26.355S433.238,157.635,431.207,124.567Z" transform="translate(-346.115 -111.034)" fill="#173d7a"/>
          </g>
          <path id="Path_842" data-name="Path 842" d="M446.917,132.443c-2.032-33.067-35.809,4.865-35.809,4.865l-23.119,22.66-20.817,22.869A20.518,20.518,0,0,0,362,199.322l8.422,64.124a6.3,6.3,0,0,0,6.319,5.476,21.363,21.363,0,0,0,3.119-.272c7.512-1.171,6.959-8.314,6.959-8.314l-1.539-59.974L429,174.007S448.949,165.509,446.917,132.443Z" transform="translate(-336.692 19.896)" fill="#173d7a"/>
          <path id="Path_843" data-name="Path 843" d="M421.047,62.4c25.61,10.617,25.1,25.755,25.1,25.755s-5.017,55.5-3.3,92.559c.717,15.495-82.319,16.677-69.936-24.659,14.6-48.738,9.128-88.193,15.963-94.144S414.424,59.651,421.047,62.4Z" transform="translate(-330.805 -16.202)" fill="#5793ce"/>
          <path id="Path_844" data-name="Path 844" d="M417.353,74.383c-1.339,5.2-8.152,7.939-15.216,6.12s-11.705-7.511-10.364-12.71,8.15-7.939,15.215-6.12S418.692,69.184,417.353,74.383Z" transform="translate(-318.872 -14.766)" fill="#ffc2b0"/>
          <path id="Path_845" data-name="Path 845" d="M406.967,82.752a18.786,18.786,0,0,1-4.676-.6,17.045,17.045,0,0,1-8.976-5.5,9.257,9.257,0,0,1,3.921-15.223,17.962,17.962,0,0,1,19.494,5.021,9.791,9.791,0,0,1,2.268,8.7h0a9.789,9.789,0,0,1-6.191,6.522A15.668,15.668,0,0,1,406.967,82.752Zm-3.894-19.959a13.224,13.224,0,0,0-4.924.905,6.829,6.829,0,0,0-2.939,11.4,15.527,15.527,0,0,0,16.683,4.3,7.408,7.408,0,0,0,4.732-4.86v0a7.413,7.413,0,0,0-1.793-6.543,14.589,14.589,0,0,0-7.691-4.674A16.354,16.354,0,0,0,403.074,62.792Z" transform="translate(-319.332 -15.225)" fill="#fff"/>
          <path id="Path_846" data-name="Path 846" d="M396.192,62.21s.221,1.027-.222,9.142c-.139,2.55,8.794,4.933,11.1,2.624s1.385-4.71,1.939-13.393S396.192,62.21,396.192,62.21Z" transform="translate(-316.217 -17.169)" fill="#ffc2b0"/>
          <path id="Path_847" data-name="Path 847" d="M409.012,59.279s-2.2,8.051-13.044,11.139l.165-7.317Z" transform="translate(-316.217 -15.865)" fill="#ea9c92"/>
          <circle id="Ellipse_53" data-name="Ellipse 53" cx="19.712" cy="19.712" r="19.712" transform="matrix(0.786, -0.619, 0.619, 0.786, 52.898, 24.609)" fill="#ffc2b0"/>
          <path id="Path_848" data-name="Path 848" d="M408.458,51.815s-10.854,4.649-18.368,4.7-5.86-6.24-5.86-6.24l22.308-3.223Z" transform="translate(-323.349 -23.196)" fill="#ea9c92"/>
          <path id="Path_849" data-name="Path 849" d="M391.061,61.984s9.454-4.014,17.749-2.34a8.7,8.7,0,0,1,5.012,2.979,2.953,2.953,0,0,0,1.517,1.1c1.47.333,3.878-5.769,6.736-5.908s4.767,1.884,2.424,5.637S422.946,71.4,424.024,72s12.518-8.16,2.427-28.148-35.721-9.222-39.708-5.172c0,0-4.2,3.66-7.615.4C379.128,39.087,375.3,67.765,391.061,61.984Z" transform="translate(-326.561 -32.14)" fill="#ff2c9c"/>
          <path id="Path_850" data-name="Path 850" d="M421.53,105.664v15a6.114,6.114,0,0,1-1.993,4.514l-30.805,28.084,3.5,5.353,40.68-29.5a8.269,8.269,0,0,0,3.369-5.829l2.75-26.152Z" transform="translate(-320.557 6.832)" fill="#ffc2b0"/>
          <path id="Path_851" data-name="Path 851" d="M422.274,72.43s9.345,14.055,12.826,51.05c0,0-15.963,5.164-25.024,2.233S422.274,72.43,422.274,72.43Z" transform="translate(-309.104 -7.978)" fill="#5793ce"/>
          <path id="Path_852" data-name="Path 852" d="M409.617,83.539s-3.659,19.58-3.867,28.783a5.872,5.872,0,0,0,3.867,5.673h0Z" transform="translate(-310.352 -1.316)" fill="#396caa"/>
        </g>
        <g id="Group_255" data-name="Group 255" transform="translate(4.925 148.894)">
          <path id="Path_853" data-name="Path 853" d="M437.479,154.461l-6.808-.9-43.952-25.376a6.108,6.108,0,0,0-5.5.229l-31.145,17.974-4.116-.544v4.1h0a1.6,1.6,0,0,0,.945,1.443l49.81,28.758a6.107,6.107,0,0,0,5.5-.227l33.917-19.576a2.219,2.219,0,0,0,1.345-1.849h0Z" transform="translate(-345.959 -123.765)" fill="#5793ce"/>
          <path id="Path_854" data-name="Path 854" d="M404.455,135.058l-3.123-1.8H367l-16.925,9.765-4.116-.544v4.1h0a1.6,1.6,0,0,0,.945,1.443l49.81,28.758a5.158,5.158,0,0,0,2.836.533Z" transform="translate(-345.959 -120.396)" fill="#396caa"/>
          <path id="Path_855" data-name="Path 855" d="M347.789,139.261l-1.827-.242v4.1h0a1.6,1.6,0,0,0,.945,1.443l.878.507Z" transform="translate(-345.959 -116.939)" fill="#5793ce"/>
          <path id="Path_856" data-name="Path 856" d="M378.005,163.329a6.385,6.385,0,0,0,4.671-.29v-6.975h-4.671Z" transform="translate(-326.743 -106.716)" fill="#fff"/>
          <path id="Path_857" data-name="Path 857" d="M396.721,177.5l-49.81-28.758c-1.409-.814-1.232-2.235.4-3.174l33.917-19.576a6.107,6.107,0,0,1,5.5-.227l49.81,28.758c1.409.813,1.232,2.233-.4,3.172l-33.917,19.576A6.107,6.107,0,0,1,396.721,177.5Z" transform="translate(-345.96 -125.216)" fill="#fff"/>
          <path id="Path_858" data-name="Path 858" d="M392.988,169.2,351.571,145.29c-1.171-.675-1.024-1.857.328-2.638l18.176-10.221a5.075,5.075,0,0,1,4.57-.19l41.416,23.912c1.173.677,1.025,1.857-.328,2.639L397.56,169.012A5.078,5.078,0,0,1,392.988,169.2Z" transform="translate(-343.07 -121.277)" fill="#d4ecff"/>
        </g>
        <path id="Path_859" data-name="Path 859" d="M369.507,125.76l-.517,3.438a25.4,25.4,0,0,0,.226,8.811l.613,3.028a4.26,4.26,0,0,0,3.412,3.347h0A2.351,2.351,0,0,0,376,142.333l.822-7.347s1.88,2.464,2.787,2.464-1.016-7.359-3.068-11.523S369.507,125.76,369.507,125.76Z" transform="translate(-327.393 22.967)" fill="#ffc2b0"/>
        <path id="Path_860" data-name="Path 860" d="M387.3,94.855l-5.345,10.577a20.749,20.749,0,0,0-2.187,8.031l-2.321,36.18-7.031-.166-3.191-40.632a14.848,14.848,0,0,1,.181-3.756l3.646-20.6Z" transform="translate(-328.308 -0.749)" fill="#ffc2b0"/>
        <g id="Group_256" data-name="Group 256" transform="translate(0 127.349)">
          <path id="Path_861" data-name="Path 861" d="M396.554,188.338l-4.177-5.452-43.92-25.429a6.109,6.109,0,0,1-2.545-4.878l.038-35.958-2.526-3.3,2.374-1.374,0,0a1.606,1.606,0,0,1,1.723.1L397.3,140.872a6.114,6.114,0,0,1,2.545,4.878L399.8,184.91a2.219,2.219,0,0,1-.933,2.088h0Z" transform="translate(-342.556 -111.748)" fill="#173d7a"/>
          <path id="Path_862" data-name="Path 862" d="M366.182,167.72l-3.121-1.806-17.128-29.753.018-19.539-2.526-3.3,2.374-1.374,0,0a1.606,1.606,0,0,1,1.723.1L397.3,140.872a5.152,5.152,0,0,1,1.876,2.193Z" transform="translate(-342.556 -111.748)" fill="#396caa"/>
          <path id="Path_863" data-name="Path 863" d="M344.546,114.789l-1.121-1.464,2.374-1.374,0,0a1.606,1.606,0,0,1,1.723.1l.877.509Z" transform="translate(-342.556 -111.748)" fill="#5793ce"/>
          <path id="Path_864" data-name="Path 864" d="M379.3,130.153a6.384,6.384,0,0,1,2.08,4.193l-4.865,2.807-2.329-4.047Z" transform="translate(-324.108 -100.711)" fill="#274f89"/>
          <path id="Path_865" data-name="Path 865" d="M395.253,141.731l-49.775-28.819c-1.408-.814-2.552.048-2.553,1.926L342.882,154a6.114,6.114,0,0,0,2.545,4.877L395.2,187.695c1.409.814,2.552-.046,2.555-1.926l.042-39.161A6.114,6.114,0,0,0,395.253,141.731Z" transform="translate(-342.882 -111.235)" fill="#5793ce"/>
        </g>
        <path id="Path_866" data-name="Path 866" d="M397.072,137.568l-.8,1.654a11.063,11.063,0,0,1-4.161,4.61l-4.943,3.047a4.919,4.919,0,0,1-5.047.117c-.056-.032-.114-.066-.17-.1a2.975,2.975,0,0,1-.419-4.57l5.165-5.311s-2.9,2.224-3.716,1.328c-.6-.656,2.815-3.858,5.434-3.964a10.334,10.334,0,0,0,5.154-2.163Z" transform="translate(-320.227 27.875)" fill="#ffc2b0"/>
        <path id="Path_867" data-name="Path 867" d="M392.694,60.662s-18.94,20.609-26.581,39.514c0,0,6.477,11.67,22.33,16.248S392.694,60.662,392.694,60.662Z" transform="translate(-328.95 -15.036)" fill="#5793ce"/>
        <path id="Path_868" data-name="Path 868" d="M379.4,105.873l3.07-29.655L375.24,104A41.606,41.606,0,0,0,379.4,105.873Z" transform="translate(-323.477 -5.707)" fill="#396caa"/>
        <path id="Path_869" data-name="Path 869" d="M393.5,58.587l-5.089-1.4s2.43,3.822,5.977,4.8,4.1-2.028,4.1-2.028Z" transform="translate(-315.575 -17.118)" fill="#fff"/>
      </g>
      <path id="Path_870" data-name="Path 870" d="M410.716,54.033a2.835,2.835,0,1,1-2.835-2.835A2.834,2.834,0,0,1,410.716,54.033Z" transform="translate(-305.602 -20.711)" fill="#fff"/>
    </g>
    <g id="Group_261" data-name="Group 261" transform="translate(652.76 235.959)">
      <g id="Group_259" data-name="Group 259">
        <path id="Path_871" data-name="Path 871" d="M563.565,195.079,503.01,160.116a3.106,3.106,0,0,0-3.131-.251l0-.038-5.874,3.395s2.6.947,4.127,1.507v44.1c0,3.588,2.182,7.757,4.873,9.31l57.88,33.416v5.175l5.933-3.417-.032-.013c1-.611,1.646-1.953,1.646-3.882V204.388C568.438,200.8,566.256,196.632,563.565,195.079Z" transform="translate(-492.156 -159.55)" fill="#d3008d"/>
        <path id="Path_872" data-name="Path 872" d="M558.279,255.261,497.724,220.3c-2.692-1.553-4.873-5.722-4.873-9.309V165.962c0-3.588,2.18-5.237,4.873-3.683l60.555,34.961c2.691,1.553,4.873,5.722,4.873,9.31v45.027C563.151,255.166,560.969,256.814,558.279,255.261Z" transform="translate(-492.851 -158.265)" fill="#ff2c9c"/>
      </g>
      <g id="Group_260" data-name="Group 260" transform="translate(17.064 38.883)">
        <path id="Path_873" data-name="Path 873" d="M511.691,191.491c0,2.606-1.83,3.662-4.086,2.36a9.032,9.032,0,0,1-4.087-7.077c0-2.606,1.83-3.662,4.087-2.358A9.032,9.032,0,0,1,511.691,191.491Z" transform="translate(-503.518 -183.857)" fill="#fff"/>
        <path id="Path_874" data-name="Path 874" d="M519.427,195.959c0,2.6-1.828,3.662-4.086,2.358a9.028,9.028,0,0,1-4.086-7.077c0-2.6,1.828-3.662,4.086-2.358A9.028,9.028,0,0,1,519.427,195.959Z" transform="translate(-498.877 -181.178)" fill="#fff"/>
        <path id="Path_875" data-name="Path 875" d="M527.166,200.426c0,2.606-1.83,3.662-4.086,2.358a9.029,9.029,0,0,1-4.087-7.075c0-2.606,1.83-3.662,4.087-2.36A9.032,9.032,0,0,1,527.166,200.426Z" transform="translate(-494.238 -178.499)" fill="#fff"/>
      </g>
    </g>
    <g id="Group_264" data-name="Group 264" transform="translate(618.298 179.344)">
      <g id="Group_262" data-name="Group 262">
        <path id="Path_876" data-name="Path 876" d="M542.024,159.688l-60.557-34.963a3.106,3.106,0,0,0-3.131-.251l0-.038-5.874,3.393s2.6.949,4.127,1.509v44.1c0,3.588,2.182,7.755,4.873,9.31l57.88,33.416v5.175l5.933-3.419-.032-.011c1-.611,1.646-1.953,1.646-3.884V169C546.895,165.409,544.714,161.241,542.024,159.688Z" transform="translate(-470.613 -124.159)" fill="#5793ce"/>
        <path id="Path_877" data-name="Path 877" d="M536.736,219.869l-60.555-34.961c-2.691-1.553-4.873-5.722-4.873-9.31V130.571c0-3.588,2.182-5.236,4.873-3.683l60.555,34.961c2.692,1.553,4.873,5.722,4.873,9.309v45.028C541.609,219.775,539.428,221.423,536.736,219.869Z" transform="translate(-471.308 -122.874)" fill="#d4ecff"/>
      </g>
      <g id="Group_263" data-name="Group 263" transform="translate(17.066 38.883)">
        <path id="Path_878" data-name="Path 878" d="M490.147,156.1c0,2.606-1.83,3.662-4.086,2.36a9.031,9.031,0,0,1-4.086-7.077c0-2.606,1.828-3.662,4.086-2.358A9.032,9.032,0,0,1,490.147,156.1Z" transform="translate(-481.976 -148.466)" fill="#fff"/>
        <path id="Path_879" data-name="Path 879" d="M497.886,160.568c0,2.6-1.83,3.66-4.087,2.358a9.032,9.032,0,0,1-4.086-7.077c0-2.6,1.83-3.662,4.086-2.358A9.03,9.03,0,0,1,497.886,160.568Z" transform="translate(-477.336 -145.787)" fill="#fff"/>
        <path id="Path_880" data-name="Path 880" d="M505.622,165.035c0,2.606-1.828,3.662-4.086,2.358a9.028,9.028,0,0,1-4.086-7.075c0-2.606,1.828-3.662,4.086-2.36A9.028,9.028,0,0,1,505.622,165.035Z" transform="translate(-472.696 -143.108)" fill="#fff"/>
      </g>
    </g>
    <g id="Group_270" data-name="Group 270" transform="translate(566.225 376.612)">
      <path id="Path_881" data-name="Path 881" d="M438.757,356.587l21.315-12.306,21.314,12.306-21.314,12.306Z" transform="translate(-438.757 -189.421)" fill="#d4ecff"/>
      <path id="Path_882" data-name="Path 882" d="M467.039,340.039l21.314-12.306,21.314,12.306-21.314,12.306Z" transform="translate(-421.796 -199.345)" fill="#d4ecff"/>
      <path id="Path_883" data-name="Path 883" d="M495.236,323.886,516.55,311.58l21.314,12.306L516.55,336.192Z" transform="translate(-404.886 -209.031)" fill="#d4ecff"/>
      <g id="Group_269" data-name="Group 269" transform="translate(0)">
        <g id="Group_268" data-name="Group 268">
          <g id="Group_265" data-name="Group 265" transform="translate(45.243 62.757)">
            <path id="Path_884" data-name="Path 884" d="M488.354,364.643V299.012l-21.314-12.306v65.631Z" transform="translate(-467.039 -286.706)" fill="#c13d1a"/>
            <path id="Path_885" data-name="Path 885" d="M480.363,299.012l21.314-12.306v65.631l-21.314,12.306Z" transform="translate(-459.049 -286.706)" fill="#d3008d"/>
            <path id="Path_886" data-name="Path 886" d="M488.354,364.643V299.012l-21.314-12.306v65.631Z" transform="translate(-467.039 -286.706)" fill="#d3008d"/>
          </g>
          <g id="Group_266" data-name="Group 266" transform="translate(0 105.636)">
            <path id="Path_887" data-name="Path 887" d="M460.071,370.426V333.509L438.757,321.2V358.12Z" transform="translate(-438.757 -308.897)" fill="#d3008d"/>
            <path id="Path_888" data-name="Path 888" d="M452.081,333.509,473.4,321.2V358.12l-21.314,12.306Z" transform="translate(-430.766 -308.897)" fill="#d3008d"/>
            <path id="Path_889" data-name="Path 889" d="M438.757,325.816l21.315-12.306,21.314,12.306-21.314,12.306Z" transform="translate(-438.757 -313.51)" fill="#ff2c9c"/>
          </g>
          <g id="Group_267" data-name="Group 267" transform="translate(90.35)">
            <path id="Path_890" data-name="Path 890" d="M516.55,357.717V267.474l-21.314-12.306v90.243Z" transform="translate(-495.236 -242.862)" fill="#d3008d"/>
            <path id="Path_891" data-name="Path 891" d="M508.56,267.474l21.314-12.306v90.243L508.56,357.717Z" transform="translate(-487.246 -242.862)" fill="#d3008d"/>
            <path id="Path_892" data-name="Path 892" d="M495.236,259.781l21.314-12.306,21.314,12.306L516.55,272.087Z" transform="translate(-495.236 -247.475)" fill="#ff2c9c"/>
          </g>
        </g>
        <path id="Path_893" data-name="Path 893" d="M467.039,291.319l21.314-12.306,21.314,12.306-21.314,12.306Z" transform="translate(-421.796 -228.562)" fill="#ff2c9c"/>
      </g>
    </g>
  </g>
</svg>
