<svg xmlns="http://www.w3.org/2000/svg" xmlns:xlink="http://www.w3.org/1999/xlink" width="1000" height="1000" viewBox="0 0 1000 1000">
  <defs>
    <clipPath id="clip-_1_4">
      <rect width="1000" height="1000"/>
    </clipPath>
  </defs>
  <g id="_1_4" data-name="1 – 4" clip-path="url(#clip-_1_4)">
    <rect width="1000" height="1000" fill="#fff"/>
    <rect id="Rectangle_23" data-name="Rectangle 23" width="1000" height="1000" fill="#f04381"/>
    <rect id="Rectangle_76" data-name="Rectangle 76" width="91.739" height="570.088" transform="translate(251.175 212.256)" fill="#fff" stroke="rgba(0,0,0,0)" stroke-width="1"/>
    <path id="Path_2012" data-name="Path 2012" d="M544.094,1109.46h-92.83v-429.2a93,93,0,0,0-2.721-21.288q-2.741-11.463-12.564-21.847-9.844-10.374-27.849-17.466-18.036-7.1-47.516-7.1-30.559,0-49.676,7.1t-29.49,16.925c-6.936,6.543-11.464,13.645-13.644,21.288a74.2,74.2,0,0,0-3.281,20.206v431.38h-92.83V662.8q0-13.085,4.361-34.953,4.361-21.837,23.488-43.673,19.1-21.869,56.238-37.693t102.653-15.826q65.542,0,102.653,15.826,37.132,15.855,55.7,37.693,18.566,21.869,22.948,44.213,4.361,22.4,4.361,34.413V1109.46Z" transform="translate(278.233 -327.125)" fill="#fff" stroke="rgba(0,0,0,0)" stroke-width="1"/>
    <g id="Path_2013" data-name="Path 2013" transform="translate(251.175 209.201)" fill="#fff">
      <path d="M 99.23918151855469 117.8062210083008 L 91.73918151855469 117.8062210083008 L 7.617452865815721e-06 117.8062210083008 L -7.499992370605469 117.8062210083008 L -7.499992370605469 110.3062210083008 L -7.499992370605469 1.808498268474068e-06 L -7.499992370605469 -7.499998092651367 L 7.617452865815721e-06 -7.499998092651367 L 91.73918151855469 -7.499998092651367 L 99.23918151855469 -7.499998092651367 L 99.23918151855469 1.808498268474068e-06 L 99.23918151855469 110.3062210083008 L 99.23918151855469 117.8062210083008 Z" stroke="none"/>
      <path d="M 7.62939453125e-06 -7.62939453125e-06 L 7.62939453125e-06 110.3062286376953 L 91.73918151855469 110.3062286376953 L 91.73918151855469 -7.62939453125e-06 L 7.62939453125e-06 -7.62939453125e-06 M -14.99999237060547 -15.00000762939453 L 7.62939453125e-06 -15.00000762939453 L 91.73918151855469 -15.00000762939453 L 106.7391815185547 -15.00000762939453 L 106.7391815185547 -7.62939453125e-06 L 106.7391815185547 110.3062286376953 L 106.7391815185547 125.3062286376953 L 91.73918151855469 125.3062286376953 L 7.62939453125e-06 125.3062286376953 L -14.99999237060547 125.3062286376953 L -14.99999237060547 110.3062286376953 L -14.99999237060547 -7.62939453125e-06 L -14.99999237060547 -15.00000762939453 Z" stroke="none" fill="#f04381"/>
    </g>
  </g>
</svg>
