<svg xmlns="http://www.w3.org/2000/svg" width="250.27" height="277.286" viewBox="0 0 250.27 277.286">
  <g id="Group_605" data-name="Group 605" transform="translate(-119.332 -138.548)">
    <path id="Path_1446" data-name="Path 1446" d="M239.434,251.683l19.729-11.39a7.761,7.761,0,0,1,7.024,0l54.454,31.439c1.94,1.12,1.94,2.935,0,4.055l-19.728,11.39a7.763,7.763,0,0,1-7.025,0l-54.454-31.439C237.5,254.618,237.5,252.8,239.434,251.683Z" transform="translate(12.276 10.44)" fill="#d4ecff" opacity="0.5"/>
    <path id="Path_1447" data-name="Path 1447" d="M271.361,232.856l19.728-11.39a7.763,7.763,0,0,1,7.025,0L352.567,252.9c1.94,1.12,1.94,2.935,0,4.055l-19.729,11.39a7.761,7.761,0,0,1-7.024,0l-54.454-31.439C269.422,235.791,269.422,233.976,271.361,232.856Z" transform="translate(15.58 8.492)" fill="#d4ecff" opacity="0.5"/>
    <path id="Path_1448" data-name="Path 1448" d="M167.331,376.254l63.744-36.348c2.332-1.345,2.039-3.7-.653-5.25L193.744,313.48c-2.691-1.555-6.763-1.723-9.095-.377L120.906,349.45c-2.331,1.345-2.039,3.7.653,5.25l36.677,21.176C160.927,377.43,165,377.6,167.331,376.254Z" transform="translate(0 17.967)" fill="#d4ecff" opacity="0.5"/>
    <g id="Group_577" data-name="Group 577" transform="translate(249.851 138.548)">
      <g id="Group_571" data-name="Group 571" transform="translate(33.865)">
        <g id="Group_567" data-name="Group 567" transform="translate(0 82)">
          <path id="Path_1449" data-name="Path 1449" d="M270.875,220.794c-3.431,1.981-3.431,5.2,0,7.185L329.2,261.653a3.78,3.78,0,0,0,3.416,0,1.041,1.041,0,0,0,0-1.973l-58.325-33.673c-1.547-.894-1.547-2.347,0-3.241l5.652-3.263c-.628-.945-1.2-1.928-1.756-2.931Z" transform="translate(-268.302 -212.475)" fill="#d4ecff"/>
          <path id="Path_1450" data-name="Path 1450" d="M352.554,248.019l-58.325-33.673a13.771,13.771,0,0,0-12.445,0l-4.523,2.612c.557,1,1.128,1.986,1.756,2.931l6.184-3.57a6.208,6.208,0,0,1,5.612,0l58.325,33.673a3.773,3.773,0,0,0,3.416,0A1.041,1.041,0,0,0,352.554,248.019Z" transform="translate(-267.375 -212.859)" fill="#5793ce"/>
        </g>
        <path id="Path_1451" data-name="Path 1451" d="M353.912,256.617l.006-82.014L292.8,140.53l-8.548-.564-8.266,5.354-5.072,4.415,59.551,94.435,19.443,11.459Z" transform="translate(-268.032 -138.401)" fill="#5793ce"/>
        <path id="Path_1452" data-name="Path 1452" d="M325.7,263.486l18.269-10.547V173.677l-18.833,8.754Z" transform="translate(-262.422 -134.913)" fill="#79b1e0"/>
        <path id="Path_1453" data-name="Path 1453" d="M268.3,149.395v81.88l64.164,36.7.856-.343v-82Z" transform="translate(-268.302 -137.426)" fill="#d4ecff"/>
        <g id="Group_568" data-name="Group 568" transform="translate(5.068 4.814)">
          <path id="Path_1454" data-name="Path 1454" d="M303.916,150.743l-12.752-7.327a6.26,6.26,0,0,0-5.277.158l-11.836,6.833a1.81,1.81,0,0,0-1.117,1.945l32.223,19.254,25.882,15.888,18.332-10.634Z" transform="translate(-272.895 -142.91)" fill="#fff"/>
        </g>
        <path id="Path_1455" data-name="Path 1455" d="M325.134,181.069v84.659a3.441,3.441,0,0,0,1.6-.4,1.208,1.208,0,0,0,.7-.969l0,0v-82Z" transform="translate(-262.422 -134.148)" fill="#5793ce"/>
        <path id="Path_1456" data-name="Path 1456" d="M346.175,172.378v-1.023h-.326l-.1.695Z" transform="translate(-260.289 -135.153)" fill="#fff"/>
        <path id="Path_1457" data-name="Path 1457" d="M327.255,183.3v-1.048l-.315.445Z" transform="translate(-262.235 -134.026)" fill="#fff"/>
        <g id="Group_569" data-name="Group 569">
          <path id="Path_1458" data-name="Path 1458" d="M329.2,187.726l-58.325-33.673c-3.431-1.982-3.431-5.205,0-7.186l11.836-6.833a13.768,13.768,0,0,1,12.445,0l58.325,33.673a1.041,1.041,0,0,1,0,1.972,3.773,3.773,0,0,1-3.416,0L291.74,142.006a6.208,6.208,0,0,0-5.612,0l-11.836,6.833c-1.547.894-1.547,2.347,0,3.241l58.325,33.673a1.041,1.041,0,0,1,0,1.973A3.78,3.78,0,0,1,329.2,187.726Z" transform="translate(-268.302 -138.548)" fill="#d4ecff"/>
        </g>
        <path id="Path_1459" data-name="Path 1459" d="M312.557,222.784l-30.308-17.5V174.9l30.308,17.5Z" transform="translate(-266.859 -134.786)" fill="#fff"/>
        <g id="Group_570" data-name="Group 570" transform="translate(0.003 2.788)">
          <path id="Path_1460" data-name="Path 1460" d="M353.028,175.418a3.773,3.773,0,0,1-3.416,0l-58.325-33.673a6.208,6.208,0,0,0-5.612,0l-11.836,6.833c-1.013.586-1.358,1.41-1.045,2.161a2.354,2.354,0,0,1,1.045-1.08l11.836-6.833a6.208,6.208,0,0,1,5.612,0L349.611,176.5a3.773,3.773,0,0,0,3.416,0c.715-.413.885-1.02.516-1.526A1.635,1.635,0,0,1,353.028,175.418Z" transform="translate(-267.852 -141.074)" fill="#fff"/>
          <path id="Path_1461" data-name="Path 1461" d="M332.616,186.559a3.78,3.78,0,0,1-3.416,0l-58.325-33.673a4.713,4.713,0,0,1-2.52-3.053c-.27,1.475.567,3,2.52,4.132L329.2,187.639a3.78,3.78,0,0,0,3.416,0c.715-.413.885-1.02.516-1.527A1.638,1.638,0,0,1,332.616,186.559Z" transform="translate(-268.305 -140.168)" fill="#fff"/>
        </g>
      </g>
      <g id="Group_576" data-name="Group 576" transform="translate(0 21.006)">
        <g id="Group_572" data-name="Group 572" transform="translate(0 82)">
          <path id="Path_1462" data-name="Path 1462" d="M240.186,239.83c-3.432,1.981-3.432,5.2,0,7.185l58.324,33.675a3.78,3.78,0,0,0,3.416,0,1.041,1.041,0,0,0,0-1.973L243.6,245.043c-1.548-.894-1.548-2.347,0-3.241l5.651-3.263c-.628-.945-1.2-1.928-1.755-2.931Z" transform="translate(-237.613 -231.511)" fill="#ff2c9c"/>
          <path id="Path_1463" data-name="Path 1463" d="M321.864,267.055,263.54,233.381a13.774,13.774,0,0,0-12.446,0l-4.522,2.612c.557,1,1.127,1.986,1.755,2.931l6.184-3.57a6.211,6.211,0,0,1,5.613,0l58.324,33.673a3.773,3.773,0,0,0,3.416,0A1.041,1.041,0,0,0,321.864,267.055Z" transform="translate(-236.685 -231.895)" fill="#d3008d"/>
        </g>
        <path id="Path_1464" data-name="Path 1464" d="M323.223,275.653l.006-82.014-61.121-34.073L253.56,159l-8.266,5.354-5.072,4.415,59.551,94.435,19.443,11.459Z" transform="translate(-237.342 -157.437)" fill="#d3008d"/>
        <path id="Path_1465" data-name="Path 1465" d="M295.008,282.523l18.269-10.547V192.713l-18.833,8.754Z" transform="translate(-231.732 -153.949)" fill="#e573b5"/>
        <path id="Path_1466" data-name="Path 1466" d="M237.614,168.431v81.88l64.164,36.7.856-.343v-82Z" transform="translate(-237.612 -156.462)" fill="#ff2c9c"/>
        <g id="Group_573" data-name="Group 573" transform="translate(5.068 4.814)">
          <path id="Path_1467" data-name="Path 1467" d="M273.227,169.779l-12.752-7.327a6.263,6.263,0,0,0-5.278.158l-11.836,6.834a1.807,1.807,0,0,0-1.116,1.944l32.222,19.254,25.883,15.888L318.682,195.9Z" transform="translate(-242.206 -161.946)" fill="#fff"/>
        </g>
        <path id="Path_1468" data-name="Path 1468" d="M294.445,200.1v84.659a3.436,3.436,0,0,0,1.6-.4,1.207,1.207,0,0,0,.705-.969l0,0v-82Z" transform="translate(-231.732 -153.184)" fill="#d3008d"/>
        <path id="Path_1469" data-name="Path 1469" d="M315.485,191.414v-1.023h-.326l-.1.695Z" transform="translate(-229.599 -154.189)" fill="#fff"/>
        <path id="Path_1470" data-name="Path 1470" d="M296.565,202.332v-1.048l-.315.445Z" transform="translate(-231.545 -153.062)" fill="#fff"/>
        <g id="Group_574" data-name="Group 574">
          <path id="Path_1471" data-name="Path 1471" d="M298.51,206.762l-58.324-33.673c-3.432-1.982-3.432-5.205,0-7.186l11.835-6.833a13.77,13.77,0,0,1,12.446,0l58.324,33.673a1.041,1.041,0,0,1,0,1.972,3.773,3.773,0,0,1-3.416,0l-58.324-33.673a6.211,6.211,0,0,0-5.613,0L243.6,167.875c-1.548.894-1.548,2.347,0,3.241l58.324,33.673a1.041,1.041,0,0,1,0,1.973A3.78,3.78,0,0,1,298.51,206.762Z" transform="translate(-237.613 -157.584)" fill="#ff2c9c"/>
        </g>
        <path id="Path_1472" data-name="Path 1472" d="M281.867,241.82l-30.308-17.5V193.938l30.308,17.5Z" transform="translate(-236.169 -153.822)" fill="#fff"/>
        <g id="Group_575" data-name="Group 575" transform="translate(0.004 2.788)">
          <path id="Path_1473" data-name="Path 1473" d="M322.338,194.454a3.773,3.773,0,0,1-3.416,0L260.6,160.781a6.211,6.211,0,0,0-5.613,0l-11.835,6.833c-1.014.586-1.358,1.41-1.045,2.161a2.348,2.348,0,0,1,1.045-1.08l11.835-6.833a6.211,6.211,0,0,1,5.613,0l58.324,33.673a3.773,3.773,0,0,0,3.416,0c.715-.413.886-1.02.518-1.526A1.64,1.64,0,0,1,322.338,194.454Z" transform="translate(-237.163 -160.11)" fill="#fff"/>
          <path id="Path_1474" data-name="Path 1474" d="M301.926,205.595a3.78,3.78,0,0,1-3.416,0l-58.324-33.673a4.71,4.71,0,0,1-2.52-3.053c-.271,1.475.566,3,2.52,4.133l58.324,33.675a3.78,3.78,0,0,0,3.416,0c.715-.413.886-1.02.518-1.526A1.668,1.668,0,0,1,301.926,205.595Z" transform="translate(-237.616 -159.204)" fill="#fff"/>
        </g>
      </g>
    </g>
    <g id="Group_582" data-name="Group 582" transform="translate(334.765 256.703)">
      <g id="Group_581" data-name="Group 581">
        <g id="Group_580" data-name="Group 580">
          <g id="Group_578" data-name="Group 578" transform="translate(12.404 10.495)">
            <rect id="Rectangle_12" data-name="Rectangle 12" width="7.178" height="15.489" transform="translate(16.54 9.79) rotate(129.2)" fill="#5793ce"/>
            <path id="Path_1475" data-name="Path 1475" d="M338.532,269.709a5.612,5.612,0,0,0,3.208-3.934c.258-1.6-.758-2.427-2.271-1.852a5.61,5.61,0,0,0-3.208,3.933C336,269.454,337.019,270.284,338.532,269.709Z" transform="translate(-324.728 -254.245)" fill="#5793ce"/>
          </g>
          <g id="Group_579" data-name="Group 579">
            <rect id="Rectangle_13" data-name="Rectangle 13" width="11.631" height="15.822" transform="translate(20.445 10.48) rotate(129.199)" fill="#5793ce"/>
            <path id="Path_1476" data-name="Path 1476" d="M332.132,256.594l4.062,3.314a9.288,9.288,0,0,1-4.536,5.563l-4.063-3.313A9.291,9.291,0,0,1,332.132,256.594Z" transform="translate(-313.217 -244.489)" fill="#396caa"/>
            <path id="Path_1477" data-name="Path 1477" d="M329.425,264.36a9.089,9.089,0,0,0,5.2-6.374c.419-2.589-1.228-3.932-3.68-3a9.087,9.087,0,0,0-5.2,6.374C325.326,263.948,326.973,265.291,329.425,264.36Z" transform="translate(-313.415 -244.686)" fill="#5793ce"/>
            <path id="Path_1478" data-name="Path 1478" d="M318.31,255.295a9.091,9.091,0,0,0,5.2-6.374c.419-2.589-1.228-3.933-3.68-3a9.091,9.091,0,0,0-5.2,6.374C314.211,254.882,315.858,256.226,318.31,255.295Z" transform="translate(-314.565 -245.624)" fill="#5793ce"/>
            <path id="Path_1479" data-name="Path 1479" d="M318.456,253.056a5.14,5.14,0,0,0,2.941-3.605c.237-1.464-.7-2.225-2.081-1.7a5.142,5.142,0,0,0-2.941,3.606C316.137,252.823,317.07,253.583,318.456,253.056Z" transform="translate(-314.382 -245.421)" fill="#d4ecff"/>
          </g>
        </g>
      </g>
      <path id="Path_1480" data-name="Path 1480" d="M338.428,265.3c.588.48,1.164.262,1.286-.489a2.63,2.63,0,0,0-.846-2.226c-.588-.48-1.163-.262-1.284.489A2.632,2.632,0,0,0,338.428,265.3Z" transform="translate(-312.186 -243.896)" fill="#d4ecff"/>
    </g>
    <path id="Path_1481" data-name="Path 1481" d="M229.12,390.283a12.12,12.12,0,0,1-6.263-1.771l-8.493-5.031a.959.959,0,0,1,.978-1.651l8.5,5.034a10.225,10.225,0,0,0,15.476-9.485l-.181-2.561c-2.983-41.931-8.534-119.98,24.36-128.4a256.111,256.111,0,0,0,24.754-7.7c16.88-6.043,18.037-5.709,41.308,11.866a.959.959,0,1,1-1.155,1.53c-23.115-17.457-23.421-17.349-39.507-11.59a258.355,258.355,0,0,1-24.923,7.754c-31.344,8.022-25.868,85.032-22.925,126.4l.182,2.561a11.955,11.955,0,0,1-5.764,11.215A12.091,12.091,0,0,1,229.12,390.283Z" transform="translate(9.784 9.998)" fill="#5793ce"/>
    <g id="Group_584" data-name="Group 584" transform="translate(264.039 242.613)">
      <ellipse id="Ellipse_82" data-name="Ellipse 82" cx="31.117" cy="17.965" rx="31.117" ry="17.965" transform="translate(8.273 137.29)" fill="#d4ecff" opacity="0.5"/>
      <g id="Group_583" data-name="Group 583" transform="translate(18.224 16.51)">
        <path id="Path_1482" data-name="Path 1482" d="M300.8,367.1a4.8,4.8,0,0,1,2.71,4.8,8.055,8.055,0,0,1-.4,2.348c-.557,1.171-2.386,2.777-5.3,1.624s-9.4-7.241-9.64-11.226C287.726,357.244,296.191,365.127,300.8,367.1Z" transform="translate(-264.794 -236.05)" fill="#173d7a"/>
        <path id="Path_1483" data-name="Path 1483" d="M285.855,378.2s.7,4.267.36,5.049-2.37,2.452-5.371,2.091-11.629-3.337-13.552-9.024c-2.979-8.818,16.659.661,16.659.661Z" transform="translate(-266.985 -234.91)" fill="#173d7a"/>
        <path id="Path_1484" data-name="Path 1484" d="M276.507,316.212l-.669,66.623a4.667,4.667,0,0,0,3.629,4.618c.253.043.522.077.811.1a4.148,4.148,0,0,0,3.958-1.638,4.881,4.881,0,0,0,.891-2.689l.851-28.441,4.246-25.428,5.875,45a3.888,3.888,0,0,0,1.614,2.964,4.5,4.5,0,0,0,2.678.726,4.922,4.922,0,0,0,3.561-1.753,3.572,3.572,0,0,0,.851-2.41l-2.329-27.079-.866-34.54Z" transform="translate(-266.069 -241.148)" fill="#d4ecff"/>
        <path id="Path_1485" data-name="Path 1485" d="M284.758,261.8l1.054,6.071a2.783,2.783,0,0,1-2.274,2.645c-2.312.574-3.027-.919-3.027-.919l-1.046-6.837Z" transform="translate(-265.694 -246.37)" fill="#ffc2b0"/>
        <path id="Path_1486" data-name="Path 1486" d="M273.371,263.428c3.864,3.849,9.766,4.17,13.18.718s3.051-9.371-.813-13.218-9.765-4.17-13.18-.718S269.506,259.58,273.371,263.428Z" transform="translate(-266.651 -247.817)" fill="#ffc2b0"/>
        <path id="Path_1487" data-name="Path 1487" d="M285.069,267.658c.16-.065,9.812-6.28,13.38.224,5.817,10.6,5.475,44.741,3.638,49.163-1.7,4.093-5.944,7.11-8.919,8.809a17.808,17.808,0,0,1-8.658,2.463c-3.016.024-8.8-2.657-8.589-6.6.966-18.135-.638-33.422-2.119-48.255C273.8,273.462,275.652,271.47,285.069,267.658Z" transform="translate(-266.28 -246.048)" fill="#5793ce"/>
        <path id="Path_1488" data-name="Path 1488" d="M288.875,327.758l5.875,45a3.888,3.888,0,0,0,1.614,2.964,4.231,4.231,0,0,0,.5.284c-1.219-.915-4.78-38.691-5.439-42.893S288.875,327.758,288.875,327.758Z" transform="translate(-264.72 -239.546)" fill="#396caa"/>
      </g>
      <path id="Path_1489" data-name="Path 1489" d="M256.534,270.934l-5.245-17.177,2.77-1.148,6.183,13.461Z" transform="translate(-250.386 -230.811)" fill="#ffc2b0"/>
      <path id="Path_1490" data-name="Path 1490" d="M304.616,258.623l-3.931-17.884-3.131.034,1.176,14.832Z" transform="translate(-245.599 -232.039)" fill="#ffc2b0"/>
      <path id="Path_1491" data-name="Path 1491" d="M275.645,273.59s-9.424,1.88-15.415-9.091a1.49,1.49,0,0,0-2.486-.262c-.961,1.464-2.233,3.707-1.575,6.13,2.919,10.724,18.76,13.093,21.6,19.312S275.645,273.59,275.645,273.59Z" transform="translate(-249.9 -229.665)" fill="#5793ce"/>
      <path id="Path_1492" data-name="Path 1492" d="M289.561,266.659s7.463.574,8.536-5.886a49.375,49.375,0,0,0,.75-6.458,1.3,1.3,0,0,1,1.463-1.266c1.788.222,4.554.755,4.929,1.952.561,1.789,1.616,10.56-5.756,24.019C294.656,287.838,289.561,266.659,289.561,266.659Z" transform="translate(-246.426 -230.766)" fill="#5793ce"/>
      <path id="Path_1493" data-name="Path 1493" d="M301.118,241.6l-.072-2.039a4.2,4.2,0,0,0-.609-2.036l-2.067-3.4-.54-.68a1.571,1.571,0,0,0-2.066-.353l-.476.3a1.954,1.954,0,0,0-.909,1.779l1.069,2.9-1.352-.262a.48.48,0,0,0-.564.386h0a.478.478,0,0,0,.292.53l2.208.892,2.006,2.838Z" transform="translate(-246.015 -232.855)" fill="#ffc2b0"/>
      <path id="Path_1494" data-name="Path 1494" d="M251.3,254.654l-.625-1.942a4.2,4.2,0,0,1-.119-2.122l.791-3.9.277-.822a1.57,1.57,0,0,1,1.823-1.033l.548.119a1.956,1.956,0,0,1,1.46,1.364l-.021,3.093,1.183-.706a.481.481,0,0,1,.662.172h0a.48.48,0,0,1-.1.6l-1.774,1.588-1.036,3.766Z" transform="translate(-250.47 -231.619)" fill="#ffc2b0"/>
      <path id="Path_1495" data-name="Path 1495" d="M279.662,285.349c.86,3.918-1.55,34.331,6.3,41.86-3.016.024-8.8-2.658-8.589-6.6a241.244,241.244,0,0,0-.719-33.35c-3.078-3.987-11.542-6.525-16.839-11.637C260.2,275.741,278.813,281.47,279.662,285.349Z" transform="translate(-249.504 -228.43)" fill="#396caa"/>
      <path id="Path_1496" data-name="Path 1496" d="M288.035,265.976,286.7,264.6s-2.206,2.252-3.976,2.643a20.779,20.779,0,0,1-3.174.657l-.863,2.379S285.7,269.775,288.035,265.976Z" transform="translate(-247.551 -229.57)" fill="#fff"/>
      <path id="Path_1497" data-name="Path 1497" d="M279.435,260.847a1.132,1.132,0,0,1-1.041,0c-.57-.3-1.5-2.569-2.681-2.4-1.856.259-4.544,4.156-7.89-1.279-1.739-2.826-.719-4.351-1.566-5.954,0,0,.3.871,7.582-3.576s13.242.973,15.088,4.072,3.046,9.153-1.735,12.571c-.793.566-5.895-.445-6-.872s1.261-1.115.489-2.115A1.6,1.6,0,0,0,279.435,260.847Z" transform="translate(-248.837 -231.499)" fill="#173d7a"/>
    </g>
    <path id="Path_1498" data-name="Path 1498" d="M221.228,373.653a.962.962,0,0,1-.488-.134l-51.3-30.38a.959.959,0,1,1,.975-1.651l51.3,30.38a.959.959,0,0,1-.491,1.784Z" transform="translate(5.136 20.984)" fill="#5793ce"/>
    <g id="Group_604" data-name="Group 604" transform="translate(119.332 171.274)">
      <g id="Group_596" data-name="Group 596">
        <g id="Group_587" data-name="Group 587">
          <path id="Path_1499" data-name="Path 1499" d="M119.344,344.885h0V206.165l55.148-14.433,10.157-5.865c2.332-1.346,6.4-1.177,9.095.376l9.478,5.472,29.414-.017-8.71,133.915a2.637,2.637,0,0,1-1.561,2.438L167.33,369.576c-2.332,1.345-6.4,1.176-9.095-.377l-36.677-21.176C120.006,347.127,119.256,345.966,119.344,344.885Z" transform="translate(-119.331 -166.472)" fill="#396caa"/>
          <path id="Path_1500" data-name="Path 1500" d="M184.826,184.964a10.491,10.491,0,0,1,4.875,1.278l9.478,5.472,29.414-.017V330.791a2.633,2.633,0,0,1-1.561,2.436l-63.744,36.348a8.23,8.23,0,0,1-4.221.9l-.658-139.963Z" transform="translate(-115.289 -166.471)" fill="#d4ecff"/>
          <path id="Path_1501" data-name="Path 1501" d="M162.981,365.745a10.355,10.355,0,0,1-7.27-.083V224.744h7.27Z" transform="translate(-115.568 -162.355)" fill="#5793ce"/>
          <path id="Path_1502" data-name="Path 1502" d="M167.331,232.265l63.744-36.347c2.332-1.346,2.039-3.7-.653-5.251L193.744,169.49c-2.691-1.554-6.763-1.723-9.095-.376l-63.744,36.347c-2.331,1.346-2.039,3.7.653,5.25l36.677,21.176C160.927,233.442,165,233.611,167.331,232.265Z" transform="translate(-119.332 -168.205)" fill="#d4ecff"/>
          <path id="Path_1503" data-name="Path 1503" d="M121.558,205.873l36.677,21.176c2.691,1.554,6.763,1.723,9.095.377l63.744-36.348a3.507,3.507,0,0,0,1.163-1.032c.8,1.289.438,2.687-1.163,3.612L167.33,230c-2.332,1.346-6.4,1.177-9.095-.377l-36.677-21.176c-2.092-1.207-2.728-2.894-1.816-4.219A5.083,5.083,0,0,0,121.558,205.873Z" transform="translate(-119.331 -165.945)" fill="#fafdff"/>
          <g id="Group_586" data-name="Group 586" transform="translate(23.735 11.759)">
            <path id="Path_1504" data-name="Path 1504" d="M163.3,216.431l42.439-24.6c1.09-.63.953-1.73-.306-2.457l-17.163-9.909a4.733,4.733,0,0,0-4.256-.177l-42.439,24.6c-1.09.629-.953,1.729.306,2.456l17.163,9.909A4.73,4.73,0,0,0,163.3,216.431Z" transform="translate(-140.841 -178.862)" fill="#173d7a"/>
            <g id="Group_585" data-name="Group 585" transform="translate(17.617 10.859)">
              <path id="Path_1505" data-name="Path 1505" d="M182.25,191.916l2.46-1.419c.151-.087.131-.239-.043-.34l-2.375-1.372a.653.653,0,0,0-.588-.024l-2.46,1.42c-.15.087-.131.239.043.34l2.374,1.371A.656.656,0,0,0,182.25,191.916Z" transform="translate(-154.495 -188.703)" fill="#d4ecff"/>
              <path id="Path_1506" data-name="Path 1506" d="M174.805,196.2l2.459-1.419c.151-.087.132-.239-.042-.34l-2.375-1.372a.656.656,0,0,0-.589-.024l-2.459,1.42c-.151.087-.132.239.042.34l2.375,1.37A.652.652,0,0,0,174.805,196.2Z" transform="translate(-155.266 -188.26)" fill="#ff2c9c"/>
              <path id="Path_1507" data-name="Path 1507" d="M167.359,200.479l2.46-1.42c.151-.087.131-.239-.042-.34l-2.375-1.372a.656.656,0,0,0-.589-.024l-2.46,1.42c-.15.087-.131.239.043.34l2.375,1.372A.653.653,0,0,0,167.359,200.479Z" transform="translate(-156.036 -187.817)" fill="#d4ecff"/>
              <path id="Path_1508" data-name="Path 1508" d="M159.914,204.76l2.459-1.42c.151-.087.132-.239-.042-.34l-2.375-1.371a.653.653,0,0,0-.589-.025l-2.459,1.42c-.151.087-.132.239.042.34l2.375,1.372A.656.656,0,0,0,159.914,204.76Z" transform="translate(-156.806 -187.374)" fill="#d4ecff"/>
            </g>
            <path id="Path_1509" data-name="Path 1509" d="M205.741,191.83l-.051.029c-.083-.058-.159-.12-.255-.175l-17.163-9.909a4.73,4.73,0,0,0-4.256-.175L141.627,206.17c-1.005-.719-1.058-1.7-.051-2.281l42.439-24.6a4.733,4.733,0,0,1,4.256.177l17.163,9.909C206.694,190.1,206.831,191.2,205.741,191.83Z" transform="translate(-140.84 -178.862)" fill="#5793ce"/>
          </g>
        </g>
        <g id="Group_589" data-name="Group 589" transform="translate(5.154 62.247)">
          <path id="Path_1510" data-name="Path 1510" d="M150.591,253.912,126.462,240.1A5.885,5.885,0,0,1,124,235.4v-8.629c0-1.81,1.1-2.642,2.459-1.858l24.13,13.815a5.891,5.891,0,0,1,2.459,4.7v8.629C153.05,253.863,151.948,254.7,150.591,253.912Z" transform="translate(-124.003 -224.616)" fill="#173d7a"/>
          <path id="Path_1511" data-name="Path 1511" d="M125.266,224.647a2.413,2.413,0,0,0-.617,1.8v8.629a5.888,5.888,0,0,0,2.459,4.7l24.13,13.815a1.766,1.766,0,0,0,1.2.26,1.468,1.468,0,0,1-1.842.064l-24.13-13.817a5.885,5.885,0,0,1-2.459-4.7v-8.629C124,225.536,124.516,224.775,125.266,224.647Z" transform="translate(-124.003 -224.613)" fill="#fff"/>
          <g id="Group_588" data-name="Group 588" transform="translate(9.18 10.513)">
            <path id="Path_1512" data-name="Path 1512" d="M141.779,243.152l-2.214-1.278a1.286,1.286,0,0,1-.536-1.024v-2.365c0-.394.241-.576.536-.4l2.214,1.278a1.284,1.284,0,0,1,.536,1.024v2.365C142.315,243.141,142.075,243.323,141.779,243.152Z" transform="translate(-131.628 -233.742)" fill="#396caa"/>
            <path id="Path_1513" data-name="Path 1513" d="M135.072,239.279,132.858,238a1.281,1.281,0,0,1-.536-1.024v-2.364c0-.4.239-.576.536-.406l2.214,1.279a1.281,1.281,0,0,1,.535,1.023v2.365C135.607,239.269,135.368,239.45,135.072,239.279Z" transform="translate(-132.322 -234.143)" fill="#fff"/>
          </g>
        </g>
        <g id="Group_591" data-name="Group 591" transform="translate(5.154 124.602)">
          <path id="Path_1514" data-name="Path 1514" d="M150.591,310.42,126.462,296.6a5.885,5.885,0,0,1-2.459-4.7v-8.629c0-1.81,1.1-2.643,2.459-1.858l24.13,13.815a5.89,5.89,0,0,1,2.459,4.7v8.629C153.05,310.371,151.948,311.2,150.591,310.42Z" transform="translate(-124.003 -281.123)" fill="#173d7a"/>
          <path id="Path_1515" data-name="Path 1515" d="M125.266,281.155a2.413,2.413,0,0,0-.617,1.8v8.629a5.888,5.888,0,0,0,2.459,4.7l24.13,13.815a1.773,1.773,0,0,0,1.2.26,1.467,1.467,0,0,1-1.842.064L126.462,296.6A5.885,5.885,0,0,1,124,291.9v-8.629C124,282.044,124.516,281.283,125.266,281.155Z" transform="translate(-124.003 -281.12)" fill="#fff"/>
          <g id="Group_590" data-name="Group 590" transform="translate(9.18 10.514)">
            <path id="Path_1516" data-name="Path 1516" d="M141.779,299.66l-2.214-1.279a1.282,1.282,0,0,1-.536-1.023v-2.365c0-.4.241-.576.536-.4l2.214,1.278a1.284,1.284,0,0,1,.536,1.024v2.364C142.315,299.649,142.075,299.831,141.779,299.66Z" transform="translate(-131.628 -290.251)" fill="#ff2c9c"/>
            <path id="Path_1517" data-name="Path 1517" d="M135.072,295.786l-2.214-1.278a1.281,1.281,0,0,1-.536-1.024v-2.364c0-.4.239-.576.536-.406l2.214,1.279a1.281,1.281,0,0,1,.535,1.023v2.365C135.607,295.777,135.368,295.958,135.072,295.786Z" transform="translate(-132.322 -290.651)" fill="#fff"/>
          </g>
        </g>
        <g id="Group_593" data-name="Group 593" transform="translate(5.154 155.779)">
          <path id="Path_1518" data-name="Path 1518" d="M150.591,338.673l-24.13-13.815a5.885,5.885,0,0,1-2.459-4.7v-8.629c0-1.81,1.1-2.643,2.459-1.858l24.13,13.815a5.888,5.888,0,0,1,2.459,4.7v8.629C153.05,338.625,151.948,339.457,150.591,338.673Z" transform="translate(-124.003 -309.377)" fill="#173d7a"/>
          <path id="Path_1519" data-name="Path 1519" d="M125.266,309.409a2.413,2.413,0,0,0-.617,1.8v8.629a5.888,5.888,0,0,0,2.459,4.7l24.13,13.815a1.772,1.772,0,0,0,1.2.26,1.466,1.466,0,0,1-1.842.063l-24.13-13.815a5.885,5.885,0,0,1-2.459-4.7v-8.629C124,310.3,124.516,309.537,125.266,309.409Z" transform="translate(-124.003 -309.374)" fill="#fff"/>
          <g id="Group_592" data-name="Group 592" transform="translate(9.18 10.513)">
            <path id="Path_1520" data-name="Path 1520" d="M141.779,327.914l-2.214-1.279a1.282,1.282,0,0,1-.536-1.023v-2.365c0-.4.241-.576.536-.4l2.214,1.278a1.284,1.284,0,0,1,.536,1.024v2.365C142.315,327.9,142.075,328.083,141.779,327.914Z" transform="translate(-131.628 -318.504)" fill="#396caa"/>
            <path id="Path_1521" data-name="Path 1521" d="M135.072,324.041l-2.214-1.278a1.281,1.281,0,0,1-.536-1.024v-2.364c0-.4.239-.577.536-.406l2.214,1.278a1.285,1.285,0,0,1,.535,1.024v2.365C135.607,324.031,135.368,324.212,135.072,324.041Z" transform="translate(-132.322 -318.905)" fill="#fff"/>
          </g>
        </g>
        <g id="Group_595" data-name="Group 595" transform="translate(5.154 93.425)">
          <path id="Path_1522" data-name="Path 1522" d="M150.591,282.165l-24.13-13.815a5.885,5.885,0,0,1-2.459-4.7v-8.629c0-1.81,1.1-2.642,2.459-1.858l24.13,13.815a5.89,5.89,0,0,1,2.459,4.7v8.629C153.05,282.117,151.948,282.949,150.591,282.165Z" transform="translate(-124.003 -252.87)" fill="#173d7a"/>
          <path id="Path_1523" data-name="Path 1523" d="M125.266,252.9a2.413,2.413,0,0,0-.617,1.8v8.629a5.888,5.888,0,0,0,2.459,4.7l24.13,13.815a1.773,1.773,0,0,0,1.2.26,1.466,1.466,0,0,1-1.842.063l-24.13-13.815a5.885,5.885,0,0,1-2.459-4.7V255.02C124,253.79,124.516,253.029,125.266,252.9Z" transform="translate(-124.003 -252.867)" fill="#fff"/>
          <g id="Group_594" data-name="Group 594" transform="translate(9.18 10.514)">
            <path id="Path_1524" data-name="Path 1524" d="M141.779,271.406l-2.214-1.278a1.286,1.286,0,0,1-.536-1.024v-2.365c0-.4.241-.576.536-.4l2.214,1.278a1.284,1.284,0,0,1,.536,1.024V271C142.315,271.395,142.075,271.576,141.779,271.406Z" transform="translate(-131.628 -261.997)" fill="#396caa"/>
            <path id="Path_1525" data-name="Path 1525" d="M135.072,267.532l-2.214-1.278a1.281,1.281,0,0,1-.536-1.024v-2.364c0-.4.239-.576.536-.4l2.214,1.278a1.281,1.281,0,0,1,.535,1.023v2.365C135.607,267.523,135.368,267.7,135.072,267.532Z" transform="translate(-132.322 -262.398)" fill="#fff"/>
          </g>
        </g>
      </g>
      <g id="Group_597" data-name="Group 597" transform="translate(50.386 33.667)">
        <path id="Path_1526" data-name="Path 1526" d="M167.25,247.759l55.669-32.141a5.4,5.4,0,0,0,2.257-4.311V200.691c0-1.661-1.011-2.424-2.257-1.7L167.25,231.127a5.4,5.4,0,0,0-2.257,4.31v10.615C164.993,247.714,166,248.477,167.25,247.759Z" transform="translate(-164.993 -198.716)" fill="#5793ce"/>
        <path id="Path_1527" data-name="Path 1527" d="M168.593,243.675l52.473-30.3a2.741,2.741,0,0,0,1.144-2.187v-7.98c0-.843-.512-1.23-1.144-.865l-52.473,30.295a2.741,2.741,0,0,0-1.144,2.187v7.98C167.449,243.652,167.961,244.039,168.593,243.675Z" transform="translate(-164.739 -198.354)" fill="#d4ecff" opacity="0.4"/>
        <path id="Path_1528" data-name="Path 1528" d="M206.233,215.111l7.831-4.521a2.663,2.663,0,0,0,1.111-2.124h0c0-.818-.5-1.194-1.111-.84l-7.831,4.521a2.663,2.663,0,0,0-1.111,2.124h0C205.122,215.09,205.62,215.466,206.233,215.111Z" transform="translate(-160.841 -197.807)" fill="#d4ecff"/>
        <path id="Path_1529" data-name="Path 1529" d="M200.081,216.771c0,.819.575,1.15,1.283.74a2.836,2.836,0,0,0,1.284-2.222c0-.819-.575-1.151-1.284-.742A2.838,2.838,0,0,0,200.081,216.771Z" transform="translate(-161.363 -197.096)" fill="#173d7a"/>
        <path id="Path_1530" data-name="Path 1530" d="M195.978,219.14c0,.819.575,1.15,1.283.74a2.834,2.834,0,0,0,1.283-2.222c0-.819-.574-1.151-1.283-.742A2.839,2.839,0,0,0,195.978,219.14Z" transform="translate(-161.787 -196.851)" fill="#173d7a"/>
        <path id="Path_1531" data-name="Path 1531" d="M191.875,221.509c0,.819.574,1.15,1.283.742a2.838,2.838,0,0,0,1.283-2.223c0-.819-.575-1.151-1.283-.742A2.836,2.836,0,0,0,191.875,221.509Z" transform="translate(-162.212 -196.605)" fill="#d4ecff"/>
        <path id="Path_1532" data-name="Path 1532" d="M187.771,223.878c0,.819.575,1.15,1.283.74a2.833,2.833,0,0,0,1.284-2.222c0-.819-.575-1.151-1.284-.742A2.839,2.839,0,0,0,187.771,223.878Z" transform="translate(-162.636 -196.36)" fill="#173d7a"/>
        <path id="Path_1533" data-name="Path 1533" d="M170.553,236.35l2.637-1.523a1.708,1.708,0,0,0,.714-1.363v-2.791c0-.525-.32-.767-.714-.54l-2.637,1.523a1.708,1.708,0,0,0-.713,1.363v2.791C169.84,236.337,170.159,236.577,170.553,236.35Z" transform="translate(-164.491 -195.474)" fill="#173d7a"/>
      </g>
      <g id="Group_598" data-name="Group 598" transform="translate(50.386 52.385)">
        <path id="Path_1534" data-name="Path 1534" d="M167.25,264.722l55.669-32.141a5.4,5.4,0,0,0,2.257-4.31V217.655c0-1.662-1.011-2.425-2.257-1.706L167.25,248.09a5.4,5.4,0,0,0-2.257,4.311v10.615C164.993,264.677,166,265.441,167.25,264.722Z" transform="translate(-164.993 -215.679)" fill="#5793ce"/>
        <path id="Path_1535" data-name="Path 1535" d="M168.593,260.638l52.473-30.295a2.743,2.743,0,0,0,1.144-2.187v-7.981c0-.842-.512-1.229-1.144-.865l-52.473,30.3a2.741,2.741,0,0,0-1.144,2.187v7.98C167.449,260.616,167.961,261,168.593,260.638Z" transform="translate(-164.739 -215.317)" fill="#d4ecff" opacity="0.4"/>
        <path id="Path_1536" data-name="Path 1536" d="M206.233,232.075l7.831-4.521a2.664,2.664,0,0,0,1.111-2.124h0c0-.819-.5-1.2-1.111-.84l-7.831,4.521a2.663,2.663,0,0,0-1.111,2.124h0C205.122,232.053,205.62,232.43,206.233,232.075Z" transform="translate(-160.841 -214.77)" fill="#d4ecff"/>
        <path id="Path_1537" data-name="Path 1537" d="M200.081,233.735c0,.818.575,1.15,1.283.74a2.837,2.837,0,0,0,1.284-2.223c0-.818-.575-1.15-1.284-.74A2.839,2.839,0,0,0,200.081,233.735Z" transform="translate(-161.363 -214.059)" fill="#fff"/>
        <path id="Path_1538" data-name="Path 1538" d="M195.978,236.1c0,.818.575,1.15,1.283.74a2.836,2.836,0,0,0,1.283-2.223c0-.818-.574-1.15-1.283-.74A2.838,2.838,0,0,0,195.978,236.1Z" transform="translate(-161.787 -213.813)" fill="#173d7a"/>
        <path id="Path_1539" data-name="Path 1539" d="M191.875,238.473c0,.818.574,1.15,1.283.74a2.838,2.838,0,0,0,1.283-2.222c0-.819-.575-1.151-1.283-.742A2.836,2.836,0,0,0,191.875,238.473Z" transform="translate(-162.212 -213.568)" fill="#d4ecff"/>
        <path id="Path_1540" data-name="Path 1540" d="M187.771,240.842c0,.818.575,1.15,1.283.74a2.836,2.836,0,0,0,1.284-2.222c0-.819-.575-1.151-1.284-.742A2.838,2.838,0,0,0,187.771,240.842Z" transform="translate(-162.636 -213.323)" fill="#173d7a"/>
        <path id="Path_1541" data-name="Path 1541" d="M170.553,253.314l2.637-1.523a1.708,1.708,0,0,0,.714-1.363v-2.791c0-.525-.32-.767-.714-.54l-2.637,1.523a1.708,1.708,0,0,0-.713,1.363v2.791C169.84,253.3,170.159,253.541,170.553,253.314Z" transform="translate(-164.491 -212.437)" fill="#173d7a"/>
      </g>
      <g id="Group_599" data-name="Group 599" transform="translate(50.386 71.105)">
        <path id="Path_1542" data-name="Path 1542" d="M167.25,281.686l55.669-32.141a5.4,5.4,0,0,0,2.257-4.31V234.619c0-1.662-1.011-2.425-2.257-1.706L167.25,265.054a5.4,5.4,0,0,0-2.257,4.311V279.98C164.993,281.641,166,282.405,167.25,281.686Z" transform="translate(-164.993 -232.643)" fill="#5793ce"/>
        <path id="Path_1543" data-name="Path 1543" d="M168.593,277.6l52.473-30.3a2.739,2.739,0,0,0,1.144-2.187v-7.98c0-.843-.512-1.23-1.144-.865l-52.473,30.3a2.741,2.741,0,0,0-1.144,2.187v7.98C167.449,277.58,167.961,277.967,168.593,277.6Z" transform="translate(-164.739 -232.281)" fill="#d4ecff" opacity="0.4"/>
        <path id="Path_1544" data-name="Path 1544" d="M206.233,249.039l7.831-4.522a2.661,2.661,0,0,0,1.111-2.123h0c0-.819-.5-1.2-1.111-.841l-7.831,4.522a2.662,2.662,0,0,0-1.111,2.123h0C205.122,249.017,205.62,249.394,206.233,249.039Z" transform="translate(-160.841 -231.734)" fill="#d4ecff"/>
        <path id="Path_1545" data-name="Path 1545" d="M200.081,250.7c0,.819.575,1.151,1.283.742a2.837,2.837,0,0,0,1.284-2.223c0-.819-.575-1.15-1.284-.74A2.837,2.837,0,0,0,200.081,250.7Z" transform="translate(-161.363 -231.023)" fill="#fff"/>
        <path id="Path_1546" data-name="Path 1546" d="M195.978,253.067c0,.819.575,1.151,1.283.742a2.836,2.836,0,0,0,1.283-2.223c0-.819-.574-1.15-1.283-.74A2.838,2.838,0,0,0,195.978,253.067Z" transform="translate(-161.787 -230.777)" fill="#173d7a"/>
        <path id="Path_1547" data-name="Path 1547" d="M191.875,255.436c0,.819.574,1.151,1.283.742a2.838,2.838,0,0,0,1.283-2.223c0-.819-.575-1.15-1.283-.74A2.835,2.835,0,0,0,191.875,255.436Z" transform="translate(-162.212 -230.532)" fill="#d4ecff"/>
        <path id="Path_1548" data-name="Path 1548" d="M187.771,257.8c0,.819.575,1.151,1.283.742a2.837,2.837,0,0,0,1.284-2.223c0-.818-.575-1.15-1.284-.74A2.838,2.838,0,0,0,187.771,257.8Z" transform="translate(-162.636 -230.287)" fill="#173d7a"/>
        <path id="Path_1549" data-name="Path 1549" d="M170.553,270.278l2.637-1.524a1.708,1.708,0,0,0,.714-1.363V264.6c0-.525-.32-.767-.714-.538l-2.637,1.523a1.708,1.708,0,0,0-.713,1.363v2.791C169.84,270.264,170.159,270.505,170.553,270.278Z" transform="translate(-164.491 -229.401)" fill="#173d7a"/>
      </g>
      <g id="Group_600" data-name="Group 600" transform="translate(50.386 89.824)">
        <path id="Path_1550" data-name="Path 1550" d="M167.25,298.65l55.669-32.141a5.4,5.4,0,0,0,2.257-4.311V251.582c0-1.661-1.011-2.424-2.257-1.7L167.25,282.018a5.4,5.4,0,0,0-2.257,4.31v10.615C164.993,298.605,166,299.369,167.25,298.65Z" transform="translate(-164.993 -249.607)" fill="#5793ce"/>
        <path id="Path_1551" data-name="Path 1551" d="M168.593,294.566l52.473-30.3a2.741,2.741,0,0,0,1.144-2.187V254.1c0-.843-.512-1.23-1.144-.865l-52.473,30.295a2.743,2.743,0,0,0-1.144,2.187v7.98C167.449,294.543,167.961,294.93,168.593,294.566Z" transform="translate(-164.739 -249.245)" fill="#d4ecff" opacity="0.4"/>
        <path id="Path_1552" data-name="Path 1552" d="M206.233,266l7.831-4.521a2.663,2.663,0,0,0,1.111-2.124h0c0-.818-.5-1.194-1.111-.84l-7.831,4.521a2.664,2.664,0,0,0-1.111,2.124h0C205.122,265.981,205.62,266.358,206.233,266Z" transform="translate(-160.841 -248.698)" fill="#d4ecff"/>
        <path id="Path_1553" data-name="Path 1553" d="M200.081,267.662c0,.819.575,1.15,1.283.74a2.833,2.833,0,0,0,1.284-2.222c0-.819-.575-1.151-1.284-.742A2.839,2.839,0,0,0,200.081,267.662Z" transform="translate(-161.363 -247.987)" fill="#173d7a"/>
        <path id="Path_1554" data-name="Path 1554" d="M195.978,270.031c0,.819.575,1.15,1.283.742a2.836,2.836,0,0,0,1.283-2.223c0-.819-.574-1.15-1.283-.742A2.838,2.838,0,0,0,195.978,270.031Z" transform="translate(-161.787 -247.741)" fill="#173d7a"/>
        <path id="Path_1555" data-name="Path 1555" d="M191.875,272.4c0,.819.574,1.15,1.283.742a2.838,2.838,0,0,0,1.283-2.223c0-.819-.575-1.15-1.283-.742A2.836,2.836,0,0,0,191.875,272.4Z" transform="translate(-162.212 -247.496)" fill="#d4ecff"/>
        <path id="Path_1556" data-name="Path 1556" d="M187.771,274.769c0,.819.575,1.15,1.283.742a2.837,2.837,0,0,0,1.284-2.224c0-.819-.575-1.15-1.284-.74A2.835,2.835,0,0,0,187.771,274.769Z" transform="translate(-162.636 -247.251)" fill="#173d7a"/>
        <path id="Path_1557" data-name="Path 1557" d="M170.553,287.241l2.637-1.523a1.708,1.708,0,0,0,.714-1.363v-2.791c0-.525-.32-.767-.714-.54l-2.637,1.523a1.708,1.708,0,0,0-.713,1.363V286.7C169.84,287.228,170.159,287.468,170.553,287.241Z" transform="translate(-164.491 -246.365)" fill="#d4ecff"/>
      </g>
      <g id="Group_601" data-name="Group 601" transform="translate(50.386 108.542)">
        <path id="Path_1558" data-name="Path 1558" d="M167.25,315.613l55.669-32.141a5.4,5.4,0,0,0,2.257-4.31V268.546c0-1.662-1.011-2.425-2.257-1.706L167.25,298.981a5.4,5.4,0,0,0-2.257,4.311v10.615C164.993,315.568,166,316.332,167.25,315.613Z" transform="translate(-164.993 -266.57)" fill="#5793ce"/>
        <path id="Path_1559" data-name="Path 1559" d="M168.593,311.529l52.473-30.295a2.741,2.741,0,0,0,1.144-2.187v-7.98c0-.843-.512-1.23-1.144-.865L168.593,300.5a2.741,2.741,0,0,0-1.144,2.187v7.98C167.449,311.507,167.961,311.894,168.593,311.529Z" transform="translate(-164.739 -266.208)" fill="#d4ecff" opacity="0.4"/>
        <path id="Path_1560" data-name="Path 1560" d="M206.233,282.966l7.831-4.521a2.663,2.663,0,0,0,1.111-2.124h0c0-.819-.5-1.194-1.111-.84L206.233,280a2.663,2.663,0,0,0-1.111,2.124h0C205.122,282.944,205.62,283.321,206.233,282.966Z" transform="translate(-160.841 -265.661)" fill="#d4ecff"/>
        <path id="Path_1561" data-name="Path 1561" d="M200.081,284.626c0,.818.575,1.15,1.283.74a2.836,2.836,0,0,0,1.284-2.222c0-.819-.575-1.151-1.284-.742A2.839,2.839,0,0,0,200.081,284.626Z" transform="translate(-161.363 -264.95)" fill="#173d7a"/>
        <path id="Path_1562" data-name="Path 1562" d="M195.978,286.995c0,.819.575,1.15,1.283.74a2.835,2.835,0,0,0,1.283-2.222c0-.819-.574-1.151-1.283-.742A2.838,2.838,0,0,0,195.978,286.995Z" transform="translate(-161.787 -264.704)" fill="#fff"/>
        <path id="Path_1563" data-name="Path 1563" d="M191.875,289.364c0,.818.574,1.15,1.283.74a2.838,2.838,0,0,0,1.283-2.222c0-.819-.575-1.151-1.283-.742A2.836,2.836,0,0,0,191.875,289.364Z" transform="translate(-162.212 -264.459)" fill="#d4ecff"/>
        <path id="Path_1564" data-name="Path 1564" d="M187.771,291.733c0,.819.575,1.15,1.283.74a2.836,2.836,0,0,0,1.284-2.222c0-.819-.575-1.151-1.284-.742A2.839,2.839,0,0,0,187.771,291.733Z" transform="translate(-162.636 -264.214)" fill="#fff"/>
        <path id="Path_1565" data-name="Path 1565" d="M170.553,304.2l2.637-1.523a1.708,1.708,0,0,0,.714-1.363v-2.791c0-.525-.32-.767-.714-.54l-2.637,1.523a1.708,1.708,0,0,0-.713,1.363v2.791C169.84,304.19,170.159,304.432,170.553,304.2Z" transform="translate(-164.491 -263.328)" fill="#d4ecff"/>
      </g>
      <g id="Group_602" data-name="Group 602" transform="translate(50.386 127.261)">
        <path id="Path_1566" data-name="Path 1566" d="M167.25,332.577l55.669-32.141a5.4,5.4,0,0,0,2.257-4.31V285.51c0-1.662-1.011-2.425-2.257-1.706L167.25,315.945a5.4,5.4,0,0,0-2.257,4.311v10.614C164.993,332.532,166,333.3,167.25,332.577Z" transform="translate(-164.993 -283.534)" fill="#5793ce"/>
        <path id="Path_1567" data-name="Path 1567" d="M168.593,328.493l52.473-30.3a2.739,2.739,0,0,0,1.144-2.187v-7.98c0-.842-.512-1.23-1.144-.865l-52.473,30.3a2.741,2.741,0,0,0-1.144,2.187v7.98C167.449,328.471,167.961,328.858,168.593,328.493Z" transform="translate(-164.739 -283.172)" fill="#d4ecff" opacity="0.4"/>
        <path id="Path_1568" data-name="Path 1568" d="M206.233,299.93l7.831-4.521a2.664,2.664,0,0,0,1.111-2.124h0c0-.819-.5-1.2-1.111-.841l-7.831,4.522a2.662,2.662,0,0,0-1.111,2.123h0C205.122,299.908,205.62,300.285,206.233,299.93Z" transform="translate(-160.841 -282.625)" fill="#d4ecff"/>
        <path id="Path_1569" data-name="Path 1569" d="M200.081,301.589c0,.819.575,1.151,1.283.742a2.837,2.837,0,0,0,1.284-2.223c0-.818-.575-1.15-1.284-.74A2.838,2.838,0,0,0,200.081,301.589Z" transform="translate(-161.363 -281.914)" fill="#173d7a"/>
        <path id="Path_1570" data-name="Path 1570" d="M195.978,303.958c0,.819.575,1.151,1.283.742a2.836,2.836,0,0,0,1.283-2.223c0-.818-.574-1.15-1.283-.74A2.838,2.838,0,0,0,195.978,303.958Z" transform="translate(-161.787 -281.668)" fill="#173d7a"/>
        <path id="Path_1571" data-name="Path 1571" d="M191.875,306.328c0,.818.574,1.15,1.283.74a2.838,2.838,0,0,0,1.283-2.223c0-.818-.575-1.15-1.283-.74A2.835,2.835,0,0,0,191.875,306.328Z" transform="translate(-162.212 -281.423)" fill="#d4ecff"/>
        <path id="Path_1572" data-name="Path 1572" d="M187.771,308.7c0,.819.575,1.151,1.283.742a2.837,2.837,0,0,0,1.284-2.224c0-.818-.575-1.15-1.284-.74A2.838,2.838,0,0,0,187.771,308.7Z" transform="translate(-162.636 -281.178)" fill="#173d7a"/>
        <path id="Path_1573" data-name="Path 1573" d="M170.553,321.169l2.637-1.523a1.709,1.709,0,0,0,.714-1.364v-2.791c0-.525-.32-.767-.714-.538l-2.637,1.523a1.708,1.708,0,0,0-.713,1.363v2.791C169.84,321.155,170.159,321.4,170.553,321.169Z" transform="translate(-164.491 -280.292)" fill="#173d7a"/>
      </g>
      <g id="Group_603" data-name="Group 603" transform="translate(50.386 145.98)">
        <path id="Path_1574" data-name="Path 1574" d="M167.25,349.541,222.918,317.4a5.4,5.4,0,0,0,2.257-4.311V302.473c0-1.661-1.011-2.424-2.257-1.7L167.25,332.909a5.4,5.4,0,0,0-2.257,4.31v10.615C164.993,349.5,166,350.26,167.25,349.541Z" transform="translate(-164.993 -300.498)" fill="#5793ce"/>
        <path id="Path_1575" data-name="Path 1575" d="M168.593,345.457l52.473-30.3a2.741,2.741,0,0,0,1.144-2.187v-7.98c0-.843-.512-1.23-1.144-.865l-52.473,30.3a2.739,2.739,0,0,0-1.144,2.186v7.981C167.449,345.435,167.961,345.822,168.593,345.457Z" transform="translate(-164.739 -300.136)" fill="#d4ecff" opacity="0.4"/>
        <path id="Path_1576" data-name="Path 1576" d="M206.233,316.893l7.831-4.521a2.662,2.662,0,0,0,1.111-2.123h0c0-.819-.5-1.2-1.111-.841l-7.831,4.522a2.661,2.661,0,0,0-1.111,2.123h0C205.122,316.872,205.62,317.249,206.233,316.893Z" transform="translate(-160.841 -299.589)" fill="#d4ecff"/>
        <path id="Path_1577" data-name="Path 1577" d="M198.784,319.671c0,1.546,1.086,2.173,2.424,1.4a5.36,5.36,0,0,0,2.425-4.2c0-1.546-1.086-2.173-2.425-1.4A5.358,5.358,0,0,0,198.784,319.671Z" transform="translate(-161.497 -298.983)" fill="#fff"/>
        <path id="Path_1578" data-name="Path 1578" d="M190.285,324.444c0,.819.575,1.151,1.284.742a2.838,2.838,0,0,0,1.283-2.223c0-.818-.575-1.15-1.283-.74A2.836,2.836,0,0,0,190.285,324.444Z" transform="translate(-162.376 -298.268)" fill="#173d7a"/>
        <path id="Path_1579" data-name="Path 1579" d="M186.182,326.813c0,.819.575,1.151,1.283.742a2.836,2.836,0,0,0,1.283-2.224c0-.818-.574-1.15-1.283-.74A2.838,2.838,0,0,0,186.182,326.813Z" transform="translate(-162.801 -298.023)" fill="#d4ecff"/>
        <path id="Path_1580" data-name="Path 1580" d="M182.079,329.183c0,.818.575,1.15,1.283.74a2.839,2.839,0,0,0,1.283-2.223c0-.818-.575-1.15-1.283-.74A2.839,2.839,0,0,0,182.079,329.183Z" transform="translate(-163.225 -297.778)" fill="#173d7a"/>
        <path id="Path_1581" data-name="Path 1581" d="M170.553,338.132l2.637-1.523a1.708,1.708,0,0,0,.714-1.363v-2.791c0-.525-.32-.767-.714-.54l-2.637,1.523a1.711,1.711,0,0,0-.713,1.364v2.791C169.84,338.119,170.159,338.36,170.553,338.132Z" transform="translate(-164.491 -297.256)" fill="#d4ecff"/>
      </g>
    </g>
  </g>
</svg>
