<svg xmlns="http://www.w3.org/2000/svg" width="163.04" height="24" viewBox="0 0 163.04 24">
  <g id="Group_1152" data-name="Group 1152" transform="translate(-150.299 -95.248)">
    <g id="Group_1150" data-name="Group 1150" transform="translate(232.556 95.248)">
      <path id="Path_2570" data-name="Path 2570" d="M194.858,96.06h8.22a16.35,16.35,0,0,1,3.249.312A7.433,7.433,0,0,1,209,97.45a5.469,5.469,0,0,1,1.811,2.064,7.052,7.052,0,0,1,.672,3.266,7.547,7.547,0,0,1-.624,3.249,5.325,5.325,0,0,1-1.719,2.1,7,7,0,0,1-2.6,1.109,15.24,15.24,0,0,1-3.249.329h-3.563v8.625h-4.875Zm4.875,9.376h3.251a6.292,6.292,0,0,0,1.265-.126,3.363,3.363,0,0,0,1.095-.421,2.265,2.265,0,0,0,.781-.814,2.569,2.569,0,0,0,.3-1.3,2.2,2.2,0,0,0-.391-1.361,2.6,2.6,0,0,0-1-.8,4.267,4.267,0,0,0-1.36-.36,13.983,13.983,0,0,0-1.436-.078h-2.5Z" transform="translate(-194.858 -94.561)" fill="#9a9a9a"/>
      <path id="Path_2571" data-name="Path 2571" d="M214.231,113.272h-.063a4.393,4.393,0,0,1-2.079,1.75,7.144,7.144,0,0,1-2.736.532,7.065,7.065,0,0,1-2.045-.3,5.169,5.169,0,0,1-1.735-.89,4.313,4.313,0,0,1-1.187-1.469,4.489,4.489,0,0,1-.437-2.032,4.652,4.652,0,0,1,.484-2.217,4.355,4.355,0,0,1,1.313-1.5,6.515,6.515,0,0,1,1.892-.921,13.774,13.774,0,0,1,2.2-.486,21.123,21.123,0,0,1,2.282-.186c.761-.02,1.462-.031,2.11-.031a2.437,2.437,0,0,0-.892-1.984,3.216,3.216,0,0,0-2.108-.735,4.622,4.622,0,0,0-2.112.484,5.763,5.763,0,0,0-1.7,1.329l-2.5-2.562a8.618,8.618,0,0,1,3.063-1.829,10.945,10.945,0,0,1,3.626-.609,9.454,9.454,0,0,1,3.391.517,4.906,4.906,0,0,1,2.123,1.516,5.818,5.818,0,0,1,1.111,2.452,16.221,16.221,0,0,1,.312,3.36v7.72h-4.312Zm-1.157-4.75q-.532,0-1.327.046a6.737,6.737,0,0,0-1.532.266,3.408,3.408,0,0,0-1.25.657,1.512,1.512,0,0,0-.515,1.218,1.337,1.337,0,0,0,.718,1.25,3.007,3.007,0,0,0,1.5.406,4.744,4.744,0,0,0,1.327-.186,3.956,3.956,0,0,0,1.141-.532,2.59,2.59,0,0,0,.8-.875,2.524,2.524,0,0,0,.3-1.25v-1Z" transform="translate(-187.167 -91.553)" fill="#9a9a9a"/>
      <path id="Path_2572" data-name="Path 2572" d="M212.836,95.248h4.689v10.063h.063a4.362,4.362,0,0,1,2.077-1.547,8.049,8.049,0,0,1,2.736-.454,6.176,6.176,0,0,1,2.906.672,6.716,6.716,0,0,1,2.173,1.8,8.458,8.458,0,0,1,1.375,2.577,9.622,9.622,0,0,1,.484,3.048,9.016,9.016,0,0,1-.532,3.155,7.258,7.258,0,0,1-1.516,2.487,6.835,6.835,0,0,1-2.359,1.624,7.826,7.826,0,0,1-3.062.578,5.237,5.237,0,0,1-1.532-.22,6.638,6.638,0,0,1-1.327-.561,5.607,5.607,0,0,1-1.063-.766,5.035,5.035,0,0,1-.733-.829h-.065v2h-4.312Zm4.312,16.031a3.936,3.936,0,0,0,.986,2.782,4.128,4.128,0,0,0,5.531,0,4.425,4.425,0,0,0,0-5.564,4.133,4.133,0,0,0-5.531,0A3.939,3.939,0,0,0,217.148,111.279Z" transform="translate(-179.648 -95.248)" fill="#9a9a9a"/>
      <path id="Path_2573" data-name="Path 2573" d="M222.452,95.248h4.687v23.625h-4.687Z" transform="translate(-171.513 -95.248)" fill="#9a9a9a"/>
      <path id="Path_2574" data-name="Path 2574" d="M225.668,107.584a7.953,7.953,0,0,1,.657-3.28,7.539,7.539,0,0,1,1.8-2.516,7.948,7.948,0,0,1,2.688-1.61,9.935,9.935,0,0,1,6.594,0,7.948,7.948,0,0,1,2.688,1.61,7.57,7.57,0,0,1,1.8,2.516,8.538,8.538,0,0,1,0,6.561,7.571,7.571,0,0,1-1.8,2.516,7.919,7.919,0,0,1-2.688,1.61,9.935,9.935,0,0,1-6.594,0,7.919,7.919,0,0,1-2.688-1.61,7.54,7.54,0,0,1-1.8-2.516A7.947,7.947,0,0,1,225.668,107.584Zm4.689,0a3.927,3.927,0,0,0,.984,2.782,4.128,4.128,0,0,0,5.531,0,4.419,4.419,0,0,0,0-5.564,4.133,4.133,0,0,0-5.531,0A3.93,3.93,0,0,0,230.357,107.584Z" transform="translate(-168.792 -91.553)" fill="#9a9a9a"/>
      <path id="Path_2575" data-name="Path 2575" d="M235.5,107.907a2.934,2.934,0,0,1,.218-1.126,2.824,2.824,0,0,1,.609-.921,2.794,2.794,0,0,1,.923-.609,3.01,3.01,0,0,1,2.248,0,2.793,2.793,0,0,1,.923.609,2.824,2.824,0,0,1,.609.921,2.991,2.991,0,0,1,0,2.25,2.756,2.756,0,0,1-1.532,1.532,3.01,3.01,0,0,1-2.248,0,2.756,2.756,0,0,1-1.532-1.532A2.911,2.911,0,0,1,235.5,107.907Z" transform="translate(-160.471 -86.97)"/>
    </g>
    <g id="Group_1151" data-name="Group 1151" transform="translate(150.299 95.351)">
      <path id="Path_2576" data-name="Path 2576" d="M162.894,101.272a3.5,3.5,0,0,0-1.61-1.109,5.806,5.806,0,0,0-1.924-.358,5.05,5.05,0,0,0-1.093.124,4.161,4.161,0,0,0-1.061.391,2.3,2.3,0,0,0-.812.7,1.945,1.945,0,0,0,.436,2.594,7.069,7.069,0,0,0,1.89.906q1.141.374,2.453.749a10.117,10.117,0,0,1,2.455,1.063,5.8,5.8,0,0,1,1.888,1.842,5.625,5.625,0,0,1,.751,3.1,7.111,7.111,0,0,1-.687,3.218,6.523,6.523,0,0,1-1.861,2.282A7.882,7.882,0,0,1,161,118.117a12.454,12.454,0,0,1-7.264-.22,9.973,9.973,0,0,1-3.439-2.125l3.469-3.812a5.064,5.064,0,0,0,1.892,1.547,5.4,5.4,0,0,0,2.357.546,5.311,5.311,0,0,0,1.2-.14,3.9,3.9,0,0,0,1.095-.423,2.339,2.339,0,0,0,.781-.718,1.8,1.8,0,0,0,.3-1.032,1.872,1.872,0,0,0-.766-1.576,7.034,7.034,0,0,0-1.922-.986q-1.155-.4-2.5-.812a11.219,11.219,0,0,1-2.5-1.093,6.008,6.008,0,0,1-1.922-1.813,5.186,5.186,0,0,1-.768-2.97,6.651,6.651,0,0,1,.7-3.125,6.8,6.8,0,0,1,1.876-2.248,8.151,8.151,0,0,1,2.7-1.361,11.117,11.117,0,0,1,3.157-.452,12.4,12.4,0,0,1,3.626.532,8.354,8.354,0,0,1,3.157,1.781Z" transform="translate(-150.299 -95.304)"/>
      <path id="Path_2577" data-name="Path 2577" d="M159.746,99.539h4.5V101.6h.063a3.788,3.788,0,0,1,.626-.875,4.468,4.468,0,0,1,.969-.781,5.55,5.55,0,0,1,1.279-.563,5.353,5.353,0,0,1,1.564-.218,5.936,5.936,0,0,1,2.828.655,4.144,4.144,0,0,1,1.859,2.062,5.078,5.078,0,0,1,1.97-2.093,5.909,5.909,0,0,1,2.845-.624,5.807,5.807,0,0,1,2.577.515,4.209,4.209,0,0,1,1.656,1.407,5.933,5.933,0,0,1,.875,2.093,11.931,11.931,0,0,1,.266,2.579v8.968h-4.687v-8.844a3.541,3.541,0,0,0-.452-1.828,1.72,1.72,0,0,0-1.612-.766,3.094,3.094,0,0,0-1.359.266,2.246,2.246,0,0,0-.875.735,3.046,3.046,0,0,0-.469,1.093,5.963,5.963,0,0,0-.14,1.314v8.03h-4.689V106.7c0-.271-.009-.6-.03-1a4.022,4.022,0,0,0-.22-1.126,2.151,2.151,0,0,0-.609-.9,1.8,1.8,0,0,0-1.235-.377,2.9,2.9,0,0,0-1.468.329,2.238,2.238,0,0,0-.86.875,3.605,3.605,0,0,0-.391,1.235,10.906,10.906,0,0,0-.092,1.438v7.561h-4.687Z" transform="translate(-142.307 -92.038)"/>
      <path id="Path_2578" data-name="Path 2578" d="M183.5,112.821h-.063a4.414,4.414,0,0,1-2.079,1.75,7.178,7.178,0,0,1-2.736.53,7.055,7.055,0,0,1-2.045-.3,5.173,5.173,0,0,1-1.735-.892,4.313,4.313,0,0,1-1.187-1.469,4.481,4.481,0,0,1-.438-2.031,4.66,4.66,0,0,1,.484-2.219,4.332,4.332,0,0,1,1.313-1.5,6.517,6.517,0,0,1,1.892-.923,13.775,13.775,0,0,1,2.2-.486,21.59,21.59,0,0,1,2.282-.186c.761-.02,1.462-.031,2.11-.031a2.44,2.44,0,0,0-.892-1.984,3.216,3.216,0,0,0-2.108-.735,4.6,4.6,0,0,0-2.112.486,5.756,5.756,0,0,0-1.7,1.327l-2.5-2.562a8.587,8.587,0,0,1,3.063-1.828,10.9,10.9,0,0,1,3.626-.609,9.5,9.5,0,0,1,3.391.515,4.921,4.921,0,0,1,2.123,1.516,5.815,5.815,0,0,1,1.111,2.453,16.22,16.22,0,0,1,.312,3.36v7.718H183.5Zm-1.157-4.752q-.532,0-1.327.048a6.738,6.738,0,0,0-1.532.266,3.4,3.4,0,0,0-1.25.655,1.515,1.515,0,0,0-.515,1.218,1.341,1.341,0,0,0,.718,1.252,3.007,3.007,0,0,0,1.5.406,4.679,4.679,0,0,0,1.327-.188,3.908,3.908,0,0,0,1.141-.532,2.59,2.59,0,0,0,.8-.875,2.519,2.519,0,0,0,.3-1.25v-1Z" transform="translate(-130.907 -92.038)"/>
      <path id="Path_2579" data-name="Path 2579" d="M181.872,99.539h4.687v2.437h.061a5.759,5.759,0,0,1,1.783-2.11,4.508,4.508,0,0,1,2.592-.7c.271,0,.543.009.814.031a3.97,3.97,0,0,1,.749.124V103.6a7.437,7.437,0,0,0-.984-.234,6.644,6.644,0,0,0-1.015-.078,4.966,4.966,0,0,0-2.127.377,2.814,2.814,0,0,0-1.2,1.045,3.967,3.967,0,0,0-.546,1.612,15.366,15.366,0,0,0-.126,2.062v6.343h-4.687Z" transform="translate(-123.588 -92.038)"/>
      <path id="Path_2580" data-name="Path 2580" d="M198.933,105.179h-4.126v5.064a9.783,9.783,0,0,0,.061,1.141,2.316,2.316,0,0,0,.282.89,1.418,1.418,0,0,0,.672.578,2.96,2.96,0,0,0,1.2.2,8.231,8.231,0,0,0,.984-.079,1.67,1.67,0,0,0,.923-.36v3.906a7.093,7.093,0,0,1-1.626.377,15.4,15.4,0,0,1-1.656.092,9.035,9.035,0,0,1-2.188-.249,4.938,4.938,0,0,1-1.75-.8,3.716,3.716,0,0,1-1.172-1.421,4.845,4.845,0,0,1-.423-2.125v-7.22h-3V101.43h3v-4.5h4.689v4.5h4.126Z" transform="translate(-119.149 -93.929)"/>
    </g>
  </g>
</svg>
