<?xml version="1.0" encoding="utf-8"?>
<!-- Generator: Adobe Illustrator 17.0.0, SVG Export Plug-In . SVG Version: 6.00 Build 0)  -->
<!DOCTYPE svg PUBLIC "-//W3C//DTD SVG 1.1//EN" "http://www.w3.org/Graphics/SVG/1.1/DTD/svg11.dtd">
<svg version="1.1" id="Layer_1" xmlns="http://www.w3.org/2000/svg" xmlns:xlink="http://www.w3.org/1999/xlink" x="0px" y="0px"
	 width="1400px" height="250px" viewBox="0 0 1400 250" enable-background="new 0 0 1400 250" xml:space="preserve">
<rect id="Rectangle_14" y="58.606" fill="#304C9D" width="37.901" height="181.525"/>
<path id="Path_1594" fill="#304C9D" d="M235.964,240.127h-38.347V62.809c-0.034-2.965-0.411-5.917-1.124-8.795
	c-0.901-3.415-2.693-6.53-5.191-9.026c-3.265-3.213-7.192-5.676-11.506-7.216c-4.967-1.956-11.511-2.934-19.63-2.934
	c-8.417,0-15.258,0.978-20.523,2.934c-5.265,1.956-9.326,4.287-12.183,6.993c-2.645,2.363-4.595,5.404-5.637,8.794
	c-0.836,2.707-1.292,5.516-1.356,8.348v178.22h-38.35V55.593c0.148-4.859,0.751-9.693,1.8-14.44c1.2-6.015,4.433-12.029,9.7-18.043
	s13.011-11.205,23.234-15.572C127.078,3.179,141.215,1,159.261,1s32.183,2.179,42.41,6.538c10.227,4.367,17.898,9.557,23.011,15.572
	c5.113,6.015,8.274,12.103,9.481,18.266c1.022,4.676,1.624,9.434,1.8,14.217v184.534H235.964z"/>
<path id="Path_1595" fill="#304C9D" d="M433.582,205.387c0.037,3.565-0.343,7.123-1.133,10.6c-0.712,3.042-1.768,5.992-3.149,8.794
	c-1.588,3.014-3.644,5.756-6.092,8.125c-5.731,5.581-12.933,9.413-20.763,11.05c-8.425,1.957-16.244,1.734-23.457-0.669
	c-7.525-2.712-15.721-5.645-24.59-8.8c-8.88-3.157-17.228-5.94-25.044-8.348c-2.102-0.901-5.033-1.956-8.794-3.166
	c-3.766-1.192-5.946-1.947-6.546-2.248c-3.838-1.296-7.602-2.803-11.274-4.513c-4.04-1.892-7.709-4.489-10.836-7.671
	c-3.645-3.831-6.482-8.356-8.34-13.307c-2.257-5.56-3.386-12.553-3.389-20.978V5.959h37.905v155.663
	c0,6.015,1.278,11.054,3.835,15.118c2.429,3.934,5.656,7.316,9.472,9.926c3.897,2.623,8.15,4.674,12.629,6.092
	c4.667,1.509,8.954,3.009,12.861,4.5c6.927,2.439,14.013,4.4,21.209,5.869c5.113,0.9,8.94,0.755,11.506-0.455
	c2.582-1.239,4.363-3.699,4.736-6.538c0.673-4.1,0.975-8.252,0.9-12.406V5.959h38.352v199.428H433.582z"/>
<path id="Path_1596" fill="#304C9D" d="M631.655,181.922v7.226c-0.151,4.859-0.754,9.693-1.8,14.44
	c-1.209,6.015-4.37,12.029-9.481,18.044c-5.122,6.014-12.789,11.205-23,15.572c-10.235,4.351-24.375,6.53-42.418,6.538
	s-32.18-2.171-42.41-6.538c-10.236-4.359-17.906-9.549-23.011-15.572c-5.122-6.014-8.279-12.106-9.472-18.275
	c-1.03-4.672-1.635-9.427-1.81-14.208V55.593c0.176-4.784,0.782-9.542,1.81-14.217c1.193-6.151,4.35-12.24,9.472-18.266
	c5.122-6.026,12.792-11.217,23.011-15.572C522.765,3.179,536.901,1,554.956,1s32.194,2.179,42.418,6.538
	c10.219,4.367,17.885,9.557,23,15.572c5.115,6.015,8.275,12.029,9.481,18.043c1.045,4.747,1.648,9.581,1.8,14.44V181.922z
	 M593.303,177.422V62.363c-0.038-2.982-0.495-5.944-1.356-8.8c-1.049-3.387-2.997-6.427-5.637-8.794
	c-3.497-3.082-7.559-5.457-11.96-6.993c-5.113-1.956-12.031-2.934-20.754-2.934c-8.117,0-14.657,0.978-19.622,2.934
	c-4.315,1.538-8.242,4.001-11.505,7.216c-2.542,2.552-4.337,5.75-5.191,9.249c-0.688,2.807-1.065,5.682-1.124,8.572v119.109
	c0.057,2.89,0.434,5.764,1.124,8.571c0.85,3.5,2.646,6.7,5.191,9.249c3.258,3.223,7.186,5.69,11.505,7.224
	c4.959,1.965,11.5,2.943,19.622,2.934c8.725,0,15.643-0.978,20.754-2.934c4.403-1.532,8.465-3.908,11.96-6.993
	c2.64-2.37,4.588-5.411,5.637-8.8c0.861-2.854,1.317-5.814,1.356-8.795V177.422z"/>
<rect id="Rectangle_15" x="681.279" y="58.606" fill="#304C9D" width="37.901" height="181.525"/>
<path id="Path_1597" fill="#304C9D" d="M878.889,66.421v-4.513c-0.03-3.167-0.64-6.302-1.8-9.249c-1.376-3.393-3.541-6.41-6.315-8.8
	c-3.497-2.975-7.568-5.2-11.96-6.538c-4.959-1.647-11.199-2.474-18.721-2.48c-15.041,0-25.193,3.083-30.458,9.249
	c-5.265,6.166-7.896,13.61-7.893,22.333v109.639c0,11.437,2.708,19.933,8.125,25.49c5.405,5.569,15.481,8.351,30.227,8.348
	c15.031,0,25.258-2.931,30.681-8.794s8.128-14.211,8.117-25.044h37.905v13.086c-0.102,6.051-1.091,12.055-2.934,17.82
	c-1.956,6.467-5.791,12.407-11.506,17.82c-5.715,5.413-13.537,9.926-23.468,13.537c-9.918,3.603-22.851,5.408-38.8,5.414
	s-28.882-1.799-38.8-5.414c-9.933-3.6-17.755-8.113-23.466-13.539c-5.711-5.426-9.546-11.366-11.506-17.82
	c-1.845-5.763-2.832-11.767-2.928-17.818V55.593c-0.049-7.29,1.411-14.511,4.29-21.209c3.047-6.858,7.781-12.833,13.762-17.366
	c6.315-4.967,14.285-8.88,23.912-11.737s21.207-4.285,34.74-4.282c26.769,0,46.245,5.188,58.428,15.564
	c12.183,10.376,18.275,23.386,18.275,39.03V66.42L878.889,66.421z"/>
<rect id="Rectangle_16" x="966.414" y="58.606" fill="#304C9D" width="37.901" height="181.525"/>
<path id="Path_1598" fill="#304C9D" d="M1202.382,240.127h-38.352V62.809c-0.038-2.965-0.415-5.916-1.124-8.795
	c-0.901-3.415-2.692-6.53-5.191-9.026c-3.267-3.211-7.193-5.673-11.506-7.216c-4.967-1.956-11.511-2.934-19.63-2.934
	c-8.425,0-15.266,0.978-20.523,2.934c-5.267,1.957-9.328,4.288-12.183,6.993c-2.647,2.363-4.599,5.403-5.645,8.794
	c-0.831,2.708-1.288,5.516-1.356,8.348v178.22h-38.351V55.593c0.148-4.86,0.754-9.694,1.81-14.44c1.2-6.015,4.433-12.029,9.7-18.043
	s13.014-11.205,23.242-15.572C1093.492,3.179,1107.628,1,1125.683,1c18.043,0,32.18,2.179,42.41,6.538
	c10.219,4.367,17.889,9.557,23.011,15.572s8.282,12.103,9.481,18.266c1.017,4.677,1.62,9.434,1.8,14.217v184.534H1202.382z"/>
<path id="Path_1599" fill="#304C9D" d="M1399.999,181.922v7.226c-0.147,4.859-0.75,9.694-1.8,14.44
	c-1.21,6.015-4.37,12.029-9.481,18.044c-5.111,6.015-12.777,11.205-23,15.572c-10.236,4.351-24.376,6.53-42.419,6.538
	s-32.18-2.171-42.41-6.538c-10.227-4.359-17.9-9.549-23.019-15.572c-5.105-6.014-8.26-12.106-9.464-18.275
	c-1.03-4.672-1.635-9.427-1.81-14.208V55.593c0.176-4.784,0.782-9.542,1.81-14.217c1.2-6.151,4.355-12.24,9.464-18.266
	c5.122-6.023,12.795-11.214,23.019-15.572c10.224-4.358,24.361-6.537,42.41-6.538c18.052,0,32.192,2.179,42.419,6.538
	c10.227,4.359,17.894,9.549,23,15.572c5.113,6.023,8.274,12.038,9.481,18.043c1.049,4.747,1.652,9.581,1.8,14.44V181.922z
	 M1361.647,177.422V62.363c-0.043-2.982-0.499-5.944-1.356-8.8c-1.046-3.389-2.995-6.429-5.637-8.794
	c-3.496-3.084-7.558-5.459-11.96-6.993c-5.122-1.956-12.04-2.934-20.755-2.934c-8.117,0-14.657,0.978-19.622,2.934
	c-4.316,1.543-8.244,4.005-11.514,7.216c-2.536,2.555-4.328,5.752-5.182,9.249c-0.688,2.807-1.065,5.682-1.124,8.572v119.109
	c0.057,2.89,0.434,5.764,1.124,8.571c0.85,3.498,2.643,6.697,5.182,9.249c3.265,3.22,7.195,5.685,11.514,7.224
	c4.959,1.965,11.5,2.943,19.622,2.934c8.725,0,15.644-0.978,20.755-2.934c4.404-1.53,8.467-3.906,11.96-6.993
	c2.642-2.368,4.591-5.41,5.637-8.8c0.857-2.855,1.313-5.815,1.356-8.795V177.422z"/>
<rect x="681.279" y="3.344" fill="#F04381" width="37.901" height="45.572"/>
<rect x="966.279" y="3.344" fill="#F04381" width="37.901" height="45.572"/>
<rect y="3.344" fill="#F04381" width="37.901" height="45.572"/>
</svg>
